%TF.GenerationSoftware,Altium Limited,Altium Designer,19.1.5 (86)*%
G04 Layer_Color=16711935*
%FSLAX26Y26*%
%MOIN*%
%TF.FileFunction,Other,Mechanical_1*%
%TF.Part,Single*%
G01*
G75*
%TA.AperFunction,NonConductor*%
%ADD51C,0.005000*%
D51*
X2832990Y3650000D02*
G03*
X2832990Y3650000I-62990J0D01*
G01*
X4532990Y1650000D02*
G03*
X4532990Y1650000I-62990J0D01*
G01*
X4732990Y3700000D02*
G03*
X4732990Y3700000I-62990J0D01*
G01*
X3432990Y1650000D02*
G03*
X3432990Y1650000I-62990J0D01*
G01*
X2832990Y700000D02*
G03*
X2832990Y700000I-62990J0D01*
G01*
X4732990Y450000D02*
G03*
X4732990Y450000I-62990J0D01*
G01*
X4280000Y4250000D02*
Y4330000D01*
X4650000D01*
Y4250000D02*
Y4330000D01*
X3490000Y4250000D02*
Y4500000D01*
X3040000D02*
X3490000D01*
X3040000Y4250000D02*
Y4500000D01*
X4770000Y350000D02*
Y4250000D01*
X4720000Y350000D02*
X4770000D01*
X4620000Y250000D02*
X4720000Y350000D01*
X3270000Y250000D02*
X4620000D01*
X3170000Y350000D02*
X3270000Y250000D01*
X2770000Y350000D02*
X3170000D01*
X2670000Y450000D02*
X2770000Y350000D01*
X2670000Y450000D02*
Y4250000D01*
X4770000D01*
%TF.MD5,89d5c504192881dc86148ec0107c52a6*%
M02*
