%TF.GenerationSoftware,Altium Limited,Altium Designer,19.1.5 (86)*%
G04 Layer_Color=2752767*
%FSLAX26Y26*%
%MOIN*%
%TF.FileFunction,Drawing*%
%TF.Part,Single*%
G01*
G75*
%TA.AperFunction,NonConductor*%
%ADD51C,0.005000*%
%ADD108C,0.006667*%
D51*
X5781669Y1800370D02*
Y1840370D01*
X5821669D01*
Y1800370D01*
X5781669D01*
Y1600370D02*
Y1640370D01*
X5821669D01*
Y1600370D01*
X5781669D01*
Y2200370D02*
Y2240370D01*
X5821669D01*
Y2200370D01*
X5781669D01*
Y2000370D02*
Y2040370D01*
X5821669D01*
Y2000370D01*
X5781669D01*
X5780000Y2600000D02*
Y2640000D01*
X5820000D01*
Y2600000D01*
X5780000D01*
Y2400000D02*
Y2440000D01*
X5820000D01*
Y2400000D01*
X5780000D01*
Y3000000D02*
Y3040000D01*
X5820000D01*
Y3000000D01*
X5780000D01*
Y2800000D02*
Y2840000D01*
X5820000D01*
Y2800000D01*
X5780000D01*
Y3400000D02*
Y3440000D01*
X5820000D01*
Y3400000D01*
X5780000D01*
Y3200000D02*
Y3240000D01*
X5820000D01*
Y3200000D01*
X5780000D01*
Y3800000D02*
Y3840000D01*
X5820000D01*
Y3800000D01*
X5780000D01*
Y3600000D02*
Y3640000D01*
X5820000D01*
Y3600000D01*
X5780000D01*
X5791669Y5000370D02*
Y5040370D01*
X5831669D01*
Y5000370D01*
X5791669D01*
Y5200370D02*
Y5240370D01*
X5831669D01*
Y5200370D01*
X5791669D01*
X5810000Y4720000D02*
Y4760000D01*
X5850000D01*
Y4720000D01*
X5810000D01*
Y4520000D02*
Y4560000D01*
X5850000D01*
Y4520000D01*
X5810000D01*
Y4120000D02*
Y4160000D01*
X5850000D01*
Y4120000D01*
X5810000D01*
Y4320000D02*
Y4360000D01*
X5850000D01*
Y4320000D01*
X5810000D01*
X5207637Y2568661D02*
X5187637Y2608661D01*
X5227637D01*
X5207637Y2568661D01*
Y2051339D02*
X5187637Y2091339D01*
X5227637D01*
X5207637Y2051339D01*
X5207640Y3328661D02*
X5187640Y3368661D01*
X5227640D01*
X5207640Y3328661D01*
Y2811339D02*
X5187640Y2851339D01*
X5227640D01*
X5207640Y2811339D01*
X5790000Y630000D02*
Y670000D01*
X5830000D01*
Y630000D01*
X5790000D01*
Y430000D02*
Y470000D01*
X5830000D01*
Y430000D01*
X5790000D01*
Y230000D02*
Y270000D01*
X5830000D01*
Y230000D01*
X5790000D01*
X4810000Y5150000D02*
Y5190000D01*
X4850000D01*
Y5150000D01*
X4810000D01*
X4610000D02*
Y5190000D01*
X4650000D01*
Y5150000D01*
X4610000D01*
X4410000D02*
Y5190000D01*
X4450000D01*
Y5150000D01*
X4410000D01*
X4010000D02*
Y5190000D01*
X4050000D01*
Y5150000D01*
X4010000D01*
X4210000D02*
Y5190000D01*
X4250000D01*
Y5150000D01*
X4210000D01*
X4930000Y3090000D02*
X4940000Y3100000D01*
X4950000D01*
X4940000Y3110000D01*
X4950000Y3120000D01*
X4940000D01*
X4930000Y3130000D01*
X4920000Y3120000D01*
X4910000D01*
X4920000Y3110000D01*
X4910000Y3100000D01*
X4920000D01*
X4930000Y3090000D01*
Y3040000D02*
X4940000Y3050000D01*
X4950000D01*
X4940000Y3060000D01*
X4950000Y3070000D01*
X4940000D01*
X4930000Y3080000D01*
X4920000Y3070000D01*
X4910000D01*
X4920000Y3060000D01*
X4910000Y3050000D01*
X4920000D01*
X4930000Y3040000D01*
X5790000Y1310000D02*
Y1350000D01*
X5830000D01*
Y1310000D01*
X5790000D01*
Y1110000D02*
Y1150000D01*
X5830000D01*
Y1110000D01*
X5790000D01*
Y910000D02*
Y950000D01*
X5830000D01*
Y910000D01*
X5790000D01*
X2630000Y5150000D02*
Y5190000D01*
X2670000D01*
Y5150000D01*
X2630000D01*
X2430000D02*
Y5190000D01*
X2470000D01*
Y5150000D01*
X2430000D01*
X2230000D02*
Y5190000D01*
X2270000D01*
Y5150000D01*
X2230000D01*
X1830000D02*
Y5190000D01*
X1870000D01*
Y5150000D01*
X1830000D01*
X2030000D02*
Y5190000D01*
X2070000D01*
Y5150000D01*
X2030000D01*
X3720000D02*
Y5190000D01*
X3760000D01*
Y5150000D01*
X3720000D01*
X3520000D02*
Y5190000D01*
X3560000D01*
Y5150000D01*
X3520000D01*
X3320000D02*
Y5190000D01*
X3360000D01*
Y5150000D01*
X3320000D01*
X2920000D02*
Y5190000D01*
X2960000D01*
Y5150000D01*
X2920000D01*
X3120000D02*
Y5190000D01*
X3160000D01*
Y5150000D01*
X3120000D01*
X1410000Y3750000D02*
X1420000Y3770000D01*
X1410000Y3790000D01*
X1430000Y3780000D01*
X1450000Y3790000D01*
X1440000Y3770000D01*
X1450000Y3750000D01*
X1430000Y3760000D01*
X1410000Y3750000D01*
Y3887795D02*
X1420000Y3907795D01*
X1410000Y3927795D01*
X1430000Y3917795D01*
X1450000Y3927795D01*
X1440000Y3907795D01*
X1450000Y3887795D01*
X1430000Y3897795D01*
X1410000Y3887795D01*
Y4892205D02*
Y4882205D01*
X1430000D01*
Y4892205D01*
X1440000D01*
Y4912205D01*
X1430000D01*
Y4922205D01*
X1410000D01*
Y4912205D01*
X1400000D01*
Y4892205D01*
X1410000D01*
Y5030000D02*
Y5020000D01*
X1430000D01*
Y5030000D01*
X1440000D01*
Y5050000D01*
X1430000D01*
Y5060000D01*
X1410000D01*
Y5050000D01*
X1400000D01*
Y5030000D01*
X1410000D01*
X1410000Y1943465D02*
X1420000Y1963465D01*
X1410000Y1983465D01*
X1430000Y1973465D01*
X1450000Y1983465D01*
X1440000Y1963465D01*
X1450000Y1943465D01*
X1430000Y1953465D01*
X1410000Y1943465D01*
Y2081260D02*
X1420000Y2101260D01*
X1410000Y2121260D01*
X1430000Y2111260D01*
X1450000Y2121260D01*
X1440000Y2101260D01*
X1450000Y2081260D01*
X1430000Y2091260D01*
X1410000Y2081260D01*
Y3085669D02*
Y3075669D01*
X1430000D01*
Y3085669D01*
X1440000D01*
Y3105669D01*
X1430000D01*
Y3115669D01*
X1410000D01*
Y3105669D01*
X1400000D01*
Y3085669D01*
X1410000D01*
Y3223465D02*
Y3213465D01*
X1430000D01*
Y3223465D01*
X1440000D01*
Y3243465D01*
X1430000D01*
Y3253465D01*
X1410000D01*
Y3243465D01*
X1400000D01*
Y3223465D01*
X1410000D01*
X178331Y2493095D02*
Y2533095D01*
X218331D01*
Y2493095D01*
X178331D01*
Y2693095D02*
Y2733095D01*
X218331D01*
Y2693095D01*
X178331D01*
X178331Y4299630D02*
Y4339630D01*
X218331D01*
Y4299630D01*
X178331D01*
Y4499630D02*
Y4539630D01*
X218331D01*
Y4499630D01*
X178331D01*
X1410000Y1440000D02*
Y1430000D01*
X1430000D01*
Y1440000D01*
X1440000D01*
Y1460000D01*
X1430000D01*
Y1470000D01*
X1410000D01*
Y1460000D01*
X1400000D01*
Y1440000D01*
X1410000D01*
Y1302205D02*
Y1292205D01*
X1430000D01*
Y1302205D01*
X1440000D01*
Y1322205D01*
X1430000D01*
Y1332205D01*
X1410000D01*
Y1322205D01*
X1400000D01*
Y1302205D01*
X1410000D01*
Y297795D02*
X1420000Y317795D01*
X1410000Y337795D01*
X1430000Y327795D01*
X1450000Y337795D01*
X1440000Y317795D01*
X1450000Y297795D01*
X1430000Y307795D01*
X1410000Y297795D01*
Y160000D02*
X1420000Y180000D01*
X1410000Y200000D01*
X1430000Y190000D01*
X1450000Y200000D01*
X1440000Y180000D01*
X1450000Y160000D01*
X1430000Y170000D01*
X1410000Y160000D01*
X4645000Y3677000D02*
X4655000D01*
X4665000Y3687000D01*
X4675000Y3677000D01*
X4685000D01*
Y3687000D01*
X4675000Y3697000D01*
X4685000Y3707000D01*
Y3717000D01*
X4675000D01*
X4665000Y3707000D01*
X4655000Y3717000D01*
X4645000D01*
Y3707000D01*
X4655000Y3697000D01*
X4645000Y3687000D01*
Y3677000D01*
X5355500Y1016000D02*
X5365500D01*
X5375500Y1026000D01*
X5385500Y1016000D01*
X5395500D01*
Y1026000D01*
X5385500Y1036000D01*
X5395500Y1046000D01*
Y1056000D01*
X5385500D01*
X5375500Y1046000D01*
X5365500Y1056000D01*
X5355500D01*
Y1046000D01*
X5365500Y1036000D01*
X5355500Y1026000D01*
Y1016000D01*
X2269500Y2713500D02*
X2279500D01*
X2289500Y2723500D01*
X2299500Y2713500D01*
X2309500D01*
Y2723500D01*
X2299500Y2733500D01*
X2309500Y2743500D01*
Y2753500D01*
X2299500D01*
X2289500Y2743500D01*
X2279500Y2753500D01*
X2269500D01*
Y2743500D01*
X2279500Y2733500D01*
X2269500Y2723500D01*
Y2713500D01*
X178331Y909630D02*
Y949630D01*
X218331D01*
Y909630D01*
X178331D01*
Y709630D02*
Y749630D01*
X218331D01*
Y709630D01*
X178331D01*
X4450000Y530000D02*
X4460000Y550000D01*
X4450000Y570000D01*
X4470000Y560000D01*
X4490000Y570000D01*
X4480000Y550000D01*
X4490000Y530000D01*
X4470000Y540000D01*
X4450000Y530000D01*
Y430000D02*
X4460000Y450000D01*
X4450000Y470000D01*
X4470000Y460000D01*
X4490000Y470000D01*
X4480000Y450000D01*
X4490000Y430000D01*
X4470000Y440000D01*
X4450000Y430000D01*
X4350000Y530000D02*
X4360000Y550000D01*
X4350000Y570000D01*
X4370000Y560000D01*
X4390000Y570000D01*
X4380000Y550000D01*
X4390000Y530000D01*
X4370000Y540000D01*
X4350000Y530000D01*
Y430000D02*
X4360000Y450000D01*
X4350000Y470000D01*
X4370000Y460000D01*
X4390000Y470000D01*
X4380000Y450000D01*
X4390000Y430000D01*
X4370000Y440000D01*
X4350000Y430000D01*
X4250000Y530000D02*
X4260000Y550000D01*
X4250000Y570000D01*
X4270000Y560000D01*
X4290000Y570000D01*
X4280000Y550000D01*
X4290000Y530000D01*
X4270000Y540000D01*
X4250000Y530000D01*
Y430000D02*
X4260000Y450000D01*
X4250000Y470000D01*
X4270000Y460000D01*
X4290000Y470000D01*
X4280000Y450000D01*
X4290000Y430000D01*
X4270000Y440000D01*
X4250000Y430000D01*
X4150000Y530000D02*
X4160000Y550000D01*
X4150000Y570000D01*
X4170000Y560000D01*
X4190000Y570000D01*
X4180000Y550000D01*
X4190000Y530000D01*
X4170000Y540000D01*
X4150000Y530000D01*
Y430000D02*
X4160000Y450000D01*
X4150000Y470000D01*
X4170000Y460000D01*
X4190000Y470000D01*
X4180000Y450000D01*
X4190000Y430000D01*
X4170000Y440000D01*
X4150000Y430000D01*
X4050000Y530000D02*
X4060000Y550000D01*
X4050000Y570000D01*
X4070000Y560000D01*
X4090000Y570000D01*
X4080000Y550000D01*
X4090000Y530000D01*
X4070000Y540000D01*
X4050000Y530000D01*
Y430000D02*
X4060000Y450000D01*
X4050000Y470000D01*
X4070000Y460000D01*
X4090000Y470000D01*
X4080000Y450000D01*
X4090000Y430000D01*
X4070000Y440000D01*
X4050000Y430000D01*
X3950000Y530000D02*
X3960000Y550000D01*
X3950000Y570000D01*
X3970000Y560000D01*
X3990000Y570000D01*
X3980000Y550000D01*
X3990000Y530000D01*
X3970000Y540000D01*
X3950000Y530000D01*
Y430000D02*
X3960000Y450000D01*
X3950000Y470000D01*
X3970000Y460000D01*
X3990000Y470000D01*
X3980000Y450000D01*
X3990000Y430000D01*
X3970000Y440000D01*
X3950000Y430000D01*
X3850000Y530000D02*
X3860000Y550000D01*
X3850000Y570000D01*
X3870000Y560000D01*
X3890000Y570000D01*
X3880000Y550000D01*
X3890000Y530000D01*
X3870000Y540000D01*
X3850000Y530000D01*
Y430000D02*
X3860000Y450000D01*
X3850000Y470000D01*
X3870000Y460000D01*
X3890000Y470000D01*
X3880000Y450000D01*
X3890000Y430000D01*
X3870000Y440000D01*
X3850000Y430000D01*
X3750000Y530000D02*
X3760000Y550000D01*
X3750000Y570000D01*
X3770000Y560000D01*
X3790000Y570000D01*
X3780000Y550000D01*
X3790000Y530000D01*
X3770000Y540000D01*
X3750000Y530000D01*
Y430000D02*
X3760000Y450000D01*
X3750000Y470000D01*
X3770000Y460000D01*
X3790000Y470000D01*
X3780000Y450000D01*
X3790000Y430000D01*
X3770000Y440000D01*
X3750000Y430000D01*
X3650000D02*
X3660000Y450000D01*
X3650000Y470000D01*
X3670000Y460000D01*
X3690000Y470000D01*
X3680000Y450000D01*
X3690000Y430000D01*
X3670000Y440000D01*
X3650000Y430000D01*
Y530000D02*
X3660000Y550000D01*
X3650000Y570000D01*
X3670000Y560000D01*
X3690000Y570000D01*
X3680000Y550000D01*
X3690000Y530000D01*
X3670000Y540000D01*
X3650000Y530000D01*
X3550000D02*
X3560000Y550000D01*
X3550000Y570000D01*
X3570000Y560000D01*
X3590000Y570000D01*
X3580000Y550000D01*
X3590000Y530000D01*
X3570000Y540000D01*
X3550000Y530000D01*
Y430000D02*
X3560000Y450000D01*
X3550000Y470000D01*
X3570000Y460000D01*
X3590000Y470000D01*
X3580000Y450000D01*
X3590000Y430000D01*
X3570000Y440000D01*
X3550000Y430000D01*
X3450000Y530000D02*
X3460000Y550000D01*
X3450000Y570000D01*
X3470000Y560000D01*
X3490000Y570000D01*
X3480000Y550000D01*
X3490000Y530000D01*
X3470000Y540000D01*
X3450000Y530000D01*
Y430000D02*
X3460000Y450000D01*
X3450000Y470000D01*
X3470000Y460000D01*
X3490000Y470000D01*
X3480000Y450000D01*
X3490000Y430000D01*
X3470000Y440000D01*
X3450000Y430000D01*
X3350000Y530000D02*
X3360000Y550000D01*
X3350000Y570000D01*
X3370000Y560000D01*
X3390000Y570000D01*
X3380000Y550000D01*
X3390000Y530000D01*
X3370000Y540000D01*
X3350000Y530000D01*
Y430000D02*
X3360000Y450000D01*
X3350000Y470000D01*
X3370000Y460000D01*
X3390000Y470000D01*
X3380000Y450000D01*
X3390000Y430000D01*
X3370000Y440000D01*
X3350000Y430000D01*
X3250000Y530000D02*
X3260000Y550000D01*
X3250000Y570000D01*
X3270000Y560000D01*
X3290000Y570000D01*
X3280000Y550000D01*
X3290000Y530000D01*
X3270000Y540000D01*
X3250000Y530000D01*
Y430000D02*
X3260000Y450000D01*
X3250000Y470000D01*
X3270000Y460000D01*
X3290000Y470000D01*
X3280000Y450000D01*
X3290000Y430000D01*
X3270000Y440000D01*
X3250000Y430000D01*
X3150000Y530000D02*
X3160000Y550000D01*
X3150000Y570000D01*
X3170000Y560000D01*
X3190000Y570000D01*
X3180000Y550000D01*
X3190000Y530000D01*
X3170000Y540000D01*
X3150000Y530000D01*
Y430000D02*
X3160000Y450000D01*
X3150000Y470000D01*
X3170000Y460000D01*
X3190000Y470000D01*
X3180000Y450000D01*
X3190000Y430000D01*
X3170000Y440000D01*
X3150000Y430000D01*
X3050000Y530000D02*
X3060000Y550000D01*
X3050000Y570000D01*
X3070000Y560000D01*
X3090000Y570000D01*
X3080000Y550000D01*
X3090000Y530000D01*
X3070000Y540000D01*
X3050000Y530000D01*
Y430000D02*
X3060000Y450000D01*
X3050000Y470000D01*
X3070000Y460000D01*
X3090000Y470000D01*
X3080000Y450000D01*
X3090000Y430000D01*
X3070000Y440000D01*
X3050000Y430000D01*
X2950000Y530000D02*
X2960000Y550000D01*
X2950000Y570000D01*
X2970000Y560000D01*
X2990000Y570000D01*
X2980000Y550000D01*
X2990000Y530000D01*
X2970000Y540000D01*
X2950000Y530000D01*
Y430000D02*
X2960000Y450000D01*
X2950000Y470000D01*
X2970000Y460000D01*
X2990000Y470000D01*
X2980000Y450000D01*
X2990000Y430000D01*
X2970000Y440000D01*
X2950000Y430000D01*
X2850000Y530000D02*
X2860000Y550000D01*
X2850000Y570000D01*
X2870000Y560000D01*
X2890000Y570000D01*
X2880000Y550000D01*
X2890000Y530000D01*
X2870000Y540000D01*
X2850000Y530000D01*
Y430000D02*
X2860000Y450000D01*
X2850000Y470000D01*
X2870000Y460000D01*
X2890000Y470000D01*
X2880000Y450000D01*
X2890000Y430000D01*
X2870000Y440000D01*
X2850000Y430000D01*
X2750000Y530000D02*
X2760000Y550000D01*
X2750000Y570000D01*
X2770000Y560000D01*
X2790000Y570000D01*
X2780000Y550000D01*
X2790000Y530000D01*
X2770000Y540000D01*
X2750000Y530000D01*
Y430000D02*
X2760000Y450000D01*
X2750000Y470000D01*
X2770000Y460000D01*
X2790000Y470000D01*
X2780000Y450000D01*
X2790000Y430000D01*
X2770000Y440000D01*
X2750000Y430000D01*
X4650000Y1130000D02*
X4660000Y1150000D01*
X4650000Y1170000D01*
X4670000Y1160000D01*
X4690000Y1170000D01*
X4680000Y1150000D01*
X4690000Y1130000D01*
X4670000Y1140000D01*
X4650000Y1130000D01*
Y1230000D02*
X4660000Y1250000D01*
X4650000Y1270000D01*
X4670000Y1260000D01*
X4690000Y1270000D01*
X4680000Y1250000D01*
X4690000Y1230000D01*
X4670000Y1240000D01*
X4650000Y1230000D01*
Y630000D02*
X4660000Y650000D01*
X4650000Y670000D01*
X4670000Y660000D01*
X4690000Y670000D01*
X4680000Y650000D01*
X4690000Y630000D01*
X4670000Y640000D01*
X4650000Y630000D01*
Y730000D02*
X4660000Y750000D01*
X4650000Y770000D01*
X4670000Y760000D01*
X4690000Y770000D01*
X4680000Y750000D01*
X4690000Y730000D01*
X4670000Y740000D01*
X4650000Y730000D01*
Y830000D02*
X4660000Y850000D01*
X4650000Y870000D01*
X4670000Y860000D01*
X4690000Y870000D01*
X4680000Y850000D01*
X4690000Y830000D01*
X4670000Y840000D01*
X4650000Y830000D01*
Y930000D02*
X4660000Y950000D01*
X4650000Y970000D01*
X4670000Y960000D01*
X4690000Y970000D01*
X4680000Y950000D01*
X4690000Y930000D01*
X4670000Y940000D01*
X4650000Y930000D01*
Y1030000D02*
X4660000Y1050000D01*
X4650000Y1070000D01*
X4670000Y1060000D01*
X4690000Y1070000D01*
X4680000Y1050000D01*
X4690000Y1030000D01*
X4670000Y1040000D01*
X4650000Y1030000D01*
Y1330000D02*
X4660000Y1350000D01*
X4650000Y1370000D01*
X4670000Y1360000D01*
X4690000Y1370000D01*
X4680000Y1350000D01*
X4690000Y1330000D01*
X4670000Y1340000D01*
X4650000Y1330000D01*
X2750000Y1030000D02*
X2760000Y1050000D01*
X2750000Y1070000D01*
X2770000Y1060000D01*
X2790000Y1070000D01*
X2780000Y1050000D01*
X2790000Y1030000D01*
X2770000Y1040000D01*
X2750000Y1030000D01*
Y930000D02*
X2760000Y950000D01*
X2750000Y970000D01*
X2770000Y960000D01*
X2790000Y970000D01*
X2780000Y950000D01*
X2790000Y930000D01*
X2770000Y940000D01*
X2750000Y930000D01*
Y1530000D02*
X2760000Y1550000D01*
X2750000Y1570000D01*
X2770000Y1560000D01*
X2790000Y1570000D01*
X2780000Y1550000D01*
X2790000Y1530000D01*
X2770000Y1540000D01*
X2750000Y1530000D01*
Y1430000D02*
X2760000Y1450000D01*
X2750000Y1470000D01*
X2770000Y1460000D01*
X2790000Y1470000D01*
X2780000Y1450000D01*
X2790000Y1430000D01*
X2770000Y1440000D01*
X2750000Y1430000D01*
Y1330000D02*
X2760000Y1350000D01*
X2750000Y1370000D01*
X2770000Y1360000D01*
X2790000Y1370000D01*
X2780000Y1350000D01*
X2790000Y1330000D01*
X2770000Y1340000D01*
X2750000Y1330000D01*
Y1230000D02*
X2760000Y1250000D01*
X2750000Y1270000D01*
X2770000Y1260000D01*
X2790000Y1270000D01*
X2780000Y1250000D01*
X2790000Y1230000D01*
X2770000Y1240000D01*
X2750000Y1230000D01*
Y1130000D02*
X2760000Y1150000D01*
X2750000Y1170000D01*
X2770000Y1160000D01*
X2790000Y1170000D01*
X2780000Y1150000D01*
X2790000Y1130000D01*
X2770000Y1140000D01*
X2750000Y1130000D01*
Y830000D02*
X2760000Y850000D01*
X2750000Y870000D01*
X2770000Y860000D01*
X2790000Y870000D01*
X2780000Y850000D01*
X2790000Y830000D01*
X2770000Y840000D01*
X2750000Y830000D01*
X3750000Y1625000D02*
X3760000Y1645000D01*
X3750000Y1665000D01*
X3770000Y1655000D01*
X3790000Y1665000D01*
X3780000Y1645000D01*
X3790000Y1625000D01*
X3770000Y1635000D01*
X3750000Y1625000D01*
Y1725000D02*
X3760000Y1745000D01*
X3750000Y1765000D01*
X3770000Y1755000D01*
X3790000Y1765000D01*
X3780000Y1745000D01*
X3790000Y1725000D01*
X3770000Y1735000D01*
X3750000Y1725000D01*
X3650000Y1625000D02*
X3660000Y1645000D01*
X3650000Y1665000D01*
X3670000Y1655000D01*
X3690000Y1665000D01*
X3680000Y1645000D01*
X3690000Y1625000D01*
X3670000Y1635000D01*
X3650000Y1625000D01*
Y1725000D02*
X3660000Y1745000D01*
X3650000Y1765000D01*
X3670000Y1755000D01*
X3690000Y1765000D01*
X3680000Y1745000D01*
X3690000Y1725000D01*
X3670000Y1735000D01*
X3650000Y1725000D01*
X3550000Y1625000D02*
X3560000Y1645000D01*
X3550000Y1665000D01*
X3570000Y1655000D01*
X3590000Y1665000D01*
X3580000Y1645000D01*
X3590000Y1625000D01*
X3570000Y1635000D01*
X3550000Y1625000D01*
Y1725000D02*
X3560000Y1745000D01*
X3550000Y1765000D01*
X3570000Y1755000D01*
X3590000Y1765000D01*
X3580000Y1745000D01*
X3590000Y1725000D01*
X3570000Y1735000D01*
X3550000Y1725000D01*
X4650000Y2030000D02*
X4660000Y2050000D01*
X4650000Y2070000D01*
X4670000Y2060000D01*
X4690000Y2070000D01*
X4680000Y2050000D01*
X4690000Y2030000D01*
X4670000Y2040000D01*
X4650000Y2030000D01*
Y2130000D02*
X4660000Y2150000D01*
X4650000Y2170000D01*
X4670000Y2160000D01*
X4690000Y2170000D01*
X4680000Y2150000D01*
X4690000Y2130000D01*
X4670000Y2140000D01*
X4650000Y2130000D01*
Y1530000D02*
X4660000Y1550000D01*
X4650000Y1570000D01*
X4670000Y1560000D01*
X4690000Y1570000D01*
X4680000Y1550000D01*
X4690000Y1530000D01*
X4670000Y1540000D01*
X4650000Y1530000D01*
Y1630000D02*
X4660000Y1650000D01*
X4650000Y1670000D01*
X4670000Y1660000D01*
X4690000Y1670000D01*
X4680000Y1650000D01*
X4690000Y1630000D01*
X4670000Y1640000D01*
X4650000Y1630000D01*
Y1730000D02*
X4660000Y1750000D01*
X4650000Y1770000D01*
X4670000Y1760000D01*
X4690000Y1770000D01*
X4680000Y1750000D01*
X4690000Y1730000D01*
X4670000Y1740000D01*
X4650000Y1730000D01*
Y1830000D02*
X4660000Y1850000D01*
X4650000Y1870000D01*
X4670000Y1860000D01*
X4690000Y1870000D01*
X4680000Y1850000D01*
X4690000Y1830000D01*
X4670000Y1840000D01*
X4650000Y1830000D01*
Y1930000D02*
X4660000Y1950000D01*
X4650000Y1970000D01*
X4670000Y1960000D01*
X4690000Y1970000D01*
X4680000Y1950000D01*
X4690000Y1930000D01*
X4670000Y1940000D01*
X4650000Y1930000D01*
Y2230000D02*
X4660000Y2250000D01*
X4650000Y2270000D01*
X4670000Y2260000D01*
X4690000Y2270000D01*
X4680000Y2250000D01*
X4690000Y2230000D01*
X4670000Y2240000D01*
X4650000Y2230000D01*
X2750000Y1930000D02*
X2760000Y1950000D01*
X2750000Y1970000D01*
X2770000Y1960000D01*
X2790000Y1970000D01*
X2780000Y1950000D01*
X2790000Y1930000D01*
X2770000Y1940000D01*
X2750000Y1930000D01*
Y1830000D02*
X2760000Y1850000D01*
X2750000Y1870000D01*
X2770000Y1860000D01*
X2790000Y1870000D01*
X2780000Y1850000D01*
X2790000Y1830000D01*
X2770000Y1840000D01*
X2750000Y1830000D01*
Y2430000D02*
X2760000Y2450000D01*
X2750000Y2470000D01*
X2770000Y2460000D01*
X2790000Y2470000D01*
X2780000Y2450000D01*
X2790000Y2430000D01*
X2770000Y2440000D01*
X2750000Y2430000D01*
Y2330000D02*
X2760000Y2350000D01*
X2750000Y2370000D01*
X2770000Y2360000D01*
X2790000Y2370000D01*
X2780000Y2350000D01*
X2790000Y2330000D01*
X2770000Y2340000D01*
X2750000Y2330000D01*
Y2230000D02*
X2760000Y2250000D01*
X2750000Y2270000D01*
X2770000Y2260000D01*
X2790000Y2270000D01*
X2780000Y2250000D01*
X2790000Y2230000D01*
X2770000Y2240000D01*
X2750000Y2230000D01*
Y2130000D02*
X2760000Y2150000D01*
X2750000Y2170000D01*
X2770000Y2160000D01*
X2790000Y2170000D01*
X2780000Y2150000D01*
X2790000Y2130000D01*
X2770000Y2140000D01*
X2750000Y2130000D01*
Y2030000D02*
X2760000Y2050000D01*
X2750000Y2070000D01*
X2770000Y2060000D01*
X2790000Y2070000D01*
X2780000Y2050000D01*
X2790000Y2030000D01*
X2770000Y2040000D01*
X2750000Y2030000D01*
Y1730000D02*
X2760000Y1750000D01*
X2750000Y1770000D01*
X2770000Y1760000D01*
X2790000Y1770000D01*
X2780000Y1750000D01*
X2790000Y1730000D01*
X2770000Y1740000D01*
X2750000Y1730000D01*
X4650000Y2430000D02*
X4660000Y2450000D01*
X4650000Y2470000D01*
X4670000Y2460000D01*
X4690000Y2470000D01*
X4680000Y2450000D01*
X4690000Y2430000D01*
X4670000Y2440000D01*
X4650000Y2430000D01*
Y2530000D02*
X4660000Y2550000D01*
X4650000Y2570000D01*
X4670000Y2560000D01*
X4690000Y2570000D01*
X4680000Y2550000D01*
X4690000Y2530000D01*
X4670000Y2540000D01*
X4650000Y2530000D01*
Y2630000D02*
X4660000Y2650000D01*
X4650000Y2670000D01*
X4670000Y2660000D01*
X4690000Y2670000D01*
X4680000Y2650000D01*
X4690000Y2630000D01*
X4670000Y2640000D01*
X4650000Y2630000D01*
Y2730000D02*
X4660000Y2750000D01*
X4650000Y2770000D01*
X4670000Y2760000D01*
X4690000Y2770000D01*
X4680000Y2750000D01*
X4690000Y2730000D01*
X4670000Y2740000D01*
X4650000Y2730000D01*
Y2830000D02*
X4660000Y2850000D01*
X4650000Y2870000D01*
X4670000Y2860000D01*
X4690000Y2870000D01*
X4680000Y2850000D01*
X4690000Y2830000D01*
X4670000Y2840000D01*
X4650000Y2830000D01*
Y2930000D02*
X4660000Y2950000D01*
X4650000Y2970000D01*
X4670000Y2960000D01*
X4690000Y2970000D01*
X4680000Y2950000D01*
X4690000Y2930000D01*
X4670000Y2940000D01*
X4650000Y2930000D01*
X2750000Y2790000D02*
X2760000Y2810000D01*
X2750000Y2830000D01*
X2770000Y2820000D01*
X2790000Y2830000D01*
X2780000Y2810000D01*
X2790000Y2790000D01*
X2770000Y2800000D01*
X2750000Y2790000D01*
Y2690000D02*
X2760000Y2710000D01*
X2750000Y2730000D01*
X2770000Y2720000D01*
X2790000Y2730000D01*
X2780000Y2710000D01*
X2790000Y2690000D01*
X2770000Y2700000D01*
X2750000Y2690000D01*
Y3290000D02*
X2760000Y3310000D01*
X2750000Y3330000D01*
X2770000Y3320000D01*
X2790000Y3330000D01*
X2780000Y3310000D01*
X2790000Y3290000D01*
X2770000Y3300000D01*
X2750000Y3290000D01*
Y3190000D02*
X2760000Y3210000D01*
X2750000Y3230000D01*
X2770000Y3220000D01*
X2790000Y3230000D01*
X2780000Y3210000D01*
X2790000Y3190000D01*
X2770000Y3200000D01*
X2750000Y3190000D01*
Y3090000D02*
X2760000Y3110000D01*
X2750000Y3130000D01*
X2770000Y3120000D01*
X2790000Y3130000D01*
X2780000Y3110000D01*
X2790000Y3090000D01*
X2770000Y3100000D01*
X2750000Y3090000D01*
Y2990000D02*
X2760000Y3010000D01*
X2750000Y3030000D01*
X2770000Y3020000D01*
X2790000Y3030000D01*
X2780000Y3010000D01*
X2790000Y2990000D01*
X2770000Y3000000D01*
X2750000Y2990000D01*
Y2890000D02*
X2760000Y2910000D01*
X2750000Y2930000D01*
X2770000Y2920000D01*
X2790000Y2930000D01*
X2780000Y2910000D01*
X2790000Y2890000D01*
X2770000Y2900000D01*
X2750000Y2890000D01*
Y2590000D02*
X2760000Y2610000D01*
X2750000Y2630000D01*
X2770000Y2620000D01*
X2790000Y2630000D01*
X2780000Y2610000D01*
X2790000Y2590000D01*
X2770000Y2600000D01*
X2750000Y2590000D01*
Y3650000D02*
X2770000Y3670000D01*
X2790000Y3650000D01*
X2770000Y3630000D01*
X2750000Y3650000D01*
X3350000Y1650000D02*
X3370000Y1670000D01*
X3390000Y1650000D01*
X3370000Y1630000D01*
X3350000Y1650000D01*
X4450000D02*
X4470000Y1670000D01*
X4490000Y1650000D01*
X4470000Y1630000D01*
X4450000Y1650000D01*
X4650000Y450000D02*
X4670000Y470000D01*
X4690000Y450000D01*
X4670000Y430000D01*
X4650000Y450000D01*
X2750000Y700000D02*
X2770000Y720000D01*
X2790000Y700000D01*
X2770000Y680000D01*
X2750000Y700000D01*
X4930000Y2290000D02*
X4940000Y2300000D01*
X4950000D01*
X4940000Y2310000D01*
X4950000Y2320000D01*
X4940000D01*
X4930000Y2330000D01*
X4920000Y2320000D01*
X4910000D01*
X4920000Y2310000D01*
X4910000Y2300000D01*
X4920000D01*
X4930000Y2290000D01*
Y2340000D02*
X4940000Y2350000D01*
X4950000D01*
X4940000Y2360000D01*
X4950000Y2370000D01*
X4940000D01*
X4930000Y2380000D01*
X4920000Y2370000D01*
X4910000D01*
X4920000Y2360000D01*
X4910000Y2350000D01*
X4920000D01*
X4930000Y2340000D01*
X90000Y3250000D02*
X100000Y3270000D01*
X90000Y3290000D01*
X110000Y3280000D01*
X130000Y3290000D01*
X120000Y3270000D01*
X130000Y3250000D01*
X110000Y3260000D01*
X90000Y3250000D01*
X100000Y1470000D02*
X110000Y1490000D01*
X100000Y1510000D01*
X120000Y1500000D01*
X140000Y1510000D01*
X130000Y1490000D01*
X140000Y1470000D01*
X120000Y1480000D01*
X100000Y1470000D01*
X90000Y5060000D02*
X100000Y5080000D01*
X90000Y5100000D01*
X110000Y5090000D01*
X130000Y5100000D01*
X120000Y5080000D01*
X130000Y5060000D01*
X110000Y5070000D01*
X90000Y5060000D01*
X1979134Y511969D02*
Y551968D01*
X2019134D01*
Y511969D01*
X1979134D01*
X1987134Y519968D02*
Y543968D01*
X2011134D01*
Y519968D01*
X1987134D01*
X1979134Y4101968D02*
Y4141968D01*
X2019134D01*
Y4101968D01*
X1979134D01*
X1987134Y4109968D02*
Y4133968D01*
X2011134D01*
Y4109968D01*
X1987134D01*
X1979134Y2297402D02*
Y2337402D01*
X2019134D01*
Y2297402D01*
X1979134D01*
X1987134Y2305402D02*
Y2329402D01*
X2011134D01*
Y2305402D01*
X1987134D01*
X3160000Y2010000D02*
Y2050000D01*
X3200000D01*
Y2010000D01*
X3160000D01*
X3168000Y2018000D02*
Y2042000D01*
X3192000D01*
Y2018000D01*
X3168000D01*
X3140000Y1950000D02*
Y1990000D01*
X3180000D01*
Y1950000D01*
X3140000D01*
X3148000Y1958000D02*
Y1982000D01*
X3172000D01*
Y1958000D01*
X3148000D01*
X4100000Y2330000D02*
Y2370000D01*
X4140000D01*
Y2330000D01*
X4100000D01*
X4108000Y2338000D02*
Y2362000D01*
X4132000D01*
Y2338000D01*
X4108000D01*
X4070000Y2260000D02*
Y2300000D01*
X4110000D01*
Y2260000D01*
X4070000D01*
X4078000Y2268000D02*
Y2292000D01*
X4102000D01*
Y2268000D01*
X4078000D01*
X4340000Y1880000D02*
Y1920000D01*
X4380000D01*
Y1880000D01*
X4340000D01*
X4348000Y1888000D02*
Y1912000D01*
X4372000D01*
Y1888000D01*
X4348000D01*
X4130000Y1720000D02*
Y1760000D01*
X4170000D01*
Y1720000D01*
X4130000D01*
X4138000Y1728000D02*
Y1752000D01*
X4162000D01*
Y1728000D01*
X4138000D01*
X2610000Y940000D02*
Y980000D01*
X2650000D01*
Y940000D01*
X2610000D01*
X2618000Y948000D02*
Y972000D01*
X2642000D01*
Y948000D01*
X2618000D01*
X1760000Y370000D02*
Y410000D01*
X1800000D01*
Y370000D01*
X1760000D01*
X1768000Y378000D02*
Y402000D01*
X1792000D01*
Y378000D01*
X1768000D01*
X2630000Y1000000D02*
Y1040000D01*
X2670000D01*
Y1000000D01*
X2630000D01*
X2638000Y1008000D02*
Y1032000D01*
X2662000D01*
Y1008000D01*
X2638000D01*
X2470000Y2570000D02*
Y2610000D01*
X2510000D01*
Y2570000D01*
X2470000D01*
X2478000Y2578000D02*
Y2602000D01*
X2502000D01*
Y2578000D01*
X2478000D01*
X2340000Y2510000D02*
Y2550000D01*
X2380000D01*
Y2510000D01*
X2340000D01*
X2348000Y2518000D02*
Y2542000D01*
X2372000D01*
Y2518000D01*
X2348000D01*
X1760000Y2160000D02*
Y2200000D01*
X1800000D01*
Y2160000D01*
X1760000D01*
X1768000Y2168000D02*
Y2192000D01*
X1792000D01*
Y2168000D01*
X1768000D01*
X2470000Y2680000D02*
Y2720000D01*
X2510000D01*
Y2680000D01*
X2470000D01*
X2478000Y2688000D02*
Y2712000D01*
X2502000D01*
Y2688000D01*
X2478000D01*
X2440000Y2780000D02*
Y2820000D01*
X2480000D01*
Y2780000D01*
X2440000D01*
X2448000Y2788000D02*
Y2812000D01*
X2472000D01*
Y2788000D01*
X2448000D01*
X2340000Y2570000D02*
Y2610000D01*
X2380000D01*
Y2570000D01*
X2340000D01*
X2348000Y2578000D02*
Y2602000D01*
X2372000D01*
Y2578000D01*
X2348000D01*
X2460000Y2316250D02*
Y2356250D01*
X2500000D01*
Y2316250D01*
X2460000D01*
X2468000Y2324250D02*
Y2348250D01*
X2492000D01*
Y2324250D01*
X2468000D01*
X2370000Y2410000D02*
Y2450000D01*
X2410000D01*
Y2410000D01*
X2370000D01*
X2378000Y2418000D02*
Y2442000D01*
X2402000D01*
Y2418000D01*
X2378000D01*
X2370000Y2840000D02*
Y2880000D01*
X2410000D01*
Y2840000D01*
X2370000D01*
X2378000Y2848000D02*
Y2872000D01*
X2402000D01*
Y2848000D01*
X2378000D01*
X1180000Y1470000D02*
Y1510000D01*
X1220000D01*
Y1470000D01*
X1180000D01*
X1188000Y1478000D02*
Y1502000D01*
X1212000D01*
Y1478000D01*
X1188000D01*
X1180000Y3250000D02*
Y3290000D01*
X1220000D01*
Y3250000D01*
X1180000D01*
X1188000Y3258000D02*
Y3282000D01*
X1212000D01*
Y3258000D01*
X1188000D01*
X1760000Y3970000D02*
Y4010000D01*
X1800000D01*
Y3970000D01*
X1760000D01*
X1768000Y3978000D02*
Y4002000D01*
X1792000D01*
Y3978000D01*
X1768000D01*
X4480000Y4720000D02*
Y4760000D01*
X4520000D01*
Y4720000D01*
X4480000D01*
X4488000Y4728000D02*
Y4752000D01*
X4512000D01*
Y4728000D01*
X4488000D01*
X4920000Y4830000D02*
Y4870000D01*
X4960000D01*
Y4830000D01*
X4920000D01*
X4928000Y4838000D02*
Y4862000D01*
X4952000D01*
Y4838000D01*
X4928000D01*
X1180000Y4940000D02*
Y4980000D01*
X1220000D01*
Y4940000D01*
X1180000D01*
X1188000Y4948000D02*
Y4972000D01*
X1212000D01*
Y4948000D01*
X1188000D01*
X290000Y1470000D02*
Y1510000D01*
X330000D01*
Y1470000D01*
X290000D01*
X298000Y1478000D02*
Y1502000D01*
X322000D01*
Y1478000D01*
X298000D01*
X80000Y1110000D02*
Y1150000D01*
X120000D01*
Y1110000D01*
X80000D01*
X88000Y1118000D02*
Y1142000D01*
X112000D01*
Y1118000D01*
X88000D01*
X110000Y1110000D02*
Y1150000D01*
X150000D01*
Y1110000D01*
X110000D01*
X118000Y1118000D02*
Y1142000D01*
X142000D01*
Y1118000D01*
X118000D01*
X140000Y1110000D02*
Y1150000D01*
X180000D01*
Y1110000D01*
X140000D01*
X148000Y1118000D02*
Y1142000D01*
X172000D01*
Y1118000D01*
X148000D01*
X880000Y790000D02*
Y830000D01*
X920000D01*
Y790000D01*
X880000D01*
X888000Y798000D02*
Y822000D01*
X912000D01*
Y798000D01*
X888000D01*
X900000Y810000D02*
Y850000D01*
X940000D01*
Y810000D01*
X900000D01*
X908000Y818000D02*
Y842000D01*
X932000D01*
Y818000D01*
X908000D01*
X900000Y770000D02*
Y810000D01*
X940000D01*
Y770000D01*
X900000D01*
X908000Y778000D02*
Y802000D01*
X932000D01*
Y778000D01*
X908000D01*
X920000Y790000D02*
Y830000D01*
X960000D01*
Y790000D01*
X920000D01*
X928000Y798000D02*
Y822000D01*
X952000D01*
Y798000D01*
X928000D01*
X900000Y640000D02*
Y680000D01*
X940000D01*
Y640000D01*
X900000D01*
X908000Y648000D02*
Y672000D01*
X932000D01*
Y648000D01*
X908000D01*
X1440000Y500000D02*
Y540000D01*
X1480000D01*
Y500000D01*
X1440000D01*
X1448000Y508000D02*
Y532000D01*
X1472000D01*
Y508000D01*
X1448000D01*
X500000Y750000D02*
Y790000D01*
X540000D01*
Y750000D01*
X500000D01*
X508000Y758000D02*
Y782000D01*
X532000D01*
Y758000D01*
X508000D01*
X1510000Y780000D02*
Y820000D01*
X1550000D01*
Y780000D01*
X1510000D01*
X1518000Y788000D02*
Y812000D01*
X1542000D01*
Y788000D01*
X1518000D01*
X1910000Y570000D02*
Y610000D01*
X1950000D01*
Y570000D01*
X1910000D01*
X1918000Y578000D02*
Y602000D01*
X1942000D01*
Y578000D01*
X1918000D01*
X1910000Y370000D02*
Y410000D01*
X1950000D01*
Y370000D01*
X1910000D01*
X1918000Y378000D02*
Y402000D01*
X1942000D01*
Y378000D01*
X1918000D01*
X1620000Y420000D02*
Y460000D01*
X1660000D01*
Y420000D01*
X1620000D01*
X1628000Y428000D02*
Y452000D01*
X1652000D01*
Y428000D01*
X1628000D01*
X1620000Y880000D02*
Y920000D01*
X1660000D01*
Y880000D01*
X1620000D01*
X1628000Y888000D02*
Y912000D01*
X1652000D01*
Y888000D01*
X1628000D01*
X2110000Y650000D02*
Y690000D01*
X2150000D01*
Y650000D01*
X2110000D01*
X2118000Y658000D02*
Y682000D01*
X2142000D01*
Y658000D01*
X2118000D01*
X1560000Y500000D02*
Y540000D01*
X1600000D01*
Y500000D01*
X1560000D01*
X1568000Y508000D02*
Y532000D01*
X1592000D01*
Y508000D01*
X1568000D01*
X1220000Y720000D02*
Y760000D01*
X1260000D01*
Y720000D01*
X1220000D01*
X1228000Y728000D02*
Y752000D01*
X1252000D01*
Y728000D01*
X1228000D01*
X1550000Y590000D02*
Y630000D01*
X1590000D01*
Y590000D01*
X1550000D01*
X1558000Y598000D02*
Y622000D01*
X1582000D01*
Y598000D01*
X1558000D01*
X795000Y710000D02*
Y750000D01*
X835000D01*
Y710000D01*
X795000D01*
X803000Y718000D02*
Y742000D01*
X827000D01*
Y718000D01*
X803000D01*
X1560000Y720000D02*
Y760000D01*
X1600000D01*
Y720000D01*
X1560000D01*
X1568000Y728000D02*
Y752000D01*
X1592000D01*
Y728000D01*
X1568000D01*
X790000Y1570000D02*
Y1610000D01*
X830000D01*
Y1570000D01*
X790000D01*
X798000Y1578000D02*
Y1602000D01*
X822000D01*
Y1578000D01*
X798000D01*
X1440000Y810000D02*
Y850000D01*
X1480000D01*
Y810000D01*
X1440000D01*
X1448000Y818000D02*
Y842000D01*
X1472000D01*
Y818000D01*
X1448000D01*
X170000Y1260000D02*
Y1300000D01*
X210000D01*
Y1260000D01*
X170000D01*
X178000Y1268000D02*
Y1292000D01*
X202000D01*
Y1268000D01*
X178000D01*
X2120000Y870000D02*
Y910000D01*
X2160000D01*
Y870000D01*
X2120000D01*
X2128000Y878000D02*
Y902000D01*
X2152000D01*
Y878000D01*
X2128000D01*
X1450000Y900000D02*
Y940000D01*
X1490000D01*
Y900000D01*
X1450000D01*
X1458000Y908000D02*
Y932000D01*
X1482000D01*
Y908000D01*
X1458000D01*
X1430000Y610000D02*
Y650000D01*
X1470000D01*
Y610000D01*
X1430000D01*
X1438000Y618000D02*
Y642000D01*
X1462000D01*
Y618000D01*
X1438000D01*
X80000Y4700000D02*
Y4740000D01*
X120000D01*
Y4700000D01*
X80000D01*
X88000Y4708000D02*
Y4732000D01*
X112000D01*
Y4708000D01*
X88000D01*
X110000Y4700000D02*
Y4740000D01*
X150000D01*
Y4700000D01*
X110000D01*
X118000Y4708000D02*
Y4732000D01*
X142000D01*
Y4708000D01*
X118000D01*
X140000Y4700000D02*
Y4740000D01*
X180000D01*
Y4700000D01*
X140000D01*
X148000Y4708000D02*
Y4732000D01*
X172000D01*
Y4708000D01*
X148000D01*
X880000Y4380000D02*
Y4420000D01*
X920000D01*
Y4380000D01*
X880000D01*
X888000Y4388000D02*
Y4412000D01*
X912000D01*
Y4388000D01*
X888000D01*
X900000Y4400000D02*
Y4440000D01*
X940000D01*
Y4400000D01*
X900000D01*
X908000Y4408000D02*
Y4432000D01*
X932000D01*
Y4408000D01*
X908000D01*
X900000Y4360000D02*
Y4400000D01*
X940000D01*
Y4360000D01*
X900000D01*
X908000Y4368000D02*
Y4392000D01*
X932000D01*
Y4368000D01*
X908000D01*
X920000Y4380000D02*
Y4420000D01*
X960000D01*
Y4380000D01*
X920000D01*
X928000Y4388000D02*
Y4412000D01*
X952000D01*
Y4388000D01*
X928000D01*
X900000Y4230000D02*
Y4270000D01*
X940000D01*
Y4230000D01*
X900000D01*
X908000Y4238000D02*
Y4262000D01*
X932000D01*
Y4238000D01*
X908000D01*
X1440000Y4090000D02*
Y4130000D01*
X1480000D01*
Y4090000D01*
X1440000D01*
X1448000Y4098000D02*
Y4122000D01*
X1472000D01*
Y4098000D01*
X1448000D01*
X500000Y4340000D02*
Y4380000D01*
X540000D01*
Y4340000D01*
X500000D01*
X508000Y4348000D02*
Y4372000D01*
X532000D01*
Y4348000D01*
X508000D01*
X1510000Y4370000D02*
Y4410000D01*
X1550000D01*
Y4370000D01*
X1510000D01*
X1518000Y4378000D02*
Y4402000D01*
X1542000D01*
Y4378000D01*
X1518000D01*
X1910000Y4160000D02*
Y4200000D01*
X1950000D01*
Y4160000D01*
X1910000D01*
X1918000Y4168000D02*
Y4192000D01*
X1942000D01*
Y4168000D01*
X1918000D01*
X1910000Y3960000D02*
Y4000000D01*
X1950000D01*
Y3960000D01*
X1910000D01*
X1918000Y3968000D02*
Y3992000D01*
X1942000D01*
Y3968000D01*
X1918000D01*
X1620000Y4010000D02*
Y4050000D01*
X1660000D01*
Y4010000D01*
X1620000D01*
X1628000Y4018000D02*
Y4042000D01*
X1652000D01*
Y4018000D01*
X1628000D01*
X1620000Y4470000D02*
Y4510000D01*
X1660000D01*
Y4470000D01*
X1620000D01*
X1628000Y4478000D02*
Y4502000D01*
X1652000D01*
Y4478000D01*
X1628000D01*
X2110000Y4240000D02*
Y4280000D01*
X2150000D01*
Y4240000D01*
X2110000D01*
X2118000Y4248000D02*
Y4272000D01*
X2142000D01*
Y4248000D01*
X2118000D01*
X1560000Y4090000D02*
Y4130000D01*
X1600000D01*
Y4090000D01*
X1560000D01*
X1568000Y4098000D02*
Y4122000D01*
X1592000D01*
Y4098000D01*
X1568000D01*
X1220000Y4310000D02*
Y4350000D01*
X1260000D01*
Y4310000D01*
X1220000D01*
X1228000Y4318000D02*
Y4342000D01*
X1252000D01*
Y4318000D01*
X1228000D01*
X1550000Y4180000D02*
Y4220000D01*
X1590000D01*
Y4180000D01*
X1550000D01*
X1558000Y4188000D02*
Y4212000D01*
X1582000D01*
Y4188000D01*
X1558000D01*
X795000Y4300000D02*
Y4340000D01*
X835000D01*
Y4300000D01*
X795000D01*
X803000Y4308000D02*
Y4332000D01*
X827000D01*
Y4308000D01*
X803000D01*
X1560000Y4310000D02*
Y4350000D01*
X1600000D01*
Y4310000D01*
X1560000D01*
X1568000Y4318000D02*
Y4342000D01*
X1592000D01*
Y4318000D01*
X1568000D01*
X790000Y5160000D02*
Y5200000D01*
X830000D01*
Y5160000D01*
X790000D01*
X798000Y5168000D02*
Y5192000D01*
X822000D01*
Y5168000D01*
X798000D01*
X1440000Y4400000D02*
Y4440000D01*
X1480000D01*
Y4400000D01*
X1440000D01*
X1448000Y4408000D02*
Y4432000D01*
X1472000D01*
Y4408000D01*
X1448000D01*
X170000Y4850000D02*
Y4890000D01*
X210000D01*
Y4850000D01*
X170000D01*
X178000Y4858000D02*
Y4882000D01*
X202000D01*
Y4858000D01*
X178000D01*
X2120000Y4460000D02*
Y4500000D01*
X2160000D01*
Y4460000D01*
X2120000D01*
X2128000Y4468000D02*
Y4492000D01*
X2152000D01*
Y4468000D01*
X2128000D01*
X1450000Y4490000D02*
Y4530000D01*
X1490000D01*
Y4490000D01*
X1450000D01*
X1458000Y4498000D02*
Y4522000D01*
X1482000D01*
Y4498000D01*
X1458000D01*
X1430000Y4200000D02*
Y4240000D01*
X1470000D01*
Y4200000D01*
X1430000D01*
X1438000Y4208000D02*
Y4232000D01*
X1462000D01*
Y4208000D01*
X1438000D01*
X290000Y5060000D02*
Y5100000D01*
X330000D01*
Y5060000D01*
X290000D01*
X298000Y5068000D02*
Y5092000D01*
X322000D01*
Y5068000D01*
X298000D01*
X900000Y2593465D02*
Y2633465D01*
X940000D01*
Y2593465D01*
X900000D01*
X908000Y2601465D02*
Y2625465D01*
X932000D01*
Y2601465D01*
X908000D01*
X1430000Y2393465D02*
Y2433465D01*
X1470000D01*
Y2393465D01*
X1430000D01*
X1438000Y2401465D02*
Y2425465D01*
X1462000D01*
Y2401465D01*
X1438000D01*
X1450000Y2683465D02*
Y2723465D01*
X1490000D01*
Y2683465D01*
X1450000D01*
X1458000Y2691465D02*
Y2715465D01*
X1482000D01*
Y2691465D01*
X1458000D01*
X2120000Y2653465D02*
Y2693465D01*
X2160000D01*
Y2653465D01*
X2120000D01*
X2128000Y2661465D02*
Y2685465D01*
X2152000D01*
Y2661465D01*
X2128000D01*
X170000Y3043465D02*
Y3083465D01*
X210000D01*
Y3043465D01*
X170000D01*
X178000Y3051465D02*
Y3075465D01*
X202000D01*
Y3051465D01*
X178000D01*
X1440000Y2593465D02*
Y2633465D01*
X1480000D01*
Y2593465D01*
X1440000D01*
X1448000Y2601465D02*
Y2625465D01*
X1472000D01*
Y2601465D01*
X1448000D01*
X790000Y3353465D02*
Y3393465D01*
X830000D01*
Y3353465D01*
X790000D01*
X798000Y3361465D02*
Y3385465D01*
X822000D01*
Y3361465D01*
X798000D01*
X1560000Y2503465D02*
Y2543465D01*
X1600000D01*
Y2503465D01*
X1560000D01*
X1568000Y2511465D02*
Y2535465D01*
X1592000D01*
Y2511465D01*
X1568000D01*
X795000Y2493465D02*
Y2533465D01*
X835000D01*
Y2493465D01*
X795000D01*
X803000Y2501465D02*
Y2525465D01*
X827000D01*
Y2501465D01*
X803000D01*
X1550000Y2373465D02*
Y2413465D01*
X1590000D01*
Y2373465D01*
X1550000D01*
X1558000Y2381465D02*
Y2405465D01*
X1582000D01*
Y2381465D01*
X1558000D01*
X1220000Y2503465D02*
Y2543465D01*
X1260000D01*
Y2503465D01*
X1220000D01*
X1228000Y2511465D02*
Y2535465D01*
X1252000D01*
Y2511465D01*
X1228000D01*
X1560000Y2283465D02*
Y2323465D01*
X1600000D01*
Y2283465D01*
X1560000D01*
X1568000Y2291465D02*
Y2315465D01*
X1592000D01*
Y2291465D01*
X1568000D01*
X2110000Y2433465D02*
Y2473465D01*
X2150000D01*
Y2433465D01*
X2110000D01*
X2118000Y2441465D02*
Y2465465D01*
X2142000D01*
Y2441465D01*
X2118000D01*
X1620000Y2663465D02*
Y2703465D01*
X1660000D01*
Y2663465D01*
X1620000D01*
X1628000Y2671465D02*
Y2695465D01*
X1652000D01*
Y2671465D01*
X1628000D01*
X1620000Y2203465D02*
Y2243465D01*
X1660000D01*
Y2203465D01*
X1620000D01*
X1628000Y2211465D02*
Y2235465D01*
X1652000D01*
Y2211465D01*
X1628000D01*
X1910000Y2153465D02*
Y2193465D01*
X1950000D01*
Y2153465D01*
X1910000D01*
X1918000Y2161465D02*
Y2185465D01*
X1942000D01*
Y2161465D01*
X1918000D01*
X1910000Y2353465D02*
Y2393465D01*
X1950000D01*
Y2353465D01*
X1910000D01*
X1918000Y2361465D02*
Y2385465D01*
X1942000D01*
Y2361465D01*
X1918000D01*
X1510000Y2563465D02*
Y2603465D01*
X1550000D01*
Y2563465D01*
X1510000D01*
X1518000Y2571465D02*
Y2595465D01*
X1542000D01*
Y2571465D01*
X1518000D01*
X500000Y2533465D02*
Y2573465D01*
X540000D01*
Y2533465D01*
X500000D01*
X508000Y2541465D02*
Y2565465D01*
X532000D01*
Y2541465D01*
X508000D01*
X900000Y2423465D02*
Y2463465D01*
X940000D01*
Y2423465D01*
X900000D01*
X908000Y2431465D02*
Y2455465D01*
X932000D01*
Y2431465D01*
X908000D01*
X1440000Y2283465D02*
Y2323465D01*
X1480000D01*
Y2283465D01*
X1440000D01*
X1448000Y2291465D02*
Y2315465D01*
X1472000D01*
Y2291465D01*
X1448000D01*
X920000Y2573465D02*
Y2613465D01*
X960000D01*
Y2573465D01*
X920000D01*
X928000Y2581465D02*
Y2605465D01*
X952000D01*
Y2581465D01*
X928000D01*
X900000Y2553465D02*
Y2593465D01*
X940000D01*
Y2553465D01*
X900000D01*
X908000Y2561465D02*
Y2585465D01*
X932000D01*
Y2561465D01*
X908000D01*
X880000Y2573465D02*
Y2613465D01*
X920000D01*
Y2573465D01*
X880000D01*
X888000Y2581465D02*
Y2605465D01*
X912000D01*
Y2581465D01*
X888000D01*
X140000Y2893465D02*
Y2933465D01*
X180000D01*
Y2893465D01*
X140000D01*
X148000Y2901465D02*
Y2925465D01*
X172000D01*
Y2901465D01*
X148000D01*
X110000Y2893465D02*
Y2933465D01*
X150000D01*
Y2893465D01*
X110000D01*
X118000Y2901465D02*
Y2925465D01*
X142000D01*
Y2901465D01*
X118000D01*
X80000Y2893465D02*
Y2933465D01*
X120000D01*
Y2893465D01*
X80000D01*
X88000Y2901465D02*
Y2925465D01*
X112000D01*
Y2901465D01*
X88000D01*
X290000Y3253465D02*
Y3293465D01*
X330000D01*
Y3253465D01*
X290000D01*
X298000Y3261465D02*
Y3285465D01*
X322000D01*
Y3261465D01*
X298000D01*
D108*
X5120944Y2369370D02*
G03*
X5120944Y2369370I-20000J0D01*
G01*
Y2290630D02*
G03*
X5120944Y2290630I-20000J0D01*
G01*
Y2467795D02*
G03*
X5120944Y2467795I-20000J0D01*
G01*
Y2192205D02*
G03*
X5120944Y2192205I-20000J0D01*
G01*
X5120947Y3129370D02*
G03*
X5120947Y3129370I-20000J0D01*
G01*
Y3050630D02*
G03*
X5120947Y3050630I-20000J0D01*
G01*
Y3227795D02*
G03*
X5120947Y3227795I-20000J0D01*
G01*
Y2952205D02*
G03*
X5120947Y2952205I-20000J0D01*
G01*
%TF.MD5,b5eb36351c9c1a7d9413961e4382e0ea*%
M02*
