%TF.GenerationSoftware,Altium Limited,Altium Designer,19.1.5 (86)*%
G04 Layer_Color=255*
%FSLAX26Y26*%
%MOIN*%
%TF.FileFunction,Pads,Bot*%
%TF.Part,Single*%
G01*
G75*
%TA.AperFunction,ComponentPad*%
G04:AMPARAMS|DCode=32|XSize=100mil|YSize=100mil|CornerRadius=0mil|HoleSize=0mil|Usage=FLASHONLY|Rotation=270.000|XOffset=0mil|YOffset=0mil|HoleType=Round|Shape=Octagon|*
%AMOCTAGOND32*
4,1,8,-0.025000,-0.050000,0.025000,-0.050000,0.050000,-0.025000,0.050000,0.025000,0.025000,0.050000,-0.025000,0.050000,-0.050000,0.025000,-0.050000,-0.025000,-0.025000,-0.050000,0.0*
%
%ADD32OCTAGOND32*%

%ADD33C,0.100000*%
%ADD34C,0.055906*%
%ADD35C,0.135827*%
G04:AMPARAMS|DCode=36|XSize=100mil|YSize=100mil|CornerRadius=0mil|HoleSize=0mil|Usage=FLASHONLY|Rotation=0.000|XOffset=0mil|YOffset=0mil|HoleType=Round|Shape=Octagon|*
%AMOCTAGOND36*
4,1,8,0.050000,-0.025000,0.050000,0.025000,0.025000,0.050000,-0.025000,0.050000,-0.050000,0.025000,-0.050000,-0.025000,-0.025000,-0.050000,0.025000,-0.050000,0.050000,-0.025000,0.0*
%
%ADD36OCTAGOND36*%

%ADD37O,0.047244X0.039370*%
%ADD38C,0.074803*%
%ADD39C,0.047244*%
%TA.AperFunction,ViaPad*%
%ADD40C,0.170000*%
%TA.AperFunction,ComponentPad*%
%ADD41R,0.074803X0.074803*%
%ADD42C,0.070000*%
%TA.AperFunction,ViaPad*%
%ADD43C,0.062992*%
D32*
X5801669Y1820370D02*
D03*
Y2220370D02*
D03*
X5800000Y2620000D02*
D03*
Y3020000D02*
D03*
Y3420000D02*
D03*
Y3820000D02*
D03*
X5811669Y5220370D02*
D03*
X5830000Y4140000D02*
D03*
X5810000Y250000D02*
D03*
Y930000D02*
D03*
X198331Y2513095D02*
D03*
X198331Y4319630D02*
D03*
X198331Y729630D02*
D03*
D33*
X5801669Y1620370D02*
D03*
Y2020370D02*
D03*
X5800000Y2420000D02*
D03*
Y2820000D02*
D03*
Y3220000D02*
D03*
Y3620000D02*
D03*
X5811669Y5020370D02*
D03*
X5830000Y4740000D02*
D03*
Y4540000D02*
D03*
Y4340000D02*
D03*
X5810000Y650000D02*
D03*
Y450000D02*
D03*
X4830000Y5170000D02*
D03*
X4630000D02*
D03*
X4430000D02*
D03*
X4230000D02*
D03*
X5810000Y1330000D02*
D03*
Y1130000D02*
D03*
X2650000Y5170000D02*
D03*
X2450000D02*
D03*
X2250000D02*
D03*
X2050000D02*
D03*
X3740000D02*
D03*
X3540000D02*
D03*
X3340000D02*
D03*
X3140000D02*
D03*
X198331Y2713095D02*
D03*
X198331Y4519630D02*
D03*
X198331Y929630D02*
D03*
D34*
X5100944Y2369370D02*
D03*
Y2290630D02*
D03*
Y2467795D02*
D03*
Y2192205D02*
D03*
X5100947Y3129370D02*
D03*
Y3050630D02*
D03*
Y3227795D02*
D03*
Y2952205D02*
D03*
D35*
X5207637Y2588661D02*
D03*
Y2071339D02*
D03*
X5207640Y3348661D02*
D03*
Y2831339D02*
D03*
D36*
X4030000Y5170000D02*
D03*
X1850000D02*
D03*
X2940000D02*
D03*
D37*
X4930000Y3110000D02*
D03*
Y3060000D02*
D03*
Y2310000D02*
D03*
Y2360000D02*
D03*
D38*
X1430000Y3770000D02*
D03*
Y3907795D02*
D03*
X1430000Y1963465D02*
D03*
Y2101260D02*
D03*
X1430000Y317795D02*
D03*
Y180000D02*
D03*
X4470000Y550000D02*
D03*
Y450000D02*
D03*
X4370000Y550000D02*
D03*
Y450000D02*
D03*
X4270000Y550000D02*
D03*
Y450000D02*
D03*
X4170000Y550000D02*
D03*
Y450000D02*
D03*
X4070000Y550000D02*
D03*
Y450000D02*
D03*
X3970000Y550000D02*
D03*
Y450000D02*
D03*
X3870000Y550000D02*
D03*
Y450000D02*
D03*
X3770000Y550000D02*
D03*
Y450000D02*
D03*
X3670000D02*
D03*
Y550000D02*
D03*
X3570000D02*
D03*
Y450000D02*
D03*
X3470000Y550000D02*
D03*
Y450000D02*
D03*
X3370000Y550000D02*
D03*
Y450000D02*
D03*
X3270000Y550000D02*
D03*
Y450000D02*
D03*
X3170000Y550000D02*
D03*
Y450000D02*
D03*
X3070000Y550000D02*
D03*
Y450000D02*
D03*
X2970000Y550000D02*
D03*
Y450000D02*
D03*
X2870000Y550000D02*
D03*
Y450000D02*
D03*
X2770000Y550000D02*
D03*
Y450000D02*
D03*
X4670000Y1150000D02*
D03*
Y1250000D02*
D03*
Y650000D02*
D03*
Y750000D02*
D03*
Y850000D02*
D03*
Y950000D02*
D03*
Y1050000D02*
D03*
X2770000D02*
D03*
Y950000D02*
D03*
Y1550000D02*
D03*
Y1450000D02*
D03*
Y1350000D02*
D03*
Y1250000D02*
D03*
Y1150000D02*
D03*
X4670000Y2050000D02*
D03*
Y2150000D02*
D03*
Y1550000D02*
D03*
Y1650000D02*
D03*
Y1750000D02*
D03*
Y1850000D02*
D03*
Y1950000D02*
D03*
X2770000D02*
D03*
Y1850000D02*
D03*
Y2450000D02*
D03*
Y2350000D02*
D03*
Y2250000D02*
D03*
Y2150000D02*
D03*
Y2050000D02*
D03*
X4670000Y2550000D02*
D03*
Y2650000D02*
D03*
Y2750000D02*
D03*
Y2850000D02*
D03*
Y2950000D02*
D03*
X2770000Y2810000D02*
D03*
Y2710000D02*
D03*
Y3310000D02*
D03*
Y3210000D02*
D03*
Y3110000D02*
D03*
Y3010000D02*
D03*
Y2910000D02*
D03*
D39*
X1420000Y4902205D02*
D03*
Y5040000D02*
D03*
X1420000Y3095669D02*
D03*
Y3233465D02*
D03*
X1420000Y1450000D02*
D03*
Y1312205D02*
D03*
D40*
X4665000Y3697000D02*
D03*
X5375500Y1036000D02*
D03*
X2289500Y2733500D02*
D03*
D41*
X4670000Y1350000D02*
D03*
X2770000Y850000D02*
D03*
X4670000Y2250000D02*
D03*
X2770000Y1750000D02*
D03*
X4670000Y2450000D02*
D03*
X2770000Y2610000D02*
D03*
D42*
X3770000Y1645000D02*
D03*
Y1745000D02*
D03*
X3670000Y1645000D02*
D03*
Y1745000D02*
D03*
X3570000Y1645000D02*
D03*
Y1745000D02*
D03*
D43*
X2770000Y3650000D02*
D03*
X3370000Y1650000D02*
D03*
X4470000D02*
D03*
X4670000Y450000D02*
D03*
X2770000Y700000D02*
D03*
%TF.MD5,b32e1d37dc1219588635623415464798*%
M02*
