%TF.GenerationSoftware,Altium Limited,Altium Designer,19.1.5 (86)*%
G04 Layer_Color=32768*
%FSLAX26Y26*%
%MOIN*%
%TF.FileFunction,Other,Mechanical_15*%
%TF.Part,Single*%
G01*
G75*
%TA.AperFunction,NonConductor*%
%ADD47C,0.003937*%
%ADD87C,0.001968*%
D47*
X580316Y3937638D02*
X619686D01*
X600000Y3917952D02*
Y3957322D01*
X580316Y4797638D02*
X619686D01*
X600000Y4777952D02*
Y4817322D01*
X1000316Y3937638D02*
X1039686D01*
X1020000Y3917952D02*
Y3957322D01*
X1010316Y4800000D02*
X1049686D01*
X1030000Y4780314D02*
Y4819684D01*
X580316Y2131103D02*
X619686D01*
X600000Y2111417D02*
Y2150787D01*
X580316Y2991103D02*
X619686D01*
X600000Y2971417D02*
Y3010787D01*
X1000316Y2131103D02*
X1039686D01*
X1020000Y2111417D02*
Y2150787D01*
X1010316Y2993465D02*
X1049686D01*
X1030000Y2973779D02*
Y3013149D01*
X600000Y1187952D02*
Y1227322D01*
X580316Y1207638D02*
X619686D01*
X1030000Y1190314D02*
Y1229684D01*
X1010316Y1210000D02*
X1049686D01*
X600000Y327952D02*
Y367322D01*
X580316Y347638D02*
X619686D01*
X1020000Y327952D02*
Y367322D01*
X1000316Y347638D02*
X1039686D01*
X4900000Y4600315D02*
Y4639685D01*
X4880315Y4620000D02*
X4919685D01*
X5244409Y4115000D02*
X5295591D01*
X5244409Y4240039D02*
X5295591D01*
X5244409Y4115000D02*
Y4240039D01*
X5295591Y4115000D02*
Y4240039D01*
X5270000Y4162283D02*
Y4197717D01*
X5252283Y4180000D02*
X5287717D01*
X4280315Y4690000D02*
X4319685D01*
X4300000Y4670315D02*
Y4709685D01*
D87*
X5140315Y2330000D02*
X5179685D01*
X5160000Y2310315D02*
Y2349685D01*
X5140318Y3090000D02*
X5179688D01*
X5160003Y3070315D02*
Y3109685D01*
X71732Y4723346D02*
Y5016654D01*
X288268D01*
Y4723346D02*
Y5016654D01*
X71732Y4723346D02*
X288268D01*
X1605473Y4462756D02*
X1914528D01*
Y4057244D02*
Y4462756D01*
X1605473Y4057244D02*
X1914528D01*
X1605473D02*
Y4462756D01*
X385434Y3598072D02*
Y4277204D01*
X814566Y3598072D02*
Y4277204D01*
X385434Y3598072D02*
X814566D01*
X385434Y4277204D02*
X814566D01*
X385434Y4458072D02*
Y5137204D01*
X814566Y4458072D02*
Y5137204D01*
X385434Y4458072D02*
X814566D01*
X385434Y5137204D02*
X814566D01*
X805434Y3598072D02*
Y4277204D01*
X1234566Y3598072D02*
Y4277204D01*
X805434Y3598072D02*
X1234566D01*
X805434Y4277204D02*
X1234566D01*
X815434Y4460434D02*
Y5139566D01*
X1244566Y4460434D02*
Y5139566D01*
X815434Y4460434D02*
X1244566D01*
X815434Y5139566D02*
X1244566D01*
X71732Y2916811D02*
Y3210118D01*
X288268D01*
Y2916811D02*
Y3210118D01*
X71732Y2916811D02*
X288268D01*
X1605472Y2656220D02*
X1914528D01*
Y2250709D02*
Y2656220D01*
X1605472Y2250709D02*
X1914528D01*
X1605472D02*
Y2656220D01*
X385434Y1791537D02*
Y2470669D01*
X814566Y1791537D02*
Y2470669D01*
X385434Y1791537D02*
X814566D01*
X385434Y2470669D02*
X814566D01*
X385434Y2651537D02*
Y3330669D01*
X814566Y2651537D02*
Y3330669D01*
X385434Y2651537D02*
X814566D01*
X385434Y3330669D02*
X814566D01*
X805434Y1791537D02*
Y2470669D01*
X1234566Y1791537D02*
Y2470669D01*
X805434Y1791537D02*
X1234566D01*
X805434Y2470669D02*
X1234566D01*
X815434Y2653899D02*
Y3333031D01*
X1244566Y2653899D02*
Y3333031D01*
X815434Y2653899D02*
X1244566D01*
X815434Y3333031D02*
X1244566D01*
X71732Y1133347D02*
X288268D01*
Y1426653D01*
X71732D02*
X288268D01*
X71732Y1133347D02*
Y1426653D01*
X385434Y1547204D02*
X814566D01*
X385434Y868072D02*
X814566D01*
Y1547204D01*
X385434Y868072D02*
Y1547204D01*
X815434Y1549566D02*
X1244566D01*
X815434Y870434D02*
X1244566D01*
Y1549566D01*
X815434Y870434D02*
Y1549566D01*
X1605473Y467244D02*
Y872756D01*
Y467244D02*
X1914528D01*
Y872756D01*
X1605473D02*
X1914528D01*
X385434Y687204D02*
X814566D01*
X385434Y8072D02*
X814566D01*
Y687204D01*
X385434Y8072D02*
Y687204D01*
X805434D02*
X1234566D01*
X805434Y8072D02*
X1234566D01*
Y687204D01*
X805434Y8072D02*
Y687204D01*
X4758268Y4791260D02*
X5041732D01*
X4758268Y4448740D02*
X5041732D01*
Y4791260D01*
X4758268Y4448740D02*
Y4791260D01*
X4155315Y4506929D02*
Y4873071D01*
X4444685Y4506929D02*
Y4873071D01*
X4155315D02*
X4444685D01*
X4155315Y4506929D02*
X4444685D01*
%TF.MD5,91b7f8bb1dabb8d93c6d8b6b1acac2cc*%
M02*
