%TF.GenerationSoftware,Altium Limited,Altium Designer,19.1.5 (86)*%
G04 Layer_Color=65535*
%FSLAX26Y26*%
%MOIN*%
%TF.FileFunction,Legend,Top*%
%TF.Part,Single*%
G01*
G75*
%TA.AperFunction,NonConductor*%
%ADD46C,0.009842*%
%ADD47C,0.003937*%
%ADD48C,0.010000*%
%ADD51C,0.005000*%
%ADD65C,0.023622*%
%ADD66C,0.007874*%
%ADD67C,0.011785*%
G36*
X2079443Y3338439D02*
X2079636Y3338084D01*
X2079789Y3337711D01*
X2088019Y3325308D01*
X2050989Y3279930D01*
X2038813Y3293812D01*
X2027639Y3312392D01*
X2019869Y3332921D01*
X2016456Y3352005D01*
X2074928Y3352966D01*
X2079443Y3338439D01*
D02*
G37*
G36*
X2249874Y3320833D02*
X2239408Y3299667D01*
X2221896Y3278340D01*
X2200064Y3261438D01*
X2177511Y3251072D01*
X2163368Y3308093D01*
X2182318Y3321236D01*
X2249874Y3320833D01*
D02*
G37*
G36*
X2120225Y3304060D02*
X2120585Y3303990D01*
X2120933Y3303872D01*
X2136733Y3301794D01*
X2136944Y3301807D01*
X2137158Y3301769D01*
X2137378Y3301774D01*
X2149572Y3244635D01*
X2137227Y3243860D01*
X2101342Y3249233D01*
X2072620Y3262842D01*
X2108014Y3309069D01*
X2120225Y3304060D01*
D02*
G37*
G36*
X1994159Y3326743D02*
X1994254Y3326494D01*
X1994299Y3326222D01*
X2003806Y3300972D01*
X2003947Y3300745D01*
X2004036Y3300501D01*
X2017829Y3277718D01*
X2018008Y3277523D01*
X2018139Y3277300D01*
X2034157Y3259314D01*
X1993993Y3210083D01*
X1968456Y3237793D01*
X1946991Y3272611D01*
X1932536Y3311463D01*
X1926375Y3350528D01*
X1989899Y3351571D01*
X1994159Y3326743D01*
D02*
G37*
G36*
X2309624Y3242477D02*
X2278406Y3207732D01*
X2240254Y3180606D01*
X2199220Y3163494D01*
X2183936Y3225146D01*
X2204006Y3233343D01*
X2204206Y3233474D01*
X2204426Y3233556D01*
X2224749Y3246115D01*
X2224922Y3246275D01*
X2225121Y3246390D01*
X2243034Y3261970D01*
X2243178Y3262156D01*
X2243357Y3262302D01*
X2257655Y3279571D01*
X2330359D01*
X2309624Y3242477D01*
D02*
G37*
G36*
X2092476Y3224288D02*
X2092890Y3224181D01*
X2093285Y3224039D01*
X2136676Y3217442D01*
X2136988Y3217456D01*
X2137300Y3217416D01*
X2155109Y3218651D01*
X2168378Y3156453D01*
X2137209Y3153950D01*
X2071977Y3164193D01*
X2017821Y3191305D01*
X2056418Y3241700D01*
X2092476Y3224288D01*
D02*
G37*
G36*
X1906810Y3305350D02*
X1906909Y3305077D01*
X1906955Y3304795D01*
X1923154Y3261192D01*
X1923301Y3260955D01*
X1923399Y3260689D01*
X1947508Y3221640D01*
X1947698Y3221436D01*
X1947843Y3221201D01*
X1977209Y3189542D01*
X1937080Y3140343D01*
X1898111Y3181780D01*
X1866370Y3232801D01*
X1845198Y3289982D01*
X1836405Y3349044D01*
X1899869Y3350096D01*
X1906810Y3305350D01*
D02*
G37*
G36*
X2410018Y3238308D02*
X2378892Y3185394D01*
X2334193Y3137361D01*
X2280000Y3100000D01*
X2220862Y3076159D01*
X2205593Y3137751D01*
X2243918Y3152802D01*
X2244139Y3152944D01*
X2244387Y3153038D01*
X2280980Y3175908D01*
X2281173Y3176090D01*
X2281394Y3176224D01*
X2313038Y3205220D01*
X2313191Y3205427D01*
X2313386Y3205601D01*
X2338470Y3238748D01*
X2410018Y3238308D01*
D02*
G37*
G36*
X2063036Y3139280D02*
X2063463Y3139161D01*
X2063874Y3139010D01*
X2136659Y3127525D01*
X2137001Y3127539D01*
X2137339Y3127501D01*
X2173889Y3130535D01*
X2187136Y3068418D01*
X2137097Y3064049D01*
X2088611Y3067943D01*
X2042618Y3079154D01*
X1999683Y3097115D01*
X1962942Y3119672D01*
X2001670Y3170239D01*
X2063036Y3139280D01*
D02*
G37*
G36*
X2184792Y3662925D02*
X2171983Y3600717D01*
X2137325Y3603430D01*
X2136990Y3603390D01*
X2136655Y3603403D01*
X2062840Y3591607D01*
X2062417Y3591451D01*
X2061991Y3591329D01*
X1999899Y3559477D01*
X1960622Y3609602D01*
X1997758Y3632852D01*
X2041224Y3651352D01*
X2087880Y3662912D01*
X2137103Y3666907D01*
X2184792Y3662925D01*
D02*
G37*
G36*
X2166640Y3574753D02*
X2153828Y3512462D01*
X2137287Y3513536D01*
X2136983Y3513495D01*
X2136673Y3513508D01*
X2092733Y3506773D01*
X2092327Y3506626D01*
X2091910Y3506514D01*
X2055456Y3488607D01*
X2016290Y3538568D01*
X2071065Y3566481D01*
X2137216Y3577007D01*
X2166640Y3574753D01*
D02*
G37*
G36*
X2274532Y3633809D02*
X2326592Y3599902D01*
X2370466Y3556284D01*
X2403139Y3506759D01*
X2347171Y3476817D01*
X2322220Y3515002D01*
X2322018Y3515208D01*
X2321856Y3515452D01*
X2287997Y3549495D01*
X2287759Y3549655D01*
X2287550Y3549862D01*
X2247333Y3576425D01*
X2247057Y3576538D01*
X2246811Y3576697D01*
X2203721Y3593732D01*
X2218538Y3655452D01*
X2274532Y3633809D01*
D02*
G37*
G36*
X2235219Y3552909D02*
X2271088Y3529152D01*
X2301349Y3498772D01*
X2323408Y3465144D01*
X2267671Y3436005D01*
X2253191Y3458018D01*
X2252991Y3458221D01*
X2252836Y3458455D01*
X2232540Y3478968D01*
X2232305Y3479126D01*
X2232108Y3479324D01*
X2208048Y3495548D01*
X2207784Y3495658D01*
X2207549Y3495815D01*
X2182673Y3506157D01*
X2197517Y3567956D01*
X2235219Y3552909D01*
D02*
G37*
G36*
X2148469Y3486425D02*
X2136689Y3429148D01*
X2120866Y3427090D01*
X2120508Y3426970D01*
X2120142Y3426896D01*
X2107840Y3421787D01*
X2071905Y3467647D01*
X2100925Y3481606D01*
X2137233Y3487097D01*
X2148469Y3486425D01*
D02*
G37*
G36*
X2195739Y3472082D02*
X2215339Y3458604D01*
X2231934Y3441657D01*
X2243413Y3424087D01*
X2191950Y3397086D01*
X2180186Y3412324D01*
X2179807Y3412655D01*
X2179439Y3413001D01*
X2162782Y3423378D01*
X2176462Y3480317D01*
X2195739Y3472082D01*
D02*
G37*
G36*
X1975985Y3540287D02*
X1947142Y3508835D01*
X1946998Y3508599D01*
X1946813Y3508398D01*
X1923109Y3469687D01*
X1923013Y3469426D01*
X1922866Y3469188D01*
X1906904Y3426012D01*
X1906859Y3425731D01*
X1906761Y3425462D01*
X1899894Y3381183D01*
X1836431Y3382078D01*
X1845084Y3440546D01*
X1865897Y3497214D01*
X1897099Y3547877D01*
X1935397Y3589093D01*
X1975985Y3540287D01*
D02*
G37*
G36*
X2033572Y3471043D02*
X2017842Y3453262D01*
X2017712Y3453038D01*
X2017537Y3452847D01*
X2003962Y3430327D01*
X2003874Y3430083D01*
X2003735Y3429861D01*
X1994347Y3404922D01*
X1994302Y3404653D01*
X1994208Y3404407D01*
X1989950Y3379897D01*
X1926399Y3380795D01*
X1932492Y3419423D01*
X1946760Y3457875D01*
X1967845Y3492383D01*
X1992936Y3519905D01*
X2033572Y3471043D01*
D02*
G37*
G36*
X2087976Y3405615D02*
X2079913Y3393565D01*
X2079760Y3393196D01*
X2079567Y3392846D01*
X2075065Y3378676D01*
X2016532Y3379532D01*
X2019938Y3398294D01*
X2027619Y3418559D01*
X2038629Y3436904D01*
X2050565Y3450613D01*
X2087976Y3405615D01*
D02*
G37*
D46*
X745276Y4181733D02*
G03*
X745276Y4181733I-4921J0D01*
G01*
Y5041733D02*
G03*
X745276Y5041733I-4921J0D01*
G01*
X1165276Y4181733D02*
G03*
X1165276Y4181733I-4921J0D01*
G01*
X1175276Y5044095D02*
G03*
X1175276Y5044095I-4921J0D01*
G01*
X745276Y2375197D02*
G03*
X745276Y2375197I-4921J0D01*
G01*
Y3235197D02*
G03*
X745276Y3235197I-4921J0D01*
G01*
X1165276Y2375197D02*
G03*
X1165276Y2375197I-4921J0D01*
G01*
X1175276Y3237559D02*
G03*
X1175276Y3237559I-4921J0D01*
G01*
X745276Y1451733D02*
G03*
X745276Y1451733I-4921J0D01*
G01*
X1175276Y1454094D02*
G03*
X1175276Y1454094I-4921J0D01*
G01*
X745276Y591732D02*
G03*
X745276Y591732I-4921J0D01*
G01*
X1165276D02*
G03*
X1165276Y591732I-4921J0D01*
G01*
X5034843Y4749921D02*
G03*
X5034843Y4749921I-4921J0D01*
G01*
X4869921Y3978346D02*
G03*
X4869921Y3978346I-4921J0D01*
G01*
X4200591Y4873465D02*
G03*
X4200591Y4873465I-4921J0D01*
G01*
D47*
X37202Y5046238D02*
X30643Y5039679D01*
Y5026560D01*
X37202Y5020000D01*
X63440D01*
X70000Y5026560D01*
Y5039679D01*
X63440Y5046238D01*
X37202Y5059357D02*
X30643Y5065917D01*
Y5079036D01*
X37202Y5085596D01*
X43762D01*
X50321Y5079036D01*
X56881Y5085596D01*
X63440D01*
X70000Y5079036D01*
Y5065917D01*
X63440Y5059357D01*
X56881D01*
X50321Y5065917D01*
X43762Y5059357D01*
X37202D01*
X50321Y5065917D02*
Y5079036D01*
X76560Y5098715D02*
Y5124953D01*
X37202Y5138072D02*
X30643Y5144632D01*
Y5157751D01*
X37202Y5164310D01*
X43762D01*
X50321Y5157751D01*
Y5151191D01*
Y5157751D01*
X56881Y5164310D01*
X63440D01*
X70000Y5157751D01*
Y5144632D01*
X63440Y5138072D01*
X37202Y3236238D02*
X30643Y3229679D01*
Y3216560D01*
X37202Y3210000D01*
X63440D01*
X70000Y3216560D01*
Y3229679D01*
X63440Y3236238D01*
X37202Y3249357D02*
X30643Y3255917D01*
Y3269036D01*
X37202Y3275596D01*
X43762D01*
X50321Y3269036D01*
X56881Y3275596D01*
X63440D01*
X70000Y3269036D01*
Y3255917D01*
X63440Y3249357D01*
X56881D01*
X50321Y3255917D01*
X43762Y3249357D01*
X37202D01*
X50321Y3255917D02*
Y3269036D01*
X76560Y3288715D02*
Y3314953D01*
X70000Y3354310D02*
Y3328072D01*
X43762Y3354310D01*
X37202D01*
X30643Y3347751D01*
Y3334632D01*
X37202Y3328072D01*
Y1466238D02*
X30643Y1459679D01*
Y1446560D01*
X37202Y1440000D01*
X63440D01*
X70000Y1446560D01*
Y1459679D01*
X63440Y1466238D01*
X37202Y1479357D02*
X30643Y1485917D01*
Y1499036D01*
X37202Y1505596D01*
X43762D01*
X50321Y1499036D01*
X56881Y1505596D01*
X63440D01*
X70000Y1499036D01*
Y1485917D01*
X63440Y1479357D01*
X56881D01*
X50321Y1485917D01*
X43762Y1479357D01*
X37202D01*
X50321Y1485917D02*
Y1499036D01*
X76560Y1518715D02*
Y1544953D01*
X70000Y1558072D02*
Y1571191D01*
Y1564632D01*
X30643D01*
X37202Y1558072D01*
X1376238Y3376262D02*
X1369679Y3382822D01*
X1356560D01*
X1350000Y3376262D01*
Y3350024D01*
X1356560Y3343465D01*
X1369679D01*
X1376238Y3350024D01*
X1389357Y3343465D02*
X1402476D01*
X1395917D01*
Y3382822D01*
X1389357Y3376262D01*
X1422155D02*
X1428715Y3382822D01*
X1441834D01*
X1448393Y3376262D01*
Y3369703D01*
X1441834Y3363143D01*
X1435274D01*
X1441834D01*
X1448393Y3356584D01*
Y3350024D01*
X1441834Y3343465D01*
X1428715D01*
X1422155Y3350024D01*
X1461513Y3336905D02*
X1487751D01*
X1527108Y3343465D02*
X1500870D01*
X1527108Y3369703D01*
Y3376262D01*
X1520549Y3382822D01*
X1507430D01*
X1500870Y3376262D01*
X1043440Y3209703D02*
X1017202D01*
X1010643Y3203143D01*
Y3190024D01*
X1017202Y3183465D01*
X1043440D01*
X1050000Y3190024D01*
Y3203143D01*
X1036881Y3196584D02*
X1050000Y3209703D01*
Y3203143D02*
X1043440Y3209703D01*
X1050000Y3242501D02*
X1010643D01*
X1030321Y3222822D01*
Y3249060D01*
X1056560Y3262179D02*
Y3288418D01*
X1050000Y3327775D02*
Y3301537D01*
X1023762Y3327775D01*
X1017202D01*
X1010643Y3321215D01*
Y3308096D01*
X1017202Y3301537D01*
X1043440Y2319703D02*
X1017202D01*
X1010643Y2313143D01*
Y2300024D01*
X1017202Y2293465D01*
X1043440D01*
X1050000Y2300024D01*
Y2313143D01*
X1036881Y2306584D02*
X1050000Y2319703D01*
Y2313143D02*
X1043440Y2319703D01*
X1017202Y2332822D02*
X1010643Y2339382D01*
Y2352501D01*
X1017202Y2359060D01*
X1023762D01*
X1030321Y2352501D01*
Y2345941D01*
Y2352501D01*
X1036881Y2359060D01*
X1043440D01*
X1050000Y2352501D01*
Y2339382D01*
X1043440Y2332822D01*
X1056560Y2372179D02*
Y2398418D01*
X1050000Y2437775D02*
Y2411537D01*
X1023762Y2437775D01*
X1017202D01*
X1010643Y2431215D01*
Y2418096D01*
X1017202Y2411537D01*
X603440Y3199703D02*
X577202D01*
X570643Y3193143D01*
Y3180024D01*
X577202Y3173465D01*
X603440D01*
X610000Y3180024D01*
Y3193143D01*
X596881Y3186584D02*
X610000Y3199703D01*
Y3193143D02*
X603440Y3199703D01*
X610000Y3239060D02*
Y3212822D01*
X583762Y3239060D01*
X577202D01*
X570643Y3232501D01*
Y3219382D01*
X577202Y3212822D01*
X616560Y3252179D02*
Y3278418D01*
X610000Y3317775D02*
Y3291537D01*
X583762Y3317775D01*
X577202D01*
X570643Y3311215D01*
Y3298096D01*
X577202Y3291537D01*
X613440Y2329703D02*
X587202D01*
X580643Y2323143D01*
Y2310024D01*
X587202Y2303465D01*
X613440D01*
X620000Y2310024D01*
Y2323143D01*
X606881Y2316584D02*
X620000Y2329703D01*
Y2323143D02*
X613440Y2329703D01*
X620000Y2342822D02*
Y2355941D01*
Y2349382D01*
X580643D01*
X587202Y2342822D01*
X626560Y2375620D02*
Y2401858D01*
X620000Y2441215D02*
Y2414977D01*
X593762Y2441215D01*
X587202D01*
X580643Y2434656D01*
Y2421537D01*
X587202Y2414977D01*
X1680000Y2709357D02*
X1693119D01*
X1686560D01*
Y2670000D01*
X1680000D01*
X1693119D01*
X1739036Y2702798D02*
X1732476Y2709357D01*
X1719357D01*
X1712798Y2702798D01*
Y2676560D01*
X1719357Y2670000D01*
X1732476D01*
X1739036Y2676560D01*
X1778393Y2670000D02*
X1752155D01*
X1778393Y2696238D01*
Y2702798D01*
X1771834Y2709357D01*
X1758715D01*
X1752155Y2702798D01*
X1791513Y2663440D02*
X1817751D01*
X1857108Y2670000D02*
X1830870D01*
X1857108Y2696238D01*
Y2702798D01*
X1850549Y2709357D01*
X1837430D01*
X1830870Y2702798D01*
X300643Y2973465D02*
Y2986584D01*
Y2980024D01*
X340000D01*
Y2973465D01*
Y2986584D01*
X307202Y3032501D02*
X300643Y3025941D01*
Y3012822D01*
X307202Y3006262D01*
X333440D01*
X340000Y3012822D01*
Y3025941D01*
X333440Y3032501D01*
X340000Y3045620D02*
Y3058739D01*
Y3052179D01*
X300643D01*
X307202Y3045620D01*
X346560Y3078418D02*
Y3104656D01*
X340000Y3144013D02*
Y3117775D01*
X313762Y3144013D01*
X307202D01*
X300643Y3137454D01*
Y3124335D01*
X307202Y3117775D01*
X1310000Y2753465D02*
Y2792822D01*
X1329679D01*
X1336238Y2786262D01*
Y2773143D01*
X1329679Y2766584D01*
X1310000D01*
X1323119D02*
X1336238Y2753465D01*
X1349357D02*
X1362476D01*
X1355917D01*
Y2792822D01*
X1349357Y2786262D01*
X1401834Y2753465D02*
Y2792822D01*
X1382155Y2773143D01*
X1408393D01*
X1421513Y2746905D02*
X1447751D01*
X1487108Y2753465D02*
X1460870D01*
X1487108Y2779703D01*
Y2786262D01*
X1480549Y2792822D01*
X1467430D01*
X1460870Y2786262D01*
X1920000Y1913465D02*
X1880643D01*
Y1933143D01*
X1887202Y1939703D01*
X1900321D01*
X1906881Y1933143D01*
Y1913465D01*
Y1926584D02*
X1920000Y1939703D01*
Y1952822D02*
Y1965941D01*
Y1959382D01*
X1880643D01*
X1887202Y1952822D01*
Y1985620D02*
X1880643Y1992179D01*
Y2005299D01*
X1887202Y2011858D01*
X1893762D01*
X1900321Y2005299D01*
Y1998739D01*
Y2005299D01*
X1906881Y2011858D01*
X1913440D01*
X1920000Y2005299D01*
Y1992179D01*
X1913440Y1985620D01*
X1926560Y2024977D02*
Y2051215D01*
X1920000Y2090573D02*
Y2064335D01*
X1893762Y2090573D01*
X1887202D01*
X1880643Y2084013D01*
Y2070894D01*
X1887202Y2064335D01*
X1100000Y3423465D02*
Y3462822D01*
X1119679D01*
X1126238Y3456262D01*
Y3443143D01*
X1119679Y3436584D01*
X1100000D01*
X1113119D02*
X1126238Y3423465D01*
X1139357D02*
X1152476D01*
X1145917D01*
Y3462822D01*
X1139357Y3456262D01*
X1198393Y3423465D02*
X1172155D01*
X1198393Y3449703D01*
Y3456262D01*
X1191834Y3462822D01*
X1178715D01*
X1172155Y3456262D01*
X1211513Y3416905D02*
X1237751D01*
X1277108Y3423465D02*
X1250870D01*
X1277108Y3449703D01*
Y3456262D01*
X1270549Y3462822D01*
X1257430D01*
X1250870Y3456262D01*
X2150000Y2383465D02*
Y2422822D01*
X2169679D01*
X2176238Y2416262D01*
Y2403143D01*
X2169679Y2396584D01*
X2150000D01*
X2163119D02*
X2176238Y2383465D01*
X2189357D02*
X2202477D01*
X2195917D01*
Y2422822D01*
X2189357Y2416262D01*
X2222155Y2383465D02*
X2235274D01*
X2228715D01*
Y2422822D01*
X2222155Y2416262D01*
X2254953Y2376905D02*
X2281191D01*
X2320549Y2383465D02*
X2294310D01*
X2320549Y2409703D01*
Y2416262D01*
X2313989Y2422822D01*
X2300870D01*
X2294310Y2416262D01*
X2150000Y2433465D02*
Y2472822D01*
X2169679D01*
X2176238Y2466262D01*
Y2453143D01*
X2169679Y2446584D01*
X2150000D01*
X2163119D02*
X2176238Y2433465D01*
X2189357D02*
X2202477D01*
X2195917D01*
Y2472822D01*
X2189357Y2466262D01*
X2222155D02*
X2228715Y2472822D01*
X2241834D01*
X2248393Y2466262D01*
Y2440024D01*
X2241834Y2433465D01*
X2228715D01*
X2222155Y2440024D01*
Y2466262D01*
X2261513Y2426905D02*
X2287751D01*
X2327108Y2433465D02*
X2300870D01*
X2327108Y2459703D01*
Y2466262D01*
X2320549Y2472822D01*
X2307430D01*
X2300870Y2466262D01*
X1090000Y2563465D02*
Y2602822D01*
X1109679D01*
X1116238Y2596262D01*
Y2583143D01*
X1109679Y2576584D01*
X1090000D01*
X1103119D02*
X1116238Y2563465D01*
X1129357Y2570024D02*
X1135917Y2563465D01*
X1149036D01*
X1155596Y2570024D01*
Y2596262D01*
X1149036Y2602822D01*
X1135917D01*
X1129357Y2596262D01*
Y2589703D01*
X1135917Y2583143D01*
X1155596D01*
X1168715Y2556905D02*
X1194953D01*
X1234310Y2563465D02*
X1208072D01*
X1234310Y2589703D01*
Y2596262D01*
X1227751Y2602822D01*
X1214632D01*
X1208072Y2596262D01*
X2150000Y2483465D02*
Y2522822D01*
X2169679D01*
X2176238Y2516262D01*
Y2503143D01*
X2169679Y2496584D01*
X2150000D01*
X2163119D02*
X2176238Y2483465D01*
X2189357Y2516262D02*
X2195917Y2522822D01*
X2209036D01*
X2215596Y2516262D01*
Y2509703D01*
X2209036Y2503143D01*
X2215596Y2496584D01*
Y2490024D01*
X2209036Y2483465D01*
X2195917D01*
X2189357Y2490024D01*
Y2496584D01*
X2195917Y2503143D01*
X2189357Y2509703D01*
Y2516262D01*
X2195917Y2503143D02*
X2209036D01*
X2228715Y2476905D02*
X2254953D01*
X2294310Y2483465D02*
X2268072D01*
X2294310Y2509703D01*
Y2516262D01*
X2287751Y2522822D01*
X2274632D01*
X2268072Y2516262D01*
X2150000Y2533465D02*
Y2572822D01*
X2169679D01*
X2176238Y2566262D01*
Y2553143D01*
X2169679Y2546584D01*
X2150000D01*
X2163119D02*
X2176238Y2533465D01*
X2189357Y2572822D02*
X2215596D01*
Y2566262D01*
X2189357Y2540024D01*
Y2533465D01*
X2228715Y2526905D02*
X2254953D01*
X2294310Y2533465D02*
X2268072D01*
X2294310Y2559703D01*
Y2566262D01*
X2287751Y2572822D01*
X2274632D01*
X2268072Y2566262D01*
X1850000Y1943465D02*
X1810643D01*
Y1963143D01*
X1817202Y1969703D01*
X1830321D01*
X1836881Y1963143D01*
Y1943465D01*
Y1956584D02*
X1850000Y1969703D01*
X1810643Y2009060D02*
X1817202Y1995941D01*
X1830321Y1982822D01*
X1843440D01*
X1850000Y1989382D01*
Y2002501D01*
X1843440Y2009060D01*
X1836881D01*
X1830321Y2002501D01*
Y1982822D01*
X1856560Y2022179D02*
Y2048418D01*
X1850000Y2087775D02*
Y2061537D01*
X1823762Y2087775D01*
X1817202D01*
X1810643Y2081215D01*
Y2068096D01*
X1817202Y2061537D01*
X2150000Y2583465D02*
Y2622822D01*
X2169679D01*
X2176238Y2616262D01*
Y2603143D01*
X2169679Y2596584D01*
X2150000D01*
X2163119D02*
X2176238Y2583465D01*
X2215596Y2622822D02*
X2189357D01*
Y2603143D01*
X2202477Y2609703D01*
X2209036D01*
X2215596Y2603143D01*
Y2590024D01*
X2209036Y2583465D01*
X2195917D01*
X2189357Y2590024D01*
X2228715Y2576905D02*
X2254953D01*
X2294310Y2583465D02*
X2268072D01*
X2294310Y2609703D01*
Y2616262D01*
X2287751Y2622822D01*
X2274632D01*
X2268072Y2616262D01*
X1980000Y2740000D02*
Y2779357D01*
X1999679D01*
X2006238Y2772798D01*
Y2759679D01*
X1999679Y2753119D01*
X1980000D01*
X1993119D02*
X2006238Y2740000D01*
X2039036D02*
Y2779357D01*
X2019357Y2759679D01*
X2045596D01*
X2058715Y2733440D02*
X2084953D01*
X2124310Y2740000D02*
X2098072D01*
X2124310Y2766238D01*
Y2772798D01*
X2117751Y2779357D01*
X2104632D01*
X2098072Y2772798D01*
X1980000Y2790000D02*
Y2829357D01*
X1999679D01*
X2006238Y2822798D01*
Y2809679D01*
X1999679Y2803119D01*
X1980000D01*
X1993119D02*
X2006238Y2790000D01*
X2019357Y2822798D02*
X2025917Y2829357D01*
X2039036D01*
X2045596Y2822798D01*
Y2816238D01*
X2039036Y2809679D01*
X2032476D01*
X2039036D01*
X2045596Y2803119D01*
Y2796560D01*
X2039036Y2790000D01*
X2025917D01*
X2019357Y2796560D01*
X2058715Y2783440D02*
X2084953D01*
X2124310Y2790000D02*
X2098072D01*
X2124310Y2816238D01*
Y2822798D01*
X2117751Y2829357D01*
X2104632D01*
X2098072Y2822798D01*
X675000Y3427465D02*
Y3466822D01*
X694679D01*
X701238Y3460262D01*
Y3447143D01*
X694679Y3440584D01*
X675000D01*
X688119D02*
X701238Y3427465D01*
X740596D02*
X714357D01*
X740596Y3453703D01*
Y3460262D01*
X734036Y3466822D01*
X720917D01*
X714357Y3460262D01*
X753715Y3420905D02*
X779953D01*
X819310Y3427465D02*
X793072D01*
X819310Y3453703D01*
Y3460262D01*
X812751Y3466822D01*
X799632D01*
X793072Y3460262D01*
X660000Y2563465D02*
Y2602822D01*
X679679D01*
X686238Y2596262D01*
Y2583143D01*
X679679Y2576584D01*
X660000D01*
X673119D02*
X686238Y2563465D01*
X699357D02*
X712476D01*
X705917D01*
Y2602822D01*
X699357Y2596262D01*
X732155Y2556905D02*
X758393D01*
X797751Y2563465D02*
X771513D01*
X797751Y2589703D01*
Y2596262D01*
X791191Y2602822D01*
X778072D01*
X771513Y2596262D01*
X2176238Y2266262D02*
X2169679Y2272822D01*
X2156560D01*
X2150000Y2266262D01*
Y2240024D01*
X2156560Y2233465D01*
X2169679D01*
X2176238Y2240024D01*
X2189357Y2272822D02*
X2215596D01*
Y2266262D01*
X2189357Y2240024D01*
Y2233465D01*
X2228715Y2226905D02*
X2254953D01*
X2294310Y2233465D02*
X2268072D01*
X2294310Y2259703D01*
Y2266262D01*
X2287751Y2272822D01*
X2274632D01*
X2268072Y2266262D01*
X1326238Y2376262D02*
X1319679Y2382822D01*
X1306560D01*
X1300000Y2376262D01*
Y2350024D01*
X1306560Y2343465D01*
X1319679D01*
X1326238Y2350024D01*
X1365596Y2382822D02*
X1352476Y2376262D01*
X1339357Y2363143D01*
Y2350024D01*
X1345917Y2343465D01*
X1359036D01*
X1365596Y2350024D01*
Y2356584D01*
X1359036Y2363143D01*
X1339357D01*
X1378715Y2336905D02*
X1404953D01*
X1444310Y2343465D02*
X1418072D01*
X1444310Y2369703D01*
Y2376262D01*
X1437751Y2382822D01*
X1424632D01*
X1418072Y2376262D01*
X2176238Y2326262D02*
X2169679Y2332822D01*
X2156560D01*
X2150000Y2326262D01*
Y2300024D01*
X2156560Y2293465D01*
X2169679D01*
X2176238Y2300024D01*
X2215596Y2332822D02*
X2189357D01*
Y2313143D01*
X2202477Y2319703D01*
X2209036D01*
X2215596Y2313143D01*
Y2300024D01*
X2209036Y2293465D01*
X2195917D01*
X2189357Y2300024D01*
X2228715Y2286905D02*
X2254953D01*
X2294310Y2293465D02*
X2268072D01*
X2294310Y2319703D01*
Y2326262D01*
X2287751Y2332822D01*
X2274632D01*
X2268072Y2326262D01*
X1326238Y2466262D02*
X1319679Y2472822D01*
X1306560D01*
X1300000Y2466262D01*
Y2440024D01*
X1306560Y2433465D01*
X1319679D01*
X1326238Y2440024D01*
X1359036Y2433465D02*
Y2472822D01*
X1339357Y2453143D01*
X1365596D01*
X1378715Y2426905D02*
X1404953D01*
X1444310Y2433465D02*
X1418072D01*
X1444310Y2459703D01*
Y2466262D01*
X1437751Y2472822D01*
X1424632D01*
X1418072Y2466262D01*
X1326238Y2556262D02*
X1319679Y2562822D01*
X1306560D01*
X1300000Y2556262D01*
Y2530024D01*
X1306560Y2523465D01*
X1319679D01*
X1326238Y2530024D01*
X1339357Y2556262D02*
X1345917Y2562822D01*
X1359036D01*
X1365596Y2556262D01*
Y2549703D01*
X1359036Y2543143D01*
X1352476D01*
X1359036D01*
X1365596Y2536584D01*
Y2530024D01*
X1359036Y2523465D01*
X1345917D01*
X1339357Y2530024D01*
X1378715Y2516905D02*
X1404953D01*
X1444310Y2523465D02*
X1418072D01*
X1444310Y2549703D01*
Y2556262D01*
X1437751Y2562822D01*
X1424632D01*
X1418072Y2556262D01*
X216238Y3346262D02*
X209679Y3352822D01*
X196560D01*
X190000Y3346262D01*
Y3320024D01*
X196560Y3313465D01*
X209679D01*
X216238Y3320024D01*
X255596Y3313465D02*
X229357D01*
X255596Y3339703D01*
Y3346262D01*
X249036Y3352822D01*
X235917D01*
X229357Y3346262D01*
X268715Y3306905D02*
X294953D01*
X334310Y3313465D02*
X308072D01*
X334310Y3339703D01*
Y3346262D01*
X327751Y3352822D01*
X314632D01*
X308072Y3346262D01*
X1386238Y2246262D02*
X1379679Y2252822D01*
X1366560D01*
X1360000Y2246262D01*
Y2220024D01*
X1366560Y2213465D01*
X1379679D01*
X1386238Y2220024D01*
X1399357Y2213465D02*
X1412476D01*
X1405917D01*
Y2252822D01*
X1399357Y2246262D01*
X1432155Y2206905D02*
X1458393D01*
X1497751Y2213465D02*
X1471513D01*
X1497751Y2239703D01*
Y2246262D01*
X1491191Y2252822D01*
X1478072D01*
X1471513Y2246262D01*
X1376238Y5182798D02*
X1369679Y5189357D01*
X1356560D01*
X1350000Y5182798D01*
Y5156560D01*
X1356560Y5150000D01*
X1369679D01*
X1376238Y5156560D01*
X1389358Y5150000D02*
X1402477D01*
X1395917D01*
Y5189357D01*
X1389358Y5182798D01*
X1422155D02*
X1428715Y5189357D01*
X1441834D01*
X1448393Y5182798D01*
Y5176238D01*
X1441834Y5169679D01*
X1435274D01*
X1441834D01*
X1448393Y5163119D01*
Y5156560D01*
X1441834Y5150000D01*
X1428715D01*
X1422155Y5156560D01*
X1461513Y5143440D02*
X1487751D01*
X1500870Y5182798D02*
X1507430Y5189357D01*
X1520549D01*
X1527108Y5182798D01*
Y5176238D01*
X1520549Y5169679D01*
X1513989D01*
X1520549D01*
X1527108Y5163119D01*
Y5156560D01*
X1520549Y5150000D01*
X1507430D01*
X1500870Y5156560D01*
X1043440Y5016238D02*
X1017202D01*
X1010643Y5009679D01*
Y4996560D01*
X1017202Y4990000D01*
X1043440D01*
X1050000Y4996560D01*
Y5009679D01*
X1036881Y5003119D02*
X1050000Y5016238D01*
Y5009679D02*
X1043440Y5016238D01*
X1050000Y5049036D02*
X1010643D01*
X1030321Y5029357D01*
Y5055596D01*
X1056560Y5068715D02*
Y5094953D01*
X1017202Y5108072D02*
X1010643Y5114632D01*
Y5127751D01*
X1017202Y5134310D01*
X1023762D01*
X1030321Y5127751D01*
Y5121191D01*
Y5127751D01*
X1036881Y5134310D01*
X1043440D01*
X1050000Y5127751D01*
Y5114632D01*
X1043440Y5108072D01*
Y4126238D02*
X1017202D01*
X1010643Y4119679D01*
Y4106560D01*
X1017202Y4100000D01*
X1043440D01*
X1050000Y4106560D01*
Y4119679D01*
X1036881Y4113119D02*
X1050000Y4126238D01*
Y4119679D02*
X1043440Y4126238D01*
X1017202Y4139357D02*
X1010643Y4145917D01*
Y4159036D01*
X1017202Y4165596D01*
X1023762D01*
X1030321Y4159036D01*
Y4152476D01*
Y4159036D01*
X1036881Y4165596D01*
X1043440D01*
X1050000Y4159036D01*
Y4145917D01*
X1043440Y4139357D01*
X1056560Y4178715D02*
Y4204953D01*
X1017202Y4218072D02*
X1010643Y4224632D01*
Y4237751D01*
X1017202Y4244310D01*
X1023762D01*
X1030321Y4237751D01*
Y4231191D01*
Y4237751D01*
X1036881Y4244310D01*
X1043440D01*
X1050000Y4237751D01*
Y4224632D01*
X1043440Y4218072D01*
X603441Y5006238D02*
X577202D01*
X570643Y4999679D01*
Y4986560D01*
X577202Y4980000D01*
X603441D01*
X610000Y4986560D01*
Y4999679D01*
X596881Y4993119D02*
X610000Y5006238D01*
Y4999679D02*
X603441Y5006238D01*
X610000Y5045596D02*
Y5019357D01*
X583762Y5045596D01*
X577202D01*
X570643Y5039036D01*
Y5025917D01*
X577202Y5019357D01*
X616560Y5058715D02*
Y5084953D01*
X577202Y5098072D02*
X570643Y5104632D01*
Y5117751D01*
X577202Y5124310D01*
X583762D01*
X590321Y5117751D01*
Y5111191D01*
Y5117751D01*
X596881Y5124310D01*
X603441D01*
X610000Y5117751D01*
Y5104632D01*
X603441Y5098072D01*
X613441Y4136238D02*
X587202D01*
X580643Y4129679D01*
Y4116560D01*
X587202Y4110000D01*
X613441D01*
X620000Y4116560D01*
Y4129679D01*
X606881Y4123119D02*
X620000Y4136238D01*
Y4129679D02*
X613441Y4136238D01*
X620000Y4149357D02*
Y4162476D01*
Y4155917D01*
X580643D01*
X587202Y4149357D01*
X626560Y4182155D02*
Y4208393D01*
X587202Y4221513D02*
X580643Y4228072D01*
Y4241191D01*
X587202Y4247751D01*
X593762D01*
X600321Y4241191D01*
Y4234632D01*
Y4241191D01*
X606881Y4247751D01*
X613441D01*
X620000Y4241191D01*
Y4228072D01*
X613441Y4221513D01*
X1680000Y4519357D02*
X1693119D01*
X1686560D01*
Y4480000D01*
X1680000D01*
X1693119D01*
X1739036Y4512798D02*
X1732476Y4519357D01*
X1719357D01*
X1712798Y4512798D01*
Y4486560D01*
X1719357Y4480000D01*
X1732476D01*
X1739036Y4486560D01*
X1778393Y4480000D02*
X1752155D01*
X1778393Y4506238D01*
Y4512798D01*
X1771834Y4519357D01*
X1758715D01*
X1752155Y4512798D01*
X1791513Y4473440D02*
X1817751D01*
X1830870Y4512798D02*
X1837430Y4519357D01*
X1850549D01*
X1857108Y4512798D01*
Y4506238D01*
X1850549Y4499679D01*
X1843989D01*
X1850549D01*
X1857108Y4493119D01*
Y4486560D01*
X1850549Y4480000D01*
X1837430D01*
X1830870Y4486560D01*
X300643Y4780000D02*
Y4793119D01*
Y4786560D01*
X340000D01*
Y4780000D01*
Y4793119D01*
X307202Y4839036D02*
X300643Y4832476D01*
Y4819357D01*
X307202Y4812798D01*
X333440D01*
X340000Y4819357D01*
Y4832476D01*
X333440Y4839036D01*
X340000Y4852155D02*
Y4865274D01*
Y4858715D01*
X300643D01*
X307202Y4852155D01*
X346560Y4884953D02*
Y4911191D01*
X307202Y4924310D02*
X300643Y4930870D01*
Y4943989D01*
X307202Y4950549D01*
X313762D01*
X320321Y4943989D01*
Y4937430D01*
Y4943989D01*
X326881Y4950549D01*
X333440D01*
X340000Y4943989D01*
Y4930870D01*
X333440Y4924310D01*
X1310000Y4560000D02*
Y4599357D01*
X1329679D01*
X1336238Y4592798D01*
Y4579679D01*
X1329679Y4573119D01*
X1310000D01*
X1323119D02*
X1336238Y4560000D01*
X1349358D02*
X1362477D01*
X1355917D01*
Y4599357D01*
X1349358Y4592798D01*
X1401834Y4560000D02*
Y4599357D01*
X1382155Y4579679D01*
X1408393D01*
X1421513Y4553440D02*
X1447751D01*
X1460870Y4592798D02*
X1467430Y4599357D01*
X1480549D01*
X1487108Y4592798D01*
Y4586238D01*
X1480549Y4579679D01*
X1473989D01*
X1480549D01*
X1487108Y4573119D01*
Y4566560D01*
X1480549Y4560000D01*
X1467430D01*
X1460870Y4566560D01*
X1920000Y3720000D02*
X1880643D01*
Y3739679D01*
X1887202Y3746238D01*
X1900321D01*
X1906881Y3739679D01*
Y3720000D01*
Y3733119D02*
X1920000Y3746238D01*
Y3759357D02*
Y3772477D01*
Y3765917D01*
X1880643D01*
X1887202Y3759357D01*
Y3792155D02*
X1880643Y3798715D01*
Y3811834D01*
X1887202Y3818393D01*
X1893762D01*
X1900321Y3811834D01*
Y3805274D01*
Y3811834D01*
X1906881Y3818393D01*
X1913440D01*
X1920000Y3811834D01*
Y3798715D01*
X1913440Y3792155D01*
X1926560Y3831513D02*
Y3857751D01*
X1887202Y3870870D02*
X1880643Y3877430D01*
Y3890549D01*
X1887202Y3897108D01*
X1893762D01*
X1900321Y3890549D01*
Y3883989D01*
Y3890549D01*
X1906881Y3897108D01*
X1913440D01*
X1920000Y3890549D01*
Y3877430D01*
X1913440Y3870870D01*
X1100000Y5230000D02*
Y5269357D01*
X1119679D01*
X1126238Y5262798D01*
Y5249679D01*
X1119679Y5243119D01*
X1100000D01*
X1113119D02*
X1126238Y5230000D01*
X1139358D02*
X1152477D01*
X1145917D01*
Y5269357D01*
X1139358Y5262798D01*
X1198393Y5230000D02*
X1172155D01*
X1198393Y5256238D01*
Y5262798D01*
X1191834Y5269357D01*
X1178715D01*
X1172155Y5262798D01*
X1211513Y5223440D02*
X1237751D01*
X1250870Y5262798D02*
X1257430Y5269357D01*
X1270549D01*
X1277108Y5262798D01*
Y5256238D01*
X1270549Y5249679D01*
X1263989D01*
X1270549D01*
X1277108Y5243119D01*
Y5236560D01*
X1270549Y5230000D01*
X1257430D01*
X1250870Y5236560D01*
X2150000Y4190000D02*
Y4229357D01*
X2169679D01*
X2176238Y4222798D01*
Y4209679D01*
X2169679Y4203119D01*
X2150000D01*
X2163119D02*
X2176238Y4190000D01*
X2189358D02*
X2202477D01*
X2195917D01*
Y4229357D01*
X2189358Y4222798D01*
X2222155Y4190000D02*
X2235274D01*
X2228715D01*
Y4229357D01*
X2222155Y4222798D01*
X2254953Y4183440D02*
X2281191D01*
X2294311Y4222798D02*
X2300870Y4229357D01*
X2313989D01*
X2320549Y4222798D01*
Y4216238D01*
X2313989Y4209679D01*
X2307430D01*
X2313989D01*
X2320549Y4203119D01*
Y4196560D01*
X2313989Y4190000D01*
X2300870D01*
X2294311Y4196560D01*
X2150000Y4240000D02*
Y4279357D01*
X2169679D01*
X2176238Y4272798D01*
Y4259679D01*
X2169679Y4253119D01*
X2150000D01*
X2163119D02*
X2176238Y4240000D01*
X2189357D02*
X2202477D01*
X2195917D01*
Y4279357D01*
X2189357Y4272798D01*
X2222155D02*
X2228715Y4279357D01*
X2241834D01*
X2248393Y4272798D01*
Y4246560D01*
X2241834Y4240000D01*
X2228715D01*
X2222155Y4246560D01*
Y4272798D01*
X2261513Y4233440D02*
X2287751D01*
X2300870Y4272798D02*
X2307430Y4279357D01*
X2320549D01*
X2327108Y4272798D01*
Y4266238D01*
X2320549Y4259679D01*
X2313989D01*
X2320549D01*
X2327108Y4253119D01*
Y4246560D01*
X2320549Y4240000D01*
X2307430D01*
X2300870Y4246560D01*
X1090000Y4370000D02*
Y4409357D01*
X1109679D01*
X1116238Y4402798D01*
Y4389679D01*
X1109679Y4383119D01*
X1090000D01*
X1103119D02*
X1116238Y4370000D01*
X1129358Y4376560D02*
X1135917Y4370000D01*
X1149036D01*
X1155596Y4376560D01*
Y4402798D01*
X1149036Y4409357D01*
X1135917D01*
X1129358Y4402798D01*
Y4396238D01*
X1135917Y4389679D01*
X1155596D01*
X1168715Y4363440D02*
X1194953D01*
X1208072Y4402798D02*
X1214632Y4409357D01*
X1227751D01*
X1234311Y4402798D01*
Y4396238D01*
X1227751Y4389679D01*
X1221191D01*
X1227751D01*
X1234311Y4383119D01*
Y4376560D01*
X1227751Y4370000D01*
X1214632D01*
X1208072Y4376560D01*
X2150000Y4290000D02*
Y4329357D01*
X2169679D01*
X2176238Y4322798D01*
Y4309679D01*
X2169679Y4303119D01*
X2150000D01*
X2163119D02*
X2176238Y4290000D01*
X2189358Y4322798D02*
X2195917Y4329357D01*
X2209036D01*
X2215596Y4322798D01*
Y4316238D01*
X2209036Y4309679D01*
X2215596Y4303119D01*
Y4296560D01*
X2209036Y4290000D01*
X2195917D01*
X2189358Y4296560D01*
Y4303119D01*
X2195917Y4309679D01*
X2189358Y4316238D01*
Y4322798D01*
X2195917Y4309679D02*
X2209036D01*
X2228715Y4283440D02*
X2254953D01*
X2268072Y4322798D02*
X2274632Y4329357D01*
X2287751D01*
X2294311Y4322798D01*
Y4316238D01*
X2287751Y4309679D01*
X2281191D01*
X2287751D01*
X2294311Y4303119D01*
Y4296560D01*
X2287751Y4290000D01*
X2274632D01*
X2268072Y4296560D01*
X2150000Y4340000D02*
Y4379357D01*
X2169679D01*
X2176238Y4372798D01*
Y4359679D01*
X2169679Y4353119D01*
X2150000D01*
X2163119D02*
X2176238Y4340000D01*
X2189358Y4379357D02*
X2215596D01*
Y4372798D01*
X2189358Y4346560D01*
Y4340000D01*
X2228715Y4333440D02*
X2254953D01*
X2268072Y4372798D02*
X2274632Y4379357D01*
X2287751D01*
X2294311Y4372798D01*
Y4366238D01*
X2287751Y4359679D01*
X2281191D01*
X2287751D01*
X2294311Y4353119D01*
Y4346560D01*
X2287751Y4340000D01*
X2274632D01*
X2268072Y4346560D01*
X1850000Y3750000D02*
X1810643D01*
Y3769679D01*
X1817202Y3776238D01*
X1830321D01*
X1836881Y3769679D01*
Y3750000D01*
Y3763119D02*
X1850000Y3776238D01*
X1810643Y3815596D02*
X1817202Y3802477D01*
X1830321Y3789357D01*
X1843440D01*
X1850000Y3795917D01*
Y3809036D01*
X1843440Y3815596D01*
X1836881D01*
X1830321Y3809036D01*
Y3789357D01*
X1856560Y3828715D02*
Y3854953D01*
X1817202Y3868072D02*
X1810643Y3874632D01*
Y3887751D01*
X1817202Y3894310D01*
X1823762D01*
X1830321Y3887751D01*
Y3881191D01*
Y3887751D01*
X1836881Y3894310D01*
X1843440D01*
X1850000Y3887751D01*
Y3874632D01*
X1843440Y3868072D01*
X2150000Y4390000D02*
Y4429357D01*
X2169679D01*
X2176238Y4422798D01*
Y4409679D01*
X2169679Y4403119D01*
X2150000D01*
X2163119D02*
X2176238Y4390000D01*
X2215596Y4429357D02*
X2189358D01*
Y4409679D01*
X2202477Y4416238D01*
X2209036D01*
X2215596Y4409679D01*
Y4396560D01*
X2209036Y4390000D01*
X2195917D01*
X2189358Y4396560D01*
X2228715Y4383440D02*
X2254953D01*
X2268072Y4422798D02*
X2274632Y4429357D01*
X2287751D01*
X2294311Y4422798D01*
Y4416238D01*
X2287751Y4409679D01*
X2281191D01*
X2287751D01*
X2294311Y4403119D01*
Y4396560D01*
X2287751Y4390000D01*
X2274632D01*
X2268072Y4396560D01*
X2150000Y4440000D02*
Y4479357D01*
X2169679D01*
X2176238Y4472798D01*
Y4459679D01*
X2169679Y4453119D01*
X2150000D01*
X2163119D02*
X2176238Y4440000D01*
X2209036D02*
Y4479357D01*
X2189358Y4459679D01*
X2215596D01*
X2228715Y4433440D02*
X2254953D01*
X2268072Y4472798D02*
X2274632Y4479357D01*
X2287751D01*
X2294311Y4472798D01*
Y4466238D01*
X2287751Y4459679D01*
X2281191D01*
X2287751D01*
X2294311Y4453119D01*
Y4446560D01*
X2287751Y4440000D01*
X2274632D01*
X2268072Y4446560D01*
X2150000Y4490000D02*
Y4529357D01*
X2169679D01*
X2176238Y4522798D01*
Y4509679D01*
X2169679Y4503119D01*
X2150000D01*
X2163119D02*
X2176238Y4490000D01*
X2189358Y4522798D02*
X2195917Y4529357D01*
X2209036D01*
X2215596Y4522798D01*
Y4516238D01*
X2209036Y4509679D01*
X2202477D01*
X2209036D01*
X2215596Y4503119D01*
Y4496560D01*
X2209036Y4490000D01*
X2195917D01*
X2189358Y4496560D01*
X2228715Y4483440D02*
X2254953D01*
X2268072Y4522798D02*
X2274632Y4529357D01*
X2287751D01*
X2294311Y4522798D01*
Y4516238D01*
X2287751Y4509679D01*
X2281191D01*
X2287751D01*
X2294311Y4503119D01*
Y4496560D01*
X2287751Y4490000D01*
X2274632D01*
X2268072Y4496560D01*
X675000Y5234000D02*
Y5273357D01*
X694679D01*
X701238Y5266798D01*
Y5253679D01*
X694679Y5247119D01*
X675000D01*
X688119D02*
X701238Y5234000D01*
X740596D02*
X714357D01*
X740596Y5260238D01*
Y5266798D01*
X734036Y5273357D01*
X720917D01*
X714357Y5266798D01*
X753715Y5227440D02*
X779953D01*
X793072Y5266798D02*
X799632Y5273357D01*
X812751D01*
X819311Y5266798D01*
Y5260238D01*
X812751Y5253679D01*
X806191D01*
X812751D01*
X819311Y5247119D01*
Y5240560D01*
X812751Y5234000D01*
X799632D01*
X793072Y5240560D01*
X660000Y4370000D02*
Y4409357D01*
X679679D01*
X686238Y4402798D01*
Y4389679D01*
X679679Y4383119D01*
X660000D01*
X673119D02*
X686238Y4370000D01*
X699357D02*
X712477D01*
X705917D01*
Y4409357D01*
X699357Y4402798D01*
X732155Y4363440D02*
X758394D01*
X771513Y4402798D02*
X778072Y4409357D01*
X791191D01*
X797751Y4402798D01*
Y4396238D01*
X791191Y4389679D01*
X784632D01*
X791191D01*
X797751Y4383119D01*
Y4376560D01*
X791191Y4370000D01*
X778072D01*
X771513Y4376560D01*
X2176238Y4072798D02*
X2169679Y4079357D01*
X2156560D01*
X2150000Y4072798D01*
Y4046560D01*
X2156560Y4040000D01*
X2169679D01*
X2176238Y4046560D01*
X2189358Y4079357D02*
X2215596D01*
Y4072798D01*
X2189358Y4046560D01*
Y4040000D01*
X2228715Y4033440D02*
X2254953D01*
X2268072Y4072798D02*
X2274632Y4079357D01*
X2287751D01*
X2294311Y4072798D01*
Y4066238D01*
X2287751Y4059679D01*
X2281191D01*
X2287751D01*
X2294311Y4053119D01*
Y4046560D01*
X2287751Y4040000D01*
X2274632D01*
X2268072Y4046560D01*
X1326238Y4182798D02*
X1319679Y4189357D01*
X1306560D01*
X1300000Y4182798D01*
Y4156560D01*
X1306560Y4150000D01*
X1319679D01*
X1326238Y4156560D01*
X1365596Y4189357D02*
X1352477Y4182798D01*
X1339358Y4169679D01*
Y4156560D01*
X1345917Y4150000D01*
X1359036D01*
X1365596Y4156560D01*
Y4163119D01*
X1359036Y4169679D01*
X1339358D01*
X1378715Y4143440D02*
X1404953D01*
X1418072Y4182798D02*
X1424632Y4189357D01*
X1437751D01*
X1444311Y4182798D01*
Y4176238D01*
X1437751Y4169679D01*
X1431191D01*
X1437751D01*
X1444311Y4163119D01*
Y4156560D01*
X1437751Y4150000D01*
X1424632D01*
X1418072Y4156560D01*
X2176238Y4132798D02*
X2169679Y4139357D01*
X2156560D01*
X2150000Y4132798D01*
Y4106560D01*
X2156560Y4100000D01*
X2169679D01*
X2176238Y4106560D01*
X2215596Y4139357D02*
X2189358D01*
Y4119679D01*
X2202477Y4126238D01*
X2209036D01*
X2215596Y4119679D01*
Y4106560D01*
X2209036Y4100000D01*
X2195917D01*
X2189358Y4106560D01*
X2228715Y4093440D02*
X2254953D01*
X2268072Y4132798D02*
X2274632Y4139357D01*
X2287751D01*
X2294311Y4132798D01*
Y4126238D01*
X2287751Y4119679D01*
X2281191D01*
X2287751D01*
X2294311Y4113119D01*
Y4106560D01*
X2287751Y4100000D01*
X2274632D01*
X2268072Y4106560D01*
X1326238Y4272798D02*
X1319679Y4279357D01*
X1306560D01*
X1300000Y4272798D01*
Y4246560D01*
X1306560Y4240000D01*
X1319679D01*
X1326238Y4246560D01*
X1359036Y4240000D02*
Y4279357D01*
X1339358Y4259679D01*
X1365596D01*
X1378715Y4233440D02*
X1404953D01*
X1418072Y4272798D02*
X1424632Y4279357D01*
X1437751D01*
X1444311Y4272798D01*
Y4266238D01*
X1437751Y4259679D01*
X1431191D01*
X1437751D01*
X1444311Y4253119D01*
Y4246560D01*
X1437751Y4240000D01*
X1424632D01*
X1418072Y4246560D01*
X1326238Y4362798D02*
X1319679Y4369357D01*
X1306560D01*
X1300000Y4362798D01*
Y4336560D01*
X1306560Y4330000D01*
X1319679D01*
X1326238Y4336560D01*
X1339358Y4362798D02*
X1345917Y4369357D01*
X1359036D01*
X1365596Y4362798D01*
Y4356238D01*
X1359036Y4349679D01*
X1352477D01*
X1359036D01*
X1365596Y4343119D01*
Y4336560D01*
X1359036Y4330000D01*
X1345917D01*
X1339358Y4336560D01*
X1378715Y4323440D02*
X1404953D01*
X1418072Y4362798D02*
X1424632Y4369357D01*
X1437751D01*
X1444311Y4362798D01*
Y4356238D01*
X1437751Y4349679D01*
X1431191D01*
X1437751D01*
X1444311Y4343119D01*
Y4336560D01*
X1437751Y4330000D01*
X1424632D01*
X1418072Y4336560D01*
X216238Y5152798D02*
X209679Y5159357D01*
X196560D01*
X190000Y5152798D01*
Y5126560D01*
X196560Y5120000D01*
X209679D01*
X216238Y5126560D01*
X255596Y5120000D02*
X229357D01*
X255596Y5146238D01*
Y5152798D01*
X249036Y5159357D01*
X235917D01*
X229357Y5152798D01*
X268715Y5113440D02*
X294953D01*
X308072Y5152798D02*
X314632Y5159357D01*
X327751D01*
X334310Y5152798D01*
Y5146238D01*
X327751Y5139679D01*
X321191D01*
X327751D01*
X334310Y5133119D01*
Y5126560D01*
X327751Y5120000D01*
X314632D01*
X308072Y5126560D01*
X1386238Y4052798D02*
X1379679Y4059357D01*
X1366560D01*
X1360000Y4052798D01*
Y4026560D01*
X1366560Y4020000D01*
X1379679D01*
X1386238Y4026560D01*
X1399358Y4020000D02*
X1412477D01*
X1405917D01*
Y4059357D01*
X1399358Y4052798D01*
X1432155Y4013440D02*
X1458393D01*
X1471513Y4052798D02*
X1478072Y4059357D01*
X1491191D01*
X1497751Y4052798D01*
Y4046238D01*
X1491191Y4039679D01*
X1484632D01*
X1491191D01*
X1497751Y4033119D01*
Y4026560D01*
X1491191Y4020000D01*
X1478072D01*
X1471513Y4026560D01*
X1376238Y1592798D02*
X1369679Y1599357D01*
X1356560D01*
X1350000Y1592798D01*
Y1566560D01*
X1356560Y1560000D01*
X1369679D01*
X1376238Y1566560D01*
X1389358Y1560000D02*
X1402477D01*
X1395917D01*
Y1599357D01*
X1389358Y1592798D01*
X1422155D02*
X1428715Y1599357D01*
X1441834D01*
X1448393Y1592798D01*
Y1586238D01*
X1441834Y1579679D01*
X1435274D01*
X1441834D01*
X1448393Y1573119D01*
Y1566560D01*
X1441834Y1560000D01*
X1428715D01*
X1422155Y1566560D01*
X1461513Y1553440D02*
X1487751D01*
X1500870Y1560000D02*
X1513989D01*
X1507430D01*
Y1599357D01*
X1500870Y1592798D01*
X5610000Y990000D02*
X5570643D01*
Y1009679D01*
X5577202Y1016238D01*
X5590321D01*
X5596881Y1009679D01*
Y990000D01*
Y1003119D02*
X5610000Y1016238D01*
Y1055596D02*
Y1029357D01*
X5583762Y1055596D01*
X5577202D01*
X5570643Y1049036D01*
Y1035917D01*
X5577202Y1029357D01*
X5570643Y1094953D02*
Y1068715D01*
X5590321D01*
X5583762Y1081834D01*
Y1088393D01*
X5590321Y1094953D01*
X5603440D01*
X5610000Y1088393D01*
Y1075274D01*
X5603440Y1068715D01*
X5620000Y250000D02*
X5580643D01*
Y269679D01*
X5587202Y276238D01*
X5600321D01*
X5606881Y269679D01*
Y250000D01*
Y263119D02*
X5620000Y276238D01*
Y315596D02*
Y289357D01*
X5593762Y315596D01*
X5587202D01*
X5580643Y309036D01*
Y295917D01*
X5587202Y289357D01*
X5620000Y348394D02*
X5580643D01*
X5600321Y328715D01*
Y354953D01*
X5040236Y2724357D02*
X5027117D01*
X5033676D01*
Y2691560D01*
X5027117Y2685000D01*
X5020557D01*
X5013997Y2691560D01*
X5079593Y2685000D02*
X5053355D01*
X5079593Y2711238D01*
Y2717798D01*
X5073033Y2724357D01*
X5059914D01*
X5053355Y2717798D01*
X5040238Y3484357D02*
X5027119D01*
X5033679D01*
Y3451560D01*
X5027119Y3445000D01*
X5020560D01*
X5014000Y3451560D01*
X5053357Y3445000D02*
X5066476D01*
X5059917D01*
Y3484357D01*
X5053357Y3477798D01*
X1043440Y1426238D02*
X1017202D01*
X1010643Y1419679D01*
Y1406560D01*
X1017202Y1400000D01*
X1043440D01*
X1050000Y1406560D01*
Y1419679D01*
X1036881Y1413119D02*
X1050000Y1426238D01*
Y1419679D02*
X1043440Y1426238D01*
X1050000Y1459036D02*
X1010643D01*
X1030321Y1439357D01*
Y1465596D01*
X1056560Y1478715D02*
Y1504953D01*
X1050000Y1518072D02*
Y1531191D01*
Y1524632D01*
X1010643D01*
X1017202Y1518072D01*
X1043440Y536238D02*
X1017202D01*
X1010643Y529679D01*
Y516560D01*
X1017202Y510000D01*
X1043440D01*
X1050000Y516560D01*
Y529679D01*
X1036881Y523119D02*
X1050000Y536238D01*
Y529679D02*
X1043440Y536238D01*
X1017202Y549357D02*
X1010643Y555917D01*
Y569036D01*
X1017202Y575596D01*
X1023762D01*
X1030321Y569036D01*
Y562476D01*
Y569036D01*
X1036881Y575596D01*
X1043440D01*
X1050000Y569036D01*
Y555917D01*
X1043440Y549357D01*
X1056560Y588715D02*
Y614953D01*
X1050000Y628072D02*
Y641191D01*
Y634632D01*
X1010643D01*
X1017202Y628072D01*
X603441Y1416238D02*
X577202D01*
X570643Y1409679D01*
Y1396560D01*
X577202Y1390000D01*
X603441D01*
X610000Y1396560D01*
Y1409679D01*
X596881Y1403119D02*
X610000Y1416238D01*
Y1409679D02*
X603441Y1416238D01*
X610000Y1455596D02*
Y1429357D01*
X583762Y1455596D01*
X577202D01*
X570643Y1449036D01*
Y1435917D01*
X577202Y1429357D01*
X616560Y1468715D02*
Y1494953D01*
X610000Y1508072D02*
Y1521191D01*
Y1514632D01*
X570643D01*
X577202Y1508072D01*
X613441Y546238D02*
X587202D01*
X580643Y539679D01*
Y526560D01*
X587202Y520000D01*
X613441D01*
X620000Y526560D01*
Y539679D01*
X606881Y533119D02*
X620000Y546238D01*
Y539679D02*
X613441Y546238D01*
X620000Y559357D02*
Y572476D01*
Y565917D01*
X580643D01*
X587202Y559357D01*
X626560Y592155D02*
Y618393D01*
X620000Y631513D02*
Y644632D01*
Y638072D01*
X580643D01*
X587202Y631513D01*
X1680000Y929357D02*
X1693119D01*
X1686560D01*
Y890000D01*
X1680000D01*
X1693119D01*
X1739036Y922798D02*
X1732476Y929357D01*
X1719357D01*
X1712798Y922798D01*
Y896560D01*
X1719357Y890000D01*
X1732476D01*
X1739036Y896560D01*
X1778393Y890000D02*
X1752155D01*
X1778393Y916238D01*
Y922798D01*
X1771834Y929357D01*
X1758715D01*
X1752155Y922798D01*
X1791513Y883440D02*
X1817751D01*
X1830870Y890000D02*
X1843989D01*
X1837430D01*
Y929357D01*
X1830870Y922798D01*
X300643Y1190000D02*
Y1203119D01*
Y1196560D01*
X340000D01*
Y1190000D01*
Y1203119D01*
X307202Y1249036D02*
X300643Y1242476D01*
Y1229357D01*
X307202Y1222798D01*
X333440D01*
X340000Y1229357D01*
Y1242476D01*
X333440Y1249036D01*
X340000Y1262155D02*
Y1275274D01*
Y1268715D01*
X300643D01*
X307202Y1262155D01*
X346560Y1294953D02*
Y1321191D01*
X340000Y1334310D02*
Y1347429D01*
Y1340870D01*
X300643D01*
X307202Y1334310D01*
X4158000Y4946893D02*
Y4914095D01*
X4164560Y4907535D01*
X4177679D01*
X4184238Y4914095D01*
Y4946893D01*
X4197357Y4907535D02*
X4210476D01*
X4203917D01*
Y4946893D01*
X4197357Y4940333D01*
X4310000Y4400000D02*
Y4439357D01*
X4329679D01*
X4336238Y4432798D01*
Y4419679D01*
X4329679Y4413119D01*
X4310000D01*
X4323119D02*
X4336238Y4400000D01*
X4375596D02*
X4349357D01*
X4375596Y4426238D01*
Y4432798D01*
X4369036Y4439357D01*
X4355917D01*
X4349357Y4432798D01*
X4388715D02*
X4395274Y4439357D01*
X4408394D01*
X4414953Y4432798D01*
Y4426238D01*
X4408394Y4419679D01*
X4401834D01*
X4408394D01*
X4414953Y4413119D01*
Y4406560D01*
X4408394Y4400000D01*
X4395274D01*
X4388715Y4406560D01*
X4050000Y4790000D02*
X4010643D01*
Y4809679D01*
X4017202Y4816238D01*
X4030321D01*
X4036881Y4809679D01*
Y4790000D01*
Y4803119D02*
X4050000Y4816238D01*
Y4855596D02*
Y4829357D01*
X4023762Y4855596D01*
X4017202D01*
X4010643Y4849036D01*
Y4835917D01*
X4017202Y4829357D01*
X4050000Y4894953D02*
Y4868715D01*
X4023762Y4894953D01*
X4017202D01*
X4010643Y4888394D01*
Y4875274D01*
X4017202Y4868715D01*
X4130000Y4410000D02*
Y4449357D01*
X4149679D01*
X4156238Y4442798D01*
Y4429679D01*
X4149679Y4423119D01*
X4130000D01*
X4143119D02*
X4156238Y4410000D01*
X4195596D02*
X4169357D01*
X4195596Y4436238D01*
Y4442798D01*
X4189036Y4449357D01*
X4175917D01*
X4169357Y4442798D01*
X4208715Y4410000D02*
X4221834D01*
X4215274D01*
Y4449357D01*
X4208715Y4442798D01*
X4010000Y4470000D02*
X3970643D01*
Y4489679D01*
X3977202Y4496238D01*
X3990321D01*
X3996881Y4489679D01*
Y4470000D01*
Y4483119D02*
X4010000Y4496238D01*
Y4535596D02*
Y4509357D01*
X3983762Y4535596D01*
X3977202D01*
X3970643Y4529036D01*
Y4515917D01*
X3977202Y4509357D01*
Y4548715D02*
X3970643Y4555274D01*
Y4568394D01*
X3977202Y4574953D01*
X4003440D01*
X4010000Y4568394D01*
Y4555274D01*
X4003440Y4548715D01*
X3977202D01*
X4120000Y4790000D02*
X4080643D01*
Y4809679D01*
X4087202Y4816238D01*
X4100321D01*
X4106881Y4809679D01*
Y4790000D01*
Y4803119D02*
X4120000Y4816238D01*
Y4829357D02*
Y4842476D01*
Y4835917D01*
X4080643D01*
X4087202Y4829357D01*
X4113440Y4862155D02*
X4120000Y4868715D01*
Y4881834D01*
X4113440Y4888393D01*
X4087202D01*
X4080643Y4881834D01*
Y4868715D01*
X4087202Y4862155D01*
X4093762D01*
X4100321Y4868715D01*
Y4888393D01*
X5220000Y3990000D02*
X5180643D01*
Y4009679D01*
X5187202Y4016238D01*
X5200321D01*
X5206881Y4009679D01*
Y3990000D01*
Y4003119D02*
X5220000Y4016238D01*
Y4029357D02*
Y4042477D01*
Y4035917D01*
X5180643D01*
X5187202Y4029357D01*
Y4062155D02*
X5180643Y4068715D01*
Y4081834D01*
X5187202Y4088393D01*
X5193762D01*
X5200321Y4081834D01*
X5206881Y4088393D01*
X5213440D01*
X5220000Y4081834D01*
Y4068715D01*
X5213440Y4062155D01*
X5206881D01*
X5200321Y4068715D01*
X5193762Y4062155D01*
X5187202D01*
X5200321Y4068715D02*
Y4081834D01*
X4880000Y2630000D02*
Y2669357D01*
X4899679D01*
X4906238Y2662798D01*
Y2649679D01*
X4899679Y2643119D01*
X4880000D01*
X4893119D02*
X4906238Y2630000D01*
X4919357D02*
X4932476D01*
X4925917D01*
Y2669357D01*
X4919357Y2662798D01*
X4952155Y2669357D02*
X4978393D01*
Y2662798D01*
X4952155Y2636560D01*
Y2630000D01*
X4880000Y3370000D02*
Y3409357D01*
X4899679D01*
X4906238Y3402798D01*
Y3389679D01*
X4899679Y3383119D01*
X4880000D01*
X4893119D02*
X4906238Y3370000D01*
X4919357D02*
X4932476D01*
X4925917D01*
Y3409357D01*
X4919357Y3402798D01*
X4978393Y3409357D02*
X4965274Y3402798D01*
X4952155Y3389679D01*
Y3376560D01*
X4958715Y3370000D01*
X4971834D01*
X4978393Y3376560D01*
Y3383119D01*
X4971834Y3389679D01*
X4952155D01*
X4223000Y4993000D02*
Y5032357D01*
X4242679D01*
X4249238Y5025798D01*
Y5012679D01*
X4242679Y5006119D01*
X4223000D01*
X4236119D02*
X4249238Y4993000D01*
X4262357D02*
X4275476D01*
X4268917D01*
Y5032357D01*
X4262357Y5025798D01*
X4321393Y5032357D02*
X4295155D01*
Y5012679D01*
X4308274Y5019238D01*
X4314834D01*
X4321393Y5012679D01*
Y4999560D01*
X4314834Y4993000D01*
X4301715D01*
X4295155Y4999560D01*
X1310000Y970000D02*
Y1009357D01*
X1329679D01*
X1336238Y1002798D01*
Y989679D01*
X1329679Y983119D01*
X1310000D01*
X1323119D02*
X1336238Y970000D01*
X1349358D02*
X1362477D01*
X1355917D01*
Y1009357D01*
X1349358Y1002798D01*
X1401834Y970000D02*
Y1009357D01*
X1382155Y989679D01*
X1408393D01*
X1421513Y963440D02*
X1447751D01*
X1460870Y970000D02*
X1473989D01*
X1467430D01*
Y1009357D01*
X1460870Y1002798D01*
X1920000Y130000D02*
X1880643D01*
Y149679D01*
X1887202Y156238D01*
X1900321D01*
X1906881Y149679D01*
Y130000D01*
Y143119D02*
X1920000Y156238D01*
Y169357D02*
Y182476D01*
Y175917D01*
X1880643D01*
X1887202Y169357D01*
Y202155D02*
X1880643Y208715D01*
Y221834D01*
X1887202Y228393D01*
X1893762D01*
X1900321Y221834D01*
Y215274D01*
Y221834D01*
X1906881Y228393D01*
X1913440D01*
X1920000Y221834D01*
Y208715D01*
X1913440Y202155D01*
X1926560Y241513D02*
Y267751D01*
X1920000Y280870D02*
Y293989D01*
Y287430D01*
X1880643D01*
X1887202Y280870D01*
X1100000Y1640000D02*
Y1679357D01*
X1119679D01*
X1126238Y1672798D01*
Y1659679D01*
X1119679Y1653119D01*
X1100000D01*
X1113119D02*
X1126238Y1640000D01*
X1139358D02*
X1152477D01*
X1145917D01*
Y1679357D01*
X1139358Y1672798D01*
X1198393Y1640000D02*
X1172155D01*
X1198393Y1666238D01*
Y1672798D01*
X1191834Y1679357D01*
X1178715D01*
X1172155Y1672798D01*
X1211513Y1633440D02*
X1237751D01*
X1250870Y1640000D02*
X1263989D01*
X1257430D01*
Y1679357D01*
X1250870Y1672798D01*
X2150000Y600000D02*
Y639357D01*
X2169679D01*
X2176238Y632798D01*
Y619679D01*
X2169679Y613119D01*
X2150000D01*
X2163119D02*
X2176238Y600000D01*
X2189357D02*
X2202477D01*
X2195917D01*
Y639357D01*
X2189357Y632798D01*
X2222155Y600000D02*
X2235274D01*
X2228715D01*
Y639357D01*
X2222155Y632798D01*
X2254953Y593440D02*
X2281191D01*
X2294310Y600000D02*
X2307430D01*
X2300870D01*
Y639357D01*
X2294310Y632798D01*
X2150000Y650000D02*
Y689357D01*
X2169679D01*
X2176238Y682798D01*
Y669679D01*
X2169679Y663119D01*
X2150000D01*
X2163119D02*
X2176238Y650000D01*
X2189357D02*
X2202477D01*
X2195917D01*
Y689357D01*
X2189357Y682798D01*
X2222155D02*
X2228715Y689357D01*
X2241834D01*
X2248393Y682798D01*
Y656560D01*
X2241834Y650000D01*
X2228715D01*
X2222155Y656560D01*
Y682798D01*
X2261513Y643440D02*
X2287751D01*
X2300870Y650000D02*
X2313989D01*
X2307430D01*
Y689357D01*
X2300870Y682798D01*
X1090000Y780000D02*
Y819357D01*
X1109679D01*
X1116238Y812798D01*
Y799679D01*
X1109679Y793119D01*
X1090000D01*
X1103119D02*
X1116238Y780000D01*
X1129358Y786560D02*
X1135917Y780000D01*
X1149036D01*
X1155596Y786560D01*
Y812798D01*
X1149036Y819357D01*
X1135917D01*
X1129358Y812798D01*
Y806238D01*
X1135917Y799679D01*
X1155596D01*
X1168715Y773440D02*
X1194953D01*
X1208072Y780000D02*
X1221191D01*
X1214632D01*
Y819357D01*
X1208072Y812798D01*
X2150000Y700000D02*
Y739357D01*
X2169679D01*
X2176238Y732798D01*
Y719679D01*
X2169679Y713119D01*
X2150000D01*
X2163119D02*
X2176238Y700000D01*
X2189358Y732798D02*
X2195917Y739357D01*
X2209036D01*
X2215596Y732798D01*
Y726238D01*
X2209036Y719679D01*
X2215596Y713119D01*
Y706560D01*
X2209036Y700000D01*
X2195917D01*
X2189358Y706560D01*
Y713119D01*
X2195917Y719679D01*
X2189358Y726238D01*
Y732798D01*
X2195917Y719679D02*
X2209036D01*
X2228715Y693440D02*
X2254953D01*
X2268072Y700000D02*
X2281191D01*
X2274632D01*
Y739357D01*
X2268072Y732798D01*
X2150000Y750000D02*
Y789357D01*
X2169679D01*
X2176238Y782798D01*
Y769679D01*
X2169679Y763119D01*
X2150000D01*
X2163119D02*
X2176238Y750000D01*
X2189358Y789357D02*
X2215596D01*
Y782798D01*
X2189358Y756560D01*
Y750000D01*
X2228715Y743440D02*
X2254953D01*
X2268072Y750000D02*
X2281191D01*
X2274632D01*
Y789357D01*
X2268072Y782798D01*
X1850000Y160000D02*
X1810643D01*
Y179679D01*
X1817202Y186238D01*
X1830321D01*
X1836881Y179679D01*
Y160000D01*
Y173119D02*
X1850000Y186238D01*
X1810643Y225596D02*
X1817202Y212476D01*
X1830321Y199357D01*
X1843440D01*
X1850000Y205917D01*
Y219036D01*
X1843440Y225596D01*
X1836881D01*
X1830321Y219036D01*
Y199357D01*
X1856560Y238715D02*
Y264953D01*
X1850000Y278072D02*
Y291191D01*
Y284632D01*
X1810643D01*
X1817202Y278072D01*
X2150000Y800000D02*
Y839357D01*
X2169679D01*
X2176238Y832798D01*
Y819679D01*
X2169679Y813119D01*
X2150000D01*
X2163119D02*
X2176238Y800000D01*
X2215596Y839357D02*
X2189358D01*
Y819679D01*
X2202477Y826238D01*
X2209036D01*
X2215596Y819679D01*
Y806560D01*
X2209036Y800000D01*
X2195917D01*
X2189358Y806560D01*
X2228715Y793440D02*
X2254953D01*
X2268072Y800000D02*
X2281191D01*
X2274632D01*
Y839357D01*
X2268072Y832798D01*
X2150000Y850000D02*
Y889357D01*
X2169679D01*
X2176238Y882798D01*
Y869679D01*
X2169679Y863119D01*
X2150000D01*
X2163119D02*
X2176238Y850000D01*
X2209036D02*
Y889357D01*
X2189358Y869679D01*
X2215596D01*
X2228715Y843440D02*
X2254953D01*
X2268072Y850000D02*
X2281191D01*
X2274632D01*
Y889357D01*
X2268072Y882798D01*
X2150000Y900000D02*
Y939357D01*
X2169679D01*
X2176238Y932798D01*
Y919679D01*
X2169679Y913119D01*
X2150000D01*
X2163119D02*
X2176238Y900000D01*
X2189357Y932798D02*
X2195917Y939357D01*
X2209036D01*
X2215596Y932798D01*
Y926238D01*
X2209036Y919679D01*
X2202477D01*
X2209036D01*
X2215596Y913119D01*
Y906560D01*
X2209036Y900000D01*
X2195917D01*
X2189357Y906560D01*
X2228715Y893440D02*
X2254953D01*
X2268072Y900000D02*
X2281191D01*
X2274632D01*
Y939357D01*
X2268072Y932798D01*
X675000Y1644000D02*
Y1683357D01*
X694679D01*
X701238Y1676798D01*
Y1663679D01*
X694679Y1657119D01*
X675000D01*
X688119D02*
X701238Y1644000D01*
X740596D02*
X714357D01*
X740596Y1670238D01*
Y1676798D01*
X734036Y1683357D01*
X720917D01*
X714357Y1676798D01*
X753715Y1637440D02*
X779953D01*
X793072Y1644000D02*
X806191D01*
X799632D01*
Y1683357D01*
X793072Y1676798D01*
X660000Y780000D02*
Y819357D01*
X679679D01*
X686238Y812798D01*
Y799679D01*
X679679Y793119D01*
X660000D01*
X673119D02*
X686238Y780000D01*
X699357D02*
X712477D01*
X705917D01*
Y819357D01*
X699357Y812798D01*
X732155Y773440D02*
X758394D01*
X771513Y780000D02*
X784632D01*
X778072D01*
Y819357D01*
X771513Y812798D01*
X4787238Y4822560D02*
Y4848798D01*
X4780679Y4855357D01*
X4767560D01*
X4761000Y4848798D01*
Y4822560D01*
X4767560Y4816000D01*
X4780679D01*
X4774119Y4829119D02*
X4787238Y4816000D01*
X4780679D02*
X4787238Y4822560D01*
X4826596Y4855357D02*
X4800357D01*
Y4835679D01*
X4813476Y4842238D01*
X4820036D01*
X4826596Y4835679D01*
Y4822560D01*
X4820036Y4816000D01*
X4806917D01*
X4800357Y4822560D01*
X4897000Y2416000D02*
Y2455357D01*
X4916679D01*
X4923238Y2448798D01*
Y2435679D01*
X4916679Y2429119D01*
X4897000D01*
X4956036Y2416000D02*
Y2455357D01*
X4936357Y2435679D01*
X4962596D01*
X4880000Y3060000D02*
X4840643D01*
Y3079679D01*
X4847202Y3086238D01*
X4860321D01*
X4866881Y3079679D01*
Y3060000D01*
X4847202Y3099357D02*
X4840643Y3105917D01*
Y3119036D01*
X4847202Y3125596D01*
X4853762D01*
X4860321Y3119036D01*
Y3112477D01*
Y3119036D01*
X4866881Y3125596D01*
X4873440D01*
X4880000Y3119036D01*
Y3105917D01*
X4873440Y3099357D01*
X5098000Y4933357D02*
Y4894000D01*
X5124238D01*
X5137357D02*
X5150476D01*
X5143917D01*
Y4933357D01*
X5137357Y4926798D01*
X5246000Y4305357D02*
Y4266000D01*
X5265679D01*
X5272238Y4272560D01*
Y4298798D01*
X5265679Y4305357D01*
X5246000D01*
X5311596Y4266000D02*
X5285357D01*
X5311596Y4292238D01*
Y4298798D01*
X5305036Y4305357D01*
X5291917D01*
X5285357Y4298798D01*
X4855000Y4390625D02*
Y4351268D01*
X4874679D01*
X4881238Y4357827D01*
Y4384065D01*
X4874679Y4390625D01*
X4855000D01*
X4894357Y4351268D02*
X4907476D01*
X4900917D01*
Y4390625D01*
X4894357Y4384065D01*
X3947202Y4826238D02*
X3940643Y4819679D01*
Y4806560D01*
X3947202Y4800000D01*
X3973440D01*
X3980000Y4806560D01*
Y4819679D01*
X3973440Y4826238D01*
X3980000Y4839357D02*
Y4852476D01*
Y4845917D01*
X3940643D01*
X3947202Y4839357D01*
X3980000Y4898393D02*
Y4872155D01*
X3953762Y4898393D01*
X3947202D01*
X3940643Y4891834D01*
Y4878715D01*
X3947202Y4872155D01*
X4527202Y4486238D02*
X4520643Y4479679D01*
Y4466560D01*
X4527202Y4460000D01*
X4553440D01*
X4560000Y4466560D01*
Y4479679D01*
X4553440Y4486238D01*
X4560000Y4499357D02*
Y4512476D01*
Y4505917D01*
X4520643D01*
X4527202Y4499357D01*
X4560000Y4532155D02*
Y4545274D01*
Y4538715D01*
X4520643D01*
X4527202Y4532155D01*
X4596238Y4863333D02*
X4589679Y4869893D01*
X4576560D01*
X4570000Y4863333D01*
Y4837095D01*
X4576560Y4830535D01*
X4589679D01*
X4596238Y4837095D01*
X4609357Y4830535D02*
X4622476D01*
X4615917D01*
Y4869893D01*
X4609357Y4863333D01*
X4642155D02*
X4648715Y4869893D01*
X4661834D01*
X4668393Y4863333D01*
Y4837095D01*
X4661834Y4830535D01*
X4648715D01*
X4642155Y4837095D01*
Y4863333D01*
X5383238Y4297798D02*
X5376679Y4304357D01*
X5363560D01*
X5357000Y4297798D01*
Y4271560D01*
X5363560Y4265000D01*
X5376679D01*
X5383238Y4271560D01*
X5396357D02*
X5402917Y4265000D01*
X5416036D01*
X5422596Y4271560D01*
Y4297798D01*
X5416036Y4304357D01*
X5402917D01*
X5396357Y4297798D01*
Y4291238D01*
X5402917Y4284679D01*
X5422596D01*
X3793238Y4952798D02*
X3786679Y4959357D01*
X3773560D01*
X3767000Y4952798D01*
Y4926560D01*
X3773560Y4920000D01*
X3786679D01*
X3793238Y4926560D01*
X3806357Y4952798D02*
X3812917Y4959357D01*
X3826036D01*
X3832596Y4952798D01*
Y4946238D01*
X3826036Y4939679D01*
X3832596Y4933119D01*
Y4926560D01*
X3826036Y4920000D01*
X3812917D01*
X3806357Y4926560D01*
Y4933119D01*
X3812917Y4939679D01*
X3806357Y4946238D01*
Y4952798D01*
X3812917Y4939679D02*
X3826036D01*
X2176238Y482798D02*
X2169679Y489357D01*
X2156560D01*
X2150000Y482798D01*
Y456560D01*
X2156560Y450000D01*
X2169679D01*
X2176238Y456560D01*
X2189358Y489357D02*
X2215596D01*
Y482798D01*
X2189358Y456560D01*
Y450000D01*
X2228715Y443440D02*
X2254953D01*
X2268072Y450000D02*
X2281191D01*
X2274632D01*
Y489357D01*
X2268072Y482798D01*
X1326238Y592798D02*
X1319679Y599357D01*
X1306560D01*
X1300000Y592798D01*
Y566560D01*
X1306560Y560000D01*
X1319679D01*
X1326238Y566560D01*
X1365596Y599357D02*
X1352477Y592798D01*
X1339358Y579679D01*
Y566560D01*
X1345917Y560000D01*
X1359036D01*
X1365596Y566560D01*
Y573119D01*
X1359036Y579679D01*
X1339358D01*
X1378715Y553440D02*
X1404953D01*
X1418072Y560000D02*
X1431191D01*
X1424632D01*
Y599357D01*
X1418072Y592798D01*
X2176238Y542798D02*
X2169679Y549357D01*
X2156560D01*
X2150000Y542798D01*
Y516560D01*
X2156560Y510000D01*
X2169679D01*
X2176238Y516560D01*
X2215596Y549357D02*
X2189358D01*
Y529679D01*
X2202477Y536238D01*
X2209036D01*
X2215596Y529679D01*
Y516560D01*
X2209036Y510000D01*
X2195917D01*
X2189358Y516560D01*
X2228715Y503440D02*
X2254953D01*
X2268072Y510000D02*
X2281191D01*
X2274632D01*
Y549357D01*
X2268072Y542798D01*
X1326238Y682798D02*
X1319679Y689357D01*
X1306560D01*
X1300000Y682798D01*
Y656560D01*
X1306560Y650000D01*
X1319679D01*
X1326238Y656560D01*
X1359036Y650000D02*
Y689357D01*
X1339358Y669679D01*
X1365596D01*
X1378715Y643440D02*
X1404953D01*
X1418072Y650000D02*
X1431191D01*
X1424632D01*
Y689357D01*
X1418072Y682798D01*
X1326238Y772798D02*
X1319679Y779357D01*
X1306560D01*
X1300000Y772798D01*
Y746560D01*
X1306560Y740000D01*
X1319679D01*
X1326238Y746560D01*
X1339358Y772798D02*
X1345917Y779357D01*
X1359036D01*
X1365596Y772798D01*
Y766238D01*
X1359036Y759679D01*
X1352477D01*
X1359036D01*
X1365596Y753119D01*
Y746560D01*
X1359036Y740000D01*
X1345917D01*
X1339358Y746560D01*
X1378715Y733440D02*
X1404953D01*
X1418072Y740000D02*
X1431191D01*
X1424632D01*
Y779357D01*
X1418072Y772798D01*
X216238Y1562798D02*
X209679Y1569357D01*
X196560D01*
X190000Y1562798D01*
Y1536560D01*
X196560Y1530000D01*
X209679D01*
X216238Y1536560D01*
X255596Y1530000D02*
X229357D01*
X255596Y1556238D01*
Y1562798D01*
X249036Y1569357D01*
X235917D01*
X229357Y1562798D01*
X268715Y1523440D02*
X294953D01*
X308072Y1530000D02*
X321191D01*
X314632D01*
Y1569357D01*
X308072Y1562798D01*
X1386238Y462798D02*
X1379679Y469357D01*
X1366560D01*
X1360000Y462798D01*
Y436560D01*
X1366560Y430000D01*
X1379679D01*
X1386238Y436560D01*
X1399358Y430000D02*
X1412477D01*
X1405917D01*
Y469357D01*
X1399358Y462798D01*
X1432155Y423440D02*
X1458393D01*
X1471513Y430000D02*
X1484632D01*
X1478072D01*
Y469357D01*
X1471513Y462798D01*
D48*
X1587480Y3837638D02*
G03*
X1587480Y3837638I-157480J0D01*
G01*
X1577480Y4969843D02*
G03*
X1577480Y4969843I-157480J0D01*
G01*
X1587480Y2031102D02*
G03*
X1587480Y2031102I-157480J0D01*
G01*
X1577480Y3163307D02*
G03*
X1577480Y3163307I-157480J0D01*
G01*
X1577480Y1379843D02*
G03*
X1577480Y1379843I-157480J0D01*
G01*
X1587480Y247638D02*
G03*
X1587480Y247638I-157480J0D01*
G01*
X1410000Y3642638D02*
X1450000D01*
X1430000Y3622638D02*
Y3662638D01*
X1400000Y4774843D02*
X1440000D01*
X1420000Y4754843D02*
Y4794843D01*
X1410000Y1836102D02*
X1450000D01*
X1430000Y1816102D02*
Y1856102D01*
X1400000Y2968307D02*
X1440000D01*
X1420000Y2948307D02*
Y2988307D01*
X1420000Y1164843D02*
Y1204843D01*
X1400000Y1184843D02*
X1440000D01*
X1430000Y32638D02*
Y72638D01*
X1410000Y52638D02*
X1450000D01*
X3770945Y4891417D02*
X3889055D01*
D51*
X5245000Y4240000D02*
X5295000D01*
X5245000Y4125000D02*
X5255000Y4115000D01*
X5285000D02*
X5295000Y4125000D01*
X5255000Y4115000D02*
X5285000D01*
X5295000Y4125000D02*
Y4165000D01*
Y4195000D02*
Y4240000D01*
X5245000Y4125000D02*
Y4165000D01*
Y4195000D02*
Y4240000D01*
D65*
X4293110Y4823858D02*
G03*
X4293110Y4823858I-11811J0D01*
G01*
D66*
X5305669Y2048504D02*
Y2611496D01*
X5014328Y2048502D02*
X5014330Y2611496D01*
X5284015Y2048504D02*
X5305669D01*
X5014328Y2048502D02*
X5132439D01*
X5014328Y2611495D02*
X5132439D01*
X5284015Y2611496D02*
X5305669D01*
X5305671Y2808504D02*
Y3371496D01*
X5014331Y2808502D02*
X5014333Y3371496D01*
X5284018Y2808504D02*
X5305671D01*
X5014331Y2808502D02*
X5132442D01*
X5014331Y3371495D02*
X5132442D01*
X5284018Y3371496D02*
X5305671D01*
X4962480Y3031260D02*
Y3138543D01*
X4944272Y3031260D02*
X4962480D01*
X4897404D02*
X4944272D01*
X4897520Y3031667D02*
Y3138543D01*
X4962480D01*
X83543Y4807008D02*
Y4932992D01*
X276457D01*
Y4807008D02*
Y4932992D01*
X83543Y4807008D02*
X276457D01*
X78425Y4733189D02*
Y4793228D01*
X1615315Y4448976D02*
X1673386D01*
X397244Y3988820D02*
Y4034094D01*
X802756D01*
Y3988820D02*
Y4034094D01*
X397244Y4848820D02*
Y4894094D01*
X802756D01*
Y4848820D02*
Y4894094D01*
X817244Y3988820D02*
Y4034094D01*
X1222756D01*
Y3988820D02*
Y4034094D01*
X827244Y4851182D02*
Y4896456D01*
X1232756D01*
Y4851182D02*
Y4896456D01*
X83543Y3000472D02*
Y3126457D01*
X276457D01*
Y3000472D02*
Y3126457D01*
X83543Y3000472D02*
X276457D01*
X78425Y2926654D02*
Y2986693D01*
X1615315Y2642441D02*
X1673386D01*
X397244Y2182285D02*
Y2227559D01*
X802756D01*
Y2182285D02*
Y2227559D01*
X397244Y3042285D02*
Y3087559D01*
X802756D01*
Y3042285D02*
Y3087559D01*
X817244Y2182285D02*
Y2227559D01*
X1222756D01*
Y2182285D02*
Y2227559D01*
X827244Y3044647D02*
Y3089921D01*
X1232756D01*
Y3044647D02*
Y3089921D01*
X78425Y1143189D02*
Y1203228D01*
X83543Y1217008D02*
X276457D01*
Y1342992D01*
X83543D02*
X276457D01*
X83543Y1217008D02*
Y1342992D01*
X802756Y1258820D02*
Y1304094D01*
X397244D02*
X802756D01*
X397244Y1258820D02*
Y1304094D01*
X1232756Y1261182D02*
Y1306456D01*
X827244D02*
X1232756D01*
X827244Y1261182D02*
Y1306456D01*
X1615315Y858976D02*
X1673386D01*
X802756Y398820D02*
Y444094D01*
X397244D02*
X802756D01*
X397244Y398820D02*
Y444094D01*
X1222756Y398820D02*
Y444094D01*
X817244D02*
X1222756D01*
X817244Y398820D02*
Y444094D01*
X4768110Y4706614D02*
X5031890D01*
X4768110Y4533386D02*
X5031890D01*
Y4706614D01*
X4768110Y4533386D02*
Y4706614D01*
X5103937Y4866063D02*
X5596063D01*
X5103937Y4373937D02*
X5596063D01*
X5103937Y4742047D02*
Y4866063D01*
X5596063Y4742047D02*
Y4866063D01*
X5103937Y4373937D02*
Y4497953D01*
X5596063Y4373937D02*
Y4497953D01*
X3770945Y4694567D02*
Y4765433D01*
X3889055Y4694567D02*
Y4765433D01*
X4855000Y4048268D02*
Y4323268D01*
X5145000D01*
Y4048386D02*
Y4323268D01*
X4241929Y4517756D02*
Y4862244D01*
X4358071Y4517756D02*
Y4862244D01*
X4241929D02*
X4358071D01*
X4241929Y4517756D02*
X4358071D01*
X4897520Y2388543D02*
X4962480D01*
X4897520Y2281667D02*
Y2388543D01*
X4897404Y2281260D02*
X4944272D01*
X4962480D01*
Y2388543D01*
D67*
X1784216Y2994783D02*
X1797681Y2947656D01*
X1787582Y2994783D02*
X1797681Y2957754D01*
X1811146Y2994783D02*
X1797681Y2947656D01*
X1811146Y2994783D02*
X1824611Y2947656D01*
X1814512Y2994783D02*
X1824611Y2957754D01*
X1838076Y2994783D02*
X1824611Y2947656D01*
X1774117Y2994783D02*
X1797681D01*
X1827977D02*
X1848175D01*
X1866016D02*
X1879481Y2947656D01*
X1869382Y2994783D02*
X1879481Y2957754D01*
X1892946Y2994783D02*
X1879481Y2947656D01*
X1892946Y2994783D02*
X1906411Y2947656D01*
X1896312Y2994783D02*
X1906411Y2957754D01*
X1919876Y2994783D02*
X1906411Y2947656D01*
X1855917Y2994783D02*
X1879481D01*
X1909777D02*
X1929975D01*
X1947816D02*
X1961281Y2947656D01*
X1951182Y2994783D02*
X1961281Y2957754D01*
X1974746Y2994783D02*
X1961281Y2947656D01*
X1974746Y2994783D02*
X1988211Y2947656D01*
X1978112Y2994783D02*
X1988211Y2957754D01*
X2001676Y2994783D02*
X1988211Y2947656D01*
X1937717Y2994783D02*
X1961281D01*
X1991577D02*
X2011774D01*
X2022883Y2954388D02*
X2019517Y2951022D01*
X2022883Y2947656D01*
X2026249Y2951022D01*
X2022883Y2954388D01*
X2050823Y2994783D02*
Y2947656D01*
X2054189Y2994783D02*
Y2947656D01*
Y2984684D02*
X2060922Y2991417D01*
X2071021Y2994783D01*
X2077753D01*
X2087852Y2991417D01*
X2091218Y2984684D01*
Y2947656D01*
X2077753Y2994783D02*
X2084486Y2991417D01*
X2087852Y2984684D01*
Y2947656D01*
X2091218Y2984684D02*
X2097951Y2991417D01*
X2108049Y2994783D01*
X2114782D01*
X2124881Y2991417D01*
X2128247Y2984684D01*
Y2947656D01*
X2114782Y2994783D02*
X2121514Y2991417D01*
X2124881Y2984684D01*
Y2947656D01*
X2040724Y2994783D02*
X2054189D01*
X2040724Y2947656D02*
X2064288D01*
X2077753D02*
X2101317D01*
X2114782D02*
X2138346D01*
X2184127Y2984684D02*
X2180760Y2981318D01*
X2184127Y2977952D01*
X2187493Y2981318D01*
Y2984684D01*
X2180760Y2991417D01*
X2174028Y2994783D01*
X2163929D01*
X2153831Y2991417D01*
X2147098Y2984684D01*
X2143732Y2974586D01*
Y2967853D01*
X2147098Y2957754D01*
X2153831Y2951022D01*
X2163929Y2947656D01*
X2170662D01*
X2180760Y2951022D01*
X2187493Y2957754D01*
X2163929Y2994783D02*
X2157197Y2991417D01*
X2150464Y2984684D01*
X2147098Y2974586D01*
Y2967853D01*
X2150464Y2957754D01*
X2157197Y2951022D01*
X2163929Y2947656D01*
X2208364Y3018347D02*
X2204997Y3014981D01*
X2208364Y3011614D01*
X2211730Y3014981D01*
X2208364Y3018347D01*
Y2994783D02*
Y2947656D01*
X2211730Y2994783D02*
Y2947656D01*
X2198265Y2994783D02*
X2211730D01*
X2198265Y2947656D02*
X2221829D01*
X2237987Y2954388D02*
X2234621Y2951022D01*
X2237987Y2947656D01*
X2241353Y2951022D01*
X2237987Y2954388D01*
X2259194Y2974586D02*
X2299589D01*
Y2981318D01*
X2296223Y2988051D01*
X2292857Y2991417D01*
X2286124Y2994783D01*
X2276026D01*
X2265927Y2991417D01*
X2259194Y2984684D01*
X2255828Y2974586D01*
Y2967853D01*
X2259194Y2957754D01*
X2265927Y2951022D01*
X2276026Y2947656D01*
X2282758D01*
X2292857Y2951022D01*
X2299589Y2957754D01*
X2296223Y2974586D02*
Y2984684D01*
X2292857Y2991417D01*
X2276026Y2994783D02*
X2269293Y2991417D01*
X2262561Y2984684D01*
X2259194Y2974586D01*
Y2967853D01*
X2262561Y2957754D01*
X2269293Y2951022D01*
X2276026Y2947656D01*
X2350756Y3018347D02*
Y2947656D01*
X2354123Y3018347D02*
Y2947656D01*
X2350756Y2984684D02*
X2344024Y2991417D01*
X2337291Y2994783D01*
X2330559D01*
X2320460Y2991417D01*
X2313728Y2984684D01*
X2310361Y2974586D01*
Y2967853D01*
X2313728Y2957754D01*
X2320460Y2951022D01*
X2330559Y2947656D01*
X2337291D01*
X2344024Y2951022D01*
X2350756Y2957754D01*
X2330559Y2994783D02*
X2323826Y2991417D01*
X2317094Y2984684D01*
X2313728Y2974586D01*
Y2967853D01*
X2317094Y2957754D01*
X2323826Y2951022D01*
X2330559Y2947656D01*
X2340658Y3018347D02*
X2354123D01*
X2350756Y2947656D02*
X2364221D01*
X2384082Y2994783D02*
Y2957754D01*
X2387448Y2951022D01*
X2397547Y2947656D01*
X2404280D01*
X2414379Y2951022D01*
X2421111Y2957754D01*
X2387448Y2994783D02*
Y2957754D01*
X2390815Y2951022D01*
X2397547Y2947656D01*
X2421111Y2994783D02*
Y2947656D01*
X2424477Y2994783D02*
Y2947656D01*
X2373983Y2994783D02*
X2387448D01*
X2411012D02*
X2424477D01*
X2421111Y2947656D02*
X2434576D01*
%TF.MD5,f05b9cfdfe708413712b4785b4300c24*%
M02*
