%TF.GenerationSoftware,Altium Limited,Altium Designer,19.1.5 (86)*%
G04 Layer_Color=0*
%FSLAX26Y26*%
%MOIN*%
%TF.FileFunction,Plated,1,2,PTH,Drill*%
%TF.Part,Single*%
G01*
G75*
%TA.AperFunction,ComponentDrill*%
%ADD89C,0.051181*%
%ADD90C,0.036221*%
%ADD91C,0.090551*%
%ADD92C,0.051181*%
%ADD93C,0.023622*%
%ADD94C,0.035433*%
%ADD95C,0.031496*%
%TA.AperFunction,OtherDrill,Pad Free-6 (4665mil,3697mil)*%
%ADD96C,0.141700*%
%TA.AperFunction,OtherDrill,Pad Free-8 (5375.5mil,1036mil)*%
%ADD97C,0.141700*%
%TA.AperFunction,OtherDrill,Pad Free-8 (2289.5mil,2733.5mil)*%
%ADD98C,0.141700*%
%TA.AperFunction,ComponentDrill*%
%ADD99C,0.035433*%
%TA.AperFunction,OtherDrill,Pad Free-0 (2770mil,3650mil)*%
%ADD100C,0.125984*%
%TA.AperFunction,OtherDrill,Pad Free-0 (3370mil,1650mil)*%
%ADD101C,0.125984*%
%TA.AperFunction,OtherDrill,Pad Free-0 (4470mil,1650mil)*%
%ADD102C,0.125984*%
%TA.AperFunction,OtherDrill,Pad Free-0 (4670mil,450mil)*%
%ADD103C,0.125984*%
%TA.AperFunction,OtherDrill,Pad Free-0 (2770mil,700mil)*%
%ADD104C,0.125984*%
%TA.AperFunction,ViaDrill,NotFilled*%
%ADD105C,0.035433*%
%ADD106C,0.009842*%
D89*
X5801669Y1820370D02*
D03*
Y1620370D02*
D03*
Y2220370D02*
D03*
Y2020370D02*
D03*
X5800000Y2620000D02*
D03*
Y2420000D02*
D03*
Y3020000D02*
D03*
Y2820000D02*
D03*
Y3420000D02*
D03*
Y3220000D02*
D03*
Y3820000D02*
D03*
Y3620000D02*
D03*
X5811669Y5020370D02*
D03*
Y5220370D02*
D03*
X5830000Y4740000D02*
D03*
Y4540000D02*
D03*
Y4140000D02*
D03*
Y4340000D02*
D03*
X5810000Y650000D02*
D03*
Y450000D02*
D03*
Y250000D02*
D03*
Y1330000D02*
D03*
Y1130000D02*
D03*
Y930000D02*
D03*
X198331Y2513095D02*
D03*
Y2713095D02*
D03*
X198331Y4319630D02*
D03*
Y4519630D02*
D03*
X198331Y929630D02*
D03*
Y729630D02*
D03*
D90*
X5100944Y2369370D02*
D03*
Y2290630D02*
D03*
Y2467795D02*
D03*
Y2192205D02*
D03*
X5100947Y3129370D02*
D03*
Y3050630D02*
D03*
Y3227795D02*
D03*
Y2952205D02*
D03*
D91*
X5207637Y2588661D02*
D03*
Y2071339D02*
D03*
X5207640Y3348661D02*
D03*
Y2831339D02*
D03*
D92*
X4830000Y5170000D02*
D03*
X4630000D02*
D03*
X4430000D02*
D03*
X4030000D02*
D03*
X4230000D02*
D03*
X2650000D02*
D03*
X2450000D02*
D03*
X2250000D02*
D03*
X1850000D02*
D03*
X2050000D02*
D03*
X3740000D02*
D03*
X3540000D02*
D03*
X3340000D02*
D03*
X2940000D02*
D03*
X3140000D02*
D03*
D93*
X4930000Y3110000D02*
D03*
Y3060000D02*
D03*
Y2310000D02*
D03*
Y2360000D02*
D03*
D94*
X1430000Y3770000D02*
D03*
Y3907795D02*
D03*
X1430000Y1963465D02*
D03*
Y2101260D02*
D03*
X1430000Y317795D02*
D03*
Y180000D02*
D03*
X4670000Y1150000D02*
D03*
Y1250000D02*
D03*
Y650000D02*
D03*
Y750000D02*
D03*
Y850000D02*
D03*
Y950000D02*
D03*
Y1050000D02*
D03*
Y1350000D02*
D03*
X2770000Y1050000D02*
D03*
Y950000D02*
D03*
Y1550000D02*
D03*
Y1450000D02*
D03*
Y1350000D02*
D03*
Y1250000D02*
D03*
Y1150000D02*
D03*
Y850000D02*
D03*
X3770000Y1645000D02*
D03*
Y1745000D02*
D03*
X3670000Y1645000D02*
D03*
Y1745000D02*
D03*
X3570000Y1645000D02*
D03*
Y1745000D02*
D03*
X4670000Y2050000D02*
D03*
Y2150000D02*
D03*
Y1550000D02*
D03*
Y1650000D02*
D03*
Y1750000D02*
D03*
Y1850000D02*
D03*
Y1950000D02*
D03*
Y2250000D02*
D03*
X2770000Y1950000D02*
D03*
Y1850000D02*
D03*
Y2450000D02*
D03*
Y2350000D02*
D03*
Y2250000D02*
D03*
Y2150000D02*
D03*
Y2050000D02*
D03*
Y1750000D02*
D03*
X4670000Y2450000D02*
D03*
Y2550000D02*
D03*
Y2650000D02*
D03*
Y2750000D02*
D03*
Y2850000D02*
D03*
Y2950000D02*
D03*
X2770000Y2810000D02*
D03*
Y2710000D02*
D03*
Y3310000D02*
D03*
Y3210000D02*
D03*
Y3110000D02*
D03*
Y3010000D02*
D03*
Y2910000D02*
D03*
Y2610000D02*
D03*
D95*
X1420000Y4902205D02*
D03*
Y5040000D02*
D03*
X1420000Y3095669D02*
D03*
Y3233465D02*
D03*
X1420000Y1450000D02*
D03*
Y1312205D02*
D03*
D96*
X4665000Y3697000D02*
D03*
D97*
X5375500Y1036000D02*
D03*
D98*
X2289500Y2733500D02*
D03*
D99*
X4470000Y550000D02*
D03*
Y450000D02*
D03*
X4370000Y550000D02*
D03*
Y450000D02*
D03*
X4270000Y550000D02*
D03*
Y450000D02*
D03*
X4170000Y550000D02*
D03*
Y450000D02*
D03*
X4070000Y550000D02*
D03*
Y450000D02*
D03*
X3970000Y550000D02*
D03*
Y450000D02*
D03*
X3870000Y550000D02*
D03*
Y450000D02*
D03*
X3770000Y550000D02*
D03*
Y450000D02*
D03*
X3670000D02*
D03*
Y550000D02*
D03*
X3570000D02*
D03*
Y450000D02*
D03*
X3470000Y550000D02*
D03*
Y450000D02*
D03*
X3370000Y550000D02*
D03*
Y450000D02*
D03*
X3270000Y550000D02*
D03*
Y450000D02*
D03*
X3170000Y550000D02*
D03*
Y450000D02*
D03*
X3070000Y550000D02*
D03*
Y450000D02*
D03*
X2970000Y550000D02*
D03*
Y450000D02*
D03*
X2870000Y550000D02*
D03*
Y450000D02*
D03*
X2770000Y550000D02*
D03*
Y450000D02*
D03*
D100*
Y3650000D02*
D03*
D101*
X3370000Y1650000D02*
D03*
D102*
X4470000D02*
D03*
D103*
X4670000Y450000D02*
D03*
D104*
X2770000Y700000D02*
D03*
D105*
X110000Y3270000D02*
D03*
X120000Y1490000D02*
D03*
X110000Y5080000D02*
D03*
D106*
X1999134Y531968D02*
D03*
Y4121968D02*
D03*
X1999134Y2317402D02*
D03*
X3180000Y2030000D02*
D03*
X3160000Y1970000D02*
D03*
X4120000Y2350000D02*
D03*
X4090000Y2280000D02*
D03*
X4360000Y1900000D02*
D03*
X4150000Y1740000D02*
D03*
X2630000Y960000D02*
D03*
X1780000Y390000D02*
D03*
X2650000Y1020000D02*
D03*
X2490000Y2590000D02*
D03*
X2360000Y2530000D02*
D03*
X1780000Y2180000D02*
D03*
X2490000Y2700000D02*
D03*
X2460000Y2800000D02*
D03*
X2360000Y2590000D02*
D03*
X2480000Y2336250D02*
D03*
X2390000Y2430000D02*
D03*
Y2860000D02*
D03*
X1200000Y1490000D02*
D03*
Y3270000D02*
D03*
X1780000Y3990000D02*
D03*
X4500000Y4740000D02*
D03*
X4940000Y4850000D02*
D03*
X1200000Y4960000D02*
D03*
X310000Y1490000D02*
D03*
X100000Y1130000D02*
D03*
X130000D02*
D03*
X160000D02*
D03*
X900000Y810000D02*
D03*
X920000Y830000D02*
D03*
Y790000D02*
D03*
X940000Y810000D02*
D03*
X920000Y660000D02*
D03*
X1460000Y520000D02*
D03*
X520000Y770000D02*
D03*
X1530000Y800000D02*
D03*
X1930000Y590000D02*
D03*
Y390000D02*
D03*
X1640000Y440000D02*
D03*
Y900000D02*
D03*
X2130000Y670000D02*
D03*
X1580000Y520000D02*
D03*
X1240000Y740000D02*
D03*
X1570000Y610000D02*
D03*
X815000Y730000D02*
D03*
X1580000Y740000D02*
D03*
X810000Y1590000D02*
D03*
X1460000Y830000D02*
D03*
X190000Y1280000D02*
D03*
X2140000Y890000D02*
D03*
X1470000Y920000D02*
D03*
X1450000Y630000D02*
D03*
X100000Y4720000D02*
D03*
X130000D02*
D03*
X160000D02*
D03*
X900000Y4400000D02*
D03*
X920000Y4420000D02*
D03*
Y4380000D02*
D03*
X940000Y4400000D02*
D03*
X920000Y4250000D02*
D03*
X1460000Y4110000D02*
D03*
X520000Y4360000D02*
D03*
X1530000Y4390000D02*
D03*
X1930000Y4180000D02*
D03*
Y3980000D02*
D03*
X1640000Y4030000D02*
D03*
Y4490000D02*
D03*
X2130000Y4260000D02*
D03*
X1580000Y4110000D02*
D03*
X1240000Y4330000D02*
D03*
X1570000Y4200000D02*
D03*
X815000Y4320000D02*
D03*
X1580000Y4330000D02*
D03*
X810000Y5180000D02*
D03*
X1460000Y4420000D02*
D03*
X190000Y4870000D02*
D03*
X2140000Y4480000D02*
D03*
X1470000Y4510000D02*
D03*
X1450000Y4220000D02*
D03*
X310000Y5080000D02*
D03*
X920000Y2613465D02*
D03*
X1450000Y2413465D02*
D03*
X1470000Y2703465D02*
D03*
X2140000Y2673465D02*
D03*
X190000Y3063465D02*
D03*
X1460000Y2613465D02*
D03*
X810000Y3373465D02*
D03*
X1580000Y2523465D02*
D03*
X815000Y2513465D02*
D03*
X1570000Y2393465D02*
D03*
X1240000Y2523465D02*
D03*
X1580000Y2303465D02*
D03*
X2130000Y2453465D02*
D03*
X1640000Y2683465D02*
D03*
Y2223465D02*
D03*
X1930000Y2173465D02*
D03*
Y2373465D02*
D03*
X1530000Y2583465D02*
D03*
X520000Y2553465D02*
D03*
X920000Y2443465D02*
D03*
X1460000Y2303465D02*
D03*
X940000Y2593465D02*
D03*
X920000Y2573465D02*
D03*
X900000Y2593465D02*
D03*
X160000Y2913465D02*
D03*
X130000D02*
D03*
X100000D02*
D03*
X310000Y3273465D02*
D03*
%TF.MD5,d5ae0cf490f4bb5e2d07f578bedd6353*%
M02*
