%TF.GenerationSoftware,Altium Limited,Altium Designer,19.1.5 (86)*%
G04 Layer_Color=16711935*
%FSLAX26Y26*%
%MOIN*%
%TF.FileFunction,Other,Mechanical_13*%
%TF.Part,Single*%
G01*
G75*
%TA.AperFunction,NonConductor*%
%ADD47C,0.003937*%
D47*
X4276378Y4827795D02*
G03*
X4276378Y4827795I-19685J0D01*
G01*
X5014330Y2611496D02*
X5305669D01*
X5014330Y2048504D02*
X5305669D01*
X5014328Y2048502D02*
X5014330Y2611496D01*
X5305669Y2048504D02*
Y2611496D01*
X5014333Y3371496D02*
X5305671D01*
X5014333Y2808504D02*
X5305671D01*
X5014331Y2808502D02*
X5014333Y3371496D01*
X5305671Y2808504D02*
Y3371496D01*
X83543Y4793228D02*
Y4946772D01*
X276457D01*
Y4793228D02*
Y4946772D01*
X83543Y4793228D02*
X276457D01*
X83543Y4843228D02*
X133543Y4793228D01*
X1673386Y4450945D02*
X1846614D01*
Y4069055D02*
Y4450945D01*
X1673386Y4069055D02*
X1846614D01*
X1673386D02*
Y4450945D01*
Y4425354D02*
X1698976Y4450945D01*
X397244Y3662048D02*
Y4034094D01*
X802756Y3662048D02*
Y4034094D01*
X397244Y3662048D02*
X802756D01*
X397244Y4034094D02*
X802756D01*
X397244Y4522048D02*
Y4894094D01*
X802756Y4522048D02*
Y4894094D01*
X397244Y4522048D02*
X802756D01*
X397244Y4894094D02*
X802756D01*
X817244Y3662048D02*
Y4034094D01*
X1222756Y3662048D02*
Y4034094D01*
X817244Y3662048D02*
X1222756D01*
X817244Y4034094D02*
X1222756D01*
X827244Y4524410D02*
Y4896456D01*
X1232756Y4524410D02*
Y4896456D01*
X827244Y4524410D02*
X1232756D01*
X827244Y4896456D02*
X1232756D01*
X83543Y2986693D02*
Y3140236D01*
X276457D01*
Y2986693D02*
Y3140236D01*
X83543Y2986693D02*
X276457D01*
X83543Y3036693D02*
X133543Y2986693D01*
X1673386Y2644410D02*
X1846614D01*
Y2262520D02*
Y2644410D01*
X1673386Y2262520D02*
X1846614D01*
X1673386D02*
Y2644410D01*
Y2618819D02*
X1698976Y2644410D01*
X397244Y1855513D02*
Y2227559D01*
X802756Y1855513D02*
Y2227559D01*
X397244Y1855513D02*
X802756D01*
X397244Y2227559D02*
X802756D01*
X397244Y2715513D02*
Y3087559D01*
X802756Y2715513D02*
Y3087559D01*
X397244Y2715513D02*
X802756D01*
X397244Y3087559D02*
X802756D01*
X817244Y1855513D02*
Y2227559D01*
X1222756Y1855513D02*
Y2227559D01*
X817244Y1855513D02*
X1222756D01*
X817244Y2227559D02*
X1222756D01*
X827244Y2717875D02*
Y3089921D01*
X1232756Y2717875D02*
Y3089921D01*
X827244Y2717875D02*
X1232756D01*
X827244Y3089921D02*
X1232756D01*
X83543Y1253228D02*
X133543Y1203228D01*
X83543D02*
X276457D01*
Y1356772D01*
X83543D02*
X276457D01*
X83543Y1203228D02*
Y1356772D01*
X397244Y1304094D02*
X802756D01*
X397244Y932048D02*
X802756D01*
Y1304094D01*
X397244Y932048D02*
Y1304094D01*
X827244Y1306456D02*
X1232756D01*
X827244Y934410D02*
X1232756D01*
Y1306456D01*
X827244Y934410D02*
Y1306456D01*
X1673386Y835354D02*
X1698976Y860945D01*
X1673386Y479055D02*
Y860945D01*
Y479055D02*
X1846614D01*
Y860945D01*
X1673386D02*
X1846614D01*
X397244Y444094D02*
X802756D01*
X397244Y72048D02*
X802756D01*
Y444094D01*
X397244Y72048D02*
Y444094D01*
X817244D02*
X1222756D01*
X817244Y72048D02*
X1222756D01*
Y444094D01*
X817244Y72048D02*
Y444094D01*
X4768110Y4692835D02*
X5031890D01*
X4768110Y4547165D02*
X5031890D01*
Y4692835D01*
X4768110Y4547165D02*
Y4692835D01*
X5252283Y4146535D02*
X5287717D01*
X5252283Y4213465D02*
X5287717D01*
X5252283Y4146535D02*
Y4213465D01*
X5287717Y4146535D02*
Y4213465D01*
X4221260Y4517756D02*
Y4862244D01*
X4378740Y4517756D02*
Y4862244D01*
X4221260D02*
X4378740D01*
X4221260Y4517756D02*
X4378740D01*
%TF.MD5,304398f503e1cb66b38203f89468e9fc*%
M02*
