%TF.GenerationSoftware,Altium Limited,Altium Designer,19.1.5 (86)*%
G04 Layer_Color=8421504*
%FSLAX26Y26*%
%MOIN*%
%TF.FileFunction,Paste,Top*%
%TF.Part,Single*%
G01*
G75*
%TA.AperFunction,SMDPad,CuDef*%
%ADD10R,0.039370X0.043307*%
%ADD11R,0.043307X0.039370*%
%ADD12R,0.059055X0.051181*%
%ADD13R,0.051181X0.059055*%
%ADD14R,0.025591X0.060039*%
%ADD15R,0.058071X0.017716*%
%ADD16R,0.118110X0.196850*%
%ADD17R,0.409449X0.366142*%
%ADD18R,0.037402X0.173228*%
%ADD19R,0.035433X0.062992*%
%ADD20R,0.125984X0.062992*%
%ADD21R,0.114173X0.212598*%
%ADD22R,0.062992X0.070866*%
%ADD23R,0.125984X0.070866*%
%ADD24R,0.043307X0.106299*%
%ADD25R,0.255905X0.255905*%
%ADD26R,0.031496X0.031496*%
%ADD27R,0.106299X0.062992*%
%ADD28O,0.061024X0.023622*%
D10*
X50000Y4906535D02*
D03*
Y4973465D02*
D03*
Y1316535D02*
D03*
Y1383465D02*
D03*
Y3106535D02*
D03*
Y3173465D02*
D03*
X5270000Y4006535D02*
D03*
Y4073465D02*
D03*
X4100000Y4753465D02*
D03*
Y4686535D02*
D03*
X4030000Y4686535D02*
D03*
Y4753465D02*
D03*
X4480000Y4533465D02*
D03*
Y4466535D02*
D03*
X4050000Y4553465D02*
D03*
Y4486535D02*
D03*
X4110000Y4486535D02*
D03*
Y4553465D02*
D03*
X1830000Y3983465D02*
D03*
Y3916535D02*
D03*
X1890000Y3916535D02*
D03*
Y3983465D02*
D03*
X1830000Y2176929D02*
D03*
Y2110000D02*
D03*
X1890000Y2110000D02*
D03*
Y2176929D02*
D03*
X1830000Y326536D02*
D03*
Y393465D02*
D03*
X1890000Y393464D02*
D03*
Y326535D02*
D03*
X5650000Y1073465D02*
D03*
Y1006535D02*
D03*
X5660000Y333465D02*
D03*
Y266536D02*
D03*
D11*
X4896535Y2600000D02*
D03*
X4963465D02*
D03*
X4896535Y3340000D02*
D03*
X4963465D02*
D03*
X4403465Y4470000D02*
D03*
X4336535D02*
D03*
X273465Y5080000D02*
D03*
X206536D02*
D03*
X1533465Y4350000D02*
D03*
X1466536D02*
D03*
X1466535Y4260000D02*
D03*
X1533465D02*
D03*
X1533465Y4170000D02*
D03*
X1466536D02*
D03*
X2070000Y4060000D02*
D03*
X2003071D02*
D03*
X763465Y4330000D02*
D03*
X696536D02*
D03*
X2003071Y4510000D02*
D03*
X2070000D02*
D03*
X2070000Y4460000D02*
D03*
X2003071D02*
D03*
X2070000Y4410000D02*
D03*
X2003071D02*
D03*
X2070000Y4360000D02*
D03*
X2003071D02*
D03*
X2070000Y4310000D02*
D03*
X2003071D02*
D03*
X1193465Y4330000D02*
D03*
X1126536D02*
D03*
X2070000Y4260000D02*
D03*
X2003071D02*
D03*
X2070000Y4210000D02*
D03*
X2003071D02*
D03*
X1203465Y5190000D02*
D03*
X1136536D02*
D03*
X1473465Y4510000D02*
D03*
X1406536D02*
D03*
X273465Y3273465D02*
D03*
X206536D02*
D03*
X1533465Y2543465D02*
D03*
X1466535D02*
D03*
X1466535Y2453465D02*
D03*
X1533465D02*
D03*
X1533465Y2363465D02*
D03*
X1466535D02*
D03*
X2070000Y2253465D02*
D03*
X2003071D02*
D03*
X763465Y2523465D02*
D03*
X696535D02*
D03*
X2003071Y2703465D02*
D03*
X2070000D02*
D03*
X2070000Y2653465D02*
D03*
X2003071D02*
D03*
X2070000Y2603465D02*
D03*
X2003071D02*
D03*
X2070000Y2553465D02*
D03*
X2003071D02*
D03*
X2070000Y2503465D02*
D03*
X2003071D02*
D03*
X1193465Y2523465D02*
D03*
X1126535D02*
D03*
X2070000Y2453465D02*
D03*
X2003071D02*
D03*
X2070000Y2403465D02*
D03*
X2003071D02*
D03*
X1203465Y3383465D02*
D03*
X1136535D02*
D03*
X1473465Y2703465D02*
D03*
X1406535D02*
D03*
X696535Y3373465D02*
D03*
X763465D02*
D03*
X696536Y5180000D02*
D03*
X763465D02*
D03*
X206536Y1490000D02*
D03*
X273465D02*
D03*
X1136536Y1600000D02*
D03*
X1203465D02*
D03*
X2003071Y470000D02*
D03*
X2070000D02*
D03*
X2003071Y620000D02*
D03*
X2070000D02*
D03*
X2003071Y720000D02*
D03*
X2070000D02*
D03*
X2003071Y670000D02*
D03*
X2070000D02*
D03*
X2003071Y770000D02*
D03*
X2070000D02*
D03*
X2003071Y820000D02*
D03*
X2070000D02*
D03*
X2003071Y870000D02*
D03*
X2070000D02*
D03*
X2070000Y920000D02*
D03*
X2003071D02*
D03*
X1466536Y580000D02*
D03*
X1533465D02*
D03*
X1533465Y670000D02*
D03*
X1466535D02*
D03*
X1466536Y760000D02*
D03*
X1533465D02*
D03*
X1406536Y920000D02*
D03*
X1473465D02*
D03*
X1126536Y740000D02*
D03*
X1193465D02*
D03*
X696536D02*
D03*
X763465D02*
D03*
Y1590000D02*
D03*
X696536D02*
D03*
D12*
X3960000Y4757402D02*
D03*
Y4682599D02*
D03*
X4600000Y4702599D02*
D03*
Y4777402D02*
D03*
D13*
X1999134Y4120000D02*
D03*
X2073937D02*
D03*
X1999134Y2313465D02*
D03*
X2073937D02*
D03*
X2073937Y530000D02*
D03*
X1999134D02*
D03*
D14*
X105000Y4763228D02*
D03*
X155000D02*
D03*
X205000D02*
D03*
X255000D02*
D03*
Y4976772D02*
D03*
X205000D02*
D03*
X155000D02*
D03*
X105000D02*
D03*
X105000Y2956693D02*
D03*
X155000D02*
D03*
X205000D02*
D03*
X255000D02*
D03*
Y3170236D02*
D03*
X205000D02*
D03*
X155000D02*
D03*
X105000D02*
D03*
X105000Y1386772D02*
D03*
X155000D02*
D03*
X205000D02*
D03*
X255000D02*
D03*
Y1173228D02*
D03*
X205000D02*
D03*
X155000D02*
D03*
X105000D02*
D03*
D15*
X1644331Y4426339D02*
D03*
Y4400748D02*
D03*
Y4375158D02*
D03*
Y4349567D02*
D03*
Y4323976D02*
D03*
Y4298386D02*
D03*
Y4272795D02*
D03*
Y4247205D02*
D03*
Y4221614D02*
D03*
Y4196024D02*
D03*
Y4170433D02*
D03*
Y4144842D02*
D03*
Y4119252D02*
D03*
Y4093661D02*
D03*
X1875669D02*
D03*
Y4119252D02*
D03*
Y4144842D02*
D03*
Y4170433D02*
D03*
Y4196024D02*
D03*
Y4221614D02*
D03*
Y4247205D02*
D03*
Y4272795D02*
D03*
Y4298386D02*
D03*
Y4323976D02*
D03*
Y4349567D02*
D03*
Y4375158D02*
D03*
Y4400748D02*
D03*
Y4426339D02*
D03*
X1644331Y2619803D02*
D03*
Y2594213D02*
D03*
Y2568622D02*
D03*
Y2543032D02*
D03*
Y2517441D02*
D03*
Y2491850D02*
D03*
Y2466260D02*
D03*
Y2440669D02*
D03*
Y2415079D02*
D03*
Y2389488D02*
D03*
Y2363898D02*
D03*
Y2338307D02*
D03*
Y2312717D02*
D03*
Y2287126D02*
D03*
X1875669D02*
D03*
Y2312717D02*
D03*
Y2338307D02*
D03*
Y2363898D02*
D03*
Y2389488D02*
D03*
Y2415079D02*
D03*
Y2440669D02*
D03*
Y2466260D02*
D03*
Y2491850D02*
D03*
Y2517441D02*
D03*
Y2543032D02*
D03*
Y2568622D02*
D03*
Y2594213D02*
D03*
Y2619803D02*
D03*
X1875669Y836339D02*
D03*
Y810748D02*
D03*
Y785158D02*
D03*
Y759567D02*
D03*
Y733976D02*
D03*
Y708386D02*
D03*
Y682795D02*
D03*
Y657205D02*
D03*
Y631614D02*
D03*
Y606024D02*
D03*
Y580433D02*
D03*
Y554842D02*
D03*
Y529252D02*
D03*
Y503661D02*
D03*
X1644331D02*
D03*
Y529252D02*
D03*
Y554842D02*
D03*
Y580433D02*
D03*
Y606024D02*
D03*
Y631614D02*
D03*
Y657205D02*
D03*
Y682795D02*
D03*
Y708386D02*
D03*
Y733976D02*
D03*
Y759567D02*
D03*
Y785158D02*
D03*
Y810748D02*
D03*
Y836339D02*
D03*
D16*
X1760000Y4260000D02*
D03*
X1760000Y2453465D02*
D03*
X1760000Y670000D02*
D03*
D17*
X600000Y3790000D02*
D03*
Y4650000D02*
D03*
X1020000Y3790000D02*
D03*
X1030000Y4652362D02*
D03*
X600000Y1983465D02*
D03*
Y2843465D02*
D03*
X1020000Y1983465D02*
D03*
X1030000Y2845827D02*
D03*
X600000Y1060000D02*
D03*
X1030000Y1062362D02*
D03*
X600000Y200000D02*
D03*
X1020000D02*
D03*
D18*
X500000Y4181732D02*
D03*
X700000D02*
D03*
X500000Y5041732D02*
D03*
X700000D02*
D03*
X920000Y4181732D02*
D03*
X1120000D02*
D03*
X930000Y5044094D02*
D03*
X1130000D02*
D03*
X500000Y2375197D02*
D03*
X700000D02*
D03*
X500000Y3235197D02*
D03*
X700000D02*
D03*
X920000Y2375197D02*
D03*
X1120000D02*
D03*
X930000Y3237559D02*
D03*
X1130000D02*
D03*
X700000Y1451732D02*
D03*
X500000D02*
D03*
X1130000Y1454094D02*
D03*
X930000D02*
D03*
X700000Y591732D02*
D03*
X500000D02*
D03*
X1120000D02*
D03*
X920000D02*
D03*
D19*
X4990551Y4749921D02*
D03*
X4900000D02*
D03*
X4809449D02*
D03*
D20*
X4900000Y4490079D02*
D03*
D21*
X5155118Y4620000D02*
D03*
X5544882D02*
D03*
D22*
X4254882Y4930000D02*
D03*
X4365118D02*
D03*
D23*
X3830000Y4619764D02*
D03*
Y4840236D02*
D03*
D24*
X4909449Y3983583D02*
D03*
X5090551D02*
D03*
D25*
X5000000Y4180000D02*
D03*
D26*
X5270000Y4148504D02*
D03*
Y4211496D02*
D03*
D27*
X5410000Y4094882D02*
D03*
Y4205118D02*
D03*
D28*
X4195669Y4840000D02*
D03*
Y4790000D02*
D03*
Y4740000D02*
D03*
Y4690000D02*
D03*
Y4640000D02*
D03*
Y4590000D02*
D03*
Y4540000D02*
D03*
X4404331Y4840000D02*
D03*
Y4790000D02*
D03*
Y4740000D02*
D03*
Y4690000D02*
D03*
Y4640000D02*
D03*
Y4590000D02*
D03*
Y4540000D02*
D03*
%TF.MD5,07b5f38c1e35689e7cc5897d6d4919d6*%
M02*
