%TF.GenerationSoftware,Altium Limited,Altium Designer,19.1.5 (86)*%
G04 Layer_Physical_Order=1*
G04 Layer_Color=255*
%FSLAX26Y26*%
%MOIN*%
%TF.FileFunction,Copper,L1,Top,Signal*%
%TF.Part,Single*%
G01*
G75*
%TA.AperFunction,SMDPad,CuDef*%
%ADD10R,0.039370X0.043307*%
%ADD11R,0.043307X0.039370*%
%ADD12R,0.059055X0.051181*%
%ADD13R,0.051181X0.059055*%
%ADD14R,0.025591X0.060039*%
%ADD15R,0.058071X0.017716*%
%ADD16R,0.118110X0.196850*%
%ADD17R,0.409449X0.366142*%
%ADD18R,0.037402X0.173228*%
%ADD19R,0.035433X0.062992*%
%ADD20R,0.125984X0.062992*%
%ADD21R,0.114173X0.212598*%
%ADD22R,0.062992X0.070866*%
%ADD23R,0.125984X0.070866*%
%ADD24R,0.043307X0.106299*%
%ADD25R,0.255905X0.255905*%
%ADD26R,0.031496X0.031496*%
%ADD27R,0.106299X0.062992*%
%ADD28O,0.061024X0.023622*%
%TA.AperFunction,Conductor*%
%ADD29C,0.010000*%
%ADD30C,0.078740*%
%ADD31C,0.020630*%
%TA.AperFunction,ComponentPad*%
G04:AMPARAMS|DCode=32|XSize=100mil|YSize=100mil|CornerRadius=0mil|HoleSize=0mil|Usage=FLASHONLY|Rotation=270.000|XOffset=0mil|YOffset=0mil|HoleType=Round|Shape=Octagon|*
%AMOCTAGOND32*
4,1,8,-0.025000,-0.050000,0.025000,-0.050000,0.050000,-0.025000,0.050000,0.025000,0.025000,0.050000,-0.025000,0.050000,-0.050000,0.025000,-0.050000,-0.025000,-0.025000,-0.050000,0.0*
%
%ADD32OCTAGOND32*%

%ADD33C,0.100000*%
%ADD34C,0.055906*%
%ADD35C,0.135827*%
G04:AMPARAMS|DCode=36|XSize=100mil|YSize=100mil|CornerRadius=0mil|HoleSize=0mil|Usage=FLASHONLY|Rotation=0.000|XOffset=0mil|YOffset=0mil|HoleType=Round|Shape=Octagon|*
%AMOCTAGOND36*
4,1,8,0.050000,-0.025000,0.050000,0.025000,0.025000,0.050000,-0.025000,0.050000,-0.050000,0.025000,-0.050000,-0.025000,-0.025000,-0.050000,0.025000,-0.050000,0.050000,-0.025000,0.0*
%
%ADD36OCTAGOND36*%

%ADD37O,0.047244X0.039370*%
%ADD38C,0.074803*%
%ADD39C,0.047244*%
%TA.AperFunction,ViaPad*%
%ADD40C,0.170000*%
%TA.AperFunction,ComponentPad*%
%ADD41R,0.074803X0.074803*%
%ADD42C,0.070000*%
%TA.AperFunction,ViaPad*%
%ADD43C,0.062992*%
%ADD44C,0.059055*%
%ADD45C,0.023622*%
G36*
X6048784Y11216D02*
X1230725D01*
Y134238D01*
X2280000D01*
X2291844Y135798D01*
X2302881Y140369D01*
X2312358Y147642D01*
X2587358Y422642D01*
X2594631Y432119D01*
X2599202Y443156D01*
X2600762Y455000D01*
Y2238465D01*
Y4026045D01*
X2812358Y4237642D01*
X2819631Y4247119D01*
X2824202Y4258156D01*
X2825762Y4270000D01*
Y5171045D01*
X2928955Y5274238D01*
X3892989D01*
X3894902Y5269619D01*
X3807642Y5182358D01*
X3800369Y5172881D01*
X3795798Y5161844D01*
X3794238Y5150000D01*
Y5070000D01*
Y4881669D01*
X3761008D01*
Y4861734D01*
X3760236Y4856871D01*
X3753870Y4855605D01*
X3748474Y4851999D01*
X3678238Y4781762D01*
X3674632Y4776366D01*
X3673365Y4770000D01*
Y4620000D01*
X3674632Y4613634D01*
X3678238Y4608238D01*
X3768238Y4518238D01*
X3773634Y4514632D01*
X3780000Y4513365D01*
X3880000D01*
X3886366Y4514632D01*
X3891762Y4518238D01*
X3910355Y4536830D01*
X4024315D01*
Y4525811D01*
X4075685D01*
Y4581118D01*
X4024315D01*
Y4570099D01*
X3903465D01*
X3897099Y4568833D01*
X3891702Y4565227D01*
X3873110Y4546635D01*
X3786890D01*
X3706635Y4626890D01*
Y4763110D01*
X3756389Y4812864D01*
X3761008Y4810950D01*
Y4798803D01*
X3812903D01*
X3819589Y4796034D01*
X3830624Y4794581D01*
X3900161Y4725043D01*
X3909639Y4717771D01*
X3920676Y4713199D01*
X3932520Y4711640D01*
X3960000D01*
X3971844Y4713199D01*
X3982881Y4717771D01*
X3992358Y4725043D01*
X3992948Y4725811D01*
X3995528D01*
Y4729173D01*
X3999315Y4734109D01*
X3999874Y4734114D01*
X4004315Y4730750D01*
Y4725811D01*
X4055685D01*
Y4742249D01*
X4074315D01*
Y4725811D01*
X4125685D01*
Y4765257D01*
X4139213Y4778784D01*
X4163041D01*
X4164127Y4777159D01*
X4170019Y4773222D01*
X4176968Y4771840D01*
X4214370D01*
X4221320Y4773222D01*
X4227211Y4777159D01*
X4231148Y4783051D01*
X4232530Y4790000D01*
X4231148Y4796949D01*
X4227211Y4802841D01*
X4221320Y4806778D01*
X4214370Y4808160D01*
X4176968D01*
X4170019Y4806778D01*
X4164127Y4802841D01*
X4163041Y4801216D01*
X4134568D01*
X4134567Y4801216D01*
X4130275Y4800362D01*
X4126636Y4797931D01*
X4126636Y4797930D01*
X4109824Y4781118D01*
X4074315D01*
Y4764680D01*
X4055685D01*
Y4781118D01*
X4004315D01*
Y4781118D01*
X4001810Y4780671D01*
X3999315Y4780694D01*
X3995528Y4785630D01*
Y4788992D01*
X3992948D01*
X3992358Y4789760D01*
X3982881Y4797032D01*
X3971844Y4801604D01*
X3960000Y4803163D01*
X3951475D01*
X3898992Y4855646D01*
Y4881669D01*
X3885762D01*
Y4952989D01*
X3890381Y4954902D01*
X3947642Y4897642D01*
X3957119Y4890369D01*
X3968156Y4885798D01*
X3980000Y4884238D01*
X4069900D01*
X4122069Y4832070D01*
X4122069Y4832069D01*
X4125708Y4829638D01*
X4130000Y4828784D01*
X4130001Y4828784D01*
X4163041D01*
X4164127Y4827159D01*
X4170019Y4823222D01*
X4176968Y4821840D01*
X4214370D01*
X4221320Y4823222D01*
X4227211Y4827159D01*
X4228297Y4828784D01*
X4255354D01*
X4302069Y4782070D01*
X4302069Y4782069D01*
X4305708Y4779638D01*
X4310000Y4778784D01*
X4310001Y4778784D01*
X4371703D01*
X4372789Y4777159D01*
X4378680Y4773222D01*
X4385630Y4771840D01*
X4423032D01*
X4429981Y4773222D01*
X4435873Y4777159D01*
X4436959Y4778784D01*
X4564472D01*
Y4745811D01*
X4635528D01*
Y4808992D01*
X4564472D01*
Y4801216D01*
X4436959D01*
X4435873Y4802841D01*
X4429981Y4806778D01*
X4423032Y4808160D01*
X4385630D01*
X4378680Y4806778D01*
X4372789Y4802841D01*
X4371703Y4801216D01*
X4314646D01*
X4267931Y4847931D01*
X4264292Y4850362D01*
X4260000Y4851216D01*
X4259999Y4851216D01*
X4228297D01*
X4227211Y4852841D01*
X4221320Y4856778D01*
X4214370Y4858160D01*
X4176968D01*
X4170019Y4856778D01*
X4164127Y4852841D01*
X4163041Y4851216D01*
X4134646D01*
X4106242Y4879619D01*
X4108156Y4884238D01*
X4254882D01*
X4266726Y4885798D01*
X4273412Y4888567D01*
X4292378D01*
Y4904337D01*
X4294513Y4907119D01*
X4299084Y4918156D01*
X4300644Y4930000D01*
X4299084Y4941844D01*
X4294513Y4952881D01*
X4292378Y4955663D01*
Y4971433D01*
X4273412D01*
X4266726Y4974202D01*
X4254882Y4975762D01*
X3998955D01*
X3885762Y5088955D01*
Y5131045D01*
X4028955Y5274238D01*
X5493084D01*
X5756434Y5010888D01*
X5757111Y5005751D01*
X5762753Y4992128D01*
X5771730Y4980430D01*
X5783428Y4971454D01*
X5797050Y4965811D01*
X5811669Y4963887D01*
X5826288Y4965811D01*
X5839911Y4971454D01*
X5851609Y4980430D01*
X5860585Y4992128D01*
X5866228Y5005751D01*
X5868153Y5020370D01*
X5866228Y5034989D01*
X5860585Y5048612D01*
X5851609Y5060310D01*
X5839911Y5069286D01*
X5826288Y5074929D01*
X5821151Y5075605D01*
X5544398Y5352358D01*
X5534920Y5359631D01*
X5523883Y5364202D01*
X5512039Y5365762D01*
X2910000D01*
X2898156Y5364202D01*
X2887119Y5359631D01*
X2877642Y5352358D01*
X2747642Y5222358D01*
X2740369Y5212881D01*
X2735798Y5201844D01*
X2734238Y5190000D01*
Y4288955D01*
X2522642Y4077359D01*
X2522642Y4077358D01*
X2261045Y3815762D01*
X1688995D01*
X1685699Y3819521D01*
X1685762Y3820000D01*
Y4030000D01*
Y4090000D01*
X1684202Y4101844D01*
X1679631Y4112881D01*
X1679366Y4113226D01*
Y4155575D01*
Y4181165D01*
Y4206756D01*
Y4232346D01*
Y4257937D01*
Y4283528D01*
Y4309118D01*
Y4334709D01*
Y4360299D01*
Y4385890D01*
Y4411480D01*
Y4441197D01*
X1651216D01*
Y4476073D01*
X1652841Y4477159D01*
X1656778Y4483051D01*
X1658160Y4490000D01*
X1656778Y4496949D01*
X1652841Y4502841D01*
X1646950Y4506778D01*
X1640000Y4508160D01*
X1633051Y4506778D01*
X1627159Y4502841D01*
X1623223Y4496949D01*
X1621840Y4490000D01*
X1623223Y4483051D01*
X1627159Y4477159D01*
X1628785Y4476073D01*
Y4441197D01*
X1609295D01*
Y4411963D01*
X1603898D01*
X1557931Y4457931D01*
X1554292Y4460362D01*
X1550000Y4461216D01*
X1550000Y4461216D01*
X1435762D01*
Y4681045D01*
X1552358Y4797641D01*
X1559631Y4807119D01*
X1564202Y4818156D01*
X1565762Y4830000D01*
Y4960000D01*
X1564202Y4971844D01*
X1559631Y4982881D01*
X1552358Y4992358D01*
X1472358Y5072358D01*
X1465762Y5077420D01*
Y5200000D01*
X1464202Y5211844D01*
X1459631Y5222881D01*
X1452358Y5232358D01*
X1332358Y5352358D01*
X1322881Y5359631D01*
X1311844Y5364202D01*
X1300000Y5365762D01*
X573544D01*
X561700Y5364202D01*
X550663Y5359631D01*
X541185Y5352358D01*
X467642Y5278815D01*
X460369Y5269337D01*
X455798Y5258301D01*
X454238Y5246457D01*
Y5041732D01*
X455798Y5029888D01*
X460369Y5018851D01*
X467642Y5009374D01*
X475299Y5003498D01*
Y4949118D01*
X524701D01*
Y5003498D01*
X532358Y5009374D01*
X539631Y5018851D01*
X544202Y5029888D01*
X545762Y5041732D01*
Y5227502D01*
X592499Y5274238D01*
X864920D01*
X884239Y5254920D01*
Y5044094D01*
X885798Y5032250D01*
X890369Y5021213D01*
X897642Y5011736D01*
X905299Y5005860D01*
Y4951480D01*
X954701D01*
Y5005860D01*
X962358Y5011736D01*
X969631Y5021213D01*
X974202Y5032250D01*
X975762Y5044094D01*
Y5273875D01*
X976080Y5274238D01*
X1281045D01*
X1374238Y5181045D01*
Y5040000D01*
X1375798Y5028156D01*
X1380369Y5017119D01*
X1387642Y5007642D01*
X1397119Y5000369D01*
X1408156Y4995798D01*
X1420000Y4994238D01*
X1421045D01*
X1474238Y4941045D01*
Y4848955D01*
X1357642Y4732358D01*
X1350762Y4723392D01*
X1349029Y4723441D01*
X1345762Y4724806D01*
Y4763250D01*
X1452358Y4869846D01*
X1459631Y4879324D01*
X1464202Y4890361D01*
X1465762Y4902205D01*
X1464202Y4914049D01*
X1459631Y4925086D01*
X1452358Y4934563D01*
X1442881Y4941836D01*
X1431844Y4946407D01*
X1420000Y4947966D01*
X1408156Y4946407D01*
X1397119Y4941836D01*
X1387642Y4934563D01*
X1267642Y4814563D01*
X1260369Y4805086D01*
X1255798Y4794049D01*
X1254238Y4782205D01*
Y4347921D01*
X1249238Y4345248D01*
X1246950Y4346778D01*
X1240000Y4348160D01*
X1233051Y4346778D01*
X1227159Y4342841D01*
X1226073Y4341216D01*
X1221118D01*
Y4355685D01*
X1165811D01*
Y4304315D01*
X1221118D01*
Y4318784D01*
X1226073D01*
X1227159Y4317159D01*
X1233051Y4313222D01*
X1240000Y4311840D01*
X1246950Y4313222D01*
X1249238Y4314752D01*
X1254238Y4312079D01*
Y3815762D01*
X1230725D01*
Y3979071D01*
X389276D01*
Y3600929D01*
X1230725D01*
Y3724238D01*
X2280000D01*
X2291844Y3725798D01*
X2302881Y3730369D01*
X2312358Y3737642D01*
X2504619Y3929902D01*
X2509238Y3927989D01*
Y2712266D01*
X2504238Y2710750D01*
X2502841Y2712841D01*
X2496950Y2716778D01*
X2490000Y2718160D01*
X2483050Y2716778D01*
X2477159Y2712841D01*
X2476073Y2711215D01*
X2470001D01*
X2470000Y2711216D01*
X2465708Y2710362D01*
X2462069Y2707931D01*
X2361917Y2607778D01*
X2360000Y2608160D01*
X2353050Y2606778D01*
X2347159Y2602841D01*
X2343222Y2596950D01*
X2341840Y2590000D01*
X2343222Y2583050D01*
X2347159Y2577159D01*
X2353050Y2573222D01*
X2360000Y2571840D01*
X2366950Y2573222D01*
X2372841Y2577159D01*
X2376778Y2583050D01*
X2378160Y2590000D01*
X2377778Y2591917D01*
X2471908Y2686046D01*
X2477159Y2687159D01*
X2483050Y2683222D01*
X2490000Y2681840D01*
X2496950Y2683222D01*
X2502841Y2687159D01*
X2504238Y2689250D01*
X2509238Y2687734D01*
Y2602266D01*
X2504238Y2600750D01*
X2502841Y2602841D01*
X2496950Y2606778D01*
X2490000Y2608160D01*
X2483050Y2606778D01*
X2477159Y2602841D01*
X2476073Y2601215D01*
X2420001D01*
X2420000Y2601216D01*
X2415708Y2600362D01*
X2412069Y2597931D01*
X2412069Y2597930D01*
X2361917Y2547778D01*
X2360000Y2548160D01*
X2353050Y2546778D01*
X2347159Y2542841D01*
X2343222Y2536950D01*
X2341840Y2530000D01*
X2343222Y2523050D01*
X2347159Y2517159D01*
X2353050Y2513222D01*
X2360000Y2511840D01*
X2366950Y2513222D01*
X2372841Y2517159D01*
X2376778Y2523050D01*
X2378160Y2530000D01*
X2377778Y2531917D01*
X2424646Y2578785D01*
X2476073D01*
X2477159Y2577159D01*
X2483050Y2573222D01*
X2490000Y2571840D01*
X2496950Y2573222D01*
X2502841Y2577159D01*
X2504238Y2579250D01*
X2509238Y2577734D01*
Y2257420D01*
X2261045Y2009226D01*
X1688995D01*
X1685698Y2012986D01*
X1685762Y2013465D01*
Y2223465D01*
Y2280000D01*
X1684202Y2291844D01*
X1679631Y2302881D01*
X1679366Y2303226D01*
Y2349039D01*
Y2374630D01*
Y2400221D01*
Y2425811D01*
Y2451402D01*
Y2476992D01*
Y2502583D01*
Y2528173D01*
Y2553764D01*
Y2579354D01*
Y2604945D01*
Y2634661D01*
X1651216D01*
Y2669537D01*
X1652841Y2670624D01*
X1656778Y2676515D01*
X1658160Y2683465D01*
X1656778Y2690414D01*
X1652841Y2696306D01*
X1646949Y2700242D01*
X1640000Y2701624D01*
X1633051Y2700242D01*
X1627159Y2696306D01*
X1623222Y2690414D01*
X1621840Y2683465D01*
X1623222Y2676515D01*
X1627159Y2670624D01*
X1628784Y2669537D01*
Y2634661D01*
X1609295D01*
Y2605428D01*
X1603898D01*
X1557931Y2651395D01*
X1554292Y2653826D01*
X1550000Y2654680D01*
X1549999Y2654680D01*
X1435762D01*
Y2874510D01*
X1537099Y2975846D01*
X1544371Y2985324D01*
X1548943Y2996361D01*
X1550502Y3008205D01*
Y3148724D01*
X1548943Y3160568D01*
X1544371Y3171605D01*
X1537099Y3181083D01*
X1465762Y3252420D01*
Y3393465D01*
X1464202Y3405309D01*
X1459631Y3416345D01*
X1452358Y3425823D01*
X1332358Y3545823D01*
X1322881Y3553095D01*
X1311844Y3557667D01*
X1300000Y3559226D01*
X573543D01*
X561699Y3557667D01*
X550663Y3553095D01*
X541185Y3545823D01*
X467642Y3472279D01*
X460369Y3462802D01*
X455798Y3451765D01*
X454238Y3439921D01*
Y3235197D01*
X455798Y3223353D01*
X460369Y3212316D01*
X467642Y3202838D01*
X475299Y3196962D01*
Y3142582D01*
X524701D01*
Y3196962D01*
X532358Y3202838D01*
X539631Y3212316D01*
X544202Y3223353D01*
X545762Y3235197D01*
Y3420966D01*
X592499Y3467703D01*
X864920D01*
X884238Y3448385D01*
Y3237559D01*
X885798Y3225715D01*
X890369Y3214678D01*
X897642Y3205200D01*
X905299Y3199324D01*
Y3144945D01*
X954701D01*
Y3199324D01*
X962358Y3205200D01*
X969631Y3214678D01*
X974202Y3225715D01*
X975762Y3237559D01*
Y3467340D01*
X976080Y3467703D01*
X1281045D01*
X1374238Y3374510D01*
Y3233465D01*
X1375798Y3221621D01*
X1380369Y3210584D01*
X1387642Y3201106D01*
X1456971Y3131776D01*
X1456717Y3130561D01*
X1455158Y3129655D01*
X1451256Y3128873D01*
X1442881Y3135300D01*
X1431844Y3139872D01*
X1420000Y3141431D01*
X1408156Y3139872D01*
X1397119Y3135300D01*
X1387642Y3128028D01*
X1267642Y3008028D01*
X1260369Y2998550D01*
X1255798Y2987513D01*
X1254238Y2975669D01*
Y2541385D01*
X1249238Y2538713D01*
X1246949Y2540242D01*
X1240000Y2541624D01*
X1233051Y2540242D01*
X1227159Y2536306D01*
X1226073Y2534680D01*
X1221118D01*
Y2549150D01*
X1165811D01*
Y2497780D01*
X1221118D01*
Y2512249D01*
X1226073D01*
X1227159Y2510624D01*
X1233051Y2506687D01*
X1240000Y2505305D01*
X1246949Y2506687D01*
X1249238Y2508216D01*
X1254238Y2505544D01*
Y2009226D01*
X1230724D01*
Y2172535D01*
X389276D01*
Y1794394D01*
X1230724D01*
Y1917703D01*
X2280000D01*
X2291844Y1919262D01*
X2302881Y1923834D01*
X2312358Y1931106D01*
X2504619Y2123367D01*
X2509238Y2121454D01*
Y473955D01*
X2261045Y225762D01*
X1688995D01*
X1685699Y229521D01*
X1685762Y230000D01*
Y440000D01*
Y500000D01*
X1684202Y511844D01*
X1679631Y522881D01*
X1679366Y523226D01*
Y565575D01*
Y591165D01*
Y616756D01*
Y642346D01*
Y667937D01*
Y693528D01*
Y719118D01*
Y744709D01*
Y770299D01*
Y795890D01*
Y821480D01*
Y851197D01*
X1651216D01*
Y886073D01*
X1652841Y887159D01*
X1656778Y893051D01*
X1658160Y900000D01*
X1656778Y906949D01*
X1652841Y912841D01*
X1646950Y916778D01*
X1640000Y918160D01*
X1633051Y916778D01*
X1627159Y912841D01*
X1623223Y906949D01*
X1621840Y900000D01*
X1623223Y893051D01*
X1627159Y887159D01*
X1628785Y886073D01*
Y851197D01*
X1609295D01*
Y821963D01*
X1603898D01*
X1557931Y867931D01*
X1554292Y870362D01*
X1550000Y871216D01*
X1550000Y871216D01*
X1435762D01*
Y1091045D01*
X1537099Y1192382D01*
X1544371Y1201859D01*
X1548943Y1212896D01*
X1550502Y1224740D01*
Y1365260D01*
X1548943Y1377104D01*
X1544371Y1388141D01*
X1537099Y1397618D01*
X1465762Y1468955D01*
Y1610000D01*
X1464202Y1621844D01*
X1459631Y1632881D01*
X1452358Y1642358D01*
X1332358Y1762358D01*
X1322881Y1769631D01*
X1311844Y1774202D01*
X1300000Y1775762D01*
X573544D01*
X561700Y1774202D01*
X550663Y1769631D01*
X541185Y1762358D01*
X467642Y1688815D01*
X460369Y1679337D01*
X455798Y1668301D01*
X454238Y1656457D01*
Y1451732D01*
X455798Y1439888D01*
X460369Y1428851D01*
X467642Y1419374D01*
X475299Y1413498D01*
Y1359118D01*
X524701D01*
Y1413498D01*
X532358Y1419374D01*
X539631Y1428851D01*
X544202Y1439888D01*
X545762Y1451732D01*
Y1637502D01*
X592499Y1684238D01*
X864920D01*
X884239Y1664920D01*
Y1454094D01*
X885798Y1442250D01*
X890369Y1431213D01*
X897642Y1421736D01*
X905299Y1415860D01*
Y1361480D01*
X954701D01*
Y1415860D01*
X962358Y1421736D01*
X969631Y1431213D01*
X974202Y1442250D01*
X975762Y1454094D01*
Y1683875D01*
X976080Y1684238D01*
X1281045D01*
X1374238Y1591045D01*
Y1450000D01*
X1375798Y1438156D01*
X1380369Y1427119D01*
X1387642Y1417642D01*
X1456972Y1348312D01*
X1456717Y1347096D01*
X1455159Y1346190D01*
X1451256Y1345409D01*
X1442881Y1351835D01*
X1431844Y1356407D01*
X1420000Y1357966D01*
X1408156Y1356407D01*
X1397119Y1351835D01*
X1387642Y1344563D01*
X1267642Y1224563D01*
X1260369Y1215086D01*
X1255798Y1204049D01*
X1254238Y1192205D01*
Y757921D01*
X1249238Y755248D01*
X1246950Y756778D01*
X1240000Y758160D01*
X1233051Y756778D01*
X1227159Y752841D01*
X1226073Y751216D01*
X1221118D01*
Y765685D01*
X1165811D01*
Y714315D01*
X1221118D01*
Y728784D01*
X1226073D01*
X1227159Y727159D01*
X1233051Y723222D01*
X1240000Y721840D01*
X1246950Y723222D01*
X1249238Y724752D01*
X1254238Y722079D01*
Y225762D01*
X1230725D01*
Y389071D01*
X389276D01*
Y11216D01*
X11216D01*
Y5388784D01*
X6048784Y5388784D01*
X6048784Y11216D01*
D02*
G37*
G36*
X1455320Y4313465D02*
X1455320Y4313465D01*
X1456174Y4309172D01*
X1458605Y4305534D01*
X1473684Y4290455D01*
X1477322Y4288024D01*
X1481614Y4287170D01*
X1481615Y4287170D01*
X1501426D01*
X1505811Y4285685D01*
Y4234315D01*
X1500931Y4234026D01*
X1485071D01*
X1480779Y4233173D01*
X1477140Y4230742D01*
X1477140Y4230741D01*
X1471282Y4224884D01*
X1468851Y4221245D01*
X1467997Y4216953D01*
X1467997Y4216953D01*
Y4195685D01*
X1438882D01*
X1435762Y4199392D01*
Y4320608D01*
X1438882Y4324315D01*
X1455320D01*
Y4313465D01*
D02*
G37*
G36*
X1455320Y2506930D02*
X1455320Y2506929D01*
X1456174Y2502637D01*
X1458605Y2498999D01*
X1473684Y2483920D01*
X1477322Y2481489D01*
X1481614Y2480635D01*
X1481615Y2480635D01*
X1501426D01*
X1505811Y2479149D01*
Y2427780D01*
X1500930Y2427491D01*
X1485071D01*
X1480779Y2426637D01*
X1477140Y2424206D01*
X1477140Y2424206D01*
X1471282Y2418348D01*
X1468851Y2414710D01*
X1467997Y2410418D01*
X1467997Y2410417D01*
Y2389150D01*
X1438882D01*
X1435762Y2392857D01*
Y2514072D01*
X1438882Y2517780D01*
X1455320D01*
Y2506930D01*
D02*
G37*
G36*
X1455320Y723465D02*
X1455320Y723465D01*
X1456174Y719173D01*
X1458605Y715534D01*
X1473684Y700455D01*
X1477322Y698024D01*
X1481614Y697170D01*
X1481615Y697170D01*
X1501426D01*
X1505811Y695685D01*
Y644315D01*
X1500931Y644027D01*
X1485071D01*
X1480779Y643173D01*
X1477140Y640742D01*
X1477140Y640741D01*
X1471282Y634884D01*
X1468851Y631245D01*
X1467997Y626953D01*
X1467997Y626953D01*
Y605685D01*
X1438882D01*
X1435762Y609393D01*
Y730607D01*
X1438882Y734315D01*
X1455320D01*
Y723465D01*
D02*
G37*
%LPC*%
G36*
X5839669Y5276370D02*
X5783669D01*
X5755669Y5248370D01*
Y5192370D01*
X5783669Y5164370D01*
X5839669D01*
X5867669Y5192370D01*
Y5248370D01*
X5839669Y5276370D01*
D02*
G37*
G36*
X791118Y5205685D02*
X735811D01*
Y5154315D01*
X791118D01*
Y5168784D01*
X796073D01*
X797159Y5167159D01*
X803051Y5163222D01*
X810000Y5161840D01*
X816950Y5163222D01*
X822841Y5167159D01*
X826778Y5173051D01*
X828160Y5180000D01*
X826778Y5186949D01*
X822841Y5192841D01*
X816950Y5196778D01*
X810000Y5198160D01*
X803051Y5196778D01*
X797159Y5192841D01*
X796073Y5191216D01*
X791118D01*
Y5205685D01*
D02*
G37*
G36*
X4058000Y5226000D02*
X4002000D01*
X3974000Y5198000D01*
Y5142000D01*
X4002000Y5114000D01*
X4058000D01*
X4086000Y5142000D01*
Y5198000D01*
X4058000Y5226000D01*
D02*
G37*
G36*
X1878000D02*
X1822000D01*
X1794000Y5198000D01*
Y5142000D01*
X1822000Y5114000D01*
X1878000D01*
X1906000Y5142000D01*
Y5198000D01*
X1878000Y5226000D01*
D02*
G37*
G36*
X4630000Y5226483D02*
X4615381Y5224559D01*
X4601758Y5218916D01*
X4590060Y5209940D01*
X4581084Y5198242D01*
X4575441Y5184619D01*
X4573517Y5170000D01*
X4575441Y5155381D01*
X4581084Y5141758D01*
X4590060Y5130060D01*
X4601758Y5121084D01*
X4615381Y5115441D01*
X4630000Y5113517D01*
X4644619Y5115441D01*
X4658242Y5121084D01*
X4669940Y5130060D01*
X4678916Y5141758D01*
X4684559Y5155381D01*
X4686483Y5170000D01*
X4684559Y5184619D01*
X4678916Y5198242D01*
X4669940Y5209940D01*
X4658242Y5218916D01*
X4644619Y5224559D01*
X4630000Y5226483D01*
D02*
G37*
G36*
X4430000D02*
X4415381Y5224559D01*
X4401758Y5218916D01*
X4390060Y5209940D01*
X4381084Y5198242D01*
X4375441Y5184619D01*
X4373517Y5170000D01*
X4375441Y5155381D01*
X4381084Y5141758D01*
X4390060Y5130060D01*
X4401758Y5121084D01*
X4415381Y5115441D01*
X4430000Y5113517D01*
X4444619Y5115441D01*
X4458242Y5121084D01*
X4469940Y5130060D01*
X4478916Y5141758D01*
X4484559Y5155381D01*
X4486483Y5170000D01*
X4484559Y5184619D01*
X4478916Y5198242D01*
X4469940Y5209940D01*
X4458242Y5218916D01*
X4444619Y5224559D01*
X4430000Y5226483D01*
D02*
G37*
G36*
X3540000D02*
X3525381Y5224559D01*
X3511758Y5218916D01*
X3500060Y5209940D01*
X3491084Y5198242D01*
X3485441Y5184619D01*
X3483517Y5170000D01*
X3485441Y5155381D01*
X3491084Y5141758D01*
X3500060Y5130060D01*
X3511758Y5121084D01*
X3525381Y5115441D01*
X3540000Y5113517D01*
X3554619Y5115441D01*
X3568242Y5121084D01*
X3579940Y5130060D01*
X3588916Y5141758D01*
X3594559Y5155381D01*
X3596483Y5170000D01*
X3594559Y5184619D01*
X3588916Y5198242D01*
X3579940Y5209940D01*
X3568242Y5218916D01*
X3554619Y5224559D01*
X3540000Y5226483D01*
D02*
G37*
G36*
X3340000D02*
X3325381Y5224559D01*
X3311758Y5218916D01*
X3300060Y5209940D01*
X3291084Y5198242D01*
X3285441Y5184619D01*
X3283517Y5170000D01*
X3285441Y5155381D01*
X3291084Y5141758D01*
X3293174Y5139035D01*
X2962069Y4807931D01*
X2959638Y4804292D01*
X2958784Y4800000D01*
X2958785Y4799999D01*
Y1054646D01*
X2797540Y893402D01*
X2726599D01*
Y806598D01*
X2813401D01*
Y877540D01*
X2977930Y1042069D01*
X2977931Y1042069D01*
X2980362Y1045708D01*
X2981216Y1050000D01*
X2981215Y1050001D01*
Y4795354D01*
X3309035Y5123174D01*
X3311758Y5121084D01*
X3325381Y5115441D01*
X3340000Y5113517D01*
X3354619Y5115441D01*
X3368242Y5121084D01*
X3379940Y5130060D01*
X3388916Y5141758D01*
X3394559Y5155381D01*
X3396483Y5170000D01*
X3394559Y5184619D01*
X3388916Y5198242D01*
X3379940Y5209940D01*
X3368242Y5218916D01*
X3354619Y5224559D01*
X3340000Y5226483D01*
D02*
G37*
G36*
X3140000D02*
X3125381Y5224559D01*
X3111758Y5218916D01*
X3100060Y5209940D01*
X3091084Y5198242D01*
X3085441Y5184619D01*
X3083517Y5170000D01*
X3085441Y5155381D01*
X3091084Y5141758D01*
X3100060Y5130060D01*
X3111758Y5121084D01*
X3125381Y5115441D01*
X3140000Y5113517D01*
X3154619Y5115441D01*
X3168242Y5121084D01*
X3179940Y5130060D01*
X3188916Y5141758D01*
X3194559Y5155381D01*
X3196483Y5170000D01*
X3194559Y5184619D01*
X3188916Y5198242D01*
X3179940Y5209940D01*
X3168242Y5218916D01*
X3154619Y5224559D01*
X3140000Y5226483D01*
D02*
G37*
G36*
X2450000D02*
X2435381Y5224559D01*
X2421758Y5218916D01*
X2410060Y5209940D01*
X2401084Y5198242D01*
X2395441Y5184619D01*
X2393517Y5170000D01*
X2395441Y5155381D01*
X2401084Y5141758D01*
X2410060Y5130060D01*
X2421758Y5121084D01*
X2435381Y5115441D01*
X2450000Y5113517D01*
X2464619Y5115441D01*
X2478242Y5121084D01*
X2489940Y5130060D01*
X2498916Y5141758D01*
X2504559Y5155381D01*
X2506483Y5170000D01*
X2504559Y5184619D01*
X2498916Y5198242D01*
X2489940Y5209940D01*
X2478242Y5218916D01*
X2464619Y5224559D01*
X2450000Y5226483D01*
D02*
G37*
G36*
X2250000D02*
X2235381Y5224559D01*
X2221758Y5218916D01*
X2210060Y5209940D01*
X2201084Y5198242D01*
X2195441Y5184619D01*
X2193517Y5170000D01*
X2195441Y5155381D01*
X2201084Y5141758D01*
X2210060Y5130060D01*
X2221758Y5121084D01*
X2235381Y5115441D01*
X2250000Y5113517D01*
X2264619Y5115441D01*
X2278242Y5121084D01*
X2289940Y5130060D01*
X2298916Y5141758D01*
X2304559Y5155381D01*
X2306483Y5170000D01*
X2304559Y5184619D01*
X2298916Y5198242D01*
X2289940Y5209940D01*
X2278242Y5218916D01*
X2264619Y5224559D01*
X2250000Y5226483D01*
D02*
G37*
G36*
X2050000D02*
X2035381Y5224559D01*
X2021758Y5218916D01*
X2010060Y5209940D01*
X2001084Y5198242D01*
X1995441Y5184619D01*
X1993517Y5170000D01*
X1995441Y5155381D01*
X2001084Y5141758D01*
X2010060Y5130060D01*
X2021758Y5121084D01*
X2035381Y5115441D01*
X2050000Y5113517D01*
X2064619Y5115441D01*
X2078242Y5121084D01*
X2089940Y5130060D01*
X2098916Y5141758D01*
X2104559Y5155381D01*
X2106483Y5170000D01*
X2104559Y5184619D01*
X2098916Y5198242D01*
X2089940Y5209940D01*
X2078242Y5218916D01*
X2064619Y5224559D01*
X2050000Y5226483D01*
D02*
G37*
G36*
X123795Y5012791D02*
X86205D01*
Y4984680D01*
X75685D01*
Y5001118D01*
X24315D01*
Y4945811D01*
X75685D01*
Y4962249D01*
X86205D01*
Y4940752D01*
X93785D01*
Y4895001D01*
X93784Y4895000D01*
X94638Y4890708D01*
X97070Y4887069D01*
X122069Y4862070D01*
X122070Y4862069D01*
X125708Y4859638D01*
X130000Y4858784D01*
X176073D01*
X177159Y4857159D01*
X183051Y4853222D01*
X190000Y4851840D01*
X196950Y4853222D01*
X202841Y4857159D01*
X206778Y4863051D01*
X208160Y4870000D01*
X206778Y4876949D01*
X202841Y4882841D01*
X196950Y4886778D01*
X190000Y4888160D01*
X183051Y4886778D01*
X177159Y4882841D01*
X176073Y4881216D01*
X134646D01*
X116216Y4899646D01*
Y4940752D01*
X123795D01*
Y5012791D01*
D02*
G37*
G36*
X1164189Y5215685D02*
X1108882D01*
Y5164315D01*
X1118785D01*
Y5136708D01*
X1105299D01*
Y4951480D01*
X1154701D01*
Y5136708D01*
X1141216D01*
Y5164315D01*
X1164189D01*
Y5215685D01*
D02*
G37*
G36*
X724189Y5205685D02*
X668882D01*
Y5154315D01*
X688785D01*
Y5134346D01*
X675299D01*
Y4949118D01*
X724701D01*
Y5134346D01*
X711216D01*
Y5154315D01*
X724189D01*
Y5205685D01*
D02*
G37*
G36*
X1231118Y5215685D02*
X1175811D01*
Y5164315D01*
X1188784D01*
Y4973927D01*
X1187159Y4972841D01*
X1183222Y4966949D01*
X1181840Y4960000D01*
X1183222Y4953051D01*
X1187159Y4947159D01*
X1193051Y4943222D01*
X1200000Y4941840D01*
X1206949Y4943222D01*
X1212841Y4947159D01*
X1216778Y4953051D01*
X1218160Y4960000D01*
X1216778Y4966949D01*
X1212841Y4972841D01*
X1211216Y4973927D01*
Y5164315D01*
X1231118D01*
Y5215685D01*
D02*
G37*
G36*
X234189Y5105685D02*
X178882D01*
Y5054315D01*
X193785D01*
Y5012791D01*
X186205D01*
Y4940752D01*
X223795D01*
Y5012791D01*
X216216D01*
Y5054315D01*
X234189D01*
Y5105685D01*
D02*
G37*
G36*
X110000Y5115834D02*
X100725Y5114613D01*
X92083Y5111033D01*
X84662Y5105338D01*
X78967Y5097917D01*
X75387Y5089275D01*
X74166Y5080000D01*
X75387Y5070725D01*
X78967Y5062083D01*
X84662Y5054662D01*
X92083Y5048967D01*
X100725Y5045387D01*
X110000Y5044166D01*
X119275Y5045387D01*
X125976Y5048163D01*
X143785Y5030354D01*
Y5012791D01*
X136205D01*
Y4940752D01*
X173795D01*
Y5012791D01*
X166216D01*
Y5034999D01*
X166216Y5035000D01*
X165362Y5039292D01*
X162931Y5042931D01*
X162930Y5042931D01*
X141837Y5064024D01*
X144613Y5070725D01*
X145834Y5080000D01*
X144613Y5089275D01*
X141033Y5097917D01*
X135339Y5105338D01*
X127917Y5111033D01*
X119275Y5114613D01*
X110000Y5115834D01*
D02*
G37*
G36*
X273795Y4799248D02*
X236205D01*
Y4798736D01*
X232446Y4795440D01*
X230000Y4795762D01*
X227555Y4795440D01*
X223795Y4798736D01*
Y4799248D01*
X186205D01*
Y4762827D01*
X185798Y4761844D01*
X184238Y4750000D01*
Y4574258D01*
X183712Y4574188D01*
X170089Y4568546D01*
X158391Y4559569D01*
X149415Y4547871D01*
X143772Y4534249D01*
X141847Y4519630D01*
X143772Y4505011D01*
X144599Y4503014D01*
X145798Y4493909D01*
X150369Y4482872D01*
X157642Y4473395D01*
X167119Y4466122D01*
X178156Y4461551D01*
X190000Y4459991D01*
X201844Y4461551D01*
X209129Y4464568D01*
X212950Y4465071D01*
X226572Y4470714D01*
X238270Y4479690D01*
X247247Y4491388D01*
X252122Y4503158D01*
X262358Y4513395D01*
X269631Y4522872D01*
X274202Y4533909D01*
X275762Y4545753D01*
Y4750000D01*
X274202Y4761844D01*
X273795Y4762827D01*
Y4799248D01*
D02*
G37*
G36*
X173795D02*
X136205D01*
Y4798736D01*
X132446Y4795440D01*
X130000Y4795762D01*
X127555Y4795440D01*
X123795Y4798736D01*
Y4799248D01*
X86205D01*
Y4762827D01*
X85798Y4761844D01*
X84239Y4750000D01*
Y4728470D01*
X83222Y4726949D01*
X81840Y4720000D01*
X83222Y4713051D01*
X85627Y4709452D01*
X85798Y4708156D01*
X90369Y4697119D01*
X97642Y4687642D01*
X107119Y4680369D01*
X118156Y4675798D01*
X130000Y4674238D01*
X141844Y4675798D01*
X152881Y4680369D01*
X162358Y4687642D01*
X169631Y4697119D01*
X174202Y4708156D01*
X174373Y4709452D01*
X176778Y4713051D01*
X178160Y4720000D01*
X176778Y4726949D01*
X175762Y4728470D01*
Y4750000D01*
X174202Y4761844D01*
X173795Y4762827D01*
Y4799248D01*
D02*
G37*
G36*
X4500000Y4758160D02*
X4493051Y4756778D01*
X4487159Y4752841D01*
X4486073Y4751216D01*
X4436959D01*
X4435873Y4752841D01*
X4429981Y4756778D01*
X4423032Y4758160D01*
X4385630D01*
X4378680Y4756778D01*
X4372789Y4752841D01*
X4368852Y4746949D01*
X4367470Y4740000D01*
X4368852Y4733051D01*
X4372789Y4727159D01*
X4378680Y4723222D01*
X4385630Y4721840D01*
X4423032D01*
X4429981Y4723222D01*
X4435873Y4727159D01*
X4436959Y4728784D01*
X4486073D01*
X4487159Y4727159D01*
X4493051Y4723222D01*
X4500000Y4721840D01*
X4506949Y4723222D01*
X4512841Y4727159D01*
X4516778Y4733051D01*
X4518160Y4740000D01*
X4516778Y4746949D01*
X4512841Y4752841D01*
X4506949Y4756778D01*
X4500000Y4758160D01*
D02*
G37*
G36*
X4940000Y4868160D02*
X4933051Y4866778D01*
X4927159Y4862841D01*
X4923222Y4856949D01*
X4921840Y4850000D01*
X4923222Y4843051D01*
X4927159Y4837159D01*
X4933051Y4833222D01*
X4940000Y4831840D01*
X4941917Y4832221D01*
X4979336Y4794803D01*
Y4787417D01*
X4966835D01*
Y4712425D01*
X5014268D01*
Y4787417D01*
X5001767D01*
Y4799448D01*
X5001767Y4799449D01*
X5000913Y4803741D01*
X4998482Y4807379D01*
X4957779Y4848083D01*
X4958160Y4850000D01*
X4956778Y4856949D01*
X4952841Y4862841D01*
X4946949Y4866778D01*
X4940000Y4868160D01*
D02*
G37*
G36*
X4230000Y5226483D02*
X4215381Y5224559D01*
X4201758Y5218916D01*
X4190060Y5209940D01*
X4181084Y5198242D01*
X4175441Y5184619D01*
X4173517Y5170000D01*
X4175441Y5155381D01*
X4181084Y5141758D01*
X4190060Y5130060D01*
X4201758Y5121084D01*
X4215381Y5115441D01*
X4230000Y5113517D01*
X4244619Y5115441D01*
X4258242Y5121084D01*
X4264220Y5125672D01*
X4337822Y5052069D01*
X4341461Y5049638D01*
X4345753Y5048784D01*
X4345753Y5048784D01*
X5395354D01*
X5533666Y4910472D01*
Y4732299D01*
X5481795D01*
Y4507701D01*
X5499120D01*
Y4216334D01*
X5469150D01*
Y4242614D01*
X5350850D01*
Y4222712D01*
X5291748D01*
Y4233244D01*
X5248252D01*
Y4189748D01*
X5291748D01*
Y4200280D01*
X5350850D01*
Y4167622D01*
X5469150D01*
Y4193903D01*
X5499120D01*
Y3851215D01*
X4967318D01*
X4747551Y4070982D01*
Y4423663D01*
X4747552Y4423664D01*
X4746698Y4427956D01*
X4744267Y4431595D01*
X4744266Y4431595D01*
X4502077Y4673784D01*
X4503965Y4678784D01*
X4564472D01*
Y4671008D01*
X4635528D01*
Y4734189D01*
X4564472D01*
Y4701216D01*
X4436959D01*
X4435873Y4702841D01*
X4429981Y4706778D01*
X4423032Y4708160D01*
X4385630D01*
X4378680Y4706778D01*
X4372789Y4702841D01*
X4368852Y4696949D01*
X4367470Y4690000D01*
X4368782Y4683404D01*
X4368725Y4682282D01*
X4366653Y4678404D01*
X4357457D01*
X4287931Y4747931D01*
X4284292Y4750362D01*
X4280000Y4751216D01*
X4279999Y4751216D01*
X4228297D01*
X4227211Y4752841D01*
X4221320Y4756778D01*
X4214370Y4758160D01*
X4176968D01*
X4170019Y4756778D01*
X4164127Y4752841D01*
X4160191Y4746949D01*
X4158809Y4740000D01*
X4159190Y4738083D01*
X4135512Y4714404D01*
X4114686D01*
X4114685Y4714405D01*
X4113601Y4714189D01*
X4074315D01*
Y4658882D01*
X4125685D01*
Y4691974D01*
X4140157D01*
X4140158Y4691973D01*
X4144449Y4692827D01*
X4148088Y4695258D01*
X4175051Y4722221D01*
X4176968Y4721840D01*
X4214370D01*
X4221320Y4723222D01*
X4227211Y4727159D01*
X4228297Y4728784D01*
X4275354D01*
X4344880Y4659258D01*
X4348519Y4656827D01*
X4352811Y4655973D01*
X4352811Y4655974D01*
X4369162D01*
X4371541Y4650974D01*
X4368852Y4646949D01*
X4367470Y4640000D01*
X4368852Y4633051D01*
X4372789Y4627159D01*
X4378680Y4623222D01*
X4385630Y4621840D01*
X4423032D01*
X4429981Y4623222D01*
X4435873Y4627159D01*
X4439809Y4633051D01*
X4441191Y4640000D01*
X4439809Y4646949D01*
X4437120Y4650974D01*
X4439499Y4655974D01*
X4488165D01*
X4725120Y4419018D01*
Y4066336D01*
X4725120Y4066336D01*
X4725974Y4062044D01*
X4728405Y4058405D01*
X4954741Y3832070D01*
X4954741Y3832069D01*
X4958380Y3829638D01*
X4962672Y3828785D01*
X5499120D01*
Y3093837D01*
X5403250Y2997966D01*
X5100947D01*
X5089103Y2996407D01*
X5078066Y2991835D01*
X5068589Y2984563D01*
X5061316Y2975086D01*
X5056745Y2964049D01*
X5055185Y2952205D01*
X5056745Y2940361D01*
X5061316Y2929324D01*
X5068589Y2919846D01*
X5078066Y2912574D01*
X5089103Y2908002D01*
X5100947Y2906443D01*
X5183378D01*
X5184120Y2901443D01*
X5179218Y2899956D01*
X5166377Y2893093D01*
X5155122Y2883856D01*
X5145886Y2872601D01*
X5139022Y2859761D01*
X5134796Y2845828D01*
X5133369Y2831339D01*
X5134796Y2816849D01*
X5139022Y2802916D01*
X5145886Y2790076D01*
X5155122Y2778821D01*
X5166377Y2769584D01*
X5172680Y2766215D01*
X5171427Y2761215D01*
X4712300D01*
X4712284Y2761330D01*
X4707911Y2771888D01*
X4700954Y2780954D01*
X4691888Y2787911D01*
X4681330Y2792284D01*
X4670000Y2793776D01*
X4658670Y2792284D01*
X4648112Y2787911D01*
X4639046Y2780954D01*
X4632089Y2771888D01*
X4627716Y2761330D01*
X4627700Y2761215D01*
X3867741D01*
X3867740Y2761216D01*
X3863448Y2760362D01*
X3859810Y2757931D01*
X3859810Y2757930D01*
X3420940Y2319060D01*
X3420939Y2319060D01*
X3052069Y1950190D01*
X3049638Y1946552D01*
X3048784Y1942260D01*
X3048785Y1942259D01*
Y1089646D01*
X2842069Y882931D01*
X2839638Y879292D01*
X2838784Y875000D01*
X2838785Y875000D01*
Y729426D01*
X2838221Y729109D01*
X2831644Y731029D01*
X2827642Y738515D01*
X2819021Y749021D01*
X2808515Y757642D01*
X2796530Y764049D01*
X2783525Y767994D01*
X2770000Y769326D01*
X2756475Y767994D01*
X2743470Y764049D01*
X2731485Y757642D01*
X2720979Y749021D01*
X2712358Y738515D01*
X2705951Y726530D01*
X2702006Y713525D01*
X2700674Y700000D01*
X2702006Y686475D01*
X2705951Y673470D01*
X2712358Y661485D01*
X2720979Y650979D01*
X2731485Y642358D01*
X2743470Y635951D01*
X2756475Y632006D01*
X2770000Y630674D01*
X2783525Y632006D01*
X2796530Y635951D01*
X2808515Y642358D01*
X2819021Y650979D01*
X2827642Y661485D01*
X2831644Y668971D01*
X2838221Y670891D01*
X2838785Y670574D01*
Y659646D01*
X2772576Y593437D01*
X2770000Y593776D01*
X2758670Y592284D01*
X2748112Y587911D01*
X2739046Y580954D01*
X2732089Y571888D01*
X2727716Y561330D01*
X2726224Y550000D01*
X2727716Y538670D01*
X2732089Y528112D01*
X2739046Y519046D01*
X2748112Y512089D01*
X2758670Y507716D01*
X2758785Y507700D01*
Y492300D01*
X2758670Y492284D01*
X2748112Y487911D01*
X2739046Y480954D01*
X2732089Y471888D01*
X2727716Y461330D01*
X2726224Y450000D01*
X2727716Y438670D01*
X2732089Y428112D01*
X2739046Y419046D01*
X2748112Y412089D01*
X2758670Y407716D01*
X2770000Y406224D01*
X2781330Y407716D01*
X2791888Y412089D01*
X2800954Y419046D01*
X2807911Y428112D01*
X2812284Y438670D01*
X2813776Y450000D01*
X2812284Y461330D01*
X2807911Y471888D01*
X2800954Y480954D01*
X2791888Y487911D01*
X2781330Y492284D01*
X2781215Y492300D01*
Y507700D01*
X2781330Y507716D01*
X2791888Y512089D01*
X2800954Y519046D01*
X2807911Y528112D01*
X2812284Y538670D01*
X2813776Y550000D01*
X2812284Y561330D01*
X2807911Y571888D01*
X2800954Y580954D01*
X2798791Y582614D01*
X2798464Y587603D01*
X2857930Y647069D01*
X2857931Y647069D01*
X2860362Y650708D01*
X2861216Y655000D01*
X2861215Y655001D01*
Y870354D01*
X3067930Y1077069D01*
X3067931Y1077070D01*
X3070362Y1080708D01*
X3071215Y1085000D01*
Y1937614D01*
X3158382Y2024781D01*
X3162589Y2023505D01*
X3163423Y2022750D01*
X3167159Y2017159D01*
X3171595Y2014195D01*
Y1988977D01*
X3167718Y1986904D01*
X3166595Y1986848D01*
X3160000Y1988160D01*
X3153050Y1986778D01*
X3147159Y1982841D01*
X3143222Y1976949D01*
X3141840Y1970000D01*
X3143222Y1963051D01*
X3147159Y1957159D01*
X3148785Y1956073D01*
Y1144646D01*
X2892069Y887931D01*
X2889638Y884292D01*
X2888784Y880000D01*
X2888785Y880000D01*
Y593697D01*
X2884627Y590919D01*
X2881330Y592284D01*
X2870000Y593776D01*
X2858670Y592284D01*
X2848112Y587911D01*
X2839046Y580954D01*
X2832089Y571888D01*
X2827716Y561330D01*
X2826224Y550000D01*
X2827716Y538670D01*
X2832089Y528112D01*
X2839046Y519046D01*
X2848112Y512089D01*
X2858670Y507716D01*
X2870000Y506224D01*
X2881330Y507716D01*
X2891888Y512089D01*
X2900954Y519046D01*
X2905383Y524817D01*
X2910383Y523120D01*
Y506244D01*
X2891980Y487841D01*
X2891888Y487911D01*
X2881330Y492284D01*
X2870000Y493776D01*
X2858670Y492284D01*
X2848112Y487911D01*
X2839046Y480954D01*
X2832089Y471888D01*
X2827716Y461330D01*
X2826224Y450000D01*
X2827716Y438670D01*
X2832089Y428112D01*
X2839046Y419046D01*
X2848112Y412089D01*
X2858670Y407716D01*
X2870000Y406224D01*
X2881330Y407716D01*
X2891888Y412089D01*
X2900954Y419046D01*
X2907911Y428112D01*
X2912284Y438670D01*
X2913776Y450000D01*
X2912284Y461330D01*
X2907911Y471888D01*
X2907841Y471980D01*
X2929529Y493668D01*
X2929529Y493668D01*
X2931960Y497306D01*
X2932814Y501598D01*
X2932814Y501599D01*
Y519390D01*
X2937549Y520997D01*
X2939046Y519046D01*
X2948112Y512089D01*
X2958670Y507716D01*
X2970000Y506224D01*
X2981330Y507716D01*
X2991888Y512089D01*
X3000954Y519046D01*
X3005383Y524817D01*
X3010383Y523120D01*
Y506244D01*
X2991980Y487841D01*
X2991888Y487911D01*
X2981330Y492284D01*
X2970000Y493776D01*
X2958670Y492284D01*
X2948112Y487911D01*
X2939046Y480954D01*
X2932089Y471888D01*
X2927716Y461330D01*
X2926224Y450000D01*
X2927716Y438670D01*
X2932089Y428112D01*
X2939046Y419046D01*
X2948112Y412089D01*
X2958670Y407716D01*
X2970000Y406224D01*
X2981330Y407716D01*
X2991888Y412089D01*
X3000954Y419046D01*
X3007911Y428112D01*
X3012284Y438670D01*
X3013776Y450000D01*
X3012284Y461330D01*
X3007911Y471888D01*
X3007841Y471980D01*
X3029529Y493668D01*
X3029529Y493668D01*
X3031960Y497306D01*
X3032814Y501598D01*
X3032814Y501599D01*
Y519390D01*
X3037549Y520997D01*
X3039046Y519046D01*
X3048112Y512089D01*
X3058670Y507716D01*
X3070000Y506224D01*
X3081330Y507716D01*
X3091888Y512089D01*
X3100954Y519046D01*
X3105383Y524817D01*
X3110383Y523120D01*
Y506244D01*
X3091980Y487841D01*
X3091888Y487911D01*
X3081330Y492284D01*
X3070000Y493776D01*
X3058670Y492284D01*
X3048112Y487911D01*
X3039046Y480954D01*
X3032089Y471888D01*
X3027716Y461330D01*
X3026224Y450000D01*
X3027716Y438670D01*
X3032089Y428112D01*
X3039046Y419046D01*
X3048112Y412089D01*
X3058670Y407716D01*
X3070000Y406224D01*
X3081330Y407716D01*
X3091888Y412089D01*
X3100954Y419046D01*
X3107911Y428112D01*
X3112284Y438670D01*
X3113776Y450000D01*
X3112284Y461330D01*
X3107911Y471888D01*
X3107841Y471980D01*
X3129529Y493668D01*
X3129529Y493668D01*
X3131960Y497306D01*
X3132814Y501598D01*
X3132814Y501599D01*
Y519390D01*
X3137549Y520997D01*
X3139046Y519046D01*
X3148112Y512089D01*
X3158670Y507716D01*
X3170000Y506224D01*
X3181330Y507716D01*
X3191888Y512089D01*
X3200954Y519046D01*
X3207911Y528112D01*
X3212284Y538670D01*
X3213776Y550000D01*
X3212284Y561330D01*
X3207911Y571888D01*
X3200954Y580954D01*
X3191888Y587911D01*
X3181330Y592284D01*
X3170000Y593776D01*
X3158670Y592284D01*
X3148112Y587911D01*
X3139046Y580954D01*
X3137549Y579003D01*
X3132814Y580610D01*
Y656953D01*
X4358083Y1882222D01*
X4360000Y1881840D01*
X4366949Y1883222D01*
X4372841Y1887159D01*
X4376778Y1893051D01*
X4378160Y1900000D01*
X4376778Y1906949D01*
X4372841Y1912841D01*
X4366949Y1916778D01*
X4360000Y1918160D01*
X4353051Y1916778D01*
X4347159Y1912841D01*
X4343222Y1906949D01*
X4341840Y1900000D01*
X4342221Y1898083D01*
X3113668Y669529D01*
X3111237Y665890D01*
X3110383Y661598D01*
X3110383Y661598D01*
Y576880D01*
X3105383Y575183D01*
X3100954Y580954D01*
X3091888Y587911D01*
X3081330Y592284D01*
X3081215Y592299D01*
Y655354D01*
X4148083Y1722222D01*
X4150000Y1721840D01*
X4156949Y1723222D01*
X4162841Y1727159D01*
X4166778Y1733051D01*
X4168160Y1740000D01*
X4166778Y1746949D01*
X4162841Y1752841D01*
X4156949Y1756778D01*
X4150000Y1758160D01*
X4143051Y1756778D01*
X4137159Y1752841D01*
X4133222Y1746949D01*
X4131840Y1740000D01*
X4132221Y1738083D01*
X3062069Y667931D01*
X3059638Y664292D01*
X3058784Y660000D01*
X3058785Y660000D01*
Y592299D01*
X3058670Y592284D01*
X3048112Y587911D01*
X3039046Y580954D01*
X3037549Y579003D01*
X3032814Y580610D01*
Y786953D01*
X4127930Y1882069D01*
X4127931Y1882069D01*
X4130362Y1885708D01*
X4131216Y1890000D01*
Y2336073D01*
X4132841Y2337159D01*
X4136778Y2343050D01*
X4138160Y2350000D01*
X4136778Y2356950D01*
X4132841Y2362841D01*
X4126949Y2366778D01*
X4120000Y2368160D01*
X4113051Y2366778D01*
X4107159Y2362841D01*
X4103222Y2356950D01*
X4101840Y2350000D01*
X4103222Y2343050D01*
X4107159Y2337159D01*
X4108784Y2336073D01*
Y2292946D01*
X4103784Y2291429D01*
X4102841Y2292841D01*
X4096949Y2296778D01*
X4090000Y2298160D01*
X4083050Y2296778D01*
X4077159Y2292841D01*
X4073222Y2286950D01*
X4071840Y2280000D01*
X4073222Y2273050D01*
X4077159Y2267159D01*
X4078785Y2266073D01*
Y1904592D01*
X2962069Y787877D01*
X2959638Y784238D01*
X2958784Y779946D01*
X2958785Y779946D01*
Y592299D01*
X2958670Y592284D01*
X2948112Y587911D01*
X2939046Y580954D01*
X2937549Y579003D01*
X2932814Y580610D01*
Y874325D01*
X3190742Y1132253D01*
X3193173Y1135892D01*
X3194027Y1140184D01*
X3194026Y1140184D01*
Y2018933D01*
X3196778Y2023051D01*
X3198160Y2030000D01*
X3196778Y2036949D01*
X3192841Y2042841D01*
X3187250Y2046577D01*
X3186495Y2047411D01*
X3185219Y2051618D01*
X3413035Y2279434D01*
X3417655Y2277520D01*
Y1786130D01*
X3417655Y1786130D01*
X3418508Y1781838D01*
X3420940Y1778199D01*
X3533974Y1665165D01*
X3530055Y1655703D01*
X3528646Y1645000D01*
X3530055Y1634297D01*
X3534187Y1624323D01*
X3540758Y1615758D01*
X3549323Y1609187D01*
X3559297Y1605055D01*
X3570000Y1603646D01*
X3580703Y1605055D01*
X3590677Y1609187D01*
X3599242Y1615758D01*
X3605813Y1624323D01*
X3609945Y1634297D01*
X3611354Y1645000D01*
X3609945Y1655703D01*
X3605813Y1665677D01*
X3599242Y1674242D01*
X3590677Y1680813D01*
X3580703Y1684945D01*
X3570000Y1686354D01*
X3559297Y1684945D01*
X3549836Y1681026D01*
X3440086Y1790775D01*
Y2306484D01*
X3872386Y2738785D01*
X4627700D01*
X4627716Y2738670D01*
X4632089Y2728112D01*
X4639046Y2719046D01*
X4648112Y2712089D01*
X4658670Y2707716D01*
X4670000Y2706224D01*
X4681330Y2707716D01*
X4691888Y2712089D01*
X4700954Y2719046D01*
X4707911Y2728112D01*
X4712284Y2738670D01*
X4712300Y2738785D01*
X5454881D01*
X5454882Y2738784D01*
X5459174Y2739638D01*
X5462812Y2742069D01*
X5494501Y2773758D01*
X5499120Y2771844D01*
Y2411717D01*
X5325370Y2237966D01*
X5100944D01*
X5089100Y2236407D01*
X5078064Y2231835D01*
X5068586Y2224563D01*
X5061314Y2215086D01*
X5056742Y2204049D01*
X5055183Y2192205D01*
X5056742Y2180361D01*
X5061314Y2169324D01*
X5068586Y2159846D01*
X5078064Y2152574D01*
X5089100Y2148002D01*
X5100944Y2146443D01*
X5183375D01*
X5184117Y2141443D01*
X5179215Y2139956D01*
X5166374Y2133093D01*
X5155120Y2123856D01*
X5145883Y2112601D01*
X5139020Y2099761D01*
X5134793Y2085828D01*
X5133366Y2071339D01*
X5134793Y2056849D01*
X5139020Y2042916D01*
X5145883Y2030076D01*
X5155120Y2018821D01*
X5166374Y2009584D01*
X5179215Y2002721D01*
X5193148Y1998495D01*
X5207637Y1997068D01*
X5222127Y1998495D01*
X5236060Y2002721D01*
X5248900Y2009584D01*
X5260155Y2018821D01*
X5269391Y2030076D01*
X5276255Y2042916D01*
X5280481Y2056849D01*
X5281908Y2071339D01*
X5280481Y2085828D01*
X5276255Y2099761D01*
X5269391Y2112601D01*
X5260155Y2123856D01*
X5248900Y2133093D01*
X5236060Y2139956D01*
X5231158Y2141443D01*
X5231899Y2146443D01*
X5344325D01*
X5356169Y2148002D01*
X5367205Y2152574D01*
X5376683Y2159846D01*
X5524165Y2307329D01*
X5528784Y2305415D01*
Y1185434D01*
X5528784Y1185433D01*
X5528784Y1185433D01*
Y1000000D01*
X5528784Y1000000D01*
X5529638Y995708D01*
X5532069Y992069D01*
X5648784Y875354D01*
Y361118D01*
X5634315D01*
Y305811D01*
X5685685D01*
Y361118D01*
X5671216D01*
Y880000D01*
X5670362Y884292D01*
X5667931Y887931D01*
X5667930Y887931D01*
X5551216Y1004646D01*
Y1151823D01*
X5555835Y1153737D01*
X5624315Y1085257D01*
Y1045811D01*
X5675685D01*
Y1101118D01*
X5640176D01*
X5551216Y1190079D01*
Y2334379D01*
X5572358Y2355522D01*
X5574478Y2358284D01*
X5577240Y2360404D01*
X5584513Y2369881D01*
X5589084Y2380918D01*
X5590644Y2392762D01*
Y2840000D01*
Y3074882D01*
Y3840000D01*
Y4193903D01*
X5760236D01*
X5780069Y4174069D01*
X5774000Y4168000D01*
Y4112000D01*
X5802000Y4084000D01*
X5858000D01*
X5886000Y4112000D01*
Y4168000D01*
X5858000Y4196000D01*
X5841216D01*
Y4284993D01*
X5844619Y4285441D01*
X5858242Y4291084D01*
X5869940Y4300060D01*
X5878916Y4311758D01*
X5884559Y4325381D01*
X5886483Y4340000D01*
X5884559Y4354619D01*
X5878916Y4368242D01*
X5869940Y4379940D01*
X5858242Y4388916D01*
X5844619Y4394559D01*
X5830000Y4396483D01*
X5815381Y4394559D01*
X5801758Y4388916D01*
X5790060Y4379940D01*
X5781084Y4368242D01*
X5775441Y4354619D01*
X5773517Y4340000D01*
X5775441Y4325381D01*
X5781084Y4311758D01*
X5790060Y4300060D01*
X5801758Y4291084D01*
X5815381Y4285441D01*
X5818784Y4284993D01*
Y4196000D01*
X5802000D01*
X5795931Y4189931D01*
X5772812Y4213049D01*
X5769174Y4215480D01*
X5764882Y4216334D01*
X5764881Y4216334D01*
X5590644D01*
Y4507701D01*
X5607968D01*
Y4732299D01*
X5556097D01*
Y4915118D01*
X5555244Y4919410D01*
X5552812Y4923049D01*
X5552812Y4923049D01*
X5407931Y5067931D01*
X5404292Y5070362D01*
X5400000Y5071216D01*
X5399999Y5071216D01*
X4350399D01*
X4279191Y5142423D01*
X4284559Y5155381D01*
X4286483Y5170000D01*
X4284559Y5184619D01*
X4278916Y5198242D01*
X4269940Y5209940D01*
X4258242Y5218916D01*
X4244619Y5224559D01*
X4230000Y5226483D01*
D02*
G37*
G36*
X4214370Y4658160D02*
X4176968D01*
X4170019Y4656778D01*
X4164127Y4652841D01*
X4160191Y4646949D01*
X4158809Y4640000D01*
X4160191Y4633051D01*
X4164127Y4627159D01*
X4170019Y4623222D01*
X4176968Y4621840D01*
X4214370D01*
X4221320Y4623222D01*
X4227211Y4627159D01*
X4231148Y4633051D01*
X4232530Y4640000D01*
X4231148Y4646949D01*
X4227211Y4652841D01*
X4221320Y4656778D01*
X4214370Y4658160D01*
D02*
G37*
G36*
X4423032Y4608160D02*
X4385630D01*
X4378680Y4606778D01*
X4372789Y4602841D01*
X4368852Y4596949D01*
X4367470Y4590000D01*
X4368852Y4583051D01*
X4372789Y4577159D01*
X4378680Y4573222D01*
X4385630Y4571840D01*
X4423032D01*
X4429981Y4573222D01*
X4435873Y4577159D01*
X4439809Y4583051D01*
X4441191Y4590000D01*
X4439809Y4596949D01*
X4435873Y4602841D01*
X4429981Y4606778D01*
X4423032Y4608160D01*
D02*
G37*
G36*
X4214370D02*
X4176968D01*
X4170019Y4606778D01*
X4164127Y4602841D01*
X4163041Y4601216D01*
X4115858D01*
X4111566Y4600362D01*
X4107927Y4597931D01*
X4107927Y4597930D01*
X4102069Y4592073D01*
X4099638Y4588434D01*
X4098784Y4584142D01*
X4095249Y4581118D01*
X4084315D01*
Y4525811D01*
X4135685D01*
Y4578784D01*
X4163041D01*
X4164127Y4577159D01*
X4170019Y4573222D01*
X4176968Y4571840D01*
X4214370D01*
X4221320Y4573222D01*
X4227211Y4577159D01*
X4231148Y4583051D01*
X4232530Y4590000D01*
X4231148Y4596949D01*
X4227211Y4602841D01*
X4221320Y4606778D01*
X4214370Y4608160D01*
D02*
G37*
G36*
X4505685Y4561118D02*
X4454315D01*
Y4551216D01*
X4436959D01*
X4435873Y4552841D01*
X4429981Y4556778D01*
X4423032Y4558160D01*
X4385630D01*
X4378680Y4556778D01*
X4372789Y4552841D01*
X4368852Y4546949D01*
X4367470Y4540000D01*
X4368852Y4533051D01*
X4372789Y4527159D01*
X4378680Y4523222D01*
X4385630Y4521840D01*
X4423032D01*
X4429981Y4523222D01*
X4435873Y4527159D01*
X4436959Y4528784D01*
X4454315D01*
Y4505811D01*
X4505685D01*
Y4561118D01*
D02*
G37*
G36*
X4770000Y4975762D02*
X4365118D01*
X4353274Y4974202D01*
X4346588Y4971433D01*
X4327622D01*
Y4955663D01*
X4325487Y4952881D01*
X4320916Y4941844D01*
X4319356Y4930000D01*
X4320916Y4918156D01*
X4325487Y4907119D01*
X4327622Y4904337D01*
Y4888567D01*
X4346588D01*
X4353274Y4885798D01*
X4365118Y4884238D01*
X4481844D01*
X4483758Y4879619D01*
X4455354Y4851216D01*
X4436959D01*
X4435873Y4852841D01*
X4429981Y4856778D01*
X4423032Y4858160D01*
X4385630D01*
X4378680Y4856778D01*
X4372789Y4852841D01*
X4368852Y4846949D01*
X4367470Y4840000D01*
X4368852Y4833051D01*
X4372789Y4827159D01*
X4378680Y4823222D01*
X4385630Y4821840D01*
X4423032D01*
X4429981Y4823222D01*
X4435873Y4827159D01*
X4436959Y4828784D01*
X4459999D01*
X4460000Y4828784D01*
X4464292Y4829638D01*
X4467931Y4832069D01*
X4520100Y4884238D01*
X4751045D01*
X4764238Y4871045D01*
Y4750472D01*
X4765798Y4738628D01*
X4770369Y4727592D01*
X4777642Y4718114D01*
X4787119Y4710842D01*
X4798156Y4706270D01*
X4810000Y4704711D01*
X4821844Y4706270D01*
X4832881Y4710842D01*
X4842358Y4718114D01*
X4849238Y4727080D01*
X4850971Y4727032D01*
X4854238Y4725667D01*
Y4620000D01*
Y4527575D01*
X4831008D01*
Y4452583D01*
X4854238D01*
Y4430000D01*
X4855798Y4418156D01*
X4860369Y4407119D01*
X4867642Y4397642D01*
X4946711Y4318572D01*
X4944798Y4313953D01*
X4866047D01*
Y4046047D01*
X5133953D01*
Y4313953D01*
X5045762D01*
Y4330000D01*
X5044202Y4341844D01*
X5039631Y4352881D01*
X5032358Y4362358D01*
X4947134Y4447583D01*
X4949074Y4452583D01*
X4968992D01*
Y4527575D01*
X4945762D01*
Y4574238D01*
X5092032D01*
Y4507701D01*
X5218205D01*
Y4732299D01*
X5092032D01*
Y4665762D01*
X4945762D01*
Y4749921D01*
X4944202Y4761765D01*
X4939631Y4772802D01*
X4932358Y4782280D01*
X4922881Y4789552D01*
X4911844Y4794124D01*
X4900000Y4795683D01*
X4888156Y4794124D01*
X4877119Y4789552D01*
X4867642Y4782280D01*
X4860762Y4773313D01*
X4859029Y4773362D01*
X4855762Y4774727D01*
Y4890000D01*
X4854202Y4901844D01*
X4849631Y4912881D01*
X4842358Y4922358D01*
X4802358Y4962358D01*
X4792881Y4969631D01*
X4781844Y4974202D01*
X4770000Y4975762D01*
D02*
G37*
G36*
X4214370Y4558160D02*
X4176968D01*
X4170019Y4556778D01*
X4164127Y4552841D01*
X4160191Y4546949D01*
X4158809Y4540000D01*
X4160191Y4533051D01*
X4164127Y4527159D01*
X4170019Y4523222D01*
X4176968Y4521840D01*
X4184642D01*
Y4510504D01*
X4171890Y4497751D01*
X4135685D01*
Y4514189D01*
X4084315D01*
Y4497751D01*
X4075685D01*
Y4514189D01*
X4024315D01*
Y4458882D01*
X4075685D01*
Y4475320D01*
X4084315D01*
Y4458882D01*
X4135685D01*
Y4475320D01*
X4176535D01*
X4176535Y4475320D01*
X4180828Y4476174D01*
X4184466Y4478605D01*
X4203788Y4497927D01*
X4206220Y4501566D01*
X4207074Y4505858D01*
X4207073Y4505858D01*
Y4521840D01*
X4214370D01*
X4221320Y4523222D01*
X4227211Y4527159D01*
X4231148Y4533051D01*
X4232530Y4540000D01*
X4231148Y4546949D01*
X4227211Y4552841D01*
X4221320Y4556778D01*
X4214370Y4558160D01*
D02*
G37*
G36*
X4431118Y4495685D02*
X4375811D01*
Y4444315D01*
X4431118D01*
Y4458784D01*
X4454315D01*
Y4438882D01*
X4505685D01*
Y4494189D01*
X4454315D01*
Y4481216D01*
X4431118D01*
Y4495685D01*
D02*
G37*
G36*
X2097653Y4535685D02*
X2042347D01*
Y4484315D01*
X2097653D01*
Y4498784D01*
X2105354D01*
X2122222Y4481917D01*
X2121840Y4480000D01*
X2123222Y4473051D01*
X2127159Y4467159D01*
X2133051Y4463222D01*
X2140000Y4461840D01*
X2141918Y4462221D01*
X2148785Y4455354D01*
Y4371216D01*
X2097654D01*
Y4385685D01*
X2042347D01*
Y4334315D01*
Y4284315D01*
Y4234315D01*
Y4184315D01*
X2038630Y4181216D01*
X2034441D01*
X2030725Y4184315D01*
Y4234315D01*
Y4284315D01*
Y4334315D01*
Y4384315D01*
Y4434315D01*
Y4485685D01*
X2030724D01*
Y4535685D01*
X1975417D01*
Y4521216D01*
X1890001D01*
X1890000Y4521216D01*
X1885708Y4520362D01*
X1882070Y4517931D01*
X1882069Y4517930D01*
X1867739Y4503600D01*
X1865308Y4499961D01*
X1864454Y4495669D01*
X1864454Y4495669D01*
Y4441197D01*
X1840634D01*
Y4411480D01*
Y4385890D01*
Y4360299D01*
Y4334709D01*
Y4305083D01*
X1839659Y4304889D01*
X1836021Y4302458D01*
X1836021Y4302458D01*
X1827703Y4294141D01*
X1825272Y4290502D01*
X1824418Y4286210D01*
X1824418Y4286209D01*
Y4011118D01*
X1804315D01*
Y4001215D01*
X1793927D01*
X1792841Y4002841D01*
X1786949Y4006778D01*
X1780000Y4008160D01*
X1773051Y4006778D01*
X1767159Y4002841D01*
X1763222Y3996950D01*
X1761840Y3990000D01*
X1763222Y3983050D01*
X1767159Y3977159D01*
X1773051Y3973222D01*
X1780000Y3971840D01*
X1786949Y3973222D01*
X1792841Y3977159D01*
X1793927Y3978785D01*
X1804315D01*
Y3955811D01*
X1855685D01*
Y4011118D01*
X1846849D01*
Y4078803D01*
X1910705D01*
Y4082446D01*
X1921693D01*
X1932785Y4071354D01*
Y4046001D01*
X1932784Y4046000D01*
X1933638Y4041708D01*
X1936070Y4038069D01*
X1972069Y4002070D01*
X1972070Y4002069D01*
X1975708Y3999638D01*
X1980000Y3998784D01*
X1980001Y3998785D01*
X2060000D01*
X2060000Y3998784D01*
X2064292Y3999638D01*
X2067931Y4002069D01*
X2077930Y4012069D01*
X2077931Y4012069D01*
X2080362Y4015708D01*
X2081216Y4020000D01*
Y4034315D01*
X2097654D01*
Y4084472D01*
X2105528D01*
Y4108784D01*
X2154142D01*
X2154142Y4108784D01*
X2158434Y4109638D01*
X2162073Y4112069D01*
X2167930Y4117927D01*
X2167931Y4117927D01*
X2170362Y4121566D01*
X2171216Y4125858D01*
Y4310000D01*
Y4360000D01*
Y4459999D01*
X2171216Y4460000D01*
X2170362Y4464292D01*
X2167931Y4467931D01*
X2167930Y4467931D01*
X2157779Y4478083D01*
X2158160Y4480000D01*
X2156778Y4486949D01*
X2152841Y4492841D01*
X2146950Y4496778D01*
X2140000Y4498160D01*
X2138083Y4497779D01*
X2117931Y4517931D01*
X2114292Y4520362D01*
X2110000Y4521216D01*
X2110000Y4521216D01*
X2097653D01*
Y4535685D01*
D02*
G37*
G36*
X810725Y4839071D02*
X389276D01*
Y4460929D01*
X454238D01*
Y4360000D01*
Y4345762D01*
X254331D01*
Y4347630D01*
X226331Y4375630D01*
X170331D01*
X142331Y4347630D01*
Y4291630D01*
X145797Y4288164D01*
X145798Y4288156D01*
X150369Y4277119D01*
X157642Y4267642D01*
X167119Y4260369D01*
X178156Y4255798D01*
X190000Y4254238D01*
X472077D01*
X475299Y4251766D01*
Y4089118D01*
X524701D01*
Y4251766D01*
X532358Y4257642D01*
X539631Y4267119D01*
X544202Y4278156D01*
X545762Y4290000D01*
Y4360000D01*
Y4460929D01*
X810725D01*
Y4839071D01*
D02*
G37*
G36*
X791118Y4355685D02*
X735811D01*
Y4304315D01*
X791118D01*
Y4308784D01*
X801073D01*
X802159Y4307159D01*
X808051Y4303222D01*
X815000Y4301840D01*
X821950Y4303222D01*
X827841Y4307159D01*
X831778Y4313051D01*
X833160Y4320000D01*
X831778Y4326949D01*
X827841Y4332841D01*
X821950Y4336778D01*
X815000Y4338160D01*
X808051Y4336778D01*
X802159Y4332841D01*
X801073Y4331216D01*
X791118D01*
Y4355685D01*
D02*
G37*
G36*
X1154189D02*
X1098882D01*
Y4304315D01*
X1108785D01*
Y4274346D01*
X1095299D01*
Y4089118D01*
X1144701D01*
Y4274346D01*
X1131216D01*
Y4304315D01*
X1154189D01*
Y4355685D01*
D02*
G37*
G36*
X1240725Y4841433D02*
X819276D01*
Y4463291D01*
X874239D01*
Y4420000D01*
Y4380000D01*
Y4280000D01*
Y4250000D01*
X875798Y4238156D01*
X880369Y4227119D01*
X887642Y4217642D01*
X895299Y4211766D01*
Y4089118D01*
X944701D01*
Y4211766D01*
X952358Y4217642D01*
X959631Y4227119D01*
X964202Y4238156D01*
X965762Y4250000D01*
Y4280000D01*
Y4380000D01*
Y4420000D01*
Y4463291D01*
X1240725D01*
Y4841433D01*
D02*
G37*
G36*
X724189Y4355685D02*
X668882D01*
Y4304315D01*
X688785D01*
Y4274346D01*
X675299D01*
Y4089118D01*
X724701D01*
Y4274346D01*
X711216D01*
Y4304315D01*
X724189D01*
Y4355685D01*
D02*
G37*
G36*
X5291748Y4170252D02*
X5248252D01*
Y4126756D01*
X5258784D01*
Y4101118D01*
X5244315D01*
Y4045811D01*
X5295685D01*
Y4101118D01*
X5281216D01*
Y4126756D01*
X5291748D01*
Y4170252D01*
D02*
G37*
G36*
X1915685Y4011118D02*
X1864315D01*
Y3955811D01*
X1915685D01*
Y3962130D01*
X1920685Y3964803D01*
X1923051Y3963222D01*
X1930000Y3961840D01*
X1936950Y3963222D01*
X1942841Y3967159D01*
X1946778Y3973050D01*
X1948160Y3980000D01*
X1946778Y3986950D01*
X1942841Y3992841D01*
X1936950Y3996778D01*
X1930000Y3998160D01*
X1923051Y3996778D01*
X1920685Y3995197D01*
X1915685Y3997870D01*
Y4011118D01*
D02*
G37*
G36*
X5828000Y3876000D02*
X5772000D01*
X5744000Y3848000D01*
Y3792000D01*
X5772000Y3764000D01*
X5828000D01*
X5856000Y3792000D01*
Y3848000D01*
X5828000Y3876000D01*
D02*
G37*
G36*
X4665000Y3788440D02*
X4647161Y3786683D01*
X4630007Y3781480D01*
X4614199Y3773030D01*
X4600342Y3761658D01*
X4588970Y3747802D01*
X4580520Y3731993D01*
X4575317Y3714839D01*
X4573560Y3697000D01*
X4575317Y3679161D01*
X4580520Y3662007D01*
X4588970Y3646198D01*
X4600342Y3632342D01*
X4614199Y3620970D01*
X4630007Y3612520D01*
X4647161Y3607317D01*
X4665000Y3605560D01*
X4682839Y3607317D01*
X4699993Y3612520D01*
X4715801Y3620970D01*
X4729658Y3632342D01*
X4741030Y3646198D01*
X4749480Y3662007D01*
X4754683Y3679161D01*
X4756440Y3697000D01*
X4754683Y3714839D01*
X4749480Y3731993D01*
X4741030Y3747802D01*
X4729658Y3761658D01*
X4715801Y3773030D01*
X4699993Y3781480D01*
X4682839Y3786683D01*
X4665000Y3788440D01*
D02*
G37*
G36*
X2770000Y3719326D02*
X2756475Y3717994D01*
X2743470Y3714049D01*
X2731485Y3707642D01*
X2720979Y3699021D01*
X2712358Y3688515D01*
X2705951Y3676530D01*
X2702006Y3663525D01*
X2700674Y3650000D01*
X2702006Y3636475D01*
X2705951Y3623470D01*
X2712358Y3611485D01*
X2720979Y3600979D01*
X2731485Y3592358D01*
X2743470Y3585951D01*
X2756475Y3582006D01*
X2770000Y3580674D01*
X2783525Y3582006D01*
X2796530Y3585951D01*
X2808515Y3592358D01*
X2819021Y3600979D01*
X2827642Y3611485D01*
X2834049Y3623470D01*
X2837994Y3636475D01*
X2839326Y3650000D01*
X2837994Y3663525D01*
X2834049Y3676530D01*
X2827642Y3688515D01*
X2819021Y3699021D01*
X2808515Y3707642D01*
X2796530Y3714049D01*
X2783525Y3717994D01*
X2770000Y3719326D01*
D02*
G37*
G36*
X5828000Y3476000D02*
X5772000D01*
X5744000Y3448000D01*
Y3392000D01*
X5772000Y3364000D01*
X5828000D01*
X5856000Y3392000D01*
Y3448000D01*
X5828000Y3476000D01*
D02*
G37*
G36*
X5207640Y3422932D02*
X5193150Y3421505D01*
X5179218Y3417279D01*
X5166377Y3410416D01*
X5155122Y3401179D01*
X5145886Y3389924D01*
X5139022Y3377084D01*
X5134796Y3363151D01*
X5134474Y3359877D01*
X4991118D01*
Y3365685D01*
X4935811D01*
Y3314315D01*
X4991118D01*
Y3337446D01*
X5134474D01*
X5134796Y3334172D01*
X5139022Y3320239D01*
X5145886Y3307399D01*
X5155122Y3296144D01*
X5166377Y3286907D01*
X5179218Y3280044D01*
X5193150Y3275818D01*
X5207640Y3274390D01*
X5222130Y3275818D01*
X5236062Y3280044D01*
X5248903Y3286907D01*
X5260157Y3296144D01*
X5269394Y3307399D01*
X5276257Y3320239D01*
X5280484Y3334172D01*
X5281911Y3348661D01*
X5280484Y3363151D01*
X5276257Y3377084D01*
X5269394Y3389924D01*
X5260157Y3401179D01*
X5248903Y3410416D01*
X5236062Y3417279D01*
X5222130Y3421505D01*
X5207640Y3422932D01*
D02*
G37*
G36*
X791118Y3399150D02*
X735811D01*
Y3347780D01*
X791118D01*
Y3362249D01*
X796073D01*
X797159Y3360624D01*
X803051Y3356687D01*
X810000Y3355305D01*
X816949Y3356687D01*
X822841Y3360624D01*
X826778Y3366515D01*
X828160Y3373465D01*
X826778Y3380414D01*
X822841Y3386306D01*
X816949Y3390242D01*
X810000Y3391624D01*
X803051Y3390242D01*
X797159Y3386306D01*
X796073Y3384680D01*
X791118D01*
Y3399150D01*
D02*
G37*
G36*
X2770000Y3353776D02*
X2758670Y3352284D01*
X2748112Y3347911D01*
X2739046Y3340954D01*
X2732089Y3331888D01*
X2727716Y3321330D01*
X2726224Y3310000D01*
X2727716Y3298670D01*
X2732089Y3288112D01*
X2739046Y3279046D01*
X2748112Y3272089D01*
X2758670Y3267716D01*
X2770000Y3266224D01*
X2781330Y3267716D01*
X2791888Y3272089D01*
X2800954Y3279046D01*
X2807911Y3288112D01*
X2812284Y3298670D01*
X2813776Y3310000D01*
X2812284Y3321330D01*
X2807911Y3331888D01*
X2800954Y3340954D01*
X2791888Y3347911D01*
X2781330Y3352284D01*
X2770000Y3353776D01*
D02*
G37*
G36*
X1231118Y3409150D02*
X1175811D01*
Y3357780D01*
X1188784D01*
Y3283927D01*
X1187159Y3282841D01*
X1183222Y3276950D01*
X1181840Y3270000D01*
X1183222Y3263050D01*
X1187159Y3257159D01*
X1193051Y3253222D01*
X1200000Y3251840D01*
X1206949Y3253222D01*
X1212841Y3257159D01*
X1216778Y3263050D01*
X1218160Y3270000D01*
X1216778Y3276950D01*
X1212841Y3282841D01*
X1211216Y3283927D01*
Y3357780D01*
X1231118D01*
Y3409150D01*
D02*
G37*
G36*
X123795Y3206256D02*
X86205D01*
Y3184680D01*
X75685D01*
Y3201118D01*
X24315D01*
Y3145811D01*
X75685D01*
Y3162249D01*
X86205D01*
Y3134217D01*
X93784D01*
Y3088465D01*
X93784Y3088465D01*
X94638Y3084173D01*
X97069Y3080534D01*
X122069Y3055534D01*
X122069Y3055534D01*
X125708Y3053103D01*
X130000Y3052249D01*
X176073D01*
X177159Y3050624D01*
X183050Y3046687D01*
X190000Y3045305D01*
X196950Y3046687D01*
X202841Y3050624D01*
X206778Y3056515D01*
X208160Y3063465D01*
X206778Y3070414D01*
X202841Y3076306D01*
X196950Y3080242D01*
X190000Y3081624D01*
X183050Y3080242D01*
X177159Y3076306D01*
X176073Y3074680D01*
X134646D01*
X116216Y3093110D01*
Y3134217D01*
X123795D01*
Y3206256D01*
D02*
G37*
G36*
X1164189Y3409150D02*
X1108882D01*
Y3357780D01*
X1118784D01*
Y3330173D01*
X1105299D01*
Y3144945D01*
X1154701D01*
Y3330173D01*
X1141216D01*
Y3357780D01*
X1164189D01*
Y3409150D01*
D02*
G37*
G36*
X724189Y3399150D02*
X668882D01*
Y3347780D01*
X688784D01*
Y3327811D01*
X675299D01*
Y3142582D01*
X724701D01*
Y3327811D01*
X711216D01*
Y3347780D01*
X724189D01*
Y3399150D01*
D02*
G37*
G36*
X5100947Y3163616D02*
X5092084Y3162449D01*
X5083824Y3159028D01*
X5076732Y3153586D01*
X5071289Y3146493D01*
X5068842Y3140586D01*
X4961255D01*
X4961255Y3140586D01*
X4956963Y3139732D01*
X4953324Y3137301D01*
X4953324Y3137300D01*
X4947778Y3131755D01*
X4946890Y3132436D01*
X4940642Y3135024D01*
X4933937Y3135907D01*
X4926063D01*
X4919358Y3135024D01*
X4913110Y3132436D01*
X4907744Y3128319D01*
X4903627Y3122953D01*
X4901039Y3116705D01*
X4900156Y3110000D01*
X4901039Y3103295D01*
X4903627Y3097047D01*
X4907744Y3091681D01*
X4912870Y3087748D01*
X4913265Y3085051D01*
Y3084949D01*
X4912870Y3082252D01*
X4907744Y3078319D01*
X4903627Y3072953D01*
X4901039Y3066705D01*
X4900156Y3060000D01*
X4901039Y3053295D01*
X4903627Y3047047D01*
X4907744Y3041681D01*
X4913110Y3037564D01*
X4919358Y3034976D01*
X4926063Y3034093D01*
X4933937D01*
X4940642Y3034976D01*
X4946890Y3037564D01*
X4952256Y3041681D01*
X4954111Y3044099D01*
X5067561D01*
X5067868Y3041767D01*
X5071289Y3033507D01*
X5076732Y3026414D01*
X5083824Y3020972D01*
X5092084Y3017551D01*
X5100947Y3016384D01*
X5109810Y3017551D01*
X5118070Y3020972D01*
X5125162Y3026414D01*
X5130605Y3033507D01*
X5134026Y3041767D01*
X5135193Y3050630D01*
X5134026Y3059493D01*
X5130605Y3067753D01*
X5125162Y3074845D01*
X5118070Y3080287D01*
X5109810Y3083709D01*
X5100947Y3084876D01*
X5092084Y3083709D01*
X5083824Y3080287D01*
X5076732Y3074845D01*
X5071289Y3067753D01*
X5070783Y3066530D01*
X4958984D01*
X4958961Y3066705D01*
X4956373Y3072953D01*
X4952256Y3078319D01*
X4947130Y3082252D01*
X4946735Y3084949D01*
Y3085051D01*
X4947130Y3087748D01*
X4952256Y3091681D01*
X4956373Y3097047D01*
X4958961Y3103295D01*
X4959844Y3110000D01*
X4959600Y3111854D01*
X4965900Y3118155D01*
X5068842D01*
X5071289Y3112247D01*
X5076732Y3105155D01*
X5083824Y3099713D01*
X5092084Y3096291D01*
X5100947Y3095124D01*
X5109810Y3096291D01*
X5118070Y3099713D01*
X5125162Y3105155D01*
X5130605Y3112247D01*
X5134026Y3120507D01*
X5135193Y3129370D01*
X5134026Y3138233D01*
X5130605Y3146493D01*
X5125162Y3153586D01*
X5118070Y3159028D01*
X5109810Y3162449D01*
X5100947Y3163616D01*
D02*
G37*
G36*
X234189Y3299150D02*
X178882D01*
Y3247780D01*
X193785D01*
Y3206256D01*
X186205D01*
Y3134217D01*
X223795D01*
Y3206256D01*
X216215D01*
Y3247780D01*
X234189D01*
Y3299150D01*
D02*
G37*
G36*
X110000Y3305834D02*
X100725Y3304613D01*
X92083Y3301033D01*
X84662Y3295338D01*
X78967Y3287917D01*
X75387Y3279274D01*
X74166Y3270000D01*
X75387Y3260726D01*
X78967Y3252083D01*
X84662Y3244662D01*
X92083Y3238967D01*
X100725Y3235387D01*
X110000Y3234166D01*
X119275Y3235387D01*
X125976Y3238163D01*
X143785Y3220354D01*
Y3206256D01*
X136205D01*
Y3134217D01*
X173795D01*
Y3206256D01*
X166215D01*
Y3224999D01*
X166216Y3225000D01*
X165362Y3229292D01*
X162931Y3232931D01*
X162930Y3232931D01*
X141837Y3254024D01*
X144613Y3260726D01*
X145834Y3270000D01*
X144613Y3279274D01*
X141033Y3287917D01*
X135339Y3295338D01*
X127917Y3301033D01*
X119275Y3304613D01*
X110000Y3305834D01*
D02*
G37*
G36*
X2770000Y3153776D02*
X2758670Y3152284D01*
X2748112Y3147911D01*
X2739046Y3140954D01*
X2732089Y3131888D01*
X2727716Y3121330D01*
X2726224Y3110000D01*
X2727716Y3098670D01*
X2732089Y3088112D01*
X2739046Y3079046D01*
X2748112Y3072089D01*
X2758670Y3067716D01*
X2770000Y3066224D01*
X2781330Y3067716D01*
X2791888Y3072089D01*
X2800954Y3079046D01*
X2807911Y3088112D01*
X2812284Y3098670D01*
X2813776Y3110000D01*
X2812284Y3121330D01*
X2807911Y3131888D01*
X2800954Y3140954D01*
X2791888Y3147911D01*
X2781330Y3152284D01*
X2770000Y3153776D01*
D02*
G37*
G36*
X273795Y2992713D02*
X236205D01*
Y2992201D01*
X232445Y2988904D01*
X230000Y2989226D01*
X227555Y2988904D01*
X223795Y2992201D01*
Y2992713D01*
X186205D01*
Y2956291D01*
X185798Y2955309D01*
X184238Y2943465D01*
Y2767722D01*
X183712Y2767653D01*
X170089Y2762010D01*
X158391Y2753034D01*
X149415Y2741336D01*
X143772Y2727713D01*
X141847Y2713095D01*
X143772Y2698476D01*
X144599Y2696479D01*
X145798Y2687374D01*
X150369Y2676337D01*
X157642Y2666859D01*
X167119Y2659587D01*
X178156Y2655015D01*
X190000Y2653456D01*
X201844Y2655015D01*
X209130Y2658033D01*
X212950Y2658536D01*
X226572Y2664179D01*
X238270Y2673155D01*
X247246Y2684853D01*
X252122Y2696622D01*
X262358Y2706859D01*
X269631Y2716337D01*
X274202Y2727374D01*
X275762Y2739218D01*
Y2943465D01*
X274202Y2955309D01*
X273795Y2956291D01*
Y2992713D01*
D02*
G37*
G36*
X173795D02*
X136205D01*
Y2992201D01*
X132445Y2988904D01*
X130000Y2989226D01*
X127555Y2988904D01*
X123795Y2992201D01*
Y2992713D01*
X86205D01*
Y2956291D01*
X85798Y2955309D01*
X84238Y2943465D01*
Y2921935D01*
X83222Y2920414D01*
X81840Y2913465D01*
X83222Y2906515D01*
X85627Y2902916D01*
X85798Y2901621D01*
X90369Y2890584D01*
X97642Y2881106D01*
X107119Y2873834D01*
X118156Y2869262D01*
X130000Y2867703D01*
X141844Y2869262D01*
X152881Y2873834D01*
X162358Y2881106D01*
X169631Y2890584D01*
X174202Y2901621D01*
X174373Y2902916D01*
X176778Y2906515D01*
X178160Y2913465D01*
X176778Y2920414D01*
X175762Y2921935D01*
Y2943465D01*
X174202Y2955309D01*
X173795Y2956291D01*
Y2992713D01*
D02*
G37*
G36*
X2770000Y3053776D02*
X2758670Y3052284D01*
X2748112Y3047911D01*
X2739046Y3040954D01*
X2732089Y3031888D01*
X2727716Y3021330D01*
X2726224Y3010000D01*
X2727716Y2998670D01*
X2732089Y2988112D01*
X2732159Y2988020D01*
X2619258Y2875120D01*
X2616827Y2871481D01*
X2615973Y2867189D01*
X2615974Y2867189D01*
Y971067D01*
X2613222Y966949D01*
X2611840Y960000D01*
X2613222Y953051D01*
X2617159Y947159D01*
X2623050Y943222D01*
X2630000Y941840D01*
X2636950Y943222D01*
X2642841Y947159D01*
X2646778Y953051D01*
X2648160Y960000D01*
X2646778Y966949D01*
X2642841Y972841D01*
X2638405Y975805D01*
Y1001023D01*
X2642282Y1003096D01*
X2643405Y1003152D01*
X2650000Y1001840D01*
X2656950Y1003222D01*
X2662841Y1007159D01*
X2666778Y1013051D01*
X2668160Y1020000D01*
X2666778Y1026949D01*
X2662841Y1032841D01*
X2661215Y1033927D01*
Y1535354D01*
X2724646Y1598784D01*
X2879999D01*
X2880000Y1598784D01*
X2884292Y1599638D01*
X2887931Y1602069D01*
X2917931Y1632069D01*
X2920362Y1635708D01*
X2921216Y1640000D01*
X2921215Y1640001D01*
Y2669999D01*
X2921216Y2670000D01*
X2920362Y2674292D01*
X2917931Y2677931D01*
X2807841Y2788020D01*
X2807911Y2788112D01*
X2812284Y2798670D01*
X2813776Y2810000D01*
X2812284Y2821330D01*
X2807911Y2831888D01*
X2800954Y2840954D01*
X2791888Y2847911D01*
X2781330Y2852284D01*
X2770000Y2853776D01*
X2758670Y2852284D01*
X2748112Y2847911D01*
X2739046Y2840954D01*
X2732089Y2831888D01*
X2727716Y2821330D01*
X2726224Y2810000D01*
X2727716Y2798670D01*
X2732089Y2788112D01*
X2739046Y2779046D01*
X2748112Y2772089D01*
X2758670Y2767716D01*
X2770000Y2766224D01*
X2781330Y2767716D01*
X2791888Y2772089D01*
X2791980Y2772159D01*
X2898785Y2665354D01*
Y1644646D01*
X2875354Y1621216D01*
X2720000D01*
X2715708Y1620362D01*
X2712069Y1617931D01*
X2712069Y1617930D01*
X2643405Y1549266D01*
X2638405Y1551154D01*
Y2862543D01*
X2748020Y2972159D01*
X2748112Y2972089D01*
X2758670Y2967716D01*
X2770000Y2966224D01*
X2781330Y2967716D01*
X2791888Y2972089D01*
X2800954Y2979046D01*
X2807911Y2988112D01*
X2812284Y2998670D01*
X2813776Y3010000D01*
X2812284Y3021330D01*
X2807911Y3031888D01*
X2800954Y3040954D01*
X2791888Y3047911D01*
X2781330Y3052284D01*
X2770000Y3053776D01*
D02*
G37*
G36*
X5828000Y3076000D02*
X5772000D01*
X5744000Y3048000D01*
Y2992000D01*
X5772000Y2964000D01*
X5828000D01*
X5856000Y2992000D01*
Y3048000D01*
X5828000Y3076000D01*
D02*
G37*
G36*
X4670000Y2993776D02*
X4658670Y2992284D01*
X4648112Y2987911D01*
X4639046Y2980954D01*
X4632089Y2971888D01*
X4627716Y2961330D01*
X4626224Y2950000D01*
X4627716Y2938670D01*
X4632089Y2928112D01*
X4639046Y2919046D01*
X4648112Y2912089D01*
X4658670Y2907716D01*
X4670000Y2906224D01*
X4681330Y2907716D01*
X4691888Y2912089D01*
X4700954Y2919046D01*
X4707911Y2928112D01*
X4712284Y2938670D01*
X4713776Y2950000D01*
X4712284Y2961330D01*
X4707911Y2971888D01*
X4700954Y2980954D01*
X4691888Y2987911D01*
X4681330Y2992284D01*
X4670000Y2993776D01*
D02*
G37*
G36*
X2770000Y2953776D02*
X2758670Y2952284D01*
X2748112Y2947911D01*
X2739046Y2940954D01*
X2732089Y2931888D01*
X2727716Y2921330D01*
X2726224Y2910000D01*
X2727716Y2898670D01*
X2732089Y2888112D01*
X2739046Y2879046D01*
X2748112Y2872089D01*
X2758670Y2867716D01*
X2770000Y2866224D01*
X2781330Y2867716D01*
X2791888Y2872089D01*
X2800954Y2879046D01*
X2807911Y2888112D01*
X2812284Y2898670D01*
X2813776Y2910000D01*
X2812284Y2921330D01*
X2807911Y2931888D01*
X2800954Y2940954D01*
X2791888Y2947911D01*
X2781330Y2952284D01*
X2770000Y2953776D01*
D02*
G37*
G36*
X4670000Y2893776D02*
X4658670Y2892284D01*
X4648112Y2887911D01*
X4639046Y2880954D01*
X4632089Y2871888D01*
X4627716Y2861330D01*
X4626224Y2850000D01*
X4627716Y2838670D01*
X4632089Y2828112D01*
X4639046Y2819046D01*
X4648112Y2812089D01*
X4658670Y2807716D01*
X4670000Y2806224D01*
X4681330Y2807716D01*
X4691888Y2812089D01*
X4700954Y2819046D01*
X4707911Y2828112D01*
X4712284Y2838670D01*
X4713776Y2850000D01*
X4712284Y2861330D01*
X4707911Y2871888D01*
X4700954Y2880954D01*
X4691888Y2887911D01*
X4681330Y2892284D01*
X4670000Y2893776D01*
D02*
G37*
G36*
X2390000Y2878160D02*
X2383050Y2876778D01*
X2377159Y2872841D01*
X2373222Y2866950D01*
X2371840Y2860000D01*
X2373222Y2853050D01*
X2377159Y2847159D01*
X2383050Y2843222D01*
X2390000Y2841840D01*
X2391917Y2842222D01*
X2442069Y2792070D01*
X2442069Y2792069D01*
X2445337Y2789886D01*
X2447159Y2787159D01*
X2453050Y2783222D01*
X2460000Y2781840D01*
X2466950Y2783222D01*
X2472841Y2787159D01*
X2476778Y2793050D01*
X2478160Y2800000D01*
X2476778Y2806950D01*
X2472841Y2812841D01*
X2466950Y2816778D01*
X2460000Y2818160D01*
X2453050Y2816778D01*
X2450673Y2815189D01*
X2407778Y2858083D01*
X2408160Y2860000D01*
X2406778Y2866950D01*
X2402841Y2872841D01*
X2396950Y2876778D01*
X2390000Y2878160D01*
D02*
G37*
G36*
X2770000Y2753776D02*
X2758670Y2752284D01*
X2748112Y2747911D01*
X2739046Y2740954D01*
X2732089Y2731888D01*
X2727716Y2721330D01*
X2726224Y2710000D01*
X2727716Y2698670D01*
X2732089Y2688112D01*
X2739046Y2679046D01*
X2748112Y2672089D01*
X2758670Y2667716D01*
X2770000Y2666224D01*
X2781330Y2667716D01*
X2791888Y2672089D01*
X2800954Y2679046D01*
X2807911Y2688112D01*
X2812284Y2698670D01*
X2813776Y2710000D01*
X2812284Y2721330D01*
X2807911Y2731888D01*
X2800954Y2740954D01*
X2791888Y2747911D01*
X2781330Y2752284D01*
X2770000Y2753776D01*
D02*
G37*
G36*
X2289500Y2824940D02*
X2271661Y2823183D01*
X2254507Y2817980D01*
X2238698Y2809530D01*
X2224842Y2798158D01*
X2213470Y2784302D01*
X2205020Y2768493D01*
X2199817Y2751339D01*
X2198060Y2733500D01*
X2199817Y2715661D01*
X2205020Y2698507D01*
X2213470Y2682698D01*
X2224842Y2668842D01*
X2238698Y2657470D01*
X2254507Y2649020D01*
X2271661Y2643817D01*
X2289500Y2642060D01*
X2307339Y2643817D01*
X2324493Y2649020D01*
X2340302Y2657470D01*
X2354158Y2668842D01*
X2365530Y2682698D01*
X2373980Y2698507D01*
X2379183Y2715661D01*
X2380940Y2733500D01*
X2379183Y2751339D01*
X2373980Y2768493D01*
X2365530Y2784302D01*
X2354158Y2798158D01*
X2340302Y2809530D01*
X2324493Y2817980D01*
X2307339Y2823183D01*
X2289500Y2824940D01*
D02*
G37*
G36*
X5207637Y2662932D02*
X5193148Y2661505D01*
X5179215Y2657279D01*
X5166374Y2650416D01*
X5155120Y2641179D01*
X5145883Y2629924D01*
X5139020Y2617084D01*
X5134793Y2603151D01*
X5134471Y2599877D01*
X4991118D01*
Y2625685D01*
X4935811D01*
Y2574315D01*
X4991118D01*
Y2577446D01*
X5134471D01*
X5134793Y2574172D01*
X5139020Y2560239D01*
X5145883Y2547399D01*
X5155120Y2536144D01*
X5166374Y2526907D01*
X5179215Y2520044D01*
X5193148Y2515818D01*
X5207637Y2514390D01*
X5222127Y2515818D01*
X5236060Y2520044D01*
X5248900Y2526907D01*
X5260155Y2536144D01*
X5269391Y2547399D01*
X5276255Y2560239D01*
X5280481Y2574172D01*
X5281908Y2588661D01*
X5280481Y2603151D01*
X5276255Y2617084D01*
X5269391Y2629924D01*
X5260155Y2641179D01*
X5248900Y2650416D01*
X5236060Y2657279D01*
X5222127Y2661505D01*
X5207637Y2662932D01*
D02*
G37*
G36*
X2813401Y2653401D02*
X2726599D01*
Y2566599D01*
X2813401D01*
Y2653401D01*
D02*
G37*
G36*
X2097653Y2729150D02*
X2042346D01*
Y2677780D01*
X2097653D01*
Y2692249D01*
X2105354D01*
X2122222Y2675382D01*
X2121840Y2673465D01*
X2123222Y2666515D01*
X2127159Y2660624D01*
X2133050Y2656687D01*
X2140000Y2655305D01*
X2141917Y2655686D01*
X2148785Y2648819D01*
Y2564680D01*
X2097653D01*
Y2579150D01*
X2042347D01*
Y2527780D01*
Y2477780D01*
Y2427780D01*
Y2377780D01*
X2038630Y2374680D01*
X2034441D01*
X2030724Y2377780D01*
Y2427780D01*
Y2477780D01*
Y2527780D01*
Y2577780D01*
Y2627780D01*
Y2679150D01*
X2030724D01*
Y2729150D01*
X1975417D01*
Y2714680D01*
X1890001D01*
X1890000Y2714680D01*
X1885708Y2713826D01*
X1882069Y2711395D01*
X1882069Y2711395D01*
X1867739Y2697064D01*
X1865307Y2693426D01*
X1864454Y2689134D01*
X1864454Y2689133D01*
Y2634661D01*
X1840634D01*
Y2604945D01*
Y2579354D01*
Y2553764D01*
Y2528173D01*
Y2498548D01*
X1839659Y2498354D01*
X1836021Y2495923D01*
X1836021Y2495922D01*
X1827703Y2487605D01*
X1825272Y2483966D01*
X1824418Y2479675D01*
X1824418Y2479674D01*
Y2204583D01*
X1804315D01*
Y2191215D01*
X1793927D01*
X1792841Y2192841D01*
X1786949Y2196778D01*
X1780000Y2198160D01*
X1773051Y2196778D01*
X1767159Y2192841D01*
X1763222Y2186950D01*
X1761840Y2180000D01*
X1763222Y2173050D01*
X1767159Y2167159D01*
X1773051Y2163222D01*
X1780000Y2161840D01*
X1786949Y2163222D01*
X1792841Y2167159D01*
X1793927Y2168785D01*
X1804315D01*
Y2149276D01*
X1855685D01*
Y2204583D01*
X1846849D01*
Y2272268D01*
X1910705D01*
Y2275910D01*
X1921693D01*
X1932784Y2264819D01*
Y2239465D01*
X1932784Y2239465D01*
X1933638Y2235173D01*
X1936069Y2231534D01*
X1972069Y2195534D01*
X1972069Y2195534D01*
X1975708Y2193103D01*
X1980000Y2192249D01*
X1980001Y2192249D01*
X2059999D01*
X2060000Y2192249D01*
X2064292Y2193103D01*
X2067931Y2195534D01*
X2077930Y2205534D01*
X2077931Y2205534D01*
X2080362Y2209173D01*
X2081215Y2213465D01*
Y2227780D01*
X2097653D01*
Y2277937D01*
X2105528D01*
Y2302249D01*
X2154142D01*
X2154142Y2302249D01*
X2158434Y2303103D01*
X2162073Y2305534D01*
X2167930Y2311392D01*
X2167931Y2311392D01*
X2170362Y2315030D01*
X2171215Y2319323D01*
Y2503465D01*
Y2553465D01*
Y2653464D01*
X2171216Y2653465D01*
X2170362Y2657757D01*
X2167931Y2661395D01*
X2167930Y2661395D01*
X2157778Y2671547D01*
X2158160Y2673465D01*
X2156778Y2680414D01*
X2152841Y2686306D01*
X2146950Y2690242D01*
X2140000Y2691624D01*
X2138083Y2691243D01*
X2117931Y2711395D01*
X2114292Y2713826D01*
X2110000Y2714680D01*
X2109999Y2714680D01*
X2097653D01*
Y2729150D01*
D02*
G37*
G36*
X5828000Y2676000D02*
X5772000D01*
X5744000Y2648000D01*
Y2592000D01*
X5772000Y2564000D01*
X5828000D01*
X5856000Y2592000D01*
Y2648000D01*
X5828000Y2676000D01*
D02*
G37*
G36*
X810724Y3032535D02*
X389276D01*
Y2654394D01*
X454238D01*
Y2553465D01*
Y2539226D01*
X254331D01*
Y2541095D01*
X226331Y2569095D01*
X170331D01*
X142331Y2541095D01*
Y2485095D01*
X145797Y2481628D01*
X145798Y2481621D01*
X150369Y2470584D01*
X157642Y2461106D01*
X167119Y2453834D01*
X178156Y2449262D01*
X190000Y2447703D01*
X472077D01*
X475299Y2445230D01*
Y2282582D01*
X524701D01*
Y2445230D01*
X532358Y2451106D01*
X539631Y2460584D01*
X544202Y2471621D01*
X545762Y2483465D01*
Y2553465D01*
Y2654394D01*
X810724D01*
Y3032535D01*
D02*
G37*
G36*
X791118Y2549150D02*
X735811D01*
Y2497780D01*
X791118D01*
Y2502249D01*
X801073D01*
X802159Y2500624D01*
X808051Y2496687D01*
X815000Y2495305D01*
X821949Y2496687D01*
X827841Y2500624D01*
X831778Y2506515D01*
X833160Y2513465D01*
X831778Y2520414D01*
X827841Y2526306D01*
X821949Y2530242D01*
X815000Y2531624D01*
X808051Y2530242D01*
X802159Y2526306D01*
X801073Y2524680D01*
X791118D01*
Y2549150D01*
D02*
G37*
G36*
X4713401Y2493401D02*
X4626599D01*
Y2406599D01*
X4713401D01*
Y2493401D01*
D02*
G37*
G36*
X2770000Y2493776D02*
X2758670Y2492284D01*
X2748112Y2487911D01*
X2739046Y2480954D01*
X2732089Y2471888D01*
X2727716Y2461330D01*
X2726224Y2450000D01*
X2727716Y2438670D01*
X2732089Y2428112D01*
X2739046Y2419046D01*
X2748112Y2412089D01*
X2758670Y2407716D01*
X2770000Y2406224D01*
X2781330Y2407716D01*
X2791888Y2412089D01*
X2800954Y2419046D01*
X2807911Y2428112D01*
X2812284Y2438670D01*
X2813776Y2450000D01*
X2812284Y2461330D01*
X2807911Y2471888D01*
X2800954Y2480954D01*
X2791888Y2487911D01*
X2781330Y2492284D01*
X2770000Y2493776D01*
D02*
G37*
G36*
X5100944Y2403616D02*
X5092081Y2402449D01*
X5083822Y2399028D01*
X5076729Y2393586D01*
X5071287Y2386493D01*
X5067866Y2378233D01*
X5067559Y2375901D01*
X4954111D01*
X4952256Y2378319D01*
X4946890Y2382436D01*
X4940642Y2385024D01*
X4933937Y2385907D01*
X4926063D01*
X4919358Y2385024D01*
X4913110Y2382436D01*
X4907744Y2378319D01*
X4903627Y2372953D01*
X4901039Y2366705D01*
X4900156Y2360000D01*
X4901039Y2353295D01*
X4903627Y2347047D01*
X4907744Y2341681D01*
X4912870Y2337748D01*
X4913265Y2335051D01*
Y2334949D01*
X4912870Y2332252D01*
X4907744Y2328319D01*
X4903627Y2322953D01*
X4901039Y2316705D01*
X4900156Y2310000D01*
X4901039Y2303295D01*
X4903627Y2297047D01*
X4907744Y2291681D01*
X4913110Y2287564D01*
X4919358Y2284976D01*
X4926063Y2284093D01*
X4933937D01*
X4940642Y2284976D01*
X4946890Y2287564D01*
X4947778Y2288245D01*
X4953324Y2282700D01*
X4953324Y2282699D01*
X4956963Y2280268D01*
X4961255Y2279414D01*
X4961255Y2279414D01*
X5068840D01*
X5071287Y2273507D01*
X5076729Y2266414D01*
X5083822Y2260972D01*
X5092081Y2257551D01*
X5100944Y2256384D01*
X5109808Y2257551D01*
X5118067Y2260972D01*
X5125160Y2266414D01*
X5130602Y2273507D01*
X5134023Y2281767D01*
X5135190Y2290630D01*
X5134023Y2299493D01*
X5130602Y2307753D01*
X5125160Y2314845D01*
X5118067Y2320287D01*
X5109808Y2323709D01*
X5100944Y2324876D01*
X5092081Y2323709D01*
X5083822Y2320287D01*
X5076729Y2314845D01*
X5071287Y2307753D01*
X5068840Y2301845D01*
X4965900D01*
X4959600Y2308146D01*
X4959844Y2310000D01*
X4958961Y2316705D01*
X4956373Y2322953D01*
X4952256Y2328319D01*
X4947130Y2332252D01*
X4946735Y2334949D01*
Y2335051D01*
X4947130Y2337748D01*
X4952256Y2341681D01*
X4956373Y2347047D01*
X4958961Y2353295D01*
X4958984Y2353470D01*
X5070780D01*
X5071287Y2352247D01*
X5076729Y2345155D01*
X5083822Y2339713D01*
X5092081Y2336291D01*
X5100944Y2335124D01*
X5109808Y2336291D01*
X5118067Y2339713D01*
X5125160Y2345155D01*
X5130602Y2352247D01*
X5134023Y2360507D01*
X5135190Y2369370D01*
X5134023Y2378233D01*
X5130602Y2386493D01*
X5125160Y2393586D01*
X5118067Y2399028D01*
X5109808Y2402449D01*
X5100944Y2403616D01*
D02*
G37*
G36*
X2390000Y2448160D02*
X2383050Y2446778D01*
X2377159Y2442841D01*
X2373222Y2436950D01*
X2371840Y2430000D01*
X2373222Y2423050D01*
X2377159Y2417159D01*
X2383050Y2413222D01*
X2390000Y2411840D01*
X2391917Y2412222D01*
X2462844Y2341295D01*
X2461840Y2336250D01*
X2463222Y2329300D01*
X2467159Y2323409D01*
X2473050Y2319472D01*
X2480000Y2318090D01*
X2486950Y2319472D01*
X2492841Y2323409D01*
X2496778Y2329300D01*
X2498160Y2336250D01*
X2496778Y2343200D01*
X2492841Y2349091D01*
X2486950Y2353028D01*
X2481811Y2354050D01*
X2407778Y2428083D01*
X2408160Y2430000D01*
X2406778Y2436950D01*
X2402841Y2442841D01*
X2396950Y2446778D01*
X2390000Y2448160D01*
D02*
G37*
G36*
X2770000Y2393776D02*
X2758670Y2392284D01*
X2748112Y2387911D01*
X2739046Y2380954D01*
X2732089Y2371888D01*
X2727716Y2361330D01*
X2726224Y2350000D01*
X2727716Y2338670D01*
X2732089Y2328112D01*
X2739046Y2319046D01*
X2748112Y2312089D01*
X2758670Y2307716D01*
X2770000Y2306224D01*
X2781330Y2307716D01*
X2791888Y2312089D01*
X2800954Y2319046D01*
X2807911Y2328112D01*
X2812284Y2338670D01*
X2813776Y2350000D01*
X2812284Y2361330D01*
X2807911Y2371888D01*
X2800954Y2380954D01*
X2791888Y2387911D01*
X2781330Y2392284D01*
X2770000Y2393776D01*
D02*
G37*
G36*
X1154189Y2549150D02*
X1098882D01*
Y2497780D01*
X1108784D01*
Y2467811D01*
X1095299D01*
Y2282582D01*
X1144701D01*
Y2467811D01*
X1131216D01*
Y2497780D01*
X1154189D01*
Y2549150D01*
D02*
G37*
G36*
X1240724Y3034897D02*
X819276D01*
Y2656756D01*
X874238D01*
Y2613465D01*
Y2573465D01*
Y2473465D01*
Y2443465D01*
X875798Y2431621D01*
X880369Y2420584D01*
X887642Y2411106D01*
X895299Y2405230D01*
Y2282582D01*
X944701D01*
Y2405230D01*
X952358Y2411106D01*
X959631Y2420584D01*
X964202Y2431621D01*
X965762Y2443465D01*
Y2473465D01*
Y2573465D01*
Y2613465D01*
Y2656756D01*
X1240724D01*
Y3034897D01*
D02*
G37*
G36*
X724189Y2549150D02*
X668882D01*
Y2497780D01*
X688784D01*
Y2467811D01*
X675299D01*
Y2282582D01*
X724701D01*
Y2467811D01*
X711216D01*
Y2497780D01*
X724189D01*
Y2549150D01*
D02*
G37*
G36*
X4713401Y2293401D02*
X4626599D01*
Y2206599D01*
X4713401D01*
Y2293401D01*
D02*
G37*
G36*
X2770000Y2293776D02*
X2758670Y2292284D01*
X2748112Y2287911D01*
X2739046Y2280954D01*
X2732089Y2271888D01*
X2727716Y2261330D01*
X2726224Y2250000D01*
X2727716Y2238670D01*
X2732089Y2228112D01*
X2739046Y2219046D01*
X2748112Y2212089D01*
X2758670Y2207716D01*
X2770000Y2206224D01*
X2781330Y2207716D01*
X2791888Y2212089D01*
X2800954Y2219046D01*
X2807911Y2228112D01*
X2812284Y2238670D01*
X2813776Y2250000D01*
X2812284Y2261330D01*
X2807911Y2271888D01*
X2800954Y2280954D01*
X2791888Y2287911D01*
X2781330Y2292284D01*
X2770000Y2293776D01*
D02*
G37*
G36*
X5829669Y2276370D02*
X5773669D01*
X5745669Y2248370D01*
Y2192370D01*
X5773669Y2164370D01*
X5829669D01*
X5857669Y2192370D01*
Y2248370D01*
X5829669Y2276370D01*
D02*
G37*
G36*
X1915685Y2204583D02*
X1864315D01*
Y2149276D01*
X1915685D01*
Y2155595D01*
X1920685Y2158268D01*
X1923051Y2156687D01*
X1930000Y2155305D01*
X1936949Y2156687D01*
X1942841Y2160624D01*
X1946778Y2166515D01*
X1948160Y2173465D01*
X1946778Y2180414D01*
X1942841Y2186306D01*
X1936949Y2190242D01*
X1930000Y2191624D01*
X1923051Y2190242D01*
X1920685Y2188662D01*
X1915685Y2191334D01*
Y2204583D01*
D02*
G37*
G36*
X4670000Y2193776D02*
X4658670Y2192284D01*
X4648112Y2187911D01*
X4639046Y2180954D01*
X4632089Y2171888D01*
X4627716Y2161330D01*
X4626224Y2150000D01*
X4627716Y2138670D01*
X4632089Y2128112D01*
X4639046Y2119046D01*
X4648112Y2112089D01*
X4658670Y2107716D01*
X4670000Y2106224D01*
X4681330Y2107716D01*
X4691888Y2112089D01*
X4700954Y2119046D01*
X4707911Y2128112D01*
X4712284Y2138670D01*
X4713776Y2150000D01*
X4712284Y2161330D01*
X4707911Y2171888D01*
X4700954Y2180954D01*
X4691888Y2187911D01*
X4681330Y2192284D01*
X4670000Y2193776D01*
D02*
G37*
G36*
X2770000D02*
X2758670Y2192284D01*
X2748112Y2187911D01*
X2739046Y2180954D01*
X2732089Y2171888D01*
X2727716Y2161330D01*
X2726224Y2150000D01*
X2727716Y2138670D01*
X2732089Y2128112D01*
X2739046Y2119046D01*
X2748112Y2112089D01*
X2758670Y2107716D01*
X2770000Y2106224D01*
X2781330Y2107716D01*
X2791888Y2112089D01*
X2800954Y2119046D01*
X2807911Y2128112D01*
X2812284Y2138670D01*
X2813776Y2150000D01*
X2812284Y2161330D01*
X2807911Y2171888D01*
X2800954Y2180954D01*
X2791888Y2187911D01*
X2781330Y2192284D01*
X2770000Y2193776D01*
D02*
G37*
G36*
X4670000Y2093776D02*
X4658670Y2092284D01*
X4648112Y2087911D01*
X4639046Y2080954D01*
X4632089Y2071888D01*
X4627716Y2061330D01*
X4626224Y2050000D01*
X4627716Y2038670D01*
X4632089Y2028112D01*
X4639046Y2019046D01*
X4648112Y2012089D01*
X4658670Y2007716D01*
X4670000Y2006224D01*
X4681330Y2007716D01*
X4691888Y2012089D01*
X4700954Y2019046D01*
X4707911Y2028112D01*
X4712284Y2038670D01*
X4713776Y2050000D01*
X4712284Y2061330D01*
X4707911Y2071888D01*
X4700954Y2080954D01*
X4691888Y2087911D01*
X4681330Y2092284D01*
X4670000Y2093776D01*
D02*
G37*
G36*
X2770000D02*
X2758670Y2092284D01*
X2748112Y2087911D01*
X2739046Y2080954D01*
X2732089Y2071888D01*
X2727716Y2061330D01*
X2726224Y2050000D01*
X2727716Y2038670D01*
X2732089Y2028112D01*
X2739046Y2019046D01*
X2748112Y2012089D01*
X2758670Y2007716D01*
X2770000Y2006224D01*
X2781330Y2007716D01*
X2791888Y2012089D01*
X2800954Y2019046D01*
X2807911Y2028112D01*
X2812284Y2038670D01*
X2813776Y2050000D01*
X2812284Y2061330D01*
X2807911Y2071888D01*
X2800954Y2080954D01*
X2791888Y2087911D01*
X2781330Y2092284D01*
X2770000Y2093776D01*
D02*
G37*
G36*
X4670000Y1993776D02*
X4658670Y1992284D01*
X4648112Y1987911D01*
X4639046Y1980954D01*
X4632089Y1971888D01*
X4627716Y1961330D01*
X4626224Y1950000D01*
X4627716Y1938670D01*
X4632089Y1928112D01*
X4639046Y1919046D01*
X4648112Y1912089D01*
X4658670Y1907716D01*
X4670000Y1906224D01*
X4681330Y1907716D01*
X4691888Y1912089D01*
X4700954Y1919046D01*
X4707911Y1928112D01*
X4712284Y1938670D01*
X4713776Y1950000D01*
X4712284Y1961330D01*
X4707911Y1971888D01*
X4700954Y1980954D01*
X4691888Y1987911D01*
X4681330Y1992284D01*
X4670000Y1993776D01*
D02*
G37*
G36*
X2770000D02*
X2758670Y1992284D01*
X2748112Y1987911D01*
X2739046Y1980954D01*
X2732089Y1971888D01*
X2727716Y1961330D01*
X2726224Y1950000D01*
X2727716Y1938670D01*
X2732089Y1928112D01*
X2739046Y1919046D01*
X2748112Y1912089D01*
X2758670Y1907716D01*
X2770000Y1906224D01*
X2781330Y1907716D01*
X2791888Y1912089D01*
X2800954Y1919046D01*
X2807911Y1928112D01*
X2812284Y1938670D01*
X2813776Y1950000D01*
X2812284Y1961330D01*
X2807911Y1971888D01*
X2800954Y1980954D01*
X2791888Y1987911D01*
X2781330Y1992284D01*
X2770000Y1993776D01*
D02*
G37*
G36*
X4670000Y1893776D02*
X4658670Y1892284D01*
X4648112Y1887911D01*
X4639046Y1880954D01*
X4632089Y1871888D01*
X4627716Y1861330D01*
X4626224Y1850000D01*
X4627716Y1838670D01*
X4632089Y1828112D01*
X4639046Y1819046D01*
X4648112Y1812089D01*
X4658670Y1807716D01*
X4670000Y1806224D01*
X4681330Y1807716D01*
X4691888Y1812089D01*
X4700954Y1819046D01*
X4707911Y1828112D01*
X4712284Y1838670D01*
X4713776Y1850000D01*
X4712284Y1861330D01*
X4707911Y1871888D01*
X4700954Y1880954D01*
X4691888Y1887911D01*
X4681330Y1892284D01*
X4670000Y1893776D01*
D02*
G37*
G36*
X2770000D02*
X2758670Y1892284D01*
X2748112Y1887911D01*
X2739046Y1880954D01*
X2732089Y1871888D01*
X2727716Y1861330D01*
X2726224Y1850000D01*
X2727716Y1838670D01*
X2732089Y1828112D01*
X2739046Y1819046D01*
X2748112Y1812089D01*
X2758670Y1807716D01*
X2770000Y1806224D01*
X2781330Y1807716D01*
X2791888Y1812089D01*
X2800954Y1819046D01*
X2807911Y1828112D01*
X2812284Y1838670D01*
X2813776Y1850000D01*
X2812284Y1861330D01*
X2807911Y1871888D01*
X2800954Y1880954D01*
X2791888Y1887911D01*
X2781330Y1892284D01*
X2770000Y1893776D01*
D02*
G37*
G36*
X5829669Y1876370D02*
X5773669D01*
X5745669Y1848370D01*
Y1792370D01*
X5773669Y1764370D01*
X5829669D01*
X5857669Y1792370D01*
Y1848370D01*
X5829669Y1876370D01*
D02*
G37*
G36*
X2813401Y1793401D02*
X2726599D01*
Y1706599D01*
X2813401D01*
Y1793401D01*
D02*
G37*
G36*
X4670000Y1793776D02*
X4658670Y1792284D01*
X4648112Y1787911D01*
X4639046Y1780954D01*
X4632089Y1771888D01*
X4627716Y1761330D01*
X4626224Y1750000D01*
X4627716Y1738670D01*
X4632089Y1728112D01*
X4639046Y1719046D01*
X4648112Y1712089D01*
X4658670Y1707716D01*
X4670000Y1706224D01*
X4681330Y1707716D01*
X4691888Y1712089D01*
X4700954Y1719046D01*
X4707911Y1728112D01*
X4712284Y1738670D01*
X4713776Y1750000D01*
X4712284Y1761330D01*
X4707911Y1771888D01*
X4700954Y1780954D01*
X4691888Y1787911D01*
X4681330Y1792284D01*
X4670000Y1793776D01*
D02*
G37*
G36*
X3770000Y1786354D02*
X3759297Y1784945D01*
X3749323Y1780813D01*
X3740758Y1774242D01*
X3734187Y1765677D01*
X3730055Y1755703D01*
X3728646Y1745000D01*
X3730055Y1734297D01*
X3734187Y1724323D01*
X3740758Y1715758D01*
X3749323Y1709187D01*
X3759297Y1705055D01*
X3770000Y1703646D01*
X3780703Y1705055D01*
X3790677Y1709187D01*
X3799242Y1715758D01*
X3805813Y1724323D01*
X3809945Y1734297D01*
X3811354Y1745000D01*
X3809945Y1755703D01*
X3805813Y1765677D01*
X3799242Y1774242D01*
X3790677Y1780813D01*
X3780703Y1784945D01*
X3770000Y1786354D01*
D02*
G37*
G36*
X3670000D02*
X3659297Y1784945D01*
X3649323Y1780813D01*
X3640758Y1774242D01*
X3634187Y1765677D01*
X3630055Y1755703D01*
X3628646Y1745000D01*
X3630055Y1734297D01*
X3634187Y1724323D01*
X3640758Y1715758D01*
X3649323Y1709187D01*
X3659297Y1705055D01*
X3670000Y1703646D01*
X3680703Y1705055D01*
X3690677Y1709187D01*
X3699242Y1715758D01*
X3705813Y1724323D01*
X3709945Y1734297D01*
X3711354Y1745000D01*
X3709945Y1755703D01*
X3705813Y1765677D01*
X3699242Y1774242D01*
X3690677Y1780813D01*
X3680703Y1784945D01*
X3670000Y1786354D01*
D02*
G37*
G36*
X3570000D02*
X3559297Y1784945D01*
X3549323Y1780813D01*
X3540758Y1774242D01*
X3534187Y1765677D01*
X3530055Y1755703D01*
X3528646Y1745000D01*
X3530055Y1734297D01*
X3534187Y1724323D01*
X3540758Y1715758D01*
X3549323Y1709187D01*
X3559297Y1705055D01*
X3570000Y1703646D01*
X3580703Y1705055D01*
X3590677Y1709187D01*
X3599242Y1715758D01*
X3605813Y1724323D01*
X3609945Y1734297D01*
X3611354Y1745000D01*
X3609945Y1755703D01*
X3605813Y1765677D01*
X3599242Y1774242D01*
X3590677Y1780813D01*
X3580703Y1784945D01*
X3570000Y1786354D01*
D02*
G37*
G36*
X4670000Y1693776D02*
X4658670Y1692284D01*
X4648112Y1687911D01*
X4639046Y1680954D01*
X4632089Y1671888D01*
X4627716Y1661330D01*
X4626224Y1650000D01*
X4627716Y1638670D01*
X4632089Y1628112D01*
X4639046Y1619046D01*
X4648112Y1612089D01*
X4658670Y1607716D01*
X4670000Y1606224D01*
X4681330Y1607716D01*
X4691888Y1612089D01*
X4700954Y1619046D01*
X4707911Y1628112D01*
X4712284Y1638670D01*
X4713776Y1650000D01*
X4712284Y1661330D01*
X4707911Y1671888D01*
X4700954Y1680954D01*
X4691888Y1687911D01*
X4681330Y1692284D01*
X4670000Y1693776D01*
D02*
G37*
G36*
X3670000Y1686354D02*
X3659297Y1684945D01*
X3649323Y1680813D01*
X3640758Y1674242D01*
X3634187Y1665677D01*
X3630055Y1655703D01*
X3628646Y1645000D01*
X3630055Y1634297D01*
X3634187Y1624323D01*
X3640758Y1615758D01*
X3649323Y1609187D01*
X3659297Y1605055D01*
X3670000Y1603646D01*
X3680703Y1605055D01*
X3690677Y1609187D01*
X3699242Y1615758D01*
X3705813Y1624323D01*
X3709945Y1634297D01*
X3711354Y1645000D01*
X3709945Y1655703D01*
X3705813Y1665677D01*
X3699242Y1674242D01*
X3690677Y1680813D01*
X3680703Y1684945D01*
X3670000Y1686354D01*
D02*
G37*
G36*
X4470000Y1719326D02*
X4456475Y1717994D01*
X4443470Y1714049D01*
X4431485Y1707642D01*
X4420979Y1699021D01*
X4412358Y1688515D01*
X4405951Y1676530D01*
X4402006Y1663525D01*
X4400674Y1650000D01*
X4402006Y1636475D01*
X4405951Y1623470D01*
X4412358Y1611485D01*
X4420979Y1600979D01*
X4431485Y1592358D01*
X4443470Y1585951D01*
X4456475Y1582006D01*
X4470000Y1580674D01*
X4483525Y1582006D01*
X4496530Y1585951D01*
X4508515Y1592358D01*
X4519021Y1600979D01*
X4527642Y1611485D01*
X4534049Y1623470D01*
X4537994Y1636475D01*
X4539326Y1650000D01*
X4537994Y1663525D01*
X4534049Y1676530D01*
X4527642Y1688515D01*
X4519021Y1699021D01*
X4508515Y1707642D01*
X4496530Y1714049D01*
X4483525Y1717994D01*
X4470000Y1719326D01*
D02*
G37*
G36*
X3370000D02*
X3356475Y1717994D01*
X3343470Y1714049D01*
X3331485Y1707642D01*
X3320979Y1699021D01*
X3312358Y1688515D01*
X3305951Y1676530D01*
X3302006Y1663525D01*
X3300674Y1650000D01*
X3302006Y1636475D01*
X3305951Y1623470D01*
X3312358Y1611485D01*
X3320979Y1600979D01*
X3331485Y1592358D01*
X3343470Y1585951D01*
X3356475Y1582006D01*
X3370000Y1580674D01*
X3383525Y1582006D01*
X3396530Y1585951D01*
X3408515Y1592358D01*
X3419021Y1600979D01*
X3427642Y1611485D01*
X3434049Y1623470D01*
X3437994Y1636475D01*
X3439326Y1650000D01*
X3437994Y1663525D01*
X3434049Y1676530D01*
X3427642Y1688515D01*
X3419021Y1699021D01*
X3408515Y1707642D01*
X3396530Y1714049D01*
X3383525Y1717994D01*
X3370000Y1719326D01*
D02*
G37*
G36*
X791118Y1615685D02*
X735811D01*
Y1564315D01*
X791118D01*
Y1578784D01*
X796073D01*
X797159Y1577159D01*
X803051Y1573222D01*
X810000Y1571840D01*
X816950Y1573222D01*
X822841Y1577159D01*
X826778Y1583051D01*
X828160Y1590000D01*
X826778Y1596949D01*
X822841Y1602841D01*
X816950Y1606778D01*
X810000Y1608160D01*
X803051Y1606778D01*
X797159Y1602841D01*
X796073Y1601216D01*
X791118D01*
Y1615685D01*
D02*
G37*
G36*
X4670000Y1593776D02*
X4658670Y1592284D01*
X4648112Y1587911D01*
X4639046Y1580954D01*
X4632089Y1571888D01*
X4627716Y1561330D01*
X4626224Y1550000D01*
X4627716Y1538670D01*
X4632089Y1528112D01*
X4639046Y1519046D01*
X4648112Y1512089D01*
X4658670Y1507716D01*
X4670000Y1506224D01*
X4681330Y1507716D01*
X4691888Y1512089D01*
X4700954Y1519046D01*
X4707911Y1528112D01*
X4712284Y1538670D01*
X4713776Y1550000D01*
X4712284Y1561330D01*
X4707911Y1571888D01*
X4700954Y1580954D01*
X4691888Y1587911D01*
X4681330Y1592284D01*
X4670000Y1593776D01*
D02*
G37*
G36*
X2770000D02*
X2758670Y1592284D01*
X2748112Y1587911D01*
X2739046Y1580954D01*
X2732089Y1571888D01*
X2727716Y1561330D01*
X2726224Y1550000D01*
X2727716Y1538670D01*
X2732089Y1528112D01*
X2739046Y1519046D01*
X2748112Y1512089D01*
X2758670Y1507716D01*
X2770000Y1506224D01*
X2781330Y1507716D01*
X2791888Y1512089D01*
X2800954Y1519046D01*
X2807911Y1528112D01*
X2812284Y1538670D01*
X2813776Y1550000D01*
X2812284Y1561330D01*
X2807911Y1571888D01*
X2800954Y1580954D01*
X2791888Y1587911D01*
X2781330Y1592284D01*
X2770000Y1593776D01*
D02*
G37*
G36*
X1231118Y1625685D02*
X1175811D01*
Y1574315D01*
X1188784D01*
Y1503927D01*
X1187159Y1502841D01*
X1183222Y1496949D01*
X1181840Y1490000D01*
X1183222Y1483051D01*
X1187159Y1477159D01*
X1193051Y1473222D01*
X1200000Y1471840D01*
X1206949Y1473222D01*
X1212841Y1477159D01*
X1216778Y1483051D01*
X1218160Y1490000D01*
X1216778Y1496949D01*
X1212841Y1502841D01*
X1211216Y1503927D01*
Y1574315D01*
X1231118D01*
Y1625685D01*
D02*
G37*
G36*
X2770000Y1493776D02*
X2758670Y1492284D01*
X2748112Y1487911D01*
X2739046Y1480954D01*
X2732089Y1471888D01*
X2727716Y1461330D01*
X2726224Y1450000D01*
X2727716Y1438670D01*
X2732089Y1428112D01*
X2739046Y1419046D01*
X2748112Y1412089D01*
X2758670Y1407716D01*
X2770000Y1406224D01*
X2781330Y1407716D01*
X2791888Y1412089D01*
X2800954Y1419046D01*
X2807911Y1428112D01*
X2812284Y1438670D01*
X2813776Y1450000D01*
X2812284Y1461330D01*
X2807911Y1471888D01*
X2800954Y1480954D01*
X2791888Y1487911D01*
X2781330Y1492284D01*
X2770000Y1493776D01*
D02*
G37*
G36*
X123795Y1422791D02*
X86205D01*
Y1394680D01*
X75685D01*
Y1411118D01*
X24315D01*
Y1355811D01*
X75685D01*
Y1372249D01*
X86205D01*
Y1350752D01*
X93785D01*
Y1305001D01*
X93784Y1305000D01*
X94638Y1300708D01*
X97070Y1297069D01*
X122069Y1272070D01*
X122070Y1272069D01*
X125708Y1269638D01*
X130000Y1268784D01*
X176073D01*
X177159Y1267159D01*
X183051Y1263222D01*
X190000Y1261840D01*
X196950Y1263222D01*
X202841Y1267159D01*
X206778Y1273051D01*
X208160Y1280000D01*
X206778Y1286949D01*
X202841Y1292841D01*
X196950Y1296778D01*
X190000Y1298160D01*
X183051Y1296778D01*
X177159Y1292841D01*
X176073Y1291216D01*
X134646D01*
X116216Y1309646D01*
Y1350752D01*
X123795D01*
Y1422791D01*
D02*
G37*
G36*
X1164189Y1625685D02*
X1108882D01*
Y1574315D01*
X1118785D01*
Y1546708D01*
X1105299D01*
Y1361480D01*
X1154701D01*
Y1546708D01*
X1141216D01*
Y1574315D01*
X1164189D01*
Y1625685D01*
D02*
G37*
G36*
X724189Y1615685D02*
X668882D01*
Y1564315D01*
X688785D01*
Y1544346D01*
X675299D01*
Y1359118D01*
X724701D01*
Y1544346D01*
X711216D01*
Y1564315D01*
X724189D01*
Y1615685D01*
D02*
G37*
G36*
X234189Y1515685D02*
X178882D01*
Y1464315D01*
X193785D01*
Y1422791D01*
X186205D01*
Y1350752D01*
X223795D01*
Y1422791D01*
X216216D01*
Y1464315D01*
X234189D01*
Y1515685D01*
D02*
G37*
G36*
X120000Y1525834D02*
X110725Y1524613D01*
X102083Y1521033D01*
X94662Y1515339D01*
X88967Y1507917D01*
X85387Y1499274D01*
X84166Y1490000D01*
X85387Y1480726D01*
X88967Y1472083D01*
X94662Y1464661D01*
X102083Y1458967D01*
X110725Y1455387D01*
X120000Y1454166D01*
X129274Y1455387D01*
X135976Y1458163D01*
X143785Y1450354D01*
Y1422791D01*
X136205D01*
Y1350752D01*
X173795D01*
Y1422791D01*
X166216D01*
Y1454999D01*
X166216Y1455000D01*
X165362Y1459292D01*
X162931Y1462930D01*
X162930Y1462931D01*
X151837Y1474024D01*
X154613Y1480726D01*
X155834Y1490000D01*
X154613Y1499274D01*
X151033Y1507917D01*
X145339Y1515339D01*
X137917Y1521033D01*
X129274Y1524613D01*
X120000Y1525834D01*
D02*
G37*
G36*
X4713401Y1393401D02*
X4626599D01*
Y1306599D01*
X4713401D01*
Y1393401D01*
D02*
G37*
G36*
X2770000Y1393776D02*
X2758670Y1392284D01*
X2748112Y1387911D01*
X2739046Y1380954D01*
X2732089Y1371888D01*
X2727716Y1361330D01*
X2726224Y1350000D01*
X2727716Y1338670D01*
X2732089Y1328112D01*
X2739046Y1319046D01*
X2748112Y1312089D01*
X2758670Y1307716D01*
X2770000Y1306224D01*
X2781330Y1307716D01*
X2791888Y1312089D01*
X2800954Y1319046D01*
X2807911Y1328112D01*
X2812284Y1338670D01*
X2813776Y1350000D01*
X2812284Y1361330D01*
X2807911Y1371888D01*
X2800954Y1380954D01*
X2791888Y1387911D01*
X2781330Y1392284D01*
X2770000Y1393776D01*
D02*
G37*
G36*
X4670000Y1293776D02*
X4658670Y1292284D01*
X4648112Y1287911D01*
X4639046Y1280954D01*
X4632089Y1271888D01*
X4627716Y1261330D01*
X4626224Y1250000D01*
X4627716Y1238670D01*
X4632089Y1228112D01*
X4639046Y1219046D01*
X4648112Y1212089D01*
X4658670Y1207716D01*
X4670000Y1206224D01*
X4681330Y1207716D01*
X4691888Y1212089D01*
X4700954Y1219046D01*
X4707911Y1228112D01*
X4712284Y1238670D01*
X4713776Y1250000D01*
X4712284Y1261330D01*
X4707911Y1271888D01*
X4700954Y1280954D01*
X4691888Y1287911D01*
X4681330Y1292284D01*
X4670000Y1293776D01*
D02*
G37*
G36*
X2770000D02*
X2758670Y1292284D01*
X2748112Y1287911D01*
X2739046Y1280954D01*
X2732089Y1271888D01*
X2727716Y1261330D01*
X2726224Y1250000D01*
X2727716Y1238670D01*
X2732089Y1228112D01*
X2739046Y1219046D01*
X2748112Y1212089D01*
X2758670Y1207716D01*
X2770000Y1206224D01*
X2781330Y1207716D01*
X2791888Y1212089D01*
X2800954Y1219046D01*
X2807911Y1228112D01*
X2812284Y1238670D01*
X2813776Y1250000D01*
X2812284Y1261330D01*
X2807911Y1271888D01*
X2800954Y1280954D01*
X2791888Y1287911D01*
X2781330Y1292284D01*
X2770000Y1293776D01*
D02*
G37*
G36*
X273795Y1209248D02*
X236205D01*
Y1208736D01*
X232446Y1205440D01*
X230000Y1205762D01*
X227555Y1205440D01*
X223795Y1208736D01*
Y1209248D01*
X186205D01*
Y1172827D01*
X185798Y1171844D01*
X184238Y1160000D01*
Y984258D01*
X183712Y984188D01*
X170089Y978546D01*
X158391Y969570D01*
X149415Y957871D01*
X143772Y944249D01*
X141848Y929630D01*
X143772Y915011D01*
X144599Y913015D01*
X145798Y903909D01*
X150369Y892872D01*
X157642Y883395D01*
X167119Y876122D01*
X178156Y871551D01*
X190000Y869991D01*
X201844Y871551D01*
X209130Y874568D01*
X212950Y875071D01*
X226572Y880714D01*
X238270Y889690D01*
X247247Y901388D01*
X252122Y913158D01*
X262358Y923394D01*
X269631Y932872D01*
X274202Y943909D01*
X275762Y955753D01*
Y1160000D01*
X274202Y1171844D01*
X273795Y1172827D01*
Y1209248D01*
D02*
G37*
G36*
X173795D02*
X136205D01*
Y1208736D01*
X132446Y1205440D01*
X130000Y1205762D01*
X127555Y1205440D01*
X123795Y1208736D01*
Y1209248D01*
X86205D01*
Y1172827D01*
X85798Y1171844D01*
X84239Y1160000D01*
Y1138470D01*
X83222Y1136949D01*
X81840Y1130000D01*
X83222Y1123051D01*
X85627Y1119452D01*
X85798Y1118156D01*
X90369Y1107119D01*
X97642Y1097642D01*
X107119Y1090369D01*
X118156Y1085798D01*
X130000Y1084238D01*
X141844Y1085798D01*
X152881Y1090369D01*
X162358Y1097642D01*
X169631Y1107119D01*
X174202Y1118156D01*
X174373Y1119452D01*
X176778Y1123051D01*
X178160Y1130000D01*
X176778Y1136949D01*
X175762Y1138470D01*
Y1160000D01*
X174202Y1171844D01*
X173795Y1172827D01*
Y1209248D01*
D02*
G37*
G36*
X4670000Y1193776D02*
X4658670Y1192284D01*
X4648112Y1187911D01*
X4639046Y1180954D01*
X4632089Y1171888D01*
X4627716Y1161330D01*
X4626224Y1150000D01*
X4627716Y1138670D01*
X4632089Y1128112D01*
X4639046Y1119046D01*
X4648112Y1112089D01*
X4658670Y1107716D01*
X4670000Y1106224D01*
X4681330Y1107716D01*
X4691888Y1112089D01*
X4700954Y1119046D01*
X4707911Y1128112D01*
X4712284Y1138670D01*
X4713776Y1150000D01*
X4712284Y1161330D01*
X4707911Y1171888D01*
X4700954Y1180954D01*
X4691888Y1187911D01*
X4681330Y1192284D01*
X4670000Y1193776D01*
D02*
G37*
G36*
X2770000D02*
X2758670Y1192284D01*
X2748112Y1187911D01*
X2739046Y1180954D01*
X2732089Y1171888D01*
X2727716Y1161330D01*
X2726224Y1150000D01*
X2727716Y1138670D01*
X2732089Y1128112D01*
X2739046Y1119046D01*
X2748112Y1112089D01*
X2758670Y1107716D01*
X2770000Y1106224D01*
X2781330Y1107716D01*
X2791888Y1112089D01*
X2800954Y1119046D01*
X2807911Y1128112D01*
X2812284Y1138670D01*
X2813776Y1150000D01*
X2812284Y1161330D01*
X2807911Y1171888D01*
X2800954Y1180954D01*
X2791888Y1187911D01*
X2781330Y1192284D01*
X2770000Y1193776D01*
D02*
G37*
G36*
X5810000Y1186483D02*
X5795381Y1184559D01*
X5781758Y1178916D01*
X5770060Y1169940D01*
X5761084Y1158242D01*
X5755441Y1144619D01*
X5753517Y1130000D01*
X5755441Y1115381D01*
X5761084Y1101758D01*
X5770060Y1090060D01*
X5781758Y1081084D01*
X5795381Y1075441D01*
X5810000Y1073517D01*
X5824619Y1075441D01*
X5838242Y1081084D01*
X5849940Y1090060D01*
X5858916Y1101758D01*
X5864559Y1115381D01*
X5866483Y1130000D01*
X5864559Y1144619D01*
X5858916Y1158242D01*
X5849940Y1169940D01*
X5838242Y1178916D01*
X5824619Y1184559D01*
X5810000Y1186483D01*
D02*
G37*
G36*
X4670000Y1093776D02*
X4658670Y1092284D01*
X4648112Y1087911D01*
X4639046Y1080954D01*
X4632089Y1071888D01*
X4627716Y1061330D01*
X4626224Y1050000D01*
X4627716Y1038670D01*
X4632089Y1028112D01*
X4639046Y1019046D01*
X4648112Y1012089D01*
X4658670Y1007716D01*
X4670000Y1006224D01*
X4681330Y1007716D01*
X4691888Y1012089D01*
X4700954Y1019046D01*
X4707911Y1028112D01*
X4712284Y1038670D01*
X4713776Y1050000D01*
X4712284Y1061330D01*
X4707911Y1071888D01*
X4700954Y1080954D01*
X4691888Y1087911D01*
X4681330Y1092284D01*
X4670000Y1093776D01*
D02*
G37*
G36*
X2770000D02*
X2758670Y1092284D01*
X2748112Y1087911D01*
X2739046Y1080954D01*
X2732089Y1071888D01*
X2727716Y1061330D01*
X2726224Y1050000D01*
X2727716Y1038670D01*
X2732089Y1028112D01*
X2739046Y1019046D01*
X2748112Y1012089D01*
X2758670Y1007716D01*
X2770000Y1006224D01*
X2781330Y1007716D01*
X2791888Y1012089D01*
X2800954Y1019046D01*
X2807911Y1028112D01*
X2812284Y1038670D01*
X2813776Y1050000D01*
X2812284Y1061330D01*
X2807911Y1071888D01*
X2800954Y1080954D01*
X2791888Y1087911D01*
X2781330Y1092284D01*
X2770000Y1093776D01*
D02*
G37*
G36*
X2968000Y5226000D02*
X2912000D01*
X2884000Y5198000D01*
Y5142000D01*
X2912000Y5114000D01*
X2928785D01*
Y1124646D01*
X2791980Y987841D01*
X2791888Y987911D01*
X2781330Y992284D01*
X2770000Y993776D01*
X2758670Y992284D01*
X2748112Y987911D01*
X2739046Y980954D01*
X2732089Y971888D01*
X2727716Y961330D01*
X2726224Y950000D01*
X2727716Y938670D01*
X2732089Y928112D01*
X2739046Y919046D01*
X2748112Y912089D01*
X2758670Y907716D01*
X2770000Y906224D01*
X2781330Y907716D01*
X2791888Y912089D01*
X2800954Y919046D01*
X2807911Y928112D01*
X2812284Y938670D01*
X2813776Y950000D01*
X2812284Y961330D01*
X2807911Y971888D01*
X2807841Y971980D01*
X2947931Y1112069D01*
X2950362Y1115708D01*
X2951216Y1120000D01*
X2951215Y1120001D01*
Y5114000D01*
X2968000D01*
X2996000Y5142000D01*
Y5198000D01*
X2968000Y5226000D01*
D02*
G37*
G36*
X5375500Y1127440D02*
X5357661Y1125683D01*
X5340507Y1120480D01*
X5324699Y1112030D01*
X5310842Y1100658D01*
X5299470Y1086802D01*
X5291020Y1070993D01*
X5285817Y1053839D01*
X5284060Y1036000D01*
X5285817Y1018161D01*
X5291020Y1001007D01*
X5299470Y985198D01*
X5310842Y971342D01*
X5324699Y959970D01*
X5340507Y951520D01*
X5357661Y946317D01*
X5375500Y944560D01*
X5393339Y946317D01*
X5410493Y951520D01*
X5426301Y959970D01*
X5440158Y971342D01*
X5451530Y985198D01*
X5459980Y1001007D01*
X5465183Y1018161D01*
X5466940Y1036000D01*
X5465183Y1053839D01*
X5459980Y1070993D01*
X5451530Y1086802D01*
X5440158Y1100658D01*
X5426301Y1112030D01*
X5410493Y1120480D01*
X5393339Y1125683D01*
X5375500Y1127440D01*
D02*
G37*
G36*
X4670000Y993776D02*
X4658670Y992284D01*
X4648112Y987911D01*
X4639046Y980954D01*
X4632089Y971888D01*
X4627716Y961330D01*
X4626224Y950000D01*
X4627716Y938670D01*
X4632089Y928112D01*
X4639046Y919046D01*
X4648112Y912089D01*
X4658670Y907716D01*
X4670000Y906224D01*
X4681330Y907716D01*
X4691888Y912089D01*
X4700954Y919046D01*
X4707911Y928112D01*
X4712284Y938670D01*
X4713776Y950000D01*
X4712284Y961330D01*
X4707911Y971888D01*
X4700954Y980954D01*
X4691888Y987911D01*
X4681330Y992284D01*
X4670000Y993776D01*
D02*
G37*
G36*
X5675685Y1034189D02*
X5624315D01*
Y978882D01*
X5659824D01*
X5696636Y942069D01*
X5700275Y939638D01*
X5704567Y938784D01*
X5704568Y938784D01*
X5754000D01*
Y902000D01*
X5782000Y874000D01*
X5838000D01*
X5866000Y902000D01*
Y958000D01*
X5838000Y986000D01*
X5782000D01*
X5757216Y961216D01*
X5709213D01*
X5675685Y994743D01*
Y1034189D01*
D02*
G37*
G36*
X4670000Y893776D02*
X4658670Y892284D01*
X4648112Y887911D01*
X4639046Y880954D01*
X4632089Y871888D01*
X4627716Y861330D01*
X4626224Y850000D01*
X4627716Y838670D01*
X4632089Y828112D01*
X4639046Y819046D01*
X4648112Y812089D01*
X4658670Y807716D01*
X4670000Y806224D01*
X4681330Y807716D01*
X4691888Y812089D01*
X4700954Y819046D01*
X4707911Y828112D01*
X4712284Y838670D01*
X4713776Y850000D01*
X4712284Y861330D01*
X4707911Y871888D01*
X4700954Y880954D01*
X4691888Y887911D01*
X4681330Y892284D01*
X4670000Y893776D01*
D02*
G37*
G36*
X2097653Y945685D02*
X2042347D01*
Y894315D01*
X2097653D01*
Y908784D01*
X2105354D01*
X2122222Y891917D01*
X2121840Y890000D01*
X2123222Y883051D01*
X2127159Y877159D01*
X2133051Y873222D01*
X2140000Y871840D01*
X2141918Y872221D01*
X2148785Y865354D01*
Y781216D01*
X2097654D01*
Y795685D01*
X2042347D01*
Y744315D01*
Y694315D01*
Y644315D01*
Y594315D01*
X2038630Y591216D01*
X2034441D01*
X2030725Y594315D01*
Y644315D01*
Y694315D01*
Y744315D01*
Y794315D01*
Y844315D01*
Y895685D01*
X2030724D01*
Y945685D01*
X1975417D01*
Y931216D01*
X1890001D01*
X1890000Y931216D01*
X1885708Y930362D01*
X1882070Y927931D01*
X1882069Y927930D01*
X1867739Y913600D01*
X1865308Y909961D01*
X1864454Y905669D01*
X1864454Y905669D01*
Y851197D01*
X1840634D01*
Y821480D01*
Y795890D01*
Y770299D01*
Y744709D01*
Y715083D01*
X1839659Y714889D01*
X1836021Y712458D01*
X1836021Y712458D01*
X1827703Y704140D01*
X1825272Y700502D01*
X1824418Y696210D01*
X1824418Y696209D01*
Y421118D01*
X1804315D01*
Y401216D01*
X1793927D01*
X1792841Y402841D01*
X1786949Y406778D01*
X1780000Y408160D01*
X1773051Y406778D01*
X1767159Y402841D01*
X1763222Y396950D01*
X1761840Y390000D01*
X1763222Y383050D01*
X1767159Y377159D01*
X1773051Y373222D01*
X1780000Y371840D01*
X1786949Y373222D01*
X1792841Y377159D01*
X1793927Y378784D01*
X1804315D01*
Y365811D01*
X1855685D01*
Y421118D01*
X1846849D01*
Y488803D01*
X1910705D01*
Y492446D01*
X1921693D01*
X1932785Y481354D01*
Y456000D01*
X1932784Y456000D01*
X1933638Y451708D01*
X1936070Y448069D01*
X1972069Y412070D01*
X1972070Y412069D01*
X1975708Y409638D01*
X1980000Y408784D01*
X1980001Y408784D01*
X2060000D01*
X2060000Y408784D01*
X2064292Y409638D01*
X2067931Y412069D01*
X2077930Y422069D01*
X2077931Y422069D01*
X2080362Y425708D01*
X2081216Y430000D01*
Y444315D01*
X2097654D01*
Y494473D01*
X2105528D01*
Y518784D01*
X2154142D01*
X2154142Y518784D01*
X2158434Y519638D01*
X2162073Y522069D01*
X2167930Y527927D01*
X2167931Y527927D01*
X2170362Y531566D01*
X2171216Y535858D01*
Y720000D01*
Y770000D01*
Y870000D01*
X2171216Y870000D01*
X2170362Y874292D01*
X2167931Y877931D01*
X2167930Y877931D01*
X2157779Y888083D01*
X2158160Y890000D01*
X2156778Y896949D01*
X2152841Y902841D01*
X2146950Y906778D01*
X2140000Y908160D01*
X2138083Y907779D01*
X2117931Y927931D01*
X2114292Y930362D01*
X2110000Y931216D01*
X2110000Y931216D01*
X2097653D01*
Y945685D01*
D02*
G37*
G36*
X810725Y1249071D02*
X389276D01*
Y870929D01*
X454238D01*
Y770000D01*
Y755762D01*
X254331D01*
Y757630D01*
X226331Y785630D01*
X170331D01*
X142331Y757630D01*
Y701630D01*
X145797Y698164D01*
X145798Y698156D01*
X150369Y687119D01*
X157642Y677642D01*
X167119Y670369D01*
X178156Y665798D01*
X190000Y664238D01*
X472077D01*
X475299Y661766D01*
Y499118D01*
X524701D01*
Y661766D01*
X532358Y667642D01*
X539631Y677119D01*
X544202Y688156D01*
X545762Y700000D01*
Y770000D01*
Y870929D01*
X810725D01*
Y1249071D01*
D02*
G37*
G36*
X791118Y765685D02*
X735811D01*
Y714315D01*
X791118D01*
Y718784D01*
X801073D01*
X802159Y717159D01*
X808051Y713222D01*
X815000Y711840D01*
X821950Y713222D01*
X827841Y717159D01*
X831778Y723051D01*
X833160Y730000D01*
X831778Y736949D01*
X827841Y742841D01*
X821950Y746778D01*
X815000Y748160D01*
X808051Y746778D01*
X802159Y742841D01*
X801073Y741216D01*
X791118D01*
Y765685D01*
D02*
G37*
G36*
X4670000Y793776D02*
X4658670Y792284D01*
X4648112Y787911D01*
X4639046Y780954D01*
X4632089Y771888D01*
X4627716Y761330D01*
X4626224Y750000D01*
X4627716Y738670D01*
X4632089Y728112D01*
X4639046Y719046D01*
X4648112Y712089D01*
X4658670Y707716D01*
X4670000Y706224D01*
X4681330Y707716D01*
X4691888Y712089D01*
X4700954Y719046D01*
X4707911Y728112D01*
X4712284Y738670D01*
X4713776Y750000D01*
X4712284Y761330D01*
X4707911Y771888D01*
X4700954Y780954D01*
X4691888Y787911D01*
X4681330Y792284D01*
X4670000Y793776D01*
D02*
G37*
G36*
Y693776D02*
X4658670Y692284D01*
X4648112Y687911D01*
X4639046Y680954D01*
X4632089Y671888D01*
X4627716Y661330D01*
X4626224Y650000D01*
X4627716Y638670D01*
X4632089Y628112D01*
X4639046Y619046D01*
X4648112Y612089D01*
X4658670Y607716D01*
X4670000Y606224D01*
X4681330Y607716D01*
X4691888Y612089D01*
X4700954Y619046D01*
X4707911Y628112D01*
X4712284Y638670D01*
X4713776Y650000D01*
X4712284Y661330D01*
X4707911Y671888D01*
X4700954Y680954D01*
X4691888Y687911D01*
X4681330Y692284D01*
X4670000Y693776D01*
D02*
G37*
G36*
X4370000Y593776D02*
X4358670Y592284D01*
X4348112Y587911D01*
X4339046Y580954D01*
X4332089Y571888D01*
X4327716Y561330D01*
X4326224Y550000D01*
X4327716Y538670D01*
X4332089Y528112D01*
X4339046Y519046D01*
X4348112Y512089D01*
X4358670Y507716D01*
X4370000Y506224D01*
X4381330Y507716D01*
X4391888Y512089D01*
X4400954Y519046D01*
X4407911Y528112D01*
X4412284Y538670D01*
X4413776Y550000D01*
X4412284Y561330D01*
X4407911Y571888D01*
X4400954Y580954D01*
X4391888Y587911D01*
X4381330Y592284D01*
X4370000Y593776D01*
D02*
G37*
G36*
X4270000D02*
X4258670Y592284D01*
X4248112Y587911D01*
X4239046Y580954D01*
X4232089Y571888D01*
X4227716Y561330D01*
X4226224Y550000D01*
X4227716Y538670D01*
X4232089Y528112D01*
X4239046Y519046D01*
X4248112Y512089D01*
X4258670Y507716D01*
X4270000Y506224D01*
X4281330Y507716D01*
X4291888Y512089D01*
X4300954Y519046D01*
X4307911Y528112D01*
X4312284Y538670D01*
X4313776Y550000D01*
X4312284Y561330D01*
X4307911Y571888D01*
X4300954Y580954D01*
X4291888Y587911D01*
X4281330Y592284D01*
X4270000Y593776D01*
D02*
G37*
G36*
X4170000D02*
X4158670Y592284D01*
X4148112Y587911D01*
X4139046Y580954D01*
X4132089Y571888D01*
X4127716Y561330D01*
X4126224Y550000D01*
X4127716Y538670D01*
X4132089Y528112D01*
X4139046Y519046D01*
X4148112Y512089D01*
X4158670Y507716D01*
X4170000Y506224D01*
X4181330Y507716D01*
X4191888Y512089D01*
X4200954Y519046D01*
X4207911Y528112D01*
X4212284Y538670D01*
X4213776Y550000D01*
X4212284Y561330D01*
X4207911Y571888D01*
X4200954Y580954D01*
X4191888Y587911D01*
X4181330Y592284D01*
X4170000Y593776D01*
D02*
G37*
G36*
X4070000D02*
X4058670Y592284D01*
X4048112Y587911D01*
X4039046Y580954D01*
X4032089Y571888D01*
X4027716Y561330D01*
X4026224Y550000D01*
X4027716Y538670D01*
X4032089Y528112D01*
X4039046Y519046D01*
X4048112Y512089D01*
X4058670Y507716D01*
X4070000Y506224D01*
X4081330Y507716D01*
X4091888Y512089D01*
X4100954Y519046D01*
X4107911Y528112D01*
X4112284Y538670D01*
X4113776Y550000D01*
X4112284Y561330D01*
X4107911Y571888D01*
X4100954Y580954D01*
X4091888Y587911D01*
X4081330Y592284D01*
X4070000Y593776D01*
D02*
G37*
G36*
X3970000D02*
X3958670Y592284D01*
X3948112Y587911D01*
X3939046Y580954D01*
X3932089Y571888D01*
X3927716Y561330D01*
X3926224Y550000D01*
X3927716Y538670D01*
X3932089Y528112D01*
X3939046Y519046D01*
X3948112Y512089D01*
X3958670Y507716D01*
X3970000Y506224D01*
X3981330Y507716D01*
X3991888Y512089D01*
X4000954Y519046D01*
X4007911Y528112D01*
X4012284Y538670D01*
X4013776Y550000D01*
X4012284Y561330D01*
X4007911Y571888D01*
X4000954Y580954D01*
X3991888Y587911D01*
X3981330Y592284D01*
X3970000Y593776D01*
D02*
G37*
G36*
X3870000D02*
X3858670Y592284D01*
X3848112Y587911D01*
X3839046Y580954D01*
X3832089Y571888D01*
X3827716Y561330D01*
X3826224Y550000D01*
X3827716Y538670D01*
X3832089Y528112D01*
X3839046Y519046D01*
X3848112Y512089D01*
X3858670Y507716D01*
X3870000Y506224D01*
X3881330Y507716D01*
X3891888Y512089D01*
X3900954Y519046D01*
X3907911Y528112D01*
X3912284Y538670D01*
X3913776Y550000D01*
X3912284Y561330D01*
X3907911Y571888D01*
X3900954Y580954D01*
X3891888Y587911D01*
X3881330Y592284D01*
X3870000Y593776D01*
D02*
G37*
G36*
X3770000D02*
X3758670Y592284D01*
X3748112Y587911D01*
X3739046Y580954D01*
X3732089Y571888D01*
X3727716Y561330D01*
X3726224Y550000D01*
X3727716Y538670D01*
X3732089Y528112D01*
X3739046Y519046D01*
X3748112Y512089D01*
X3758670Y507716D01*
X3770000Y506224D01*
X3781330Y507716D01*
X3791888Y512089D01*
X3800954Y519046D01*
X3807911Y528112D01*
X3812284Y538670D01*
X3813776Y550000D01*
X3812284Y561330D01*
X3807911Y571888D01*
X3800954Y580954D01*
X3791888Y587911D01*
X3781330Y592284D01*
X3770000Y593776D01*
D02*
G37*
G36*
X3670000D02*
X3658670Y592284D01*
X3648112Y587911D01*
X3639046Y580954D01*
X3632089Y571888D01*
X3627716Y561330D01*
X3626224Y550000D01*
X3627716Y538670D01*
X3632089Y528112D01*
X3639046Y519046D01*
X3648112Y512089D01*
X3658670Y507716D01*
X3670000Y506224D01*
X3681330Y507716D01*
X3691888Y512089D01*
X3700954Y519046D01*
X3707911Y528112D01*
X3712284Y538670D01*
X3713776Y550000D01*
X3712284Y561330D01*
X3707911Y571888D01*
X3700954Y580954D01*
X3691888Y587911D01*
X3681330Y592284D01*
X3670000Y593776D01*
D02*
G37*
G36*
X3570000D02*
X3558670Y592284D01*
X3548112Y587911D01*
X3539046Y580954D01*
X3532089Y571888D01*
X3527716Y561330D01*
X3526224Y550000D01*
X3527716Y538670D01*
X3532089Y528112D01*
X3539046Y519046D01*
X3548112Y512089D01*
X3558670Y507716D01*
X3570000Y506224D01*
X3581330Y507716D01*
X3591888Y512089D01*
X3600954Y519046D01*
X3607911Y528112D01*
X3612284Y538670D01*
X3613776Y550000D01*
X3612284Y561330D01*
X3607911Y571888D01*
X3600954Y580954D01*
X3591888Y587911D01*
X3581330Y592284D01*
X3570000Y593776D01*
D02*
G37*
G36*
X3470000D02*
X3458670Y592284D01*
X3448112Y587911D01*
X3439046Y580954D01*
X3432089Y571888D01*
X3427716Y561330D01*
X3426224Y550000D01*
X3427716Y538670D01*
X3432089Y528112D01*
X3439046Y519046D01*
X3448112Y512089D01*
X3458670Y507716D01*
X3470000Y506224D01*
X3481330Y507716D01*
X3491888Y512089D01*
X3500954Y519046D01*
X3507911Y528112D01*
X3512284Y538670D01*
X3513776Y550000D01*
X3512284Y561330D01*
X3507911Y571888D01*
X3500954Y580954D01*
X3491888Y587911D01*
X3481330Y592284D01*
X3470000Y593776D01*
D02*
G37*
G36*
X3370000D02*
X3358670Y592284D01*
X3348112Y587911D01*
X3339046Y580954D01*
X3332089Y571888D01*
X3327716Y561330D01*
X3326224Y550000D01*
X3327716Y538670D01*
X3332089Y528112D01*
X3339046Y519046D01*
X3348112Y512089D01*
X3358670Y507716D01*
X3370000Y506224D01*
X3381330Y507716D01*
X3391888Y512089D01*
X3400954Y519046D01*
X3407911Y528112D01*
X3412284Y538670D01*
X3413776Y550000D01*
X3412284Y561330D01*
X3407911Y571888D01*
X3400954Y580954D01*
X3391888Y587911D01*
X3381330Y592284D01*
X3370000Y593776D01*
D02*
G37*
G36*
X3270000D02*
X3258670Y592284D01*
X3248112Y587911D01*
X3239046Y580954D01*
X3232089Y571888D01*
X3227716Y561330D01*
X3226224Y550000D01*
X3227716Y538670D01*
X3232089Y528112D01*
X3239046Y519046D01*
X3248112Y512089D01*
X3258670Y507716D01*
X3270000Y506224D01*
X3281330Y507716D01*
X3291888Y512089D01*
X3300954Y519046D01*
X3307911Y528112D01*
X3312284Y538670D01*
X3313776Y550000D01*
X3312284Y561330D01*
X3307911Y571888D01*
X3300954Y580954D01*
X3291888Y587911D01*
X3281330Y592284D01*
X3270000Y593776D01*
D02*
G37*
G36*
X1154189Y765685D02*
X1098882D01*
Y714315D01*
X1108785D01*
Y684346D01*
X1095299D01*
Y499118D01*
X1144701D01*
Y684346D01*
X1131216D01*
Y714315D01*
X1154189D01*
Y765685D01*
D02*
G37*
G36*
X1240725Y1251433D02*
X819276D01*
Y873291D01*
X874239D01*
Y830000D01*
Y790000D01*
Y690000D01*
Y660000D01*
X875798Y648156D01*
X880369Y637119D01*
X887642Y627642D01*
X895299Y621766D01*
Y499118D01*
X944701D01*
Y621766D01*
X952358Y627642D01*
X959631Y637119D01*
X964202Y648156D01*
X965762Y660000D01*
Y690000D01*
Y790000D01*
Y830000D01*
Y873291D01*
X1240725D01*
Y1251433D01*
D02*
G37*
G36*
X724189Y765685D02*
X668882D01*
Y714315D01*
X688785D01*
Y684346D01*
X675299D01*
Y499118D01*
X724701D01*
Y684346D01*
X711216D01*
Y714315D01*
X724189D01*
Y765685D01*
D02*
G37*
G36*
X4370000Y493776D02*
X4358670Y492284D01*
X4348112Y487911D01*
X4339046Y480954D01*
X4332089Y471888D01*
X4327716Y461330D01*
X4326224Y450000D01*
X4327716Y438670D01*
X4332089Y428112D01*
X4339046Y419046D01*
X4348112Y412089D01*
X4358670Y407716D01*
X4370000Y406224D01*
X4381330Y407716D01*
X4391888Y412089D01*
X4400954Y419046D01*
X4407911Y428112D01*
X4412284Y438670D01*
X4413776Y450000D01*
X4412284Y461330D01*
X4407911Y471888D01*
X4400954Y480954D01*
X4391888Y487911D01*
X4381330Y492284D01*
X4370000Y493776D01*
D02*
G37*
G36*
X4270000D02*
X4258670Y492284D01*
X4248112Y487911D01*
X4239046Y480954D01*
X4232089Y471888D01*
X4227716Y461330D01*
X4226224Y450000D01*
X4227716Y438670D01*
X4232089Y428112D01*
X4239046Y419046D01*
X4248112Y412089D01*
X4258670Y407716D01*
X4270000Y406224D01*
X4281330Y407716D01*
X4291888Y412089D01*
X4300954Y419046D01*
X4307911Y428112D01*
X4312284Y438670D01*
X4313776Y450000D01*
X4312284Y461330D01*
X4307911Y471888D01*
X4300954Y480954D01*
X4291888Y487911D01*
X4281330Y492284D01*
X4270000Y493776D01*
D02*
G37*
G36*
X4170000D02*
X4158670Y492284D01*
X4148112Y487911D01*
X4139046Y480954D01*
X4132089Y471888D01*
X4127716Y461330D01*
X4126224Y450000D01*
X4127716Y438670D01*
X4132089Y428112D01*
X4139046Y419046D01*
X4148112Y412089D01*
X4158670Y407716D01*
X4170000Y406224D01*
X4181330Y407716D01*
X4191888Y412089D01*
X4200954Y419046D01*
X4207911Y428112D01*
X4212284Y438670D01*
X4213776Y450000D01*
X4212284Y461330D01*
X4207911Y471888D01*
X4200954Y480954D01*
X4191888Y487911D01*
X4181330Y492284D01*
X4170000Y493776D01*
D02*
G37*
G36*
X4070000D02*
X4058670Y492284D01*
X4048112Y487911D01*
X4039046Y480954D01*
X4032089Y471888D01*
X4027716Y461330D01*
X4026224Y450000D01*
X4027716Y438670D01*
X4032089Y428112D01*
X4039046Y419046D01*
X4048112Y412089D01*
X4058670Y407716D01*
X4070000Y406224D01*
X4081330Y407716D01*
X4091888Y412089D01*
X4100954Y419046D01*
X4107911Y428112D01*
X4112284Y438670D01*
X4113776Y450000D01*
X4112284Y461330D01*
X4107911Y471888D01*
X4100954Y480954D01*
X4091888Y487911D01*
X4081330Y492284D01*
X4070000Y493776D01*
D02*
G37*
G36*
X3970000D02*
X3958670Y492284D01*
X3948112Y487911D01*
X3939046Y480954D01*
X3932089Y471888D01*
X3927716Y461330D01*
X3926224Y450000D01*
X3927716Y438670D01*
X3932089Y428112D01*
X3939046Y419046D01*
X3948112Y412089D01*
X3958670Y407716D01*
X3970000Y406224D01*
X3981330Y407716D01*
X3991888Y412089D01*
X4000954Y419046D01*
X4007911Y428112D01*
X4012284Y438670D01*
X4013776Y450000D01*
X4012284Y461330D01*
X4007911Y471888D01*
X4000954Y480954D01*
X3991888Y487911D01*
X3981330Y492284D01*
X3970000Y493776D01*
D02*
G37*
G36*
X3870000D02*
X3858670Y492284D01*
X3848112Y487911D01*
X3839046Y480954D01*
X3832089Y471888D01*
X3827716Y461330D01*
X3826224Y450000D01*
X3827716Y438670D01*
X3832089Y428112D01*
X3839046Y419046D01*
X3848112Y412089D01*
X3858670Y407716D01*
X3870000Y406224D01*
X3881330Y407716D01*
X3891888Y412089D01*
X3900954Y419046D01*
X3907911Y428112D01*
X3912284Y438670D01*
X3913776Y450000D01*
X3912284Y461330D01*
X3907911Y471888D01*
X3900954Y480954D01*
X3891888Y487911D01*
X3881330Y492284D01*
X3870000Y493776D01*
D02*
G37*
G36*
X3770000D02*
X3758670Y492284D01*
X3748112Y487911D01*
X3739046Y480954D01*
X3732089Y471888D01*
X3727716Y461330D01*
X3726224Y450000D01*
X3727716Y438670D01*
X3732089Y428112D01*
X3739046Y419046D01*
X3748112Y412089D01*
X3758670Y407716D01*
X3770000Y406224D01*
X3781330Y407716D01*
X3791888Y412089D01*
X3800954Y419046D01*
X3807911Y428112D01*
X3812284Y438670D01*
X3813776Y450000D01*
X3812284Y461330D01*
X3807911Y471888D01*
X3800954Y480954D01*
X3791888Y487911D01*
X3781330Y492284D01*
X3770000Y493776D01*
D02*
G37*
G36*
X3670000D02*
X3658670Y492284D01*
X3648112Y487911D01*
X3639046Y480954D01*
X3632089Y471888D01*
X3627716Y461330D01*
X3626224Y450000D01*
X3627716Y438670D01*
X3632089Y428112D01*
X3639046Y419046D01*
X3648112Y412089D01*
X3658670Y407716D01*
X3670000Y406224D01*
X3681330Y407716D01*
X3691888Y412089D01*
X3700954Y419046D01*
X3707911Y428112D01*
X3712284Y438670D01*
X3713776Y450000D01*
X3712284Y461330D01*
X3707911Y471888D01*
X3700954Y480954D01*
X3691888Y487911D01*
X3681330Y492284D01*
X3670000Y493776D01*
D02*
G37*
G36*
X3570000D02*
X3558670Y492284D01*
X3548112Y487911D01*
X3539046Y480954D01*
X3532089Y471888D01*
X3527716Y461330D01*
X3526224Y450000D01*
X3527716Y438670D01*
X3532089Y428112D01*
X3539046Y419046D01*
X3548112Y412089D01*
X3558670Y407716D01*
X3570000Y406224D01*
X3581330Y407716D01*
X3591888Y412089D01*
X3600954Y419046D01*
X3607911Y428112D01*
X3612284Y438670D01*
X3613776Y450000D01*
X3612284Y461330D01*
X3607911Y471888D01*
X3600954Y480954D01*
X3591888Y487911D01*
X3581330Y492284D01*
X3570000Y493776D01*
D02*
G37*
G36*
X3470000D02*
X3458670Y492284D01*
X3448112Y487911D01*
X3439046Y480954D01*
X3432089Y471888D01*
X3427716Y461330D01*
X3426224Y450000D01*
X3427716Y438670D01*
X3432089Y428112D01*
X3439046Y419046D01*
X3448112Y412089D01*
X3458670Y407716D01*
X3470000Y406224D01*
X3481330Y407716D01*
X3491888Y412089D01*
X3500954Y419046D01*
X3507911Y428112D01*
X3512284Y438670D01*
X3513776Y450000D01*
X3512284Y461330D01*
X3507911Y471888D01*
X3500954Y480954D01*
X3491888Y487911D01*
X3481330Y492284D01*
X3470000Y493776D01*
D02*
G37*
G36*
X3370000D02*
X3358670Y492284D01*
X3348112Y487911D01*
X3339046Y480954D01*
X3332089Y471888D01*
X3327716Y461330D01*
X3326224Y450000D01*
X3327716Y438670D01*
X3332089Y428112D01*
X3339046Y419046D01*
X3348112Y412089D01*
X3358670Y407716D01*
X3370000Y406224D01*
X3381330Y407716D01*
X3391888Y412089D01*
X3400954Y419046D01*
X3407911Y428112D01*
X3412284Y438670D01*
X3413776Y450000D01*
X3412284Y461330D01*
X3407911Y471888D01*
X3400954Y480954D01*
X3391888Y487911D01*
X3381330Y492284D01*
X3370000Y493776D01*
D02*
G37*
G36*
X3270000D02*
X3258670Y492284D01*
X3248112Y487911D01*
X3239046Y480954D01*
X3232089Y471888D01*
X3227716Y461330D01*
X3226224Y450000D01*
X3227716Y438670D01*
X3232089Y428112D01*
X3239046Y419046D01*
X3248112Y412089D01*
X3258670Y407716D01*
X3270000Y406224D01*
X3281330Y407716D01*
X3291888Y412089D01*
X3300954Y419046D01*
X3307911Y428112D01*
X3312284Y438670D01*
X3313776Y450000D01*
X3312284Y461330D01*
X3307911Y471888D01*
X3300954Y480954D01*
X3291888Y487911D01*
X3281330Y492284D01*
X3270000Y493776D01*
D02*
G37*
G36*
X3170000D02*
X3158670Y492284D01*
X3148112Y487911D01*
X3139046Y480954D01*
X3132089Y471888D01*
X3127716Y461330D01*
X3126224Y450000D01*
X3127716Y438670D01*
X3132089Y428112D01*
X3139046Y419046D01*
X3148112Y412089D01*
X3158670Y407716D01*
X3170000Y406224D01*
X3181330Y407716D01*
X3191888Y412089D01*
X3200954Y419046D01*
X3207911Y428112D01*
X3212284Y438670D01*
X3213776Y450000D01*
X3212284Y461330D01*
X3207911Y471888D01*
X3200954Y480954D01*
X3191888Y487911D01*
X3181330Y492284D01*
X3170000Y493776D01*
D02*
G37*
G36*
X5810000Y506483D02*
X5795381Y504559D01*
X5781758Y498916D01*
X5770060Y489940D01*
X5761084Y478242D01*
X5755441Y464619D01*
X5753517Y450000D01*
X5755441Y435381D01*
X5761084Y421758D01*
X5770060Y410060D01*
X5781758Y401084D01*
X5795381Y395441D01*
X5810000Y393517D01*
X5824619Y395441D01*
X5838242Y401084D01*
X5849940Y410060D01*
X5858916Y421758D01*
X5864559Y435381D01*
X5866483Y450000D01*
X5864559Y464619D01*
X5858916Y478242D01*
X5849940Y489940D01*
X5838242Y498916D01*
X5824619Y504559D01*
X5810000Y506483D01*
D02*
G37*
G36*
X4670000Y519326D02*
X4656475Y517994D01*
X4643470Y514049D01*
X4631485Y507642D01*
X4620979Y499021D01*
X4612358Y488515D01*
X4605951Y476530D01*
X4602006Y463525D01*
X4600674Y450000D01*
X4602006Y436475D01*
X4605951Y423470D01*
X4612358Y411485D01*
X4620979Y400979D01*
X4631485Y392358D01*
X4643470Y385951D01*
X4656475Y382006D01*
X4670000Y380674D01*
X4683525Y382006D01*
X4696530Y385951D01*
X4708515Y392358D01*
X4719021Y400979D01*
X4727642Y411485D01*
X4734049Y423470D01*
X4737994Y436475D01*
X4739326Y450000D01*
X4737994Y463525D01*
X4734049Y476530D01*
X4727642Y488515D01*
X4719021Y499021D01*
X4708515Y507642D01*
X4696530Y514049D01*
X4683525Y517994D01*
X4670000Y519326D01*
D02*
G37*
G36*
X1915685Y421118D02*
X1864315D01*
Y365811D01*
X1915685D01*
Y372130D01*
X1920685Y374803D01*
X1923051Y373222D01*
X1930000Y371840D01*
X1936950Y373222D01*
X1942841Y377159D01*
X1946778Y383050D01*
X1948160Y390000D01*
X1946778Y396950D01*
X1942841Y402841D01*
X1936950Y406778D01*
X1930000Y408160D01*
X1923051Y406778D01*
X1920685Y405197D01*
X1915685Y407870D01*
Y421118D01*
D02*
G37*
G36*
X5838000Y306000D02*
X5782000D01*
X5754000Y278000D01*
Y261216D01*
X5685685D01*
Y294189D01*
X5634315D01*
Y238882D01*
X5674194D01*
X5674685Y238784D01*
X5674686Y238785D01*
X5754000D01*
Y222000D01*
X5782000Y194000D01*
X5838000D01*
X5866000Y222000D01*
Y278000D01*
X5838000Y306000D01*
D02*
G37*
%LPD*%
G36*
X1911111Y4180175D02*
X1912458Y4176892D01*
X1913223Y4173051D01*
X1917159Y4167159D01*
X1923051Y4163222D01*
X1930000Y4161840D01*
X1936950Y4163222D01*
X1942841Y4167159D01*
X1944864Y4170187D01*
X1951087Y4171036D01*
X1960053Y4162070D01*
X1960053Y4162069D01*
X1963692Y4159638D01*
X1967984Y4158784D01*
X1967984Y4158784D01*
X2038696D01*
X2042347Y4155527D01*
Y4084472D01*
Y4034315D01*
X2058785D01*
Y4024646D01*
X2055354Y4021215D01*
X1984646D01*
X1976546Y4029315D01*
X1978617Y4034315D01*
X2030725D01*
Y4085685D01*
X1975418D01*
X1971216Y4087612D01*
Y4100000D01*
X1970362Y4104292D01*
X1967931Y4107931D01*
X1967930Y4107931D01*
X1948679Y4127183D01*
X1945040Y4129614D01*
X1940748Y4130468D01*
X1940748Y4130467D01*
X1910705D01*
Y4134110D01*
X1846849D01*
Y4181165D01*
X1906974D01*
X1911111Y4180175D01*
D02*
G37*
G36*
X1911111Y2373639D02*
X1912458Y2370356D01*
X1913222Y2366515D01*
X1917159Y2360624D01*
X1923051Y2356687D01*
X1930000Y2355305D01*
X1936949Y2356687D01*
X1942841Y2360624D01*
X1944864Y2363652D01*
X1951087Y2364500D01*
X1960053Y2355534D01*
X1960053Y2355534D01*
X1963692Y2353103D01*
X1967984Y2352249D01*
X1967984Y2352249D01*
X2038696D01*
X2042347Y2348992D01*
Y2277937D01*
Y2227780D01*
X2058785D01*
Y2218110D01*
X2055354Y2214680D01*
X1984646D01*
X1976546Y2222780D01*
X1978617Y2227780D01*
X2030724D01*
Y2279150D01*
X1975418D01*
X1971216Y2281076D01*
Y2293465D01*
X1970362Y2297757D01*
X1967931Y2301395D01*
X1967930Y2301395D01*
X1948679Y2320647D01*
X1945040Y2323078D01*
X1940748Y2323932D01*
X1940747Y2323932D01*
X1910705D01*
Y2327575D01*
X1846849D01*
Y2374630D01*
X1906974D01*
X1911111Y2373639D01*
D02*
G37*
G36*
X1911111Y590174D02*
X1912458Y586892D01*
X1913223Y583051D01*
X1917159Y577159D01*
X1923051Y573222D01*
X1930000Y571840D01*
X1936950Y573222D01*
X1942841Y577159D01*
X1944864Y580187D01*
X1951087Y581036D01*
X1960053Y572070D01*
X1960053Y572069D01*
X1963692Y569638D01*
X1967984Y568784D01*
X1967984Y568784D01*
X2038696D01*
X2042347Y565527D01*
Y494473D01*
Y444315D01*
X2058785D01*
Y434646D01*
X2055354Y431216D01*
X1984646D01*
X1976546Y439315D01*
X1978617Y444315D01*
X2030725D01*
Y495685D01*
X1975418D01*
X1971216Y497612D01*
Y510000D01*
X1970362Y514292D01*
X1967931Y517931D01*
X1967930Y517931D01*
X1948679Y537183D01*
X1945040Y539614D01*
X1940748Y540468D01*
X1940748Y540467D01*
X1910705D01*
Y544110D01*
X1846849D01*
Y591165D01*
X1906974D01*
X1911111Y590174D01*
D02*
G37*
D10*
X50000Y4906535D02*
D03*
Y4973465D02*
D03*
Y1316535D02*
D03*
Y1383465D02*
D03*
Y3106535D02*
D03*
Y3173465D02*
D03*
X5270000Y4006535D02*
D03*
Y4073465D02*
D03*
X4100000Y4753465D02*
D03*
Y4686535D02*
D03*
X4030000Y4686535D02*
D03*
Y4753465D02*
D03*
X4480000Y4533465D02*
D03*
Y4466535D02*
D03*
X4050000Y4553465D02*
D03*
Y4486535D02*
D03*
X4110000Y4486535D02*
D03*
Y4553465D02*
D03*
X1830000Y3983465D02*
D03*
Y3916535D02*
D03*
X1890000Y3916535D02*
D03*
Y3983465D02*
D03*
X1830000Y2176929D02*
D03*
Y2110000D02*
D03*
X1890000Y2110000D02*
D03*
Y2176929D02*
D03*
X1830000Y326536D02*
D03*
Y393465D02*
D03*
X1890000Y393464D02*
D03*
Y326535D02*
D03*
X5650000Y1073465D02*
D03*
Y1006535D02*
D03*
X5660000Y333465D02*
D03*
Y266536D02*
D03*
D11*
X4896535Y2600000D02*
D03*
X4963465D02*
D03*
X4896535Y3340000D02*
D03*
X4963465D02*
D03*
X4403465Y4470000D02*
D03*
X4336535D02*
D03*
X273465Y5080000D02*
D03*
X206536D02*
D03*
X1533465Y4350000D02*
D03*
X1466536D02*
D03*
X1466535Y4260000D02*
D03*
X1533465D02*
D03*
X1533465Y4170000D02*
D03*
X1466536D02*
D03*
X2070000Y4060000D02*
D03*
X2003071D02*
D03*
X763465Y4330000D02*
D03*
X696536D02*
D03*
X2003071Y4510000D02*
D03*
X2070000D02*
D03*
X2070000Y4460000D02*
D03*
X2003071D02*
D03*
X2070000Y4410000D02*
D03*
X2003071D02*
D03*
X2070000Y4360000D02*
D03*
X2003071D02*
D03*
X2070000Y4310000D02*
D03*
X2003071D02*
D03*
X1193465Y4330000D02*
D03*
X1126536D02*
D03*
X2070000Y4260000D02*
D03*
X2003071D02*
D03*
X2070000Y4210000D02*
D03*
X2003071D02*
D03*
X1203465Y5190000D02*
D03*
X1136536D02*
D03*
X1473465Y4510000D02*
D03*
X1406536D02*
D03*
X273465Y3273465D02*
D03*
X206536D02*
D03*
X1533465Y2543465D02*
D03*
X1466535D02*
D03*
X1466535Y2453465D02*
D03*
X1533465D02*
D03*
X1533465Y2363465D02*
D03*
X1466535D02*
D03*
X2070000Y2253465D02*
D03*
X2003071D02*
D03*
X763465Y2523465D02*
D03*
X696535D02*
D03*
X2003071Y2703465D02*
D03*
X2070000D02*
D03*
X2070000Y2653465D02*
D03*
X2003071D02*
D03*
X2070000Y2603465D02*
D03*
X2003071D02*
D03*
X2070000Y2553465D02*
D03*
X2003071D02*
D03*
X2070000Y2503465D02*
D03*
X2003071D02*
D03*
X1193465Y2523465D02*
D03*
X1126535D02*
D03*
X2070000Y2453465D02*
D03*
X2003071D02*
D03*
X2070000Y2403465D02*
D03*
X2003071D02*
D03*
X1203465Y3383465D02*
D03*
X1136535D02*
D03*
X1473465Y2703465D02*
D03*
X1406535D02*
D03*
X696535Y3373465D02*
D03*
X763465D02*
D03*
X696536Y5180000D02*
D03*
X763465D02*
D03*
X206536Y1490000D02*
D03*
X273465D02*
D03*
X1136536Y1600000D02*
D03*
X1203465D02*
D03*
X2003071Y470000D02*
D03*
X2070000D02*
D03*
X2003071Y620000D02*
D03*
X2070000D02*
D03*
X2003071Y720000D02*
D03*
X2070000D02*
D03*
X2003071Y670000D02*
D03*
X2070000D02*
D03*
X2003071Y770000D02*
D03*
X2070000D02*
D03*
X2003071Y820000D02*
D03*
X2070000D02*
D03*
X2003071Y870000D02*
D03*
X2070000D02*
D03*
X2070000Y920000D02*
D03*
X2003071D02*
D03*
X1466536Y580000D02*
D03*
X1533465D02*
D03*
X1533465Y670000D02*
D03*
X1466535D02*
D03*
X1466536Y760000D02*
D03*
X1533465D02*
D03*
X1406536Y920000D02*
D03*
X1473465D02*
D03*
X1126536Y740000D02*
D03*
X1193465D02*
D03*
X696536D02*
D03*
X763465D02*
D03*
Y1590000D02*
D03*
X696536D02*
D03*
D12*
X3960000Y4757402D02*
D03*
Y4682599D02*
D03*
X4600000Y4702599D02*
D03*
Y4777402D02*
D03*
D13*
X1999134Y4120000D02*
D03*
X2073937D02*
D03*
X1999134Y2313465D02*
D03*
X2073937D02*
D03*
X2073937Y530000D02*
D03*
X1999134D02*
D03*
D14*
X105000Y4763228D02*
D03*
X155000D02*
D03*
X205000D02*
D03*
X255000D02*
D03*
Y4976772D02*
D03*
X205000D02*
D03*
X155000D02*
D03*
X105000D02*
D03*
X105000Y2956693D02*
D03*
X155000D02*
D03*
X205000D02*
D03*
X255000D02*
D03*
Y3170236D02*
D03*
X205000D02*
D03*
X155000D02*
D03*
X105000D02*
D03*
X105000Y1386772D02*
D03*
X155000D02*
D03*
X205000D02*
D03*
X255000D02*
D03*
Y1173228D02*
D03*
X205000D02*
D03*
X155000D02*
D03*
X105000D02*
D03*
D15*
X1644331Y4426339D02*
D03*
Y4400748D02*
D03*
Y4375158D02*
D03*
Y4349567D02*
D03*
Y4323976D02*
D03*
Y4298386D02*
D03*
Y4272795D02*
D03*
Y4247205D02*
D03*
Y4221614D02*
D03*
Y4196024D02*
D03*
Y4170433D02*
D03*
Y4144842D02*
D03*
Y4119252D02*
D03*
Y4093661D02*
D03*
X1875669D02*
D03*
Y4119252D02*
D03*
Y4144842D02*
D03*
Y4170433D02*
D03*
Y4196024D02*
D03*
Y4221614D02*
D03*
Y4247205D02*
D03*
Y4272795D02*
D03*
Y4298386D02*
D03*
Y4323976D02*
D03*
Y4349567D02*
D03*
Y4375158D02*
D03*
Y4400748D02*
D03*
Y4426339D02*
D03*
X1644331Y2619803D02*
D03*
Y2594213D02*
D03*
Y2568622D02*
D03*
Y2543032D02*
D03*
Y2517441D02*
D03*
Y2491850D02*
D03*
Y2466260D02*
D03*
Y2440669D02*
D03*
Y2415079D02*
D03*
Y2389488D02*
D03*
Y2363898D02*
D03*
Y2338307D02*
D03*
Y2312717D02*
D03*
Y2287126D02*
D03*
X1875669D02*
D03*
Y2312717D02*
D03*
Y2338307D02*
D03*
Y2363898D02*
D03*
Y2389488D02*
D03*
Y2415079D02*
D03*
Y2440669D02*
D03*
Y2466260D02*
D03*
Y2491850D02*
D03*
Y2517441D02*
D03*
Y2543032D02*
D03*
Y2568622D02*
D03*
Y2594213D02*
D03*
Y2619803D02*
D03*
X1875669Y836339D02*
D03*
Y810748D02*
D03*
Y785158D02*
D03*
Y759567D02*
D03*
Y733976D02*
D03*
Y708386D02*
D03*
Y682795D02*
D03*
Y657205D02*
D03*
Y631614D02*
D03*
Y606024D02*
D03*
Y580433D02*
D03*
Y554842D02*
D03*
Y529252D02*
D03*
Y503661D02*
D03*
X1644331D02*
D03*
Y529252D02*
D03*
Y554842D02*
D03*
Y580433D02*
D03*
Y606024D02*
D03*
Y631614D02*
D03*
Y657205D02*
D03*
Y682795D02*
D03*
Y708386D02*
D03*
Y733976D02*
D03*
Y759567D02*
D03*
Y785158D02*
D03*
Y810748D02*
D03*
Y836339D02*
D03*
D16*
X1760000Y4260000D02*
D03*
X1760000Y2453465D02*
D03*
X1760000Y670000D02*
D03*
D17*
X600000Y3790000D02*
D03*
Y4650000D02*
D03*
X1020000Y3790000D02*
D03*
X1030000Y4652362D02*
D03*
X600000Y1983465D02*
D03*
Y2843465D02*
D03*
X1020000Y1983465D02*
D03*
X1030000Y2845827D02*
D03*
X600000Y1060000D02*
D03*
X1030000Y1062362D02*
D03*
X600000Y200000D02*
D03*
X1020000D02*
D03*
D18*
X500000Y4181732D02*
D03*
X700000D02*
D03*
X500000Y5041732D02*
D03*
X700000D02*
D03*
X920000Y4181732D02*
D03*
X1120000D02*
D03*
X930000Y5044094D02*
D03*
X1130000D02*
D03*
X500000Y2375197D02*
D03*
X700000D02*
D03*
X500000Y3235197D02*
D03*
X700000D02*
D03*
X920000Y2375197D02*
D03*
X1120000D02*
D03*
X930000Y3237559D02*
D03*
X1130000D02*
D03*
X700000Y1451732D02*
D03*
X500000D02*
D03*
X1130000Y1454094D02*
D03*
X930000D02*
D03*
X700000Y591732D02*
D03*
X500000D02*
D03*
X1120000D02*
D03*
X920000D02*
D03*
D19*
X4990551Y4749921D02*
D03*
X4900000D02*
D03*
X4809449D02*
D03*
D20*
X4900000Y4490079D02*
D03*
D21*
X5155118Y4620000D02*
D03*
X5544882D02*
D03*
D22*
X4254882Y4930000D02*
D03*
X4365118D02*
D03*
D23*
X3830000Y4619764D02*
D03*
Y4840236D02*
D03*
D24*
X4909449Y3983583D02*
D03*
X5090551D02*
D03*
D25*
X5000000Y4180000D02*
D03*
D26*
X5270000Y4148504D02*
D03*
Y4211496D02*
D03*
D27*
X5410000Y4094882D02*
D03*
Y4205118D02*
D03*
D28*
X4195669Y4840000D02*
D03*
Y4790000D02*
D03*
Y4740000D02*
D03*
Y4690000D02*
D03*
Y4640000D02*
D03*
Y4590000D02*
D03*
Y4540000D02*
D03*
X4404331Y4840000D02*
D03*
Y4790000D02*
D03*
Y4740000D02*
D03*
Y4690000D02*
D03*
Y4640000D02*
D03*
Y4590000D02*
D03*
Y4540000D02*
D03*
D29*
X101693Y1383465D02*
X105000Y1386772D01*
X50000Y1383465D02*
X101693D01*
X101772Y3173465D02*
X105000Y3170236D01*
X50000Y3173465D02*
X101772D01*
X310000Y1490000D02*
X310000Y1490000D01*
X310000Y1490000D02*
Y2169126D01*
X64685Y2414441D02*
X310000Y2169126D01*
X64685Y2414441D02*
Y3091850D01*
X50000Y3106535D02*
X64685Y3091850D01*
X19315Y3139189D02*
Y3439315D01*
Y3139189D02*
X50000Y3108504D01*
Y3106535D02*
Y3108504D01*
X19315Y3439315D02*
X40000Y3460000D01*
X101693Y4973465D02*
X105000Y4976772D01*
X50000Y4973465D02*
X101693D01*
X19315Y5189315D02*
X210000Y5380000D01*
X40000Y3460000D02*
Y4918504D01*
X19315Y4939189D02*
Y5189315D01*
Y4939189D02*
X40000Y4918504D01*
X110000Y3270000D02*
X155000Y3225000D01*
X155000Y1386772D02*
Y1455000D01*
X120000Y1490000D02*
X155000Y1455000D01*
X155000Y3170236D02*
Y3225000D01*
X155000Y4976772D02*
Y5035000D01*
X110000Y5080000D02*
X155000Y5035000D01*
X4930000Y2310000D02*
X4941885D01*
X4961255Y2290630D01*
X5100944D01*
X4930000Y3110000D02*
X4941885D01*
X4961255Y3129370D01*
X5100947D01*
X4963465Y2600000D02*
X4974803Y2588661D01*
X5207637D01*
X4930000Y3060000D02*
X4934685Y3055315D01*
X5096262D01*
X5100947Y3050630D01*
X4930000Y2360000D02*
X4934685Y2364685D01*
X5096259D01*
X5100944Y2369370D01*
X4963465Y3340000D02*
X4972126Y3348661D01*
X5207640D01*
X3180000Y2026314D02*
Y2030000D01*
Y2026314D02*
X3182811Y2023503D01*
Y1140184D02*
Y2023503D01*
X4670000Y2750000D02*
X5454882D01*
X5544882Y2840000D01*
X3428870Y2311130D02*
X3867740Y2750000D01*
X3060000Y1942260D02*
X3428870Y2311130D01*
Y1786130D02*
Y2311130D01*
Y1786130D02*
X3570000Y1645000D01*
X2921598Y878971D02*
X3182811Y1140184D01*
X2900000Y880000D02*
X3160000Y1140000D01*
X2900000Y580000D02*
Y880000D01*
X2870000Y550000D02*
X2900000Y580000D01*
X2160000Y535858D02*
Y720000D01*
X2154142Y530000D02*
X2160000Y535858D01*
X2921598Y501598D02*
Y878971D01*
X2870000Y450000D02*
X2921598Y501598D01*
X4470000Y450000D02*
Y550000D01*
X5810000Y1330000D02*
X5950000Y1470000D01*
X4736336Y4066336D02*
X4962672Y3840000D01*
X4736336Y4066336D02*
Y4423664D01*
X4195669Y4740000D02*
X4280000D01*
X4176968D02*
X4195669D01*
X4492811Y4667189D02*
X4736336Y4423664D01*
X4352811Y4667189D02*
X4492811D01*
X4280000Y4740000D02*
X4352811Y4667189D01*
X4140158Y4703189D02*
X4176968Y4740000D01*
X4962672Y3840000D02*
X5520000D01*
X5400000Y5060000D02*
X5544882Y4915118D01*
Y4620000D02*
Y4915118D01*
X4345753Y5060000D02*
X5400000D01*
X4235753Y5170000D02*
X4345753Y5060000D01*
X2770000Y550000D02*
Y575000D01*
Y450000D02*
Y550000D01*
X3060000Y1085000D02*
Y1942260D01*
X3867740Y2750000D02*
X4670000D01*
X2850000Y875000D02*
X3060000Y1085000D01*
X2850000Y655000D02*
Y875000D01*
X2770000Y575000D02*
X2850000Y655000D01*
X3160000Y1140000D02*
Y1970000D01*
X3021598Y791598D02*
X4120000Y1890000D01*
Y2350000D01*
X3021598Y501598D02*
Y791598D01*
X2970000Y450000D02*
X3021598Y501598D01*
X4090000Y1899946D02*
Y2280000D01*
X2970000Y779946D02*
X4090000Y1899946D01*
X2970000Y550000D02*
Y779946D01*
X3121598Y661598D02*
X4360000Y1900000D01*
X3121598Y501598D02*
Y661598D01*
X3070000Y450000D02*
X3121598Y501598D01*
X3070000Y550000D02*
Y660000D01*
X4150000Y1740000D01*
X5540000Y1185433D02*
Y2387880D01*
Y1000000D02*
Y1185433D01*
X5650000Y1075433D01*
Y1073465D02*
Y1075433D01*
X5540000Y2387880D02*
X5544882Y2392762D01*
X5540000Y1000000D02*
X5660000Y880000D01*
Y333465D02*
Y880000D01*
X5544882Y4205118D02*
X5764882D01*
X5410000D02*
X5544882D01*
X5764882D02*
X5830000Y4140000D01*
X5650000Y1004567D02*
X5704567Y950000D01*
X5790000D01*
X5650000Y1004567D02*
Y1006535D01*
X5790000Y950000D02*
X5810000Y930000D01*
X5660000Y264685D02*
Y266536D01*
X5674685Y250000D02*
X5810000D01*
X5660000Y264685D02*
X5674685Y250000D01*
X2630000Y960000D02*
Y963686D01*
X2627189Y966497D02*
X2630000Y963686D01*
X2627189Y966497D02*
Y2867189D01*
X2770000Y3010000D01*
X1780000Y390000D02*
X1826535D01*
X1830000Y393465D01*
X2770000Y2810000D02*
X2910000Y2670000D01*
Y1640000D02*
Y2670000D01*
X2880000Y1610000D02*
X2910000Y1640000D01*
X2720000Y1610000D02*
X2880000D01*
X2650000Y1540000D02*
X2720000Y1610000D01*
X2650000Y1020000D02*
Y1540000D01*
X2420000Y2590000D02*
X2490000D01*
X2360000Y2530000D02*
X2420000Y2590000D01*
X1780000Y2180000D02*
X1826929D01*
X1830000Y2176929D01*
X2470000Y2700000D02*
X2490000D01*
X2360000Y2590000D02*
X2470000Y2700000D01*
X2450000Y2800000D02*
X2460000D01*
X2390000Y2860000D02*
X2450000Y2800000D01*
X2480000Y2336250D02*
Y2340000D01*
X2390000Y2430000D02*
X2480000Y2340000D01*
X1200000Y1490000D02*
Y1596535D01*
X1203465Y1600000D01*
X1200000Y3270000D02*
Y3380000D01*
X1203465Y3383465D01*
X1780000Y3990000D02*
X1823465D01*
X1830000Y3983465D01*
X2770000Y850000D02*
X2970000Y1050000D01*
Y4800000D01*
X3340000Y5170000D01*
X2770000Y950000D02*
X2940000Y1120000D01*
Y5170000D01*
X4404331Y4790000D02*
X4587402D01*
X4310000D02*
X4404331D01*
X4336535Y4470000D02*
Y4613465D01*
X4260000Y4690000D02*
X4336535Y4613465D01*
X4195669Y4690000D02*
X4260000D01*
X4476535Y4470000D02*
X4480000Y4466535D01*
X4403465Y4470000D02*
X4476535D01*
X4473465Y4540000D02*
X4480000Y4533465D01*
X4404331Y4540000D02*
X4473465D01*
X4114685Y4703189D02*
X4140158D01*
X4100000Y4688504D02*
X4114685Y4703189D01*
X4100000Y4686535D02*
Y4688504D01*
X4100000Y4755433D02*
X4134567Y4790000D01*
X4100000Y4753465D02*
Y4755433D01*
X4134567Y4790000D02*
X4195669D01*
X4030000Y4753465D02*
X4100000D01*
X3960000Y4640000D02*
Y4682599D01*
X3940000Y4620000D02*
X3960000Y4640000D01*
X3939764Y4619764D02*
X3940000Y4620000D01*
X4106968D01*
X3939764D02*
X3940000D01*
X4106968D02*
X4176968Y4690000D01*
X4195669D01*
X4026063Y4682599D02*
X4030000Y4686535D01*
X3960000Y4682599D02*
X4026063D01*
X3830000Y4619764D02*
X3939764D01*
X4110000Y4486535D02*
X4110000Y4486535D01*
X4050000Y4486535D02*
X4110000D01*
X4195858Y4505858D02*
Y4539811D01*
X4195669Y4540000D02*
X4195858Y4539811D01*
X4176535Y4486535D02*
X4195858Y4505858D01*
X4110000Y4486535D02*
X4176535D01*
X4110000Y4584142D02*
X4115858Y4590000D01*
X4195669D01*
X4110000Y4553465D02*
Y4584142D01*
X5255315Y3991850D02*
X5270000Y4006535D01*
X5098819Y3991850D02*
X5255315D01*
X5090551Y3983583D02*
X5098819Y3991850D01*
X4909449Y3983583D02*
X5090551D01*
X5410000Y4040000D02*
Y4094882D01*
X5376535Y4006535D02*
X5410000Y4040000D01*
X5270000Y4006535D02*
X5376535D01*
X5950000Y3760000D02*
Y4420000D01*
Y3370000D02*
Y3760000D01*
X5810000Y3620000D02*
X5950000Y3760000D01*
X5800000Y3620000D02*
X5810000D01*
X5950000Y2970000D02*
Y3370000D01*
X5800000Y3220000D02*
X5950000Y3370000D01*
Y2570000D02*
Y2970000D01*
X5800000Y2820000D02*
X5950000Y2970000D01*
Y2168701D02*
Y2570000D01*
X5800000Y2420000D02*
X5950000Y2570000D01*
Y1768701D02*
Y2168701D01*
X5801669Y2020370D02*
X5950000Y2168701D01*
X5830000Y4540000D02*
X5950000Y4420000D01*
Y1470000D02*
Y1768701D01*
X5801669Y1620370D02*
X5950000Y1768701D01*
X4587401Y4690000D02*
X4600000Y4702599D01*
X4404331Y4690000D02*
X4587401D01*
X4587402Y4790000D02*
X4600000Y4777402D01*
X4530000Y4910000D02*
Y4920000D01*
X4460000Y4840000D02*
X4530000Y4910000D01*
X4404331Y4840000D02*
X4460000D01*
X4260000D02*
X4310000Y4790000D01*
X4195669Y4840000D02*
X4260000D01*
X4130000D02*
X4195669D01*
X4048720Y4921279D02*
Y4930000D01*
Y4921279D02*
X4130000Y4840000D01*
X4404331Y4740000D02*
X4500000D01*
X4940000Y4850000D02*
X4990551Y4799449D01*
Y4749921D02*
Y4799449D01*
X4809449Y4749921D02*
X4810000Y4750472D01*
X5270000Y4073465D02*
Y4148504D01*
X5403622Y4211496D02*
X5410000Y4205118D01*
X5270000Y4211496D02*
X5403622D01*
X5830000Y4140000D02*
Y4340000D01*
Y4540000D02*
Y4740000D01*
X4900000Y4620000D02*
X4900000Y4620000D01*
X1200000Y4960000D02*
Y5186535D01*
X1203465Y5190000D01*
X40000Y3460000D02*
X140000Y3360000D01*
X210000Y5380000D02*
X1340000D01*
X1483465Y4520000D02*
X1510000D01*
X1473465Y4510000D02*
X1483465Y4520000D01*
X1510000D02*
X1650000Y4660000D01*
Y5070000D01*
X1340000Y5380000D02*
X1650000Y5070000D01*
X310000Y3273465D02*
Y3330000D01*
X280000Y3360000D02*
X310000Y3330000D01*
X140000Y3360000D02*
X280000D01*
X273465Y3273465D02*
X310000D01*
X271496D02*
X273465D01*
X273465Y1490000D02*
X310000D01*
X271496D02*
X273465D01*
Y5080000D02*
X310000D01*
X1130000Y1454094D02*
Y1593465D01*
X1136536Y1600000D01*
X1120000Y591732D02*
Y733465D01*
X1126536Y740000D01*
X1460000Y520000D02*
X1526929D01*
X1533465Y526535D01*
Y580000D01*
X700000Y1451732D02*
Y1586535D01*
X696536Y1590000D02*
X700000Y1586535D01*
X500000Y960000D02*
X600000Y1060000D01*
X1530000Y763465D02*
X1533465Y760000D01*
X1530000Y763465D02*
Y800000D01*
X700000Y591732D02*
Y736535D01*
X696536Y740000D02*
X700000Y736535D01*
X1760000Y670000D02*
X1770000Y680000D01*
X1875669Y836339D02*
Y905669D01*
X1890000Y920000D01*
X2003071D01*
X1875669Y810748D02*
X1993819D01*
X2003071Y820000D01*
X1875669Y785158D02*
X1876142Y784685D01*
X1988386D01*
X2003071Y770000D01*
X1940433Y759567D02*
X1965315Y734685D01*
X1875669Y759567D02*
X1940433D01*
X1965315Y734685D02*
X1988386D01*
X2003071Y720000D01*
X1926024Y733976D02*
X1975315Y684685D01*
X1875669Y733976D02*
X1926024D01*
X1975315Y684685D02*
X1988386D01*
X2003071Y670000D01*
X1830000Y393465D02*
X1835634Y399098D01*
Y696210D01*
X1843951Y704528D01*
X1871811D01*
X1875669Y708386D01*
X1913063Y682795D02*
X1965858Y630000D01*
X1875669Y682795D02*
X1913063D01*
X1965858Y630000D02*
X1993071D01*
X2003071Y620000D01*
X1875669Y631614D02*
Y657205D01*
Y631614D02*
X1938386D01*
X1952811Y595173D02*
Y617189D01*
X1938386Y631614D02*
X1952811Y617189D01*
X1967984Y580000D02*
X2064142D01*
X2070000Y533937D02*
X2073937Y530000D01*
X1952811Y595173D02*
X1967984Y580000D01*
X2070000Y533937D02*
Y620000D01*
X1890000Y393464D02*
X1893465Y390000D01*
X1930000D01*
X1875669Y606024D02*
X1923976D01*
X1930000Y590000D02*
Y600000D01*
X1923976Y606024D02*
X1930000Y600000D01*
X1875669Y554842D02*
X1875984Y554528D01*
X1875669Y554842D02*
Y580433D01*
X1875984Y554528D02*
X1978543D01*
X1999134Y533937D01*
Y530000D02*
Y533937D01*
X1940748Y529252D02*
X1960000Y510000D01*
X1875669Y529252D02*
X1940748D01*
X1960000Y475858D02*
X1965858Y470000D01*
X1960000Y475858D02*
Y510000D01*
X1965858Y470000D02*
X2003071D01*
X1926339Y503661D02*
X1944000Y486000D01*
Y456000D02*
X1980000Y420000D01*
X1875669Y503661D02*
X1926339D01*
X1980000Y420000D02*
X2060000D01*
X2070000Y430000D01*
X1944000Y456000D02*
Y486000D01*
X2070000Y430000D02*
Y470000D01*
X1640000Y840197D02*
X1643858Y836339D01*
X1640000Y840197D02*
Y900000D01*
X1643858Y836339D02*
X1644331D01*
X2070000Y670000D02*
X2130000D01*
X1580000Y520000D02*
Y535476D01*
X1599366Y554842D01*
X1644331D01*
X1533465Y580000D02*
X1533898Y580433D01*
X1644331D01*
X1193465Y740000D02*
X1240000D01*
X1640354Y610000D02*
X1644331Y606024D01*
X1570000Y610000D02*
X1640354D01*
X1466536Y580000D02*
X1479213Y592677D01*
Y626953D02*
X1485071Y632811D01*
X1479213Y592677D02*
Y626953D01*
X1485071Y632811D02*
X1643134D01*
X1644331Y631614D01*
X1533465Y670000D02*
X1660000D01*
X1466536Y723465D02*
X1481614Y708386D01*
X1466536Y723465D02*
Y760000D01*
X1481614Y708386D02*
X1644331D01*
X763465Y740000D02*
X773465Y730000D01*
X815000D01*
X1640914Y737394D02*
X1644331Y733976D01*
X1582607Y737394D02*
X1640914D01*
X1580000Y740000D02*
X1582607Y737394D01*
X1641087Y762811D02*
X1644331Y759567D01*
X1533465Y760000D02*
X1536276Y762811D01*
X1641087D01*
X763465Y1590000D02*
X810000D01*
X1540000Y830000D02*
X1584843Y785158D01*
X1644331D01*
X1460000Y830000D02*
X1540000D01*
X1390000Y870000D02*
X1400000Y860000D01*
X1550000D02*
X1599252Y810748D01*
X1400000Y860000D02*
X1550000D01*
X1599252Y810748D02*
X1644331D01*
X105000Y1305000D02*
X130000Y1280000D01*
X105000Y1305000D02*
Y1386772D01*
X130000Y1280000D02*
X190000D01*
X2073937Y530000D02*
X2154142D01*
X2070000Y720000D02*
X2160000D01*
X2070000Y920000D02*
X2110000D01*
X2140000Y890000D01*
X2070000Y770000D02*
X2160000D01*
Y720000D02*
Y770000D01*
Y870000D01*
X2140000Y890000D02*
X2160000Y870000D01*
X205000Y1386772D02*
Y1488465D01*
X206536Y1490000D01*
X255000Y1386772D02*
X256811Y1388583D01*
Y1475315D01*
X271496Y1490000D01*
X1473465Y920000D02*
X1483465Y930000D01*
X1830000Y326536D02*
X1890000D01*
X1890000Y326535D01*
X2064142Y614142D02*
X2070000Y620000D01*
X2003071Y870000D02*
Y920000D01*
Y870000D02*
X2003071Y870000D01*
X1450000Y630000D02*
Y655315D01*
X1464685Y670000D01*
X1466535D01*
X1130000Y5044094D02*
Y5183465D01*
X1136536Y5190000D01*
X1120000Y4181732D02*
Y4323465D01*
X1126536Y4330000D01*
X1460000Y4110000D02*
X1526929D01*
X1533465Y4116535D01*
Y4170000D01*
X700000Y5041732D02*
Y5176535D01*
X696536Y5180000D02*
X700000Y5176535D01*
X500000Y4550000D02*
X600000Y4650000D01*
X1530000Y4353465D02*
X1533465Y4350000D01*
X1530000Y4353465D02*
Y4390000D01*
X700000Y4181732D02*
Y4326535D01*
X696536Y4330000D02*
X700000Y4326535D01*
X1760000Y4260000D02*
X1770000Y4270000D01*
X1875669Y4426339D02*
Y4495669D01*
X1890000Y4510000D01*
X2003071D01*
X1875669Y4400748D02*
X1993819D01*
X2003071Y4410000D01*
X1875669Y4375158D02*
X1876142Y4374685D01*
X1988386D01*
X2003071Y4360000D01*
X1940433Y4349567D02*
X1965315Y4324685D01*
X1875669Y4349567D02*
X1940433D01*
X1965315Y4324685D02*
X1988386D01*
X2003071Y4310000D01*
X1926024Y4323976D02*
X1975315Y4274685D01*
X1875669Y4323976D02*
X1926024D01*
X1975315Y4274685D02*
X1988386D01*
X2003071Y4260000D01*
X1830000Y3983465D02*
X1835634Y3989098D01*
Y4286210D01*
X1843951Y4294528D01*
X1871811D01*
X1875669Y4298386D01*
X1913063Y4272795D02*
X1965858Y4220000D01*
X1875669Y4272795D02*
X1913063D01*
X1965858Y4220000D02*
X1993071D01*
X2003071Y4210000D01*
X1875669Y4221614D02*
Y4247205D01*
Y4221614D02*
X1938386D01*
X1952811Y4185173D02*
Y4207189D01*
X1938386Y4221614D02*
X1952811Y4207189D01*
X1967984Y4170000D02*
X2064142D01*
X2070000Y4123937D02*
X2073937Y4120000D01*
X1952811Y4185173D02*
X1967984Y4170000D01*
X2070000Y4123937D02*
Y4210000D01*
X1890000Y3983465D02*
X1893465Y3980000D01*
X1930000D01*
X1875669Y4196024D02*
X1923976D01*
X1930000Y4190000D01*
Y4180000D02*
Y4190000D01*
X1875669Y4144842D02*
Y4170433D01*
Y4144842D02*
X1875984Y4144528D01*
X1978543D01*
X1999134Y4123937D01*
Y4120000D02*
Y4123937D01*
X1940748Y4119252D02*
X1960000Y4100000D01*
X1875669Y4119252D02*
X1940748D01*
X1960000Y4065858D02*
X1965858Y4060000D01*
X1960000Y4065858D02*
Y4100000D01*
X1965858Y4060000D02*
X2003071D01*
X1926339Y4093661D02*
X1944000Y4076000D01*
Y4046000D02*
X1980000Y4010000D01*
X1875669Y4093661D02*
X1926339D01*
X1980000Y4010000D02*
X2060000D01*
X2070000Y4020000D01*
X1944000Y4046000D02*
Y4076000D01*
X2070000Y4020000D02*
Y4060000D01*
X1640000Y4430197D02*
X1643858Y4426339D01*
X1640000Y4430197D02*
Y4490000D01*
X1643858Y4426339D02*
X1644331D01*
X2070000Y4260000D02*
X2130000D01*
X1580000Y4110000D02*
Y4125476D01*
X1599366Y4144842D01*
X1644331D01*
X1533465Y4170000D02*
X1533898Y4170433D01*
X1644331D01*
X1193465Y4330000D02*
X1240000D01*
X1640354Y4200000D02*
X1644331Y4196024D01*
X1570000Y4200000D02*
X1640354D01*
X1466536Y4170000D02*
X1479213Y4182677D01*
Y4216953D02*
X1485071Y4222811D01*
X1479213Y4182677D02*
Y4216953D01*
X1485071Y4222811D02*
X1643134D01*
X1644331Y4221614D01*
X1533465Y4260000D02*
X1660000D01*
X1466536Y4313465D02*
X1481614Y4298386D01*
X1466536Y4313465D02*
Y4350000D01*
X1481614Y4298386D02*
X1644331D01*
X763465Y4330000D02*
X773465Y4320000D01*
X815000D01*
X1640914Y4327394D02*
X1644331Y4323976D01*
X1582607Y4327394D02*
X1640914D01*
X1580000Y4330000D02*
X1582607Y4327394D01*
X1641087Y4352811D02*
X1644331Y4349567D01*
X1533465Y4350000D02*
X1536276Y4352811D01*
X1641087D01*
X763465Y5180000D02*
X810000D01*
X1540000Y4420000D02*
X1584843Y4375158D01*
X1644331D01*
X1460000Y4420000D02*
X1540000D01*
X1390000Y4460000D02*
X1400000Y4450000D01*
X1550000D01*
X1599252Y4400748D01*
X1644331D01*
X105000Y4895000D02*
X130000Y4870000D01*
X105000Y4895000D02*
Y4976772D01*
X130000Y4870000D02*
X190000D01*
X2073937Y4120000D02*
X2154142D01*
X2160000Y4125858D01*
X2070000Y4310000D02*
X2160000D01*
Y4125858D02*
Y4310000D01*
X2070000Y4510000D02*
X2110000D01*
X2140000Y4480000D01*
X2070000Y4360000D02*
X2160000D01*
Y4310000D02*
Y4360000D01*
Y4460000D01*
X2140000Y4480000D02*
X2160000Y4460000D01*
X205000Y4976772D02*
Y5078465D01*
X206536Y5080000D01*
X255000Y4976772D02*
X256811Y4978583D01*
Y5065315D01*
X271496Y5080000D01*
X273465D01*
X1830000Y3916535D02*
X1890000D01*
X1890000Y3916535D01*
X2064142Y4204142D02*
X2070000Y4210000D01*
X2003071Y4460000D02*
Y4510000D01*
Y4460000D02*
X2003071Y4460000D01*
X1450000Y4220000D02*
Y4245315D01*
X1464685Y4260000D01*
X1466535D01*
X1533465Y2543465D02*
X1536276Y2546276D01*
X1464685Y2453465D02*
X1466535D01*
X1450000Y2438780D02*
X1464685Y2453465D01*
X1450000Y2413465D02*
Y2438780D01*
X1533465Y2363465D02*
X1533898Y2363898D01*
X2003071Y2653465D02*
Y2703465D01*
Y2653465D02*
X2003071Y2653465D01*
X2064142Y2397607D02*
X2070000Y2403465D01*
X1890000Y2110000D02*
X1890000Y2110000D01*
X1830000Y2110000D02*
X1890000D01*
X1473465Y2703465D02*
X1483465Y2713465D01*
X256811Y3258780D02*
X271496Y3273465D01*
X255000Y3170236D02*
X256811Y3172047D01*
Y3258780D01*
X205000Y3271929D02*
X206536Y3273465D01*
X205000Y3170236D02*
Y3271929D01*
X2140000Y2673465D02*
X2160000Y2653465D01*
Y2553465D02*
Y2653465D01*
X2070000Y2553465D02*
X2160000D01*
Y2503465D02*
Y2553465D01*
X2070000Y2503465D02*
X2160000D01*
X2070000Y2703465D02*
X2110000D01*
X2140000Y2673465D01*
X2160000Y2319323D02*
Y2503465D01*
X2154142Y2313465D02*
X2160000Y2319323D01*
X2073937Y2313465D02*
X2154142D01*
X105000Y3088465D02*
Y3170236D01*
X130000Y3063465D02*
X190000D01*
X105000Y3088465D02*
X130000Y3063465D01*
X1599252Y2594213D02*
X1644331D01*
X1550000Y2643465D02*
X1599252Y2594213D01*
X1400000Y2643465D02*
X1550000D01*
X1390000Y2653465D02*
X1400000Y2643465D01*
X1460000Y2613465D02*
X1540000D01*
X1584842Y2568622D02*
X1644331D01*
X1540000Y2613465D02*
X1584842Y2568622D01*
X763465Y3373465D02*
X810000D01*
X1536276Y2546276D02*
X1641087D01*
X1644331Y2543032D01*
X1580000Y2523465D02*
X1582606Y2520858D01*
X1640914D01*
X1644331Y2517441D01*
X773465Y2513465D02*
X815000D01*
X763465Y2523465D02*
X773465Y2513465D01*
X1481614Y2491850D02*
X1644331D01*
X1466535Y2506929D02*
Y2543465D01*
Y2506929D02*
X1481614Y2491850D01*
X1533465Y2453465D02*
X1660000D01*
X1643134Y2416276D02*
X1644331Y2415079D01*
X1485071Y2416276D02*
X1643134D01*
X1479213Y2376142D02*
Y2410418D01*
X1485071Y2416276D01*
X1466535Y2363465D02*
X1479213Y2376142D01*
X1570000Y2393465D02*
X1640354D01*
X1644331Y2389488D01*
X1193465Y2523465D02*
X1240000D01*
X1533898Y2363898D02*
X1644331D01*
X1599366Y2338307D02*
X1644331D01*
X1580000Y2318941D02*
X1599366Y2338307D01*
X1580000Y2303465D02*
Y2318941D01*
X2070000Y2453465D02*
X2130000D01*
X1643858Y2619803D02*
X1644331D01*
X1640000Y2623662D02*
Y2683465D01*
Y2623662D02*
X1643858Y2619803D01*
X2070000Y2213465D02*
Y2253465D01*
X1944000Y2239465D02*
Y2269465D01*
X2060000Y2203465D02*
X2070000Y2213465D01*
X1980000Y2203465D02*
X2060000D01*
X1875669Y2287126D02*
X1926339D01*
X1944000Y2239465D02*
X1980000Y2203465D01*
X1926339Y2287126D02*
X1944000Y2269465D01*
X1965858Y2253465D02*
X2003071D01*
X1960000Y2259323D02*
Y2293465D01*
Y2259323D02*
X1965858Y2253465D01*
X1875669Y2312717D02*
X1940748D01*
X1960000Y2293465D01*
X1978543Y2337992D02*
X1999134Y2317402D01*
Y2313465D02*
Y2317402D01*
X1875669Y2338307D02*
X1875984Y2337992D01*
X1875669Y2338307D02*
Y2363898D01*
X1875984Y2337992D02*
X1978543D01*
X1923976Y2389488D02*
X1930000Y2383465D01*
Y2373465D02*
Y2383465D01*
X1875669Y2389488D02*
X1923976D01*
X1893465Y2173465D02*
X1930000D01*
X1890000Y2176929D02*
X1893465Y2173465D01*
X2070000Y2317402D02*
Y2403465D01*
X1952811Y2378637D02*
X1967984Y2363465D01*
X2070000Y2317402D02*
X2073937Y2313465D01*
X1967984Y2363465D02*
X2064142D01*
X1938386Y2415079D02*
X1952811Y2400654D01*
Y2378637D02*
Y2400654D01*
X1875669Y2415079D02*
X1938386D01*
X1875669D02*
Y2440669D01*
X1993071Y2413465D02*
X2003071Y2403465D01*
X1965858Y2413465D02*
X1993071D01*
X1875669Y2466260D02*
X1913063D01*
X1965858Y2413465D01*
X1871811Y2487992D02*
X1875669Y2491850D01*
X1843951Y2487992D02*
X1871811D01*
X1835634Y2479675D02*
X1843951Y2487992D01*
X1835634Y2182563D02*
Y2479675D01*
X1830000Y2176929D02*
X1835634Y2182563D01*
X1988386Y2468150D02*
X2003071Y2453465D01*
X1975315Y2468150D02*
X1988386D01*
X1875669Y2517441D02*
X1926024D01*
X1975315Y2468150D01*
X1988386Y2518150D02*
X2003071Y2503465D01*
X1965315Y2518150D02*
X1988386D01*
X1875669Y2543032D02*
X1940433D01*
X1965315Y2518150D01*
X1988386Y2568150D02*
X2003071Y2553465D01*
X1876142Y2568150D02*
X1988386D01*
X1875669Y2568622D02*
X1876142Y2568150D01*
X1993819Y2594213D02*
X2003071Y2603465D01*
X1875669Y2594213D02*
X1993819D01*
X1890000Y2703465D02*
X2003071D01*
X1875669Y2689134D02*
X1890000Y2703465D01*
X1875669Y2619803D02*
Y2689134D01*
X1760000Y2453465D02*
X1770000Y2463465D01*
X696535Y2523465D02*
X700000Y2520000D01*
Y2375197D02*
Y2520000D01*
X1530000Y2546929D02*
Y2583465D01*
Y2546929D02*
X1533465Y2543465D01*
X500000Y2743465D02*
X600000Y2843465D01*
X696535Y3373465D02*
X700000Y3370000D01*
Y3235197D02*
Y3370000D01*
X1533465Y2310000D02*
Y2363465D01*
X1526929Y2303465D02*
X1533465Y2310000D01*
X1460000Y2303465D02*
X1526929D01*
X1120000Y2516929D02*
X1126535Y2523465D01*
X1120000Y2375197D02*
Y2516929D01*
X1130000Y3376929D02*
X1136535Y3383465D01*
X1130000Y3237559D02*
Y3376929D01*
D30*
X5100947Y2952205D02*
X5422205D01*
X5544882Y3074882D01*
X5100944Y2192205D02*
X5344325D01*
X5540000Y2387880D01*
X5544882Y3840000D02*
Y4205118D01*
X1390000Y870000D02*
Y1110000D01*
X1390000Y2653465D02*
Y2893465D01*
X1390000Y4460000D02*
Y4700000D01*
X1390000Y2893465D02*
X1504740Y3008205D01*
Y3148724D01*
X1420000Y3233465D02*
X1504740Y3148724D01*
X5544882Y3074882D02*
Y3840000D01*
X1020000Y3770000D02*
X1300000D01*
X1020000Y1963465D02*
X1300000D01*
X1020000Y180000D02*
X1300000D01*
X3831433Y4840236D02*
X3849685D01*
X3932520Y4757402D02*
X3960000D01*
X3849685Y4840236D02*
X3932520Y4757402D01*
X4530000Y4930000D02*
X4770000D01*
X4230000Y5170000D02*
X4235753D01*
X5544882Y2840000D02*
Y3074882D01*
Y2392762D02*
Y2840000D01*
X1390000Y1110000D02*
X1504740Y1224740D01*
Y1365260D01*
X1420000Y1450000D02*
X1504740Y1365260D01*
X1440000Y5040000D02*
X1520000Y4960000D01*
Y4830000D02*
Y4960000D01*
X1390000Y4700000D02*
X1520000Y4830000D01*
X1420000Y5040000D02*
X1440000D01*
X1640000Y440000D02*
Y500000D01*
Y230000D02*
Y440000D01*
X1640000Y2223465D02*
Y2280000D01*
Y2013465D02*
Y2223465D01*
X1640000Y4030000D02*
Y4090000D01*
Y3820000D02*
Y4030000D01*
X5544882Y4205118D02*
Y4620000D01*
X5000000Y4180000D02*
Y4330000D01*
X4900000Y4430000D02*
X5000000Y4330000D01*
X4900000Y4430000D02*
Y4490079D01*
X962835Y3790000D02*
X1020000D01*
X942835Y3770000D02*
X962835Y3790000D01*
Y200000D02*
X1020000D01*
X942835Y180000D02*
X962835Y200000D01*
X962835Y1983465D02*
X1020000D01*
X942835Y1963465D02*
X962835Y1983465D01*
X4365118Y4930000D02*
X4530000D01*
X4048720D02*
X4254882D01*
X3980000D02*
X4048720D01*
X4810000Y4750472D02*
Y4890000D01*
X4770000Y4930000D02*
X4810000Y4890000D01*
X3840000Y5070000D02*
Y5150000D01*
Y5070000D02*
X3980000Y4930000D01*
X3840000Y4848803D02*
Y5070000D01*
X4010000Y5320000D02*
X5512039D01*
X2910000D02*
X4010000D01*
X3840000Y5150000D02*
X4010000Y5320000D01*
X2280000Y180000D02*
X2555000Y455000D01*
Y2238465D01*
Y4045000D02*
X2780000Y4270000D01*
X2280000Y3770000D02*
X2555000Y4045000D01*
X2280000Y1963465D02*
X2555000Y2238465D01*
Y4045000D01*
X5512039Y5320000D02*
X5811669Y5020370D01*
X2780000Y5190000D02*
X2910000Y5320000D01*
X2780000Y4270000D02*
Y5190000D01*
X4900000Y4620000D02*
Y4749921D01*
Y4490079D02*
Y4620000D01*
X4900000Y4620000D02*
X5155118D01*
X500000Y1451732D02*
Y1656457D01*
X930000Y1454094D02*
Y1683875D01*
X500000Y1656457D02*
X573544Y1730000D01*
X883875D01*
X930000Y1683875D01*
X883875Y1730000D02*
X1300000D01*
X1420000Y1610000D01*
Y1450000D02*
Y1610000D01*
X1300000Y180000D02*
Y1192205D01*
Y180000D02*
X1430000D01*
X1300000Y1192205D02*
X1420000Y1312205D01*
X920000Y690000D02*
Y790000D01*
Y660000D02*
Y690000D01*
Y790000D02*
Y830000D01*
Y952362D01*
X1030000Y1062362D01*
X130000Y1130000D02*
Y1160000D01*
X600000Y200000D02*
X922835D01*
X942835Y180000D01*
X190000Y710000D02*
X490000D01*
X500000Y700000D01*
Y770000D01*
Y960000D01*
X1430000Y180000D02*
X1590000D01*
X2280000D01*
X1590000D02*
X1640000Y230000D01*
X1390000Y357795D02*
X1430000Y317795D01*
X1390000Y357795D02*
Y870000D01*
X190000Y915753D02*
X230000Y955753D01*
Y1160000D01*
X500000Y5041732D02*
Y5246457D01*
X573544Y5320000D01*
X883875D01*
X930000Y5273875D01*
Y5044094D02*
Y5273875D01*
X883875Y5320000D02*
X1300000D01*
X1420000Y5200000D01*
Y5040000D02*
Y5200000D01*
X1300000Y3770000D02*
Y4782205D01*
Y3770000D02*
X1430000D01*
X1300000Y4782205D02*
X1420000Y4902205D01*
X920000Y4280000D02*
Y4380000D01*
Y4250000D02*
Y4280000D01*
Y4380000D02*
Y4420000D01*
Y4542362D01*
X1030000Y4652362D01*
X130000Y4720000D02*
Y4750000D01*
X600000Y3790000D02*
X922835D01*
X942835Y3770000D01*
X190000Y4300000D02*
X490000D01*
X500000Y4290000D01*
Y4360000D01*
Y4550000D01*
X1430000Y3770000D02*
X1590000D01*
X1640000Y3820000D01*
X1590000Y3770000D02*
X2280000D01*
X1390000Y3947795D02*
Y4460000D01*
Y3947795D02*
X1430000Y3907795D01*
X190000Y4505753D02*
X230000Y4545753D01*
Y4750000D01*
X230000Y2739218D02*
Y2943465D01*
X190000Y2699218D02*
X230000Y2739218D01*
X1390000Y2141260D02*
X1430000Y2101260D01*
X1390000Y2141260D02*
Y2653465D01*
X1590000Y1963465D02*
X2280000D01*
X1590000D02*
X1640000Y2013465D01*
X1430000Y1963465D02*
X1590000D01*
X500000Y2553465D02*
Y2743465D01*
Y2483465D02*
Y2553465D01*
X490000Y2493465D02*
X500000Y2483465D01*
X190000Y2493465D02*
X490000D01*
X922835Y1983465D02*
X942835Y1963465D01*
X600000Y1983465D02*
X922835D01*
X130000Y2913465D02*
Y2943465D01*
X920000Y2735827D02*
X1030000Y2845827D01*
X920000Y2613465D02*
Y2735827D01*
Y2573465D02*
Y2613465D01*
Y2443465D02*
Y2473465D01*
Y2573465D01*
X1300000Y2975669D02*
X1420000Y3095669D01*
X1300000Y1963465D02*
X1430000D01*
X1300000D02*
Y2975669D01*
X1420000Y3233465D02*
Y3393465D01*
X1300000Y3513465D02*
X1420000Y3393465D01*
X883875Y3513465D02*
X1300000D01*
X573543D02*
X883875D01*
X930000Y3237559D02*
Y3467340D01*
X883875Y3513465D02*
X930000Y3467340D01*
X500000Y3439921D02*
X573543Y3513465D01*
X500000Y3235197D02*
Y3439921D01*
D31*
X3830000Y4840236D02*
X3831433D01*
X3760236D02*
X3830000D01*
X3690000Y4770000D02*
X3760236Y4840236D01*
X3831433D02*
X3840000Y4848803D01*
X3690000Y4620000D02*
Y4770000D01*
Y4620000D02*
X3780000Y4530000D01*
X3903465Y4553465D02*
X4050000D01*
X3880000Y4530000D02*
X3903465Y4553465D01*
X3780000Y4530000D02*
X3880000D01*
D32*
X5801669Y1820370D02*
D03*
Y2220370D02*
D03*
X5800000Y2620000D02*
D03*
Y3020000D02*
D03*
Y3420000D02*
D03*
Y3820000D02*
D03*
X5811669Y5220370D02*
D03*
X5830000Y4140000D02*
D03*
X5810000Y250000D02*
D03*
Y930000D02*
D03*
X198331Y2513095D02*
D03*
X198331Y4319630D02*
D03*
X198331Y729630D02*
D03*
D33*
X5801669Y1620370D02*
D03*
Y2020370D02*
D03*
X5800000Y2420000D02*
D03*
Y2820000D02*
D03*
Y3220000D02*
D03*
Y3620000D02*
D03*
X5811669Y5020370D02*
D03*
X5830000Y4740000D02*
D03*
Y4540000D02*
D03*
Y4340000D02*
D03*
X5810000Y650000D02*
D03*
Y450000D02*
D03*
X4830000Y5170000D02*
D03*
X4630000D02*
D03*
X4430000D02*
D03*
X4230000D02*
D03*
X5810000Y1330000D02*
D03*
Y1130000D02*
D03*
X2650000Y5170000D02*
D03*
X2450000D02*
D03*
X2250000D02*
D03*
X2050000D02*
D03*
X3740000D02*
D03*
X3540000D02*
D03*
X3340000D02*
D03*
X3140000D02*
D03*
X198331Y2713095D02*
D03*
X198331Y4519630D02*
D03*
X198331Y929630D02*
D03*
D34*
X5100944Y2369370D02*
D03*
Y2290630D02*
D03*
Y2467795D02*
D03*
Y2192205D02*
D03*
X5100947Y3129370D02*
D03*
Y3050630D02*
D03*
Y3227795D02*
D03*
Y2952205D02*
D03*
D35*
X5207637Y2588661D02*
D03*
Y2071339D02*
D03*
X5207640Y3348661D02*
D03*
Y2831339D02*
D03*
D36*
X4030000Y5170000D02*
D03*
X1850000D02*
D03*
X2940000D02*
D03*
D37*
X4930000Y3110000D02*
D03*
Y3060000D02*
D03*
Y2310000D02*
D03*
Y2360000D02*
D03*
D38*
X1430000Y3770000D02*
D03*
Y3907795D02*
D03*
X1430000Y1963465D02*
D03*
Y2101260D02*
D03*
X1430000Y317795D02*
D03*
Y180000D02*
D03*
X4470000Y550000D02*
D03*
Y450000D02*
D03*
X4370000Y550000D02*
D03*
Y450000D02*
D03*
X4270000Y550000D02*
D03*
Y450000D02*
D03*
X4170000Y550000D02*
D03*
Y450000D02*
D03*
X4070000Y550000D02*
D03*
Y450000D02*
D03*
X3970000Y550000D02*
D03*
Y450000D02*
D03*
X3870000Y550000D02*
D03*
Y450000D02*
D03*
X3770000Y550000D02*
D03*
Y450000D02*
D03*
X3670000D02*
D03*
Y550000D02*
D03*
X3570000D02*
D03*
Y450000D02*
D03*
X3470000Y550000D02*
D03*
Y450000D02*
D03*
X3370000Y550000D02*
D03*
Y450000D02*
D03*
X3270000Y550000D02*
D03*
Y450000D02*
D03*
X3170000Y550000D02*
D03*
Y450000D02*
D03*
X3070000Y550000D02*
D03*
Y450000D02*
D03*
X2970000Y550000D02*
D03*
Y450000D02*
D03*
X2870000Y550000D02*
D03*
Y450000D02*
D03*
X2770000Y550000D02*
D03*
Y450000D02*
D03*
X4670000Y1150000D02*
D03*
Y1250000D02*
D03*
Y650000D02*
D03*
Y750000D02*
D03*
Y850000D02*
D03*
Y950000D02*
D03*
Y1050000D02*
D03*
X2770000D02*
D03*
Y950000D02*
D03*
Y1550000D02*
D03*
Y1450000D02*
D03*
Y1350000D02*
D03*
Y1250000D02*
D03*
Y1150000D02*
D03*
X4670000Y2050000D02*
D03*
Y2150000D02*
D03*
Y1550000D02*
D03*
Y1650000D02*
D03*
Y1750000D02*
D03*
Y1850000D02*
D03*
Y1950000D02*
D03*
X2770000D02*
D03*
Y1850000D02*
D03*
Y2450000D02*
D03*
Y2350000D02*
D03*
Y2250000D02*
D03*
Y2150000D02*
D03*
Y2050000D02*
D03*
X4670000Y2550000D02*
D03*
Y2650000D02*
D03*
Y2750000D02*
D03*
Y2850000D02*
D03*
Y2950000D02*
D03*
X2770000Y2810000D02*
D03*
Y2710000D02*
D03*
Y3310000D02*
D03*
Y3210000D02*
D03*
Y3110000D02*
D03*
Y3010000D02*
D03*
Y2910000D02*
D03*
D39*
X1420000Y4902205D02*
D03*
Y5040000D02*
D03*
X1420000Y3095669D02*
D03*
Y3233465D02*
D03*
X1420000Y1450000D02*
D03*
Y1312205D02*
D03*
D40*
X4665000Y3697000D02*
D03*
X5375500Y1036000D02*
D03*
X2289500Y2733500D02*
D03*
D41*
X4670000Y1350000D02*
D03*
X2770000Y850000D02*
D03*
X4670000Y2250000D02*
D03*
X2770000Y1750000D02*
D03*
X4670000Y2450000D02*
D03*
X2770000Y2610000D02*
D03*
D42*
X3770000Y1645000D02*
D03*
Y1745000D02*
D03*
X3670000Y1645000D02*
D03*
Y1745000D02*
D03*
X3570000Y1645000D02*
D03*
Y1745000D02*
D03*
D43*
X2770000Y3650000D02*
D03*
X3370000Y1650000D02*
D03*
X4470000D02*
D03*
X4670000Y450000D02*
D03*
X2770000Y700000D02*
D03*
D44*
X110000Y3270000D02*
D03*
X120000Y1490000D02*
D03*
X110000Y5080000D02*
D03*
D45*
X1999134Y531968D02*
D03*
Y4121968D02*
D03*
X1999134Y2317402D02*
D03*
X3180000Y2030000D02*
D03*
X3160000Y1970000D02*
D03*
X4120000Y2350000D02*
D03*
X4090000Y2280000D02*
D03*
X4360000Y1900000D02*
D03*
X4150000Y1740000D02*
D03*
X2630000Y960000D02*
D03*
X1780000Y390000D02*
D03*
X2650000Y1020000D02*
D03*
X2490000Y2590000D02*
D03*
X2360000Y2530000D02*
D03*
X1780000Y2180000D02*
D03*
X2490000Y2700000D02*
D03*
X2460000Y2800000D02*
D03*
X2360000Y2590000D02*
D03*
X2480000Y2336250D02*
D03*
X2390000Y2430000D02*
D03*
Y2860000D02*
D03*
X1200000Y1490000D02*
D03*
Y3270000D02*
D03*
X1780000Y3990000D02*
D03*
X4500000Y4740000D02*
D03*
X4940000Y4850000D02*
D03*
X1200000Y4960000D02*
D03*
X310000Y1490000D02*
D03*
X100000Y1130000D02*
D03*
X130000D02*
D03*
X160000D02*
D03*
X900000Y810000D02*
D03*
X920000Y830000D02*
D03*
Y790000D02*
D03*
X940000Y810000D02*
D03*
X920000Y660000D02*
D03*
X1460000Y520000D02*
D03*
X520000Y770000D02*
D03*
X1530000Y800000D02*
D03*
X1930000Y590000D02*
D03*
Y390000D02*
D03*
X1640000Y440000D02*
D03*
Y900000D02*
D03*
X2130000Y670000D02*
D03*
X1580000Y520000D02*
D03*
X1240000Y740000D02*
D03*
X1570000Y610000D02*
D03*
X815000Y730000D02*
D03*
X1580000Y740000D02*
D03*
X810000Y1590000D02*
D03*
X1460000Y830000D02*
D03*
X190000Y1280000D02*
D03*
X2140000Y890000D02*
D03*
X1470000Y920000D02*
D03*
X1450000Y630000D02*
D03*
X100000Y4720000D02*
D03*
X130000D02*
D03*
X160000D02*
D03*
X900000Y4400000D02*
D03*
X920000Y4420000D02*
D03*
Y4380000D02*
D03*
X940000Y4400000D02*
D03*
X920000Y4250000D02*
D03*
X1460000Y4110000D02*
D03*
X520000Y4360000D02*
D03*
X1530000Y4390000D02*
D03*
X1930000Y4180000D02*
D03*
Y3980000D02*
D03*
X1640000Y4030000D02*
D03*
Y4490000D02*
D03*
X2130000Y4260000D02*
D03*
X1580000Y4110000D02*
D03*
X1240000Y4330000D02*
D03*
X1570000Y4200000D02*
D03*
X815000Y4320000D02*
D03*
X1580000Y4330000D02*
D03*
X810000Y5180000D02*
D03*
X1460000Y4420000D02*
D03*
X190000Y4870000D02*
D03*
X2140000Y4480000D02*
D03*
X1470000Y4510000D02*
D03*
X1450000Y4220000D02*
D03*
X310000Y5080000D02*
D03*
X920000Y2613465D02*
D03*
X1450000Y2413465D02*
D03*
X1470000Y2703465D02*
D03*
X2140000Y2673465D02*
D03*
X190000Y3063465D02*
D03*
X1460000Y2613465D02*
D03*
X810000Y3373465D02*
D03*
X1580000Y2523465D02*
D03*
X815000Y2513465D02*
D03*
X1570000Y2393465D02*
D03*
X1240000Y2523465D02*
D03*
X1580000Y2303465D02*
D03*
X2130000Y2453465D02*
D03*
X1640000Y2683465D02*
D03*
Y2223465D02*
D03*
X1930000Y2173465D02*
D03*
Y2373465D02*
D03*
X1530000Y2583465D02*
D03*
X520000Y2553465D02*
D03*
X920000Y2443465D02*
D03*
X1460000Y2303465D02*
D03*
X940000Y2593465D02*
D03*
X920000Y2573465D02*
D03*
X900000Y2593465D02*
D03*
X160000Y2913465D02*
D03*
X130000D02*
D03*
X100000D02*
D03*
X310000Y3273465D02*
D03*
%TF.MD5,6df20c7e3051023508ac58b1716a6b2a*%
M02*
